<?xml version="1.0" encoding="utf-8"?>
<!-- Generator: Adobe Illustrator 22.1.0, SVG Export Plug-In . SVG Version: 6.00 Build 0)  -->
<svg version="1.1" id="Layer_1" xmlns="http://www.w3.org/2000/svg" xmlns:xlink="http://www.w3.org/1999/xlink" x="0px" y="0px"
	 viewBox="0 0 720 720" style="enable-background:new 0 0 720 720;" xml:space="preserve">
<style type="text/css">
	.st0{fill:url(#Rectangle-Copy_1_);}
	.st1{fill:#FFFFFF;}
	.st2{display:none;fill:#ED1E24;stroke:#ED1E24;}
	.st3{fill:#C69977;}
</style>
<title>role</title>
<desc>Created with Sketch.</desc>
<g id="Page-1">
	<g id="Artboard-Copy">
		<g id="role">
			<g id="Group">
				
					<radialGradient id="Rectangle-Copy_1_" cx="1119.9431" cy="211.6806" r="0.707" gradientTransform="matrix(720 0 0 -720 -805999 152770)" gradientUnits="userSpaceOnUse">
					<stop  offset="0" style="stop-color:#FAFAFA"/>
					<stop  offset="1" style="stop-color:#EEEEEE"/>
				</radialGradient>
				<rect id="Rectangle-Copy" class="st0" width="720" height="720"/>
				<g id="Rectangle">
					<g>
						<rect id="path-2_2_" x="200" y="201" width="321" height="321"/>
					</g>
					<g>
						<rect id="path-2_1_" x="200" y="201" class="st1" width="321" height="321"/>
					</g>
				</g>
				<path id="uEA01-user" class="st2" d="M361,275c46.8,0,85,38.2,85,85s-38.2,85-85,85s-85-38.2-85-85S314.2,275,361,275z
					 M361,281.1c-43.4,0-78.9,35.5-78.9,78.9s35.5,78.9,78.9,78.9s78.9-35.5,78.9-78.9S404.4,281.1,361,281.1z M361,305.7
					c-12.2,0-21.5,9.3-21.5,21.5s9.3,21.5,21.5,21.5s21.5-9.3,21.5-21.5S373.2,305.7,361,305.7z M361,299.6
					c15.6,0,27.6,12,27.6,27.6s-12,27.6-27.6,27.6s-27.6-12-27.6-27.6S345.4,299.6,361,299.6z M361,415.9c18.4,0,35.5-9.2,46.1-24.1
					c-1.3-11.3-26.1-21.5-46.1-21.5s-44.8,10.2-46.1,21.5C325.5,406.8,342.6,415.9,361,415.9z M361,422.1
					c-20.8,0-40.1-10.6-51.7-27.6l-0.5-0.8v-0.9c0-16.4,28.7-28.5,52.2-28.5s52.2,12,52.2,28.5v0.9l-0.5,0.8
					C401.1,411.5,381.8,422.1,361,422.1z"/>
			</g>
		</g>
	</g>
</g>
<path class="st2" d="M308.8,392.8v0.9l0.5,0.8c11.6,17,30.9,27.6,51.7,27.6s40.1-10.6,51.7-27.6l0.5-0.8v-0.9
	c0-16.5-28.7-28.5-52.2-28.5S308.8,376.4,308.8,392.8z M407.1,391.8c-10.6,14.9-27.7,24.1-46.1,24.1s-35.5-9.1-46.1-24.1
	c1.3-11.3,26.1-21.5,46.1-21.5S405.8,380.5,407.1,391.8z"/>
<path class="st2" d="M361,299.6c-15.6,0-27.6,12-27.6,27.6s12,27.6,27.6,27.6s27.6-12,27.6-27.6S376.6,299.6,361,299.6z M361,348.7
	c-12.2,0-21.5-9.3-21.5-21.5s9.3-21.5,21.5-21.5s21.5,9.3,21.5,21.5S373.2,348.7,361,348.7z"/>
<path class="st3" d="M467.8,300.5c9.5,0,17.2,7.7,17.2,17.2s-7.7,17.2-17.2,17.2s-17.2-7.7-17.2-17.2
	C450.6,308.2,458.3,300.5,467.8,300.5 M467.8,295.6c-12.2,0-22.1,9.9-22.1,22.1s9.9,22.1,22.1,22.1s22.1-9.9,22.1-22.1
	S480,295.6,467.8,295.6z M374.8,411.1l44.9-42.6c1-0.9,1-2.5,0.1-3.5c-0.9-1-2.5-1-3.5-0.1L375,404.1c-1.3-9.2-5.8-29.8-19.9-50.9
	c-10.9-16.4-25.5-29.7-43.2-39.5c-22-12.2-49.1-19-80.3-20.3c-1.4-0.1-2.5,1-2.6,2.4c-0.1,1.4,1,2.5,2.4,2.6
	c30.4,1.2,56.6,7.8,78,19.6c17,9.4,31,22.1,41.5,37.8c18,26.8,19.8,53.4,19.8,53.7c0.1,1.4,1.2,2.4,2.6,2.3
	C373.8,411.7,374.4,411.5,374.8,411.1L374.8,411.1z M429.2,358.6L446,343c1-0.9,1.1-2.5,0.1-3.5s-2.5-1.1-3.5-0.1l-16.8,15.6
	c-1,0.9-1.1,2.5-0.1,3.5C426.7,359.4,428.2,359.5,429.2,358.6L429.2,358.6z M428.6,333.6l9.8-8.9c1-0.9,1.1-2.5,0.2-3.5
	s-2.5-1.1-3.5-0.2l0,0l-9.8,8.9c-1,0.9-1.1,2.5-0.2,3.5S427.6,334.5,428.6,333.6z M454.5,359.5l9.8-8.9c1-0.9,1.1-2.5,0.2-3.5
	c-0.9-1-2.5-1.1-3.5-0.2l-9.8,8.9c-1,0.9-1.1,2.5-0.2,3.5S453.5,360.4,454.5,359.5z M365.9,410.8c0.8-1.1,0.6-2.6-0.5-3.4l0,0
	l-10.6-8c-1.1-0.8-2.6-0.6-3.4,0.5c-0.8,1.1-0.6,2.6,0.5,3.4c0,0,0,0,0,0l10.6,8C363.5,412.1,365.1,411.8,365.9,410.8L365.9,410.8
	L365.9,410.8z M387.7,411.2l10.2-8.5c1.1-0.8,1.3-2.4,0.5-3.4c-0.8-1.1-2.4-1.3-3.4-0.5c-0.1,0-0.1,0.1-0.2,0.1l-10.2,8.5
	c-1,0.9-1.1,2.5-0.2,3.5C385.2,411.8,386.6,411.9,387.7,411.2z M411.1,416.2c0-1.4-1.1-2.5-2.5-2.5l0,0h-68.3
	c-1.4,0-2.5,1.1-2.5,2.5s1.1,2.5,2.5,2.5h68.3C410,418.7,411.1,417.6,411.1,416.2L411.1,416.2z M433.2,426.7c0-1.4-1.1-2.5-2.5-2.5
	l0,0h-68.3c-1.4,0-2.5,1.1-2.5,2.5s1.1,2.5,2.5,2.5h68.3C432.1,429.2,433.2,428.1,433.2,426.7L433.2,426.7z M450.4,416.2
	c0-1.4-1.1-2.5-2.5-2.5l0,0h-31.3c-1.4,0-2.5,1.1-2.5,2.5s1.1,2.5,2.5,2.5h31.3C449.3,418.7,450.4,417.6,450.4,416.2L450.4,416.2z
	 M354.6,427.2c0-1.4-1.1-2.5-2.5-2.5l0,0h-31.3c-1.4,0-2.5,1.1-2.5,2.5c0,1.4,1.1,2.5,2.5,2.5h31.3
	C353.5,429.6,354.6,428.5,354.6,427.2L354.6,427.2z M330.4,416.2c0-1.4-1.1-2.5-2.5-2.5l0,0h-26.4c-1.4,0-2.5,1.1-2.5,2.5
	s1.1,2.5,2.5,2.5H328C329.3,418.7,330.4,417.6,330.4,416.2L330.4,416.2z"/>
</svg>
