<?xml version="1.0" encoding="utf-8"?>
<!-- Generator: Adobe Illustrator 22.1.0, SVG Export Plug-In . SVG Version: 6.00 Build 0)  -->
<svg version="1.1" id="Layer_1" xmlns="http://www.w3.org/2000/svg" xmlns:xlink="http://www.w3.org/1999/xlink" x="0px" y="0px"
	 viewBox="0 0 720 720" style="enable-background:new 0 0 720 720;" xml:space="preserve">
<style type="text/css">
	.st0{fill:url(#Rectangle-Copy_1_);}
	.st1{fill:#FFFFFF;}
	.st2{display:none;fill:#ED1E24;stroke:#ED1E24;}
	.st3{fill:#C69977;}
</style>
<title>role</title>
<desc>Created with Sketch.</desc>
<g id="Page-1">
	<g id="Artboard-Copy">
		<g id="role">
			<g id="Group">
				
					<radialGradient id="Rectangle-Copy_1_" cx="1119.9431" cy="211.6806" r="0.707" gradientTransform="matrix(720 0 0 -720 -805999 152770)" gradientUnits="userSpaceOnUse">
					<stop  offset="0" style="stop-color:#FAFAFA"/>
					<stop  offset="1" style="stop-color:#EEEEEE"/>
				</radialGradient>
				<rect id="Rectangle-Copy" class="st0" width="720" height="720"/>
				<g id="Rectangle">
					<g>
						<rect id="path-2_2_" x="200" y="201" width="321" height="321"/>
					</g>
					<g>
						<rect id="path-2_1_" x="200" y="201" class="st1" width="321" height="321"/>
					</g>
				</g>
				<path id="uEA01-user" class="st2" d="M361,275c46.8,0,85,38.2,85,85s-38.2,85-85,85s-85-38.2-85-85S314.2,275,361,275z
					 M361,281.1c-43.4,0-78.9,35.5-78.9,78.9s35.5,78.9,78.9,78.9s78.9-35.5,78.9-78.9S404.4,281.1,361,281.1z M361,305.7
					c-12.2,0-21.5,9.3-21.5,21.5s9.3,21.5,21.5,21.5s21.5-9.3,21.5-21.5S373.2,305.7,361,305.7z M361,299.6
					c15.6,0,27.6,12,27.6,27.6s-12,27.6-27.6,27.6s-27.6-12-27.6-27.6S345.4,299.6,361,299.6z M361,415.9c18.4,0,35.5-9.2,46.1-24.1
					c-1.3-11.3-26.1-21.5-46.1-21.5s-44.8,10.2-46.1,21.5C325.5,406.8,342.6,415.9,361,415.9z M361,422.1
					c-20.8,0-40.1-10.6-51.7-27.6l-0.5-0.8v-0.9c0-16.4,28.7-28.5,52.2-28.5s52.2,12,52.2,28.5v0.9l-0.5,0.8
					C401.1,411.5,381.8,422.1,361,422.1z"/>
			</g>
		</g>
	</g>
</g>
<path class="st2" d="M308.8,392.8v0.9l0.5,0.8c11.6,17,30.9,27.6,51.7,27.6s40.1-10.6,51.7-27.6l0.5-0.8v-0.9
	c0-16.5-28.7-28.5-52.2-28.5S308.8,376.4,308.8,392.8z M407.1,391.8c-10.6,14.9-27.7,24.1-46.1,24.1s-35.5-9.1-46.1-24.1
	c1.3-11.3,26.1-21.5,46.1-21.5S405.8,380.5,407.1,391.8z"/>
<path class="st2" d="M361,299.6c-15.6,0-27.6,12-27.6,27.6s12,27.6,27.6,27.6s27.6-12,27.6-27.6S376.6,299.6,361,299.6z M361,348.7
	c-12.2,0-21.5-9.3-21.5-21.5s9.3-21.5,21.5-21.5s21.5,9.3,21.5,21.5S373.2,348.7,361,348.7z"/>
<g>
	<path class="st3" d="M370.8,289.2c13,0,23.6-10.6,23.6-23.6c0-13-10.6-23.6-23.6-23.6c-13,0-23.6,10.6-23.6,23.6
		C347.2,278.6,357.8,289.2,370.8,289.2z M370.8,248.2c9.6,0,17.4,7.8,17.4,17.4c0,9.6-7.8,17.4-17.4,17.4c-9.6,0-17.4-7.8-17.4-17.4
		C353.5,256,361.3,248.2,370.8,248.2z"/>
	<path class="st3" d="M448.7,399h-33l-5.9-22c2.9-2.3,4.8-5.8,4.8-9.6c0-2.7-0.9-5.3-2.5-7.4c-0.1-0.1-0.2-0.2-0.2-0.3L390,337.5
		l-15.7-33l-0.2-0.3c-2.4-5.3-6.9-9.3-12.5-11.1l-9.5-2.8c-7.2-3.2-16-1.8-22,3.7l-35.3,35c-0.4,0.4-0.7,0.9-0.8,1.5l-9.1,36.6
		c-0.6,1.4-0.9,3-0.9,4.5c0,6.7,5.5,12.2,12.2,12.2c5.7,0,10.7-4,11.9-9.6l8.1-31l5.3-5.3l-5.1,19.9c0,0-0.1,0.3-0.1,0.4
		c0,0.2-0.1,0.4-0.1,0.5l-2.8,54.8l-26.6,38.2l-3.2,4.4c-0.1,0.2-0.3,0.4-0.4,0.7c-0.6,1.5-0.9,3.2-0.9,4.9
		c0,7.5,6.1,13.6,13.6,13.6c4.1,0,7.9-1.8,10.6-5.2l29.8-44l2.8-4c0.1-0.1,0.2-0.3,0.3-0.5c0.2-0.4,0.3-0.8,0.3-1.2l2.3-29.5
		l13.4,28.6l15.7,48.9l1,2.9c0.1,0.3,0.2,0.5,0.4,0.7c0.2,0.2,4.3,6.1,11.6,6.1c7.5,0,13.6-6.1,13.6-13.6c0-1.3-0.2-2.2-0.2-2.2
		c0-0.1,0-0.2-0.1-0.3l-5.4-18.5h47.7c1.6,0,2.9-1.2,3.1-2.8l3.2-30.4h2.8c1.7,0,3.1-1.4,3.1-3.1v-5
		C451.8,400.4,450.4,399,448.7,399z M375.7,399l-15.5-34l4.6-24l7.5,12.8c0.1,0.2,0.5,0.6,0.7,0.8l19.9,20.3
		c0.1,0.1,0.2,0.2,0.3,0.3l0.9,0.9c1.4,1.3,2.9,2.2,4.6,2.7l5.4,20L375.7,399L375.7,399z M383.9,471.8c-3.4,0-5.6-2.3-6.3-3.1
		l-16.5-51.3l-18.5-39.5l-0.2-0.5c-0.6-1.3-2-1.9-3.4-1.7c-1.4,0.3-2.4,1.5-2.5,2.9l-2.6,35.4l-0.4,5.1l-32,47.2
		c-1.4,1.7-3.4,2.7-5.7,2.7c-4.1,0-7.4-3.3-7.4-7.4c0-0.8,0.1-1.5,0.4-2.3l30.2-43.1c0.3-0.5,0.5-1,0.6-1.6l2.9-55.4l7.9-30.8
		c0.3-1.4-0.3-2.8-1.5-3.5c-1.2-0.7-2.8-0.5-3.7,0.5l-13.9,13.9c-0.4,0.4-0.7,0.9-0.8,1.4l-8.3,32.1c-0.6,2.7-3.1,4.7-5.8,4.7
		c-3.3,0-6-2.7-6-6c0-0.8,0.1-1.5,0.4-2.2c0.1-0.2,0.2-0.4,0.2-0.6l9-36l33.9-33.7l0.7-0.7c4-3.7,10.1-4.7,15-2.5
		c0.2,0.1,0.4,0.2,0.6,0.3l9.8,2.9c3.8,1.2,7,4,8.6,7.7l16,33.5l0.2,0.4c0.1,0.3,0.3,0.5,0.6,0.8l22,22.4c0.7,1,1.1,2.2,1.1,3.4
		c0,1.1-0.3,2.1-0.8,3c-0.1-0.1-0.3-0.2-0.5-0.3c-0.7-0.4-1.6-0.5-2.4-0.3l-4.8,1.3c-0.4,0.1-0.7,0.3-1,0.5c-0.1,0-0.1,0.1-0.2,0.1
		c-0.1,0-0.1,0.1-0.2,0.1c0,0,0,0-0.1-0.1l-0.7-0.7c-0.1-0.1-0.2-0.2-0.2-0.3l-20-20.4L366,330.7c-0.7-1.1-1.9-1.7-3.2-1.5
		c-1.3,0.2-2.3,1.2-2.5,2.5l-6.4,33.1c-0.1,0.6,0,1.3,0.2,1.9l16.7,36.7l2.3,5c0,0,0,0,0,0l1.6,3.5c0,0.1,0.1,0.4,0.2,0.5l9.7,28.8
		l6.5,22.2c0,0.2,0.1,0.6,0.1,1C391.2,468.5,387.9,471.8,383.9,471.8z M436.7,437.2h-46.8l-1.8-5.4c0.5,0.4,1.2,0.8,2,0.8
		c1.7,0,3.1-1.4,3.1-3.1v-13.9c0-1.7-1.4-3.1-3.1-3.1c-1.7,0-3.1,1.4-3.1,3.1v12.8l-6.1-18c0,0,0-0.1-0.1-0.2h26.6
		c0.6,0.7,1.5,1.2,2.4,1.2c0.3,0,0.5,0,0.8-0.1l4-1.1h25L436.7,437.2z"/>
	<path class="st3" d="M400.6,412.4c-1.7,0-3.1,1.4-3.1,3.1v13.9c0,1.7,1.4,3.1,3.1,3.1c1.7,0,3.1-1.4,3.1-3.1v-13.9
		C403.7,413.8,402.3,412.4,400.6,412.4z"/>
	<path class="st3" d="M411.1,412.4c-1.7,0-3.1,1.4-3.1,3.1v13.9c0,1.7,1.4,3.1,3.1,3.1c1.7,0,3.1-1.4,3.1-3.1v-13.9
		C414.3,413.8,412.9,412.4,411.1,412.4z"/>
	<path class="st3" d="M421.7,432.6c1.7,0,3.1-1.4,3.1-3.1v-13.9c0-1.7-1.4-3.1-3.1-3.1c-1.7,0-3.1,1.4-3.1,3.1v13.9
		C418.6,431.2,420,432.6,421.7,432.6z"/>
	<path class="st3" d="M432.2,432.6c1.7,0,3.1-1.4,3.1-3.1v-13.9c0-1.7-1.4-3.1-3.1-3.1c-1.7,0-3.1,1.4-3.1,3.1v13.9
		C429.1,431.2,430.5,432.6,432.2,432.6z"/>
</g>
</svg>
