<?xml version="1.0" encoding="utf-8"?>
<!-- Generator: Adobe Illustrator 22.1.0, SVG Export Plug-In . SVG Version: 6.00 Build 0)  -->
<svg version="1.1" id="Layer_1" xmlns="http://www.w3.org/2000/svg" xmlns:xlink="http://www.w3.org/1999/xlink" x="0px" y="0px"
	 viewBox="0 0 720 720" style="enable-background:new 0 0 720 720;" xml:space="preserve">
<style type="text/css">
	.st0{fill:url(#Rectangle-Copy_1_);}
	.st1{fill:#FFFFFF;}
	.st2{display:none;fill:#ED1E24;stroke:#ED1E24;}
	.st3{fill:#C69977;}
</style>
<title>role</title>
<desc>Created with Sketch.</desc>
<g id="Page-1">
	<g id="Artboard-Copy">
		<g id="role">
			<g id="Group">
				
					<radialGradient id="Rectangle-Copy_1_" cx="1119.9431" cy="211.6806" r="0.707" gradientTransform="matrix(720 0 0 -720 -805999 152770)" gradientUnits="userSpaceOnUse">
					<stop  offset="0" style="stop-color:#FAFAFA"/>
					<stop  offset="1" style="stop-color:#EEEEEE"/>
				</radialGradient>
				<rect id="Rectangle-Copy" class="st0" width="720" height="720"/>
				<g id="Rectangle">
					<g>
						<rect id="path-2_2_" x="200" y="201" width="321" height="321"/>
					</g>
					<g>
						<rect id="path-2_1_" x="200" y="201" class="st1" width="321" height="321"/>
					</g>
				</g>
				<path id="uEA01-user" class="st2" d="M361,275c46.8,0,85,38.2,85,85s-38.2,85-85,85s-85-38.2-85-85S314.2,275,361,275z
					 M361,281.1c-43.4,0-78.9,35.5-78.9,78.9s35.5,78.9,78.9,78.9s78.9-35.5,78.9-78.9S404.4,281.1,361,281.1z M361,305.7
					c-12.2,0-21.5,9.3-21.5,21.5s9.3,21.5,21.5,21.5s21.5-9.3,21.5-21.5S373.2,305.7,361,305.7z M361,299.6
					c15.6,0,27.6,12,27.6,27.6s-12,27.6-27.6,27.6s-27.6-12-27.6-27.6S345.4,299.6,361,299.6z M361,415.9c18.4,0,35.5-9.2,46.1-24.1
					c-1.3-11.3-26.1-21.5-46.1-21.5s-44.8,10.2-46.1,21.5C325.5,406.8,342.6,415.9,361,415.9z M361,422.1
					c-20.8,0-40.1-10.6-51.7-27.6l-0.5-0.8v-0.9c0-16.4,28.7-28.5,52.2-28.5s52.2,12,52.2,28.5v0.9l-0.5,0.8
					C401.1,411.5,381.8,422.1,361,422.1z"/>
			</g>
		</g>
	</g>
</g>
<path class="st2" d="M308.8,392.8v0.9l0.5,0.8c11.6,17,30.9,27.6,51.7,27.6s40.1-10.6,51.7-27.6l0.5-0.8v-0.9
	c0-16.5-28.7-28.5-52.2-28.5S308.8,376.4,308.8,392.8z M407.1,391.8c-10.6,14.9-27.7,24.1-46.1,24.1s-35.5-9.1-46.1-24.1
	c1.3-11.3,26.1-21.5,46.1-21.5S405.8,380.5,407.1,391.8z"/>
<path class="st2" d="M361,299.6c-15.6,0-27.6,12-27.6,27.6s12,27.6,27.6,27.6s27.6-12,27.6-27.6S376.6,299.6,361,299.6z M361,348.7
	c-12.2,0-21.5-9.3-21.5-21.5s9.3-21.5,21.5-21.5s21.5,9.3,21.5,21.5S373.2,348.7,361,348.7z"/>
<g>
	<path class="st3" d="M352.4,388.4c-4.8,0-8.8,3.9-8.8,8.8c0,4.8,3.9,8.8,8.8,8.8c4.8,0,8.8-3.9,8.8-8.8
		C361.2,392.4,357.3,388.4,352.4,388.4z M352.4,401.1c-2.1,0-3.9-1.7-3.9-3.9c0-2.1,1.7-3.9,3.9-3.9c2.1,0,3.9,1.7,3.9,3.9
		C356.3,399.4,354.6,401.1,352.4,401.1z"/>
	<path class="st3" d="M470,360.9h-15.9v-76.4c0-6.8-5.5-12.4-12.4-12.4H271c-6.8,0-12.4,5.5-12.4,12.4v115.4
		c0,6.8,5.5,12.3,12.4,12.3h61c-0.8,4.7-3.5,14.7-11.2,20.4c-0.9,0.6-1.2,1.7-0.9,2.7c0.3,1,1.3,1.7,2.3,1.7h60.4
		c1.1,0,2-0.7,2.3-1.7c0.3-1,0-2.1-0.9-2.7c-7.7-5.6-10.4-15.6-11.2-20.4h38.9v44c0,1.4,1.1,2.5,2.5,2.5H470c1.4,0,2.5-1.1,2.5-2.5
		v-93C472.4,362,471.3,360.9,470,360.9z M416.7,440.9v-62.2h50.8v62.2H416.7z M467.5,373.8h-50.8v-8h50.8L467.5,373.8L467.5,373.8z
		 M271,277h170.7c4.1,0,7.4,3.3,7.4,7.4v76.4h-34.9c-1.4,0-2.5,1.1-2.5,2.5v18.8H263.6v-97.7C263.6,280.4,266.9,277,271,277z
		 M376.4,432.2h-48c5.9-7,7.9-15.8,8.6-19.9h30.8C368.5,416.4,370.5,425.2,376.4,432.2z M271,407.3c-4.1,0-7.4-3.3-7.4-7.4V387
		h148.2v20.3L271,407.3L271,407.3z M416.7,445.8h21c-0.4,0.4-0.6,1-0.6,1.6v5.1c0,0.5,0.2,1,0.4,1.4h-20.8L416.7,445.8L416.7,445.8z
		 M446.7,453.8c0.3-0.4,0.4-0.9,0.4-1.4v-5.1c0-0.6-0.2-1.2-0.6-1.6h21v8L446.7,453.8L446.7,453.8z"/>
	<path class="st3" d="M434.6,372.6h15c1.4,0,2.5-1.1,2.5-2.5c0-1.4-1.1-2.5-2.5-2.5h-15c-1.4,0-2.5,1.1-2.5,2.5
		C432.2,371.5,433.3,372.6,434.6,372.6z"/>
</g>
</svg>
