<?xml version="1.0" encoding="utf-8"?>
<!-- Generator: Adobe Illustrator 22.1.0, SVG Export Plug-In . SVG Version: 6.00 Build 0)  -->
<svg version="1.1" id="Layer_1" xmlns="http://www.w3.org/2000/svg" xmlns:xlink="http://www.w3.org/1999/xlink" x="0px" y="0px"
	 viewBox="0 0 720 720" style="enable-background:new 0 0 720 720;" xml:space="preserve">
<style type="text/css">
	.st0{fill:url(#Rectangle-Copy_1_);}
	.st1{fill:#FFFFFF;}
	.st2{display:none;fill:#ED1E24;stroke:#ED1E24;}
	.st3{fill:#C69977;}
</style>
<title>role</title>
<desc>Created with Sketch.</desc>
<g id="Page-1">
	<g id="Artboard-Copy">
		<g id="role">
			<g id="Group">
				
					<radialGradient id="Rectangle-Copy_1_" cx="1119.9431" cy="211.6806" r="0.707" gradientTransform="matrix(720 0 0 -720 -805999 152770)" gradientUnits="userSpaceOnUse">
					<stop  offset="0" style="stop-color:#FAFAFA"/>
					<stop  offset="1" style="stop-color:#EEEEEE"/>
				</radialGradient>
				<rect id="Rectangle-Copy" class="st0" width="720" height="720"/>
				<g id="Rectangle">
					<g>
						<rect id="path-2_2_" x="200" y="201" width="321" height="321"/>
					</g>
					<g>
						<rect id="path-2_1_" x="200" y="201" class="st1" width="321" height="321"/>
					</g>
				</g>
				<path id="uEA01-user" class="st2" d="M361,275c46.8,0,85,38.2,85,85s-38.2,85-85,85s-85-38.2-85-85S314.2,275,361,275z
					 M361,281.1c-43.4,0-78.9,35.5-78.9,78.9s35.5,78.9,78.9,78.9s78.9-35.5,78.9-78.9S404.4,281.1,361,281.1z M361,305.7
					c-12.2,0-21.5,9.3-21.5,21.5s9.3,21.5,21.5,21.5s21.5-9.3,21.5-21.5S373.2,305.7,361,305.7z M361,299.6
					c15.6,0,27.6,12,27.6,27.6s-12,27.6-27.6,27.6s-27.6-12-27.6-27.6S345.4,299.6,361,299.6z M361,415.9c18.4,0,35.5-9.2,46.1-24.1
					c-1.3-11.3-26.1-21.5-46.1-21.5s-44.8,10.2-46.1,21.5C325.5,406.8,342.6,415.9,361,415.9z M361,422.1
					c-20.8,0-40.1-10.6-51.7-27.6l-0.5-0.8v-0.9c0-16.4,28.7-28.5,52.2-28.5s52.2,12,52.2,28.5v0.9l-0.5,0.8
					C401.1,411.5,381.8,422.1,361,422.1z"/>
			</g>
		</g>
	</g>
</g>
<path class="st2" d="M308.8,392.8v0.9l0.5,0.8c11.6,17,30.9,27.6,51.7,27.6s40.1-10.6,51.7-27.6l0.5-0.8v-0.9
	c0-16.5-28.7-28.5-52.2-28.5S308.8,376.4,308.8,392.8z M407.1,391.8c-10.6,14.9-27.7,24.1-46.1,24.1s-35.5-9.1-46.1-24.1
	c1.3-11.3,26.1-21.5,46.1-21.5S405.8,380.5,407.1,391.8z"/>
<path class="st2" d="M361,299.6c-15.6,0-27.6,12-27.6,27.6s12,27.6,27.6,27.6s27.6-12,27.6-27.6S376.6,299.6,361,299.6z M361,348.7
	c-12.2,0-21.5-9.3-21.5-21.5s9.3-21.5,21.5-21.5s21.5,9.3,21.5,21.5S373.2,348.7,361,348.7z"/>
<path class="st3" d="M466.1,375L349.4,258.3L305,302.7l-7.6-3.1l-24.1,57.8h-7.9v19.3l-7.6,18.2l7.6,3.1v62.6h165.2v-50.2L466.1,375
	z M389.7,337.5c-0.3-0.7-0.7-1-1.4-1.4c-4.1-4.1-9.6-5.8-15.1-5.2l-17.5-7.2c-0.3-3.4-1.7-6.5-4.1-9.3c-5.5-5.5-13.8-5.5-19.3-0.3
	l-6.9-2.8l9.6-9.6c8.6,6.5,20.3,6.5,28.9,0l43,43L389.7,337.5z M347.4,320.3l-6.9-2.8c2.1-0.3,4.5,0,6.2,2.1
	C347,319.6,347.4,319.9,347.4,320.3z M441.3,366.4l-10.7,25.5v-29.9L441.3,366.4z M437.2,394.2l11.4-27.5l7.9,7.9L437.2,394.2z
	 M349.4,268l90.2,90.2l-15.8-6.5l-59.9-59.2l-2.4,2.4c-6.5,6.5-17.5,6.5-24.4,0l-2.4-2.4l-15.8,15.8l-6.9-2.8L349.4,268z
	 M301.3,308.6l118.4,48.9h-18.2l-77.4-32l-1.4,3.1c-3.8,8.6-13.8,13.1-22.4,9.3l-3.1-1.4l-8.6,21H281L301.3,308.6z M365.3,357.4
	c-0.7-0.3-1.4-0.7-2.1-1c-5.5-2.4-11.4-1.7-16.5,1h-18.6c-1.4-3.1-3.8-5.8-7.2-7.6c-6.9-2.8-15.1,0.3-17.9,7.6h-7.2l5.2-12
	c10.3,2.8,21.3-1.7,26.5-11l56.1,23.1H365.3z M320.2,357.4h-8.6c1.7-1.4,4.5-2.1,6.9-1C319.1,356.7,319.8,357.1,320.2,357.4z
	 M423.8,453.8H272.4v-89.5h151.4V453.8z"/>
</svg>
