<?xml version="1.0" encoding="utf-8"?>
<!-- Generator: Adobe Illustrator 21.1.0, SVG Export Plug-In . SVG Version: 6.00 Build 0)  -->
<svg version="1.1" id="Layer_1" xmlns="http://www.w3.org/2000/svg" xmlns:xlink="http://www.w3.org/1999/xlink" x="0px" y="0px"
	 viewBox="0 0 720 720" style="enable-background:new 0 0 720 720;" xml:space="preserve">
<style type="text/css">
	.st0{fill:url(#Rectangle-Copy_1_);}
	.st1{fill:#FFFFFF;}
	.st2{display:none;fill:#ED1E24;stroke:#ED1E24;}
	.st3{fill:#C69977;}
</style>
<title>role</title>
<desc>Created with Sketch.</desc>
<g id="Page-1">
	<g id="Artboard-Copy">
		<g id="role">
			<g id="Group">
				
					<radialGradient id="Rectangle-Copy_1_" cx="1084.9917" cy="454.2444" r="0.707" gradientTransform="matrix(720 0 0 720 -780834 -326696)" gradientUnits="userSpaceOnUse">
					<stop  offset="0" style="stop-color:#FAFAFA"/>
					<stop  offset="1" style="stop-color:#EEEEEE"/>
				</radialGradient>
				<rect id="Rectangle-Copy" class="st0" width="720" height="720"/>
				<g id="Rectangle">
					<g>
						<rect id="path-2_2_" x="200" y="201" width="321" height="321"/>
					</g>
					<g>
						<rect id="path-2_1_" x="200" y="201" class="st1" width="321" height="321"/>
					</g>
				</g>
				<path id="uEA01-user" class="st2" d="M361,275c46.8,0,85,38.2,85,85s-38.2,85-85,85s-85-38.2-85-85S314.2,275,361,275z
					 M361,281.1c-43.4,0-78.9,35.5-78.9,78.9s35.5,78.9,78.9,78.9s78.9-35.5,78.9-78.9S404.4,281.1,361,281.1z M361,305.7
					c-12.2,0-21.5,9.3-21.5,21.5s9.3,21.5,21.5,21.5s21.5-9.3,21.5-21.5S373.2,305.7,361,305.7z M361,299.6
					c15.6,0,27.6,12,27.6,27.6s-12,27.6-27.6,27.6s-27.6-12-27.6-27.6S345.4,299.6,361,299.6z M361,415.9c18.4,0,35.5-9.2,46.1-24.1
					c-1.3-11.3-26.1-21.5-46.1-21.5s-44.8,10.2-46.1,21.5C325.5,406.8,342.6,415.9,361,415.9z M361,422.1
					c-20.8,0-40.1-10.6-51.7-27.6l-0.5-0.8v-0.9c0-16.4,28.7-28.5,52.2-28.5s52.2,12,52.2,28.5v0.9l-0.5,0.8
					C401.1,411.5,381.8,422.1,361,422.1z"/>
			</g>
		</g>
	</g>
</g>
<path class="st2" d="M308.8,392.8v0.9l0.5,0.8c11.6,17,30.9,27.6,51.7,27.6s40.1-10.6,51.7-27.6l0.5-0.8v-0.9
	c0-16.5-28.7-28.5-52.2-28.5S308.8,376.4,308.8,392.8z M407.1,391.8c-10.6,14.9-27.7,24.1-46.1,24.1s-35.5-9.1-46.1-24.1
	c1.3-11.3,26.1-21.5,46.1-21.5S405.8,380.5,407.1,391.8z"/>
<path class="st2" d="M361,299.6c-15.6,0-27.6,12-27.6,27.6s12,27.6,27.6,27.6s27.6-12,27.6-27.6S376.6,299.6,361,299.6z M361,348.7
	c-12.2,0-21.5-9.3-21.5-21.5s9.3-21.5,21.5-21.5s21.5,9.3,21.5,21.5S373.2,348.7,361,348.7z"/>
<g transform="translate(0,-284.29999)">
	<path class="st3" d="M358.5,547.5c-1,0-1.9,0.3-2.7,0.8l-26.6,18.2H292c-2.6,0-4.8,2.1-4.8,4.8v24l-21.1,14.4c-1.9,0.9-3,3-2.7,5
		c0,37.9,0,75.9,0,113.8c0,4.7,4,8.7,8.7,8.7h172.8c4.7,0,8.7-4,8.7-8.7V614.3c0.1-1.7-0.8-3.4-2.3-4.3l-21.5-14.7v-24
		c0-2.6-2.1-4.8-4.8-4.8h-37.3l-26.6-18.2C360.4,547.8,359.5,547.5,358.5,547.5L358.5,547.5z M358.5,558l12.4,8.5h-24.9L358.5,558z
		 M296.7,576h33.1c0.5,0.1,1,0.1,1.5,0h54.3c0.5,0.1,1,0.1,1.5,0h33.2v21c-0.1,0.5-0.1,1,0,1.5v31.8c0,0.1,0,0.1,0,0.2l-61.8,48.8
		l-61.8-48.8c0-0.1,0-0.1,0-0.2v-31.6c0.1-0.6,0.1-1.3,0-1.9V576z M310.5,595.1c-2.6,0.1-4.7,2.4-4.5,5c0.1,2.6,2.4,4.7,5,4.5l0,0
		h95.1c2.6,0,4.8-2.1,4.8-4.8c0-2.6-2.1-4.8-4.8-4.8H311C310.8,595.1,310.7,595.1,310.5,595.1z M287.2,606.8V623l-11-8.7
		L287.2,606.8z M429.8,606.8l11,7.5l-11,8.7V606.8z M330,623.6c-2.6,0.1-4.7,2.2-4.7,4.9c0.1,2.5,2.1,4.6,4.7,4.7h57.1
		c2.6-0.1,4.7-2.2,4.7-4.9c-0.1-2.5-2.1-4.6-4.7-4.7H330z M273,623.9l82.6,65.2c1.7,1.4,4.2,1.4,5.9,0l82.6-65.2v103.9H273
		C273,693.2,273,658.5,273,623.9z"/>
</g>
</svg>
