<?xml version="1.0" encoding="utf-8"?>
<!-- Generator: Adobe Illustrator 21.1.0, SVG Export Plug-In . SVG Version: 6.00 Build 0)  -->
<svg version="1.1" id="Layer_1" xmlns="http://www.w3.org/2000/svg" xmlns:xlink="http://www.w3.org/1999/xlink" x="0px" y="0px"
	 viewBox="0 0 720 720" style="enable-background:new 0 0 720 720;" xml:space="preserve">
<style type="text/css">
	.st0{fill:url(#Rectangle-Copy_1_);}
	.st1{fill:#FFFFFF;}
	.st2{display:none;fill:#ED1E24;stroke:#ED1E24;}
	.st3{fill:#C69977;}
</style>
<title>role</title>
<desc>Created with Sketch.</desc>
<g id="Page-1">
	<g id="Artboard-Copy">
		<g id="role">
			<g id="Group">
				
					<radialGradient id="Rectangle-Copy_1_" cx="1084.9917" cy="454.2444" r="0.707" gradientTransform="matrix(720 0 0 720 -780834 -326696)" gradientUnits="userSpaceOnUse">
					<stop  offset="0" style="stop-color:#FAFAFA"/>
					<stop  offset="1" style="stop-color:#EEEEEE"/>
				</radialGradient>
				<rect id="Rectangle-Copy" class="st0" width="720" height="720"/>
				<g id="Rectangle">
					<g>
						<rect id="path-2_2_" x="200" y="201" width="321" height="321"/>
					</g>
					<g>
						<rect id="path-2_1_" x="200" y="201" class="st1" width="321" height="321"/>
					</g>
				</g>
				<path id="uEA01-user" class="st2" d="M361,275c46.8,0,85,38.2,85,85s-38.2,85-85,85s-85-38.2-85-85S314.2,275,361,275z
					 M361,281.1c-43.4,0-78.9,35.5-78.9,78.9s35.5,78.9,78.9,78.9s78.9-35.5,78.9-78.9S404.4,281.1,361,281.1z M361,305.7
					c-12.2,0-21.5,9.3-21.5,21.5s9.3,21.5,21.5,21.5s21.5-9.3,21.5-21.5S373.2,305.7,361,305.7z M361,299.6
					c15.6,0,27.6,12,27.6,27.6s-12,27.6-27.6,27.6s-27.6-12-27.6-27.6S345.4,299.6,361,299.6z M361,415.9c18.4,0,35.5-9.2,46.1-24.1
					c-1.3-11.3-26.1-21.5-46.1-21.5s-44.8,10.2-46.1,21.5C325.5,406.8,342.6,415.9,361,415.9z M361,422.1
					c-20.8,0-40.1-10.6-51.7-27.6l-0.5-0.8v-0.9c0-16.4,28.7-28.5,52.2-28.5s52.2,12,52.2,28.5v0.9l-0.5,0.8
					C401.1,411.5,381.8,422.1,361,422.1z"/>
			</g>
		</g>
	</g>
</g>
<path class="st2" d="M308.8,392.8v0.9l0.5,0.8c11.6,17,30.9,27.6,51.7,27.6s40.1-10.6,51.7-27.6l0.5-0.8v-0.9
	c0-16.5-28.7-28.5-52.2-28.5S308.8,376.4,308.8,392.8z M407.1,391.8c-10.6,14.9-27.7,24.1-46.1,24.1s-35.5-9.1-46.1-24.1
	c1.3-11.3,26.1-21.5,46.1-21.5S405.8,380.5,407.1,391.8z"/>
<path class="st2" d="M361,299.6c-15.6,0-27.6,12-27.6,27.6s12,27.6,27.6,27.6s27.6-12,27.6-27.6S376.6,299.6,361,299.6z M361,348.7
	c-12.2,0-21.5-9.3-21.5-21.5s9.3-21.5,21.5-21.5s21.5,9.3,21.5,21.5S373.2,348.7,361,348.7z"/>
<path class="st3" d="M454.1,291.8c-3.2-5.6-10.3-9.8-18.3-11c-8.1-1.2-16-0.6-19.3-0.2c-3.4-2.4-13.4-8.8-23.8-9.6
	c-8.6-0.6-16.8,1.7-20.3,2.9c-2.6-1.6-7.8-4.1-15.1-4.1c-8.1,0-12.6,2-15.1,3.7c-3.2-1.6-9.4-3.9-17.5-3.2
	c-12.3,1-22.9,7.1-26.2,9.1c-3.2-0.2-12.2-0.5-19,0.6c-7.4,1.2-13.9,5.1-17.5,10.5c-2.8,4.3-3.6,9-2.1,13.4
	c4.8,14.2,11.1,14.8,15,17.2l56.8,45.7l-1.1,21.8c-2.8,1.2-3.9,4-2.6,6.8c0,0.1,0.1,0.2,0.1,0.2l7.8,11.8c0.5,0.9,8.8,6.1,9.5,6.5
	c0.1,0.6,1.8,8.3,1.9,10.8c-0.8,1.1-3.4,4.6-6.2,8.2c-0.2-0.1-1-0.3-1-0.3c-4.3-0.9-6.1,3.4-7.2,6c-1,2.4-3.1,9.8,3.2,11.4
	c2.6,0.6,6.6-4.6,6.7-4.7c1.5,0.7,5.2-0.1,6.7-2.2c0.4-0.6,6.2-8.7,7.7-8.7c1.4,0,7.3,8.1,7.7,8.7c2.1,3.1,6,2.3,6.4,2.3
	c0.2,0.2,3.6,4.7,5.9,4.7c2.9,0,4.2-2.1,4.6-2.8c1-2.2,0.8-5-0.7-8.6c-1.1-2.6-3.2-7.5-7.2-6c0,0-0.6,0.2-0.8,0.2
	c-2.9-3.5-5.6-6.8-6.5-8c0.4-3,1.4-8.7,1.8-10.8c0.7-0.4,9.9-5.7,10.4-6.6l7.8-11.9c0-0.1,0.1-0.2,0.1-0.2c1.2-2.5,0.4-5-1.8-6.4
	l-2.2-22.1l56.1-45.8c2.8-2,9.5-3.1,16.5-15.3C457.6,301.6,456.6,296,454.1,291.8z M392.2,277.2c9.3,0.7,18.8,7.3,20.8,8.7
	l-10.3,26.8c-3-2-9.3-5.6-16.6-6.2c-6.2-0.5-12.1,0.4-15.2,1.1l2.3-27.4C374.1,280,382.9,276.6,392.2,277.2z M353.2,399
	c0-2,1.8-3.6,3.9-3.6c2.2,0,3.9,1.6,3.9,3.6c0,2-1.8,3.6-3.9,3.6C355,402.6,353.2,401,353.2,399z M365,396.3c-1.2-2.9-4.2-5-7.8-5
	c-3.7,0-6.8,2.2-7.9,5.2l-7.5-21h30.7L365,396.3z M375.8,367v5.4h-37.4V367H375.8z M367.5,310.5l7.9,53.5h-36.6l7.9-53.7
	c0.6-0.7,3.1-3.1,10.4-3.1C362.7,307.2,366.4,309.6,367.5,310.5z M371,310.9c2.6-0.6,8.7-1.6,14.9-1.2c7,0.5,13.3,4.4,15.6,6.1
	l-23.2,44.2L371,310.9z M336.1,359.8l-22.8-45c2.8-1.6,10.3-5.5,17.4-5.7c6.2-0.2,10.7,1,12.6,1.6L336.1,359.8z M338.2,375.7
	l9.3,25.9c-1.1-0.3-2-0.6-2.4-0.9c-1.7-1.3-7.6-10.6-8-11L338.2,375.7z M376,375.6L376,375.6l2,13.5c-0.7,0.5-7,10.3-8.7,11.6
	c-0.4,0.3-1.4,0.6-2.7,0.9L376,375.6z M404.9,316.4c10.6-4.3,23.9,0.2,27.6,1.6l-49.7,40.6L404.9,316.4z M357.2,276
	c9.4,0,12.6,3.9,12.7,4l-2.3,26.8c-2.2-1.3-5.8-2.7-10.5-2.7c-5.2,0-8.5,1.1-10.5,2.3l-2.1-26.3C344.9,279.9,347.9,276,357.2,276z
	 M325.2,276.5c9.3-0.7,15.7,3.7,15.9,3.8l2.1,27.2c-2.6-0.7-6.9-1.6-12.7-1.5c-7.5,0.2-15.1,3.9-18.6,5.9L302,284.8
	C304.3,283.3,314.2,277.4,325.2,276.5z M280.6,286.2c6.7-1.1,16.2-0.6,18.2-0.5l9.6,25.8c-14.2-1.8-26.3,2.7-30.2,4.2
	C270.4,315.6,254.7,290.3,280.6,286.2z M281,317.9c4-1.5,21.2-5.1,28.8-2.6l0.2,0.5c0.1,0.2,0.2,0.4,0.4,0.5l21.5,42.5L281,317.9z
	 M336.7,446.1c-1.8,0,0.6-6.8,0.7-7.2c-0.1,1.5,0.3,3,1.4,4.2C338.7,443.3,337.7,446.1,336.7,446.1z M377.4,445.6
	c-0.1,0.2-0.2,0.7-0.5,0.6c-0.8-0.1-1.8-2.6-2-2.9c0.9-0.9,1.4-4.6,1.5-4.5C377.8,442.2,377.7,445,377.4,445.6z M382.5,393.6
	l-7.7,11.7c-0.8,0.6-10.9,6.3-10.9,7.4c-0.2,1.2-1.6,9.2-2,12.3c-0.1,1-0.2,1.2,9.7,13.1c0.4,0.4,1,2-0.3,2.8
	c-1.2,0.8-2.5,0.4-2.9-0.1c-0.4-0.5-6.7-9.5-10-10.8c-0.3-0.1-2.3-0.2-2.9,0.1c-3.2,1.3-9.5,10.2-9.9,10.7c-0.4,0.6-1.8,0.9-2.9,0.2
	c-1-0.6-1.1-1.9-0.2-2.9c9.2-11.6,9.2-12,9.2-12.8c0-2.9-1.9-11.9-2.1-12.7c-0.2-1-9.2-6.6-9.9-7.2l-7.7-11.7
	c-0.4-1,1.8-1.4,2.2-0.8c0.5,0.9,5.3,8.7,8.2,11c1.3,1,8.2,3.2,14.9,3.2c6.7,0,13.4-2.1,14.8-3.2c2.9-2.2,7.7-10.1,8.3-11.2
	C380.8,391.8,382.9,392.6,382.5,393.6z M435.2,315.6c-3.6-1.4-15.8-6.1-28.7-3.5l9.6-25.2c0.4-0.1,15.3-2.4,21.7,1
	C457.2,298,446.9,307.6,435.2,315.6z"/>
</svg>
