<?xml version="1.0" encoding="utf-8"?>
<!-- Generator: Adobe Illustrator 21.1.0, SVG Export Plug-In . SVG Version: 6.00 Build 0)  -->
<svg version="1.1" id="Layer_1" xmlns="http://www.w3.org/2000/svg" xmlns:xlink="http://www.w3.org/1999/xlink" x="0px" y="0px"
	 viewBox="0 0 720 720" style="enable-background:new 0 0 720 720;" xml:space="preserve">
<style type="text/css">
	.st0{fill:url(#Rectangle-Copy_1_);}
	.st1{fill:#FFFFFF;}
	.st2{display:none;fill:#ED1E24;stroke:#ED1E24;}
	.st3{fill:#C69977;}
</style>
<title>role</title>
<desc>Created with Sketch.</desc>
<g id="Page-1">
	<g id="Artboard-Copy">
		<g id="role">
			<g id="Group">
				
					<radialGradient id="Rectangle-Copy_1_" cx="1084.9917" cy="454.2444" r="0.707" gradientTransform="matrix(720 0 0 720 -780834 -326696)" gradientUnits="userSpaceOnUse">
					<stop  offset="0" style="stop-color:#FAFAFA"/>
					<stop  offset="1" style="stop-color:#EEEEEE"/>
				</radialGradient>
				<rect id="Rectangle-Copy" class="st0" width="720" height="720"/>
				<g id="Rectangle">
					<g>
						<rect id="path-2_2_" x="200" y="201" width="321" height="321"/>
					</g>
					<g>
						<rect id="path-2_1_" x="200" y="201" class="st1" width="321" height="321"/>
					</g>
				</g>
				<path id="uEA01-user" class="st2" d="M361,275c46.8,0,85,38.2,85,85s-38.2,85-85,85s-85-38.2-85-85S314.2,275,361,275z
					 M361,281.1c-43.4,0-78.9,35.5-78.9,78.9s35.5,78.9,78.9,78.9s78.9-35.5,78.9-78.9S404.4,281.1,361,281.1z M361,305.7
					c-12.2,0-21.5,9.3-21.5,21.5s9.3,21.5,21.5,21.5s21.5-9.3,21.5-21.5S373.2,305.7,361,305.7z M361,299.6
					c15.6,0,27.6,12,27.6,27.6s-12,27.6-27.6,27.6s-27.6-12-27.6-27.6S345.4,299.6,361,299.6z M361,415.9c18.4,0,35.5-9.2,46.1-24.1
					c-1.3-11.3-26.1-21.5-46.1-21.5s-44.8,10.2-46.1,21.5C325.5,406.8,342.6,415.9,361,415.9z M361,422.1
					c-20.8,0-40.1-10.6-51.7-27.6l-0.5-0.8v-0.9c0-16.4,28.7-28.5,52.2-28.5s52.2,12,52.2,28.5v0.9l-0.5,0.8
					C401.1,411.5,381.8,422.1,361,422.1z"/>
			</g>
		</g>
	</g>
</g>
<path class="st2" d="M308.8,392.8v0.9l0.5,0.8c11.6,17,30.9,27.6,51.7,27.6s40.1-10.6,51.7-27.6l0.5-0.8v-0.9
	c0-16.5-28.7-28.5-52.2-28.5S308.8,376.4,308.8,392.8z M407.1,391.8c-10.6,14.9-27.7,24.1-46.1,24.1s-35.5-9.1-46.1-24.1
	c1.3-11.3,26.1-21.5,46.1-21.5S405.8,380.5,407.1,391.8z"/>
<path class="st2" d="M361,299.6c-15.6,0-27.6,12-27.6,27.6s12,27.6,27.6,27.6s27.6-12,27.6-27.6S376.6,299.6,361,299.6z M361,348.7
	c-12.2,0-21.5-9.3-21.5-21.5s9.3-21.5,21.5-21.5s21.5,9.3,21.5,21.5S373.2,348.7,361,348.7z"/>
<path class="st3" d="M453.1,336.4c1.3-2.4,1.5-5,0.7-7.6s-2.6-4.6-5-5.9l-21.9-11.1c-0.7-0.4-1.3-1.1-1.3-2l-3.9-24.5
	c-0.9-4.8-4.8-8.5-9.8-8.5c-0.4,0-1.1,0-1.5,0.2l-24.5,3.9c-0.9,0.2-1.5-0.2-2.2-0.7l-17.4-17.6c-2-2-4.3-2.8-7-2.8s-5.2,1.1-7,2.8
	l-17.4,17.6c-0.4,0.4-1.1,0.7-1.7,0.7c-0.2,0-0.2,0-0.4,0l-24.5-3.9c-0.4,0-1.1-0.2-1.5-0.2c-5,0-9.1,3.5-9.8,8.5l-3.9,24.5
	c-0.2,0.9-0.7,1.5-1.3,2l-22.4,11.3c-2.4,1.3-4.1,3.3-5,5.9c-0.9,2.4-0.7,5,0.7,7.4l11.3,21.9c0.4,0.7,0.4,1.5,0,2.4L265,382.9
	c-1.3,2.4-1.5,5-0.7,7.6s2.6,4.6,5,5.9l21.9,11.1c0.7,0.4,1.3,1.1,1.3,2l3.9,24.5c0.9,4.8,4.8,8.5,9.8,8.5c0.4,0,1.1,0,1.5-0.2
	l24.5-3.9c0.9-0.2,1.5,0.2,2.2,0.7l17.4,17.6c2,2,4.3,2.8,7,2.8s5.2-1.1,7-2.8l17.4-17.6c0.7-0.7,1.3-0.9,2.2-0.7l24.5,3.9
	c0.4,0,1.1,0.2,1.5,0.2c5,0,9.1-3.5,9.8-8.5l3.9-24.5c0.2-0.9,0.7-1.5,1.3-2l22.2-11.3c2.4-1.3,4.1-3.3,5-5.9
	c0.9-2.6,0.7-5.2-0.7-7.6l-11.3-21.9c-0.4-0.7-0.4-1.5,0-2.4L453.1,336.4z M435.3,364.2l11.3,21.9c0.2,0.7,0.4,1.3,0.2,2
	s-0.7,1.1-1.3,1.5l-22.2,11.3c-2.8,1.5-4.8,4.1-5.2,7.4l-3.9,24.5c-0.2,1.3-1.5,2.4-2.8,2.2l-24.5-3.9c-3-0.4-6.3,0.7-8.7,2.8
	l-17.4,17.6c-0.9,0.9-2.6,0.9-3.5,0l-17.4-17.6c-2-2-4.3-2.8-7-2.8c-0.4,0-1.1,0-1.5,0.2l-24.5,3.9c-1.3,0.2-2.6-0.7-2.8-2.2
	l-3.9-24.5c-0.4-3-2.4-5.9-5.2-7.4l-22.2-11.3c-0.7-0.2-1.1-0.9-1.3-1.5c-0.2-0.7-0.2-1.3,0.2-2l11.3-21.9c1.5-2.8,1.5-6.3,0-9.1
	l-11.5-22.2c-0.2-0.7-0.4-1.3-0.2-2c0.2-0.7,0.7-1.1,1.3-1.5l22.2-11.3c2.8-1.5,4.8-4.1,5.2-7.4l3.9-24.5c0.2-1.3,1.5-2.4,2.8-2.2
	l24.5,3.9c0.4,0,1.1,0.2,1.5,0.2l0,0c2.6,0,5.2-1.1,7-2.8l17.4-17.6c0.9-0.9,2.6-0.9,3.5,0l17.4,17.6c2.2,2.2,5.4,3.3,8.7,2.8
	l24.5-3.9c1.3-0.2,2.6,0.7,2.8,2.2l3.9,24.5c0.4,3,2.4,5.9,5.2,7.4l22.2,11.3c0.7,0.2,1.1,0.9,1.3,1.5c0.2,0.7,0.2,1.3-0.2,2
	l-11.3,21.9C433.8,357.9,433.8,361.4,435.3,364.2z M391,335.5h-18.5v-12.8c0-6.5-2-11.3-5.9-14.1c-5.9-4.3-13.7-2.2-14.6-1.7
	c-1.5,0.4-2.6,2-2.6,3.5v16.1c0,11.5-13.7,15.6-14.1,15.6c-0.4,0-0.7,0.2-1.1,0.4c-1.3-1.1-3-1.7-4.8-1.7h-11.3
	c-4.3,0-7.8,3.5-7.8,7.8v39.5c0,4.3,3.5,7.8,7.8,7.8h11.3c2,0,3.9-0.9,5.2-2.2c2.4,2.2,5.6,3.5,9.3,3.5h39.1
	c9.3,0,15.4-5.2,16.5-13.7l5.2-33.5c0-0.2,0-0.4,0-0.7C405.3,341.8,398.8,335.5,391,335.5z M329.9,388.3c0,0.2-0.2,0.4-0.4,0.4
	h-11.3c-0.2,0-0.4-0.2-0.4-0.4v-39.8c0-0.2,0.2-0.4,0.4-0.4h11.3c0.2,0,0.4,0.2,0.4,0.4V388.3z M392.5,382.7
	C392.5,382.7,392.5,382.9,392.5,382.7c-0.2,2-0.9,7.4-9.1,7.4h-39.1c-3.7,0-6.7-3-6.7-6.7v-34.1l0,0c0.9-0.2,19.6-5.6,19.6-22.8
	v-12.8c1.7-0.2,3.9,0,5.4,1.1c2,1.3,2.8,4.1,2.8,8v16.5c0,2,1.7,3.7,3.7,3.7h22.2c3.7,0,6.7,2.8,6.7,6.5L392.5,382.7z"/>
</svg>
