<?xml version="1.0" encoding="utf-8"?>
<!-- Generator: Adobe Illustrator 22.1.0, SVG Export Plug-In . SVG Version: 6.00 Build 0)  -->
<svg version="1.1" id="Layer_1" xmlns="http://www.w3.org/2000/svg" xmlns:xlink="http://www.w3.org/1999/xlink" x="0px" y="0px"
	 viewBox="0 0 720 720" style="enable-background:new 0 0 720 720;" xml:space="preserve">
<style type="text/css">
	.st0{fill:url(#Rectangle-Copy_1_);}
	.st1{fill:#FFFFFF;}
	.st2{display:none;fill:#ED1E24;stroke:#ED1E24;}
	.st3{fill:#C69977;}
</style>
<title>role</title>
<desc>Created with Sketch.</desc>
<g id="Page-1">
	<g id="Artboard-Copy">
		<g id="role">
			<g id="Group">
				
					<radialGradient id="Rectangle-Copy_1_" cx="1119.9431" cy="211.6806" r="0.707" gradientTransform="matrix(720 0 0 -720 -805999 152770)" gradientUnits="userSpaceOnUse">
					<stop  offset="0" style="stop-color:#FAFAFA"/>
					<stop  offset="1" style="stop-color:#EEEEEE"/>
				</radialGradient>
				<rect id="Rectangle-Copy" class="st0" width="720" height="720"/>
				<g id="Rectangle">
					<g>
						<rect id="path-2_2_" x="200" y="201" width="321" height="321"/>
					</g>
					<g>
						<rect id="path-2_1_" x="200" y="201" class="st1" width="321" height="321"/>
					</g>
				</g>
				<path id="uEA01-user" class="st2" d="M361,275c46.8,0,85,38.2,85,85s-38.2,85-85,85s-85-38.2-85-85S314.2,275,361,275z
					 M361,281.1c-43.4,0-78.9,35.5-78.9,78.9s35.5,78.9,78.9,78.9s78.9-35.5,78.9-78.9S404.4,281.1,361,281.1z M361,305.7
					c-12.2,0-21.5,9.3-21.5,21.5s9.3,21.5,21.5,21.5s21.5-9.3,21.5-21.5S373.2,305.7,361,305.7z M361,299.6
					c15.6,0,27.6,12,27.6,27.6s-12,27.6-27.6,27.6s-27.6-12-27.6-27.6S345.4,299.6,361,299.6z M361,415.9c18.4,0,35.5-9.2,46.1-24.1
					c-1.3-11.3-26.1-21.5-46.1-21.5s-44.8,10.2-46.1,21.5C325.5,406.8,342.6,415.9,361,415.9z M361,422.1
					c-20.8,0-40.1-10.6-51.7-27.6l-0.5-0.8v-0.9c0-16.4,28.7-28.5,52.2-28.5s52.2,12,52.2,28.5v0.9l-0.5,0.8
					C401.1,411.5,381.8,422.1,361,422.1z"/>
			</g>
		</g>
	</g>
</g>
<path class="st2" d="M308.8,392.8v0.9l0.5,0.8c11.6,17,30.9,27.6,51.7,27.6s40.1-10.6,51.7-27.6l0.5-0.8v-0.9
	c0-16.5-28.7-28.5-52.2-28.5S308.8,376.4,308.8,392.8z M407.1,391.8c-10.6,14.9-27.7,24.1-46.1,24.1s-35.5-9.1-46.1-24.1
	c1.3-11.3,26.1-21.5,46.1-21.5S405.8,380.5,407.1,391.8z"/>
<path class="st2" d="M361,299.6c-15.6,0-27.6,12-27.6,27.6s12,27.6,27.6,27.6s27.6-12,27.6-27.6S376.6,299.6,361,299.6z M361,348.7
	c-12.2,0-21.5-9.3-21.5-21.5s9.3-21.5,21.5-21.5s21.5,9.3,21.5,21.5S373.2,348.7,361,348.7z"/>
<g>
	<path class="st3" d="M410.6,455.9c-23.8,0-43.2-19.4-43.2-43.2c0-23.8,19.4-43.2,43.2-43.2c23.8,0,43.2,19.4,43.2,43.2
		C453.8,436.5,434.4,455.9,410.6,455.9z M410.6,377.3c-19.5,0-35.4,15.9-35.4,35.4s15.9,35.4,35.4,35.4s35.4-15.9,35.4-35.4
		S430.1,377.3,410.6,377.3z"/>
	<path class="st3" d="M410.6,436.2c-2.2,0-3.9-1.8-3.9-3.9V393c0-2.2,1.8-3.9,3.9-3.9s3.9,1.8,3.9,3.9v39.3
		C414.5,434.5,412.8,436.2,410.6,436.2z"/>
	<path class="st3" d="M430.3,416.6h-39.3c-2.2,0-3.9-1.8-3.9-3.9s1.8-3.9,3.9-3.9h39.3c2.2,0,3.9,1.8,3.9,3.9
		S432.4,416.6,430.3,416.6z"/>
	<path class="st3" d="M375.2,436.2H269.1c-2.2,0-3.9-1.8-3.9-3.9v-14.8c0-11.5,7.1-21.7,18.1-26.1c10-3.9,29-15.9,37.2-35.7l7.3,3
		c-8.6,20.8-27.8,34.6-41.6,40c-8,3.2-13.2,10.5-13.2,18.8v10.9h102.2V436.2z"/>
	<path class="st3" d="M380.6,388.1c-8.1-6.7-16-18-20.8-29.5l7.3-3c4.3,10.4,11.4,20.5,18.5,26.4L380.6,388.1z"/>
	<path class="st3" d="M343.8,369.4c-24.7,0-43.2-31.1-43.2-59c0-26.3,17-43.2,43.2-43.2c26.3,0,43.2,17,43.2,43.2
		C387,338.3,368.5,369.4,343.8,369.4z M343.8,275.1c-17.1,0-35.4,9.3-35.4,35.4c0,23.1,15.8,51.1,35.4,51.1
		c19.6,0,35.4-28,35.4-51.1C379.2,284.4,360.9,275.1,343.8,275.1z"/>
</g>
</svg>
