<?xml version="1.0" encoding="utf-8"?>
<!-- Generator: Adobe Illustrator 22.1.0, SVG Export Plug-In . SVG Version: 6.00 Build 0)  -->
<svg version="1.1" id="Layer_1" xmlns="http://www.w3.org/2000/svg" xmlns:xlink="http://www.w3.org/1999/xlink" x="0px" y="0px"
	 viewBox="0 0 720 720" style="enable-background:new 0 0 720 720;" xml:space="preserve">
<style type="text/css">
	.st0{fill:url(#Rectangle-Copy_1_);}
	.st1{fill:#FFFFFF;}
	.st2{display:none;fill:#ED1E24;stroke:#ED1E24;}
	.st3{fill:#C69977;}
</style>
<title>role</title>
<desc>Created with Sketch.</desc>
<g id="Page-1">
	<g id="Artboard-Copy">
		<g id="role">
			<g id="Group">
				
					<radialGradient id="Rectangle-Copy_1_" cx="1119.9431" cy="211.6806" r="0.707" gradientTransform="matrix(720 0 0 -720 -805999 152770)" gradientUnits="userSpaceOnUse">
					<stop  offset="0" style="stop-color:#FAFAFA"/>
					<stop  offset="1" style="stop-color:#EEEEEE"/>
				</radialGradient>
				<rect id="Rectangle-Copy" class="st0" width="720" height="720"/>
				<g id="Rectangle">
					<g>
						<rect id="path-2_2_" x="200" y="201" width="321" height="321"/>
					</g>
					<g>
						<rect id="path-2_1_" x="200" y="201" class="st1" width="321" height="321"/>
					</g>
				</g>
				<path id="uEA01-user" class="st2" d="M361,275c46.8,0,85,38.2,85,85s-38.2,85-85,85s-85-38.2-85-85S314.2,275,361,275z
					 M361,281.1c-43.4,0-78.9,35.5-78.9,78.9s35.5,78.9,78.9,78.9s78.9-35.5,78.9-78.9S404.4,281.1,361,281.1z M361,305.7
					c-12.2,0-21.5,9.3-21.5,21.5s9.3,21.5,21.5,21.5s21.5-9.3,21.5-21.5S373.2,305.7,361,305.7z M361,299.6
					c15.6,0,27.6,12,27.6,27.6s-12,27.6-27.6,27.6s-27.6-12-27.6-27.6S345.4,299.6,361,299.6z M361,415.9c18.4,0,35.5-9.2,46.1-24.1
					c-1.3-11.3-26.1-21.5-46.1-21.5s-44.8,10.2-46.1,21.5C325.5,406.8,342.6,415.9,361,415.9z M361,422.1
					c-20.8,0-40.1-10.6-51.7-27.6l-0.5-0.8v-0.9c0-16.4,28.7-28.5,52.2-28.5s52.2,12,52.2,28.5v0.9l-0.5,0.8
					C401.1,411.5,381.8,422.1,361,422.1z"/>
			</g>
		</g>
	</g>
</g>
<path class="st2" d="M308.8,392.8v0.9l0.5,0.8c11.6,17,30.9,27.6,51.7,27.6s40.1-10.6,51.7-27.6l0.5-0.8v-0.9
	c0-16.5-28.7-28.5-52.2-28.5S308.8,376.4,308.8,392.8z M407.1,391.8c-10.6,14.9-27.7,24.1-46.1,24.1s-35.5-9.1-46.1-24.1
	c1.3-11.3,26.1-21.5,46.1-21.5S405.8,380.5,407.1,391.8z"/>
<path class="st2" d="M361,299.6c-15.6,0-27.6,12-27.6,27.6s12,27.6,27.6,27.6s27.6-12,27.6-27.6S376.6,299.6,361,299.6z M361,348.7
	c-12.2,0-21.5-9.3-21.5-21.5s9.3-21.5,21.5-21.5s21.5,9.3,21.5,21.5S373.2,348.7,361,348.7z"/>
<g>
	<g>
		<g>
			<path class="st3" d="M427.9,463.9h-124c-9.4,0-16.8-7.4-16.8-16.8v-63.7h6.7v63.7c0,5.7,4.4,10.1,10.1,10.1h124
				c5.7,0,10.1-4.4,10.1-10.1V272.9c0-5.7-4.4-10.1-10.1-10.1h-124c-5.7,0-10.1,4.4-10.1,10.1v57h-6.7v-57c0-9.4,7.4-16.8,16.8-16.8
				h124c9.4,0,16.8,7.4,16.8,16.8v174.2C444.6,456.5,437.2,463.9,427.9,463.9z"/>
		</g>
		<g>
			<path class="st3" d="M401.7,286.3H330c-5,0-9.4-4.4-9.4-9.4v-17.4h6.7v17.4c0,1.3,1.3,2.7,2.7,2.7h71.7c1.3,0,2.7-1.3,2.7-2.7
				v-17.4h6.7v17.4C411.1,281.9,406.7,286.3,401.7,286.3z"/>
		</g>
		<g>
			<polygon class="st3" points="431.2,443.8 300.5,443.8 300.5,396.9 307.2,396.9 307.2,437.1 424.5,437.1 424.5,279.6 407.7,279.6 
				407.7,272.9 431.2,272.9 			"/>
		</g>
		<g>
			<polygon class="st3" points="307.2,339.9 300.5,339.9 300.5,272.9 324,272.9 324,279.6 307.2,279.6 			"/>
		</g>
	</g>
	<g>
		<g>
			<path class="st3" d="M342.1,404.6l-21.4-7l-45.2-45.2l14.1-14.1l45.2,45.2L342.1,404.6z M324.3,391.8l7,2.3l-2.3-7.4l-39.5-39.5
				l-4.7,4.7L324.3,391.8z"/>
		</g>
		<g>
			
				<rect x="287.7" y="349.9" transform="matrix(0.7071 -0.7071 0.7071 0.7071 -164.0402 310.4607)" class="st3" width="10.1" height="6.7"/>
		</g>
		<g>
			
				<rect x="318.3" y="384.3" transform="matrix(0.7071 -0.7071 0.7071 0.7071 -178.8919 343.3208)" class="st3" width="13.4" height="6.7"/>
		</g>
	</g>
	<g>
		<rect x="324" y="306.4" class="st3" width="80.4" height="6.7"/>
	</g>
	<g>
		<rect x="324" y="323.1" class="st3" width="60.3" height="6.7"/>
	</g>
	<g>
		<rect x="324" y="339.9" class="st3" width="77.1" height="6.7"/>
	</g>
</g>
</svg>
