<?xml version="1.0" encoding="utf-8"?>
<!-- Generator: Adobe Illustrator 21.1.0, SVG Export Plug-In . SVG Version: 6.00 Build 0)  -->
<svg version="1.1" id="Layer_1" xmlns="http://www.w3.org/2000/svg" xmlns:xlink="http://www.w3.org/1999/xlink" x="0px" y="0px"
	 viewBox="0 0 720 720" style="enable-background:new 0 0 720 720;" xml:space="preserve">
<style type="text/css">
	.st0{fill:url(#Rectangle-Copy_1_);}
	.st1{fill:#FFFFFF;}
	.st2{display:none;fill:#ED1E24;stroke:#ED1E24;}
	.st3{fill:#C69977;}
</style>
<title>role</title>
<desc>Created with Sketch.</desc>
<g id="Page-1">
	<g id="Artboard-Copy">
		<g id="role">
			<g id="Group">
				
					<radialGradient id="Rectangle-Copy_1_" cx="1084.9917" cy="454.2444" r="0.707" gradientTransform="matrix(720 0 0 720 -780834 -326696)" gradientUnits="userSpaceOnUse">
					<stop  offset="0" style="stop-color:#FAFAFA"/>
					<stop  offset="1" style="stop-color:#EEEEEE"/>
				</radialGradient>
				<rect id="Rectangle-Copy" class="st0" width="720" height="720"/>
				<g id="Rectangle">
					<g>
						<rect id="path-2_2_" x="200" y="201" width="321" height="321"/>
					</g>
					<g>
						<rect id="path-2_1_" x="200" y="201" class="st1" width="321" height="321"/>
					</g>
				</g>
				<path id="uEA01-user" class="st2" d="M361,275c46.8,0,85,38.2,85,85s-38.2,85-85,85s-85-38.2-85-85S314.2,275,361,275z
					 M361,281.1c-43.4,0-78.9,35.5-78.9,78.9s35.5,78.9,78.9,78.9s78.9-35.5,78.9-78.9S404.4,281.1,361,281.1z M361,305.7
					c-12.2,0-21.5,9.3-21.5,21.5s9.3,21.5,21.5,21.5s21.5-9.3,21.5-21.5S373.2,305.7,361,305.7z M361,299.6
					c15.6,0,27.6,12,27.6,27.6s-12,27.6-27.6,27.6s-27.6-12-27.6-27.6S345.4,299.6,361,299.6z M361,415.9c18.4,0,35.5-9.2,46.1-24.1
					c-1.3-11.3-26.1-21.5-46.1-21.5s-44.8,10.2-46.1,21.5C325.5,406.8,342.6,415.9,361,415.9z M361,422.1
					c-20.8,0-40.1-10.6-51.7-27.6l-0.5-0.8v-0.9c0-16.4,28.7-28.5,52.2-28.5s52.2,12,52.2,28.5v0.9l-0.5,0.8
					C401.1,411.5,381.8,422.1,361,422.1z"/>
			</g>
		</g>
	</g>
</g>
<path class="st2" d="M308.8,392.8v0.9l0.5,0.8c11.6,17,30.9,27.6,51.7,27.6s40.1-10.6,51.7-27.6l0.5-0.8v-0.9
	c0-16.5-28.7-28.5-52.2-28.5S308.8,376.4,308.8,392.8z M407.1,391.8c-10.6,14.9-27.7,24.1-46.1,24.1s-35.5-9.1-46.1-24.1
	c1.3-11.3,26.1-21.5,46.1-21.5S405.8,380.5,407.1,391.8z"/>
<path class="st2" d="M361,299.6c-15.6,0-27.6,12-27.6,27.6s12,27.6,27.6,27.6s27.6-12,27.6-27.6S376.6,299.6,361,299.6z M361,348.7
	c-12.2,0-21.5-9.3-21.5-21.5s9.3-21.5,21.5-21.5s21.5,9.3,21.5,21.5S373.2,348.7,361,348.7z"/>
<path class="st3" d="M414.8,279.8h5.6c2,0,3.6-1.6,3.6-3.6v-14.1c0-2-1.6-3.6-3.6-3.6H300.6c-2,0-3.6,1.6-3.6,3.6v14.1
	c0,2,1.6,3.6,3.6,3.6h5.6c1.3,49.2,29.2,71.2,43.3,79.1v2.2c-14.1,8-42,30-43.3,79.2h-5.6c-2,0-3.6,1.6-3.6,3.6v14.1
	c0,2,1.6,3.6,3.6,3.6h119.8c2,0,3.6-1.6,3.6-3.6v-14.1c0-2-1.6-3.6-3.6-3.6h-5.6c-1.3-49.2-29.2-71.2-43.3-79.1v-2.2
	C385.6,350.9,413.5,328.9,414.8,279.8z M304.2,272.6v-6.9h112.6v6.9L304.2,272.6L304.2,272.6z M313.4,279.8h94.2
	c-0.3,10-1.7,18.8-4,26.5c-9.1,8.6-25.5,13.9-43.1,13.9c-17.7,0-34-5.3-43.1-13.9C315.1,298.6,313.7,289.8,313.4,279.8z
	 M416.8,447.4v6.9H304.2v-6.9H416.8z M327.9,440.3l32.4-25.5l32.7,25.5H327.9z M407.6,440.3h-3l-40.7-31.8v-4.9c0-2-1.6-3.6-3.6-3.6
	c-2,0-3.6,1.6-3.6,3.6v4.9l-40.4,31.8h-2.9c1.3-46.4,27.8-66.5,40.4-73.4c2.3,1,4.5,1.5,6.7,1.5c2.2,0,4.4-0.5,6.7-1.5
	C379.8,373.8,406.3,393.8,407.6,440.3z M366.3,353.6c-1.2,0.6-1.9,1.8-1.9,3.2v3.6c-2.7,1.2-5,1.2-7.7,0v-3.6c0-1.3-0.7-2.6-1.9-3.2
	c-8.1-4.3-23.4-14.7-32.9-35.4c10.4,5.8,24,9.1,38.7,9.1s28.3-3.3,38.7-9.1C389.6,338.9,374.4,349.3,366.3,353.6z M360.3,371.2
	c-2,0-3.6,1.6-3.6,3.6v18.7c0,2,1.6,3.6,3.6,3.6c2,0,3.6-1.6,3.6-3.6v-18.7C363.9,372.8,362.3,371.2,360.3,371.2z"/>
</svg>
