<?xml version="1.0" encoding="utf-8"?>
<!-- Generator: Adobe Illustrator 22.1.0, SVG Export Plug-In . SVG Version: 6.00 Build 0)  -->
<svg version="1.1" id="Layer_1" xmlns="http://www.w3.org/2000/svg" xmlns:xlink="http://www.w3.org/1999/xlink" x="0px" y="0px"
	 viewBox="0 0 720 720" style="enable-background:new 0 0 720 720;" xml:space="preserve">
<style type="text/css">
	.st0{fill:url(#Rectangle-Copy_1_);}
	.st1{fill:#FFFFFF;}
	.st2{display:none;fill:#ED1E24;stroke:#ED1E24;}
	.st3{fill:#C69977;}
</style>
<title>role</title>
<desc>Created with Sketch.</desc>
<g id="Page-1">
	<g id="Artboard-Copy">
		<g id="role">
			<g id="Group">
				
					<radialGradient id="Rectangle-Copy_1_" cx="1119.9431" cy="211.6806" r="0.707" gradientTransform="matrix(720 0 0 -720 -805999 152770)" gradientUnits="userSpaceOnUse">
					<stop  offset="0" style="stop-color:#FAFAFA"/>
					<stop  offset="1" style="stop-color:#EEEEEE"/>
				</radialGradient>
				<rect id="Rectangle-Copy" class="st0" width="720" height="720"/>
				<g id="Rectangle">
					<g>
						<rect id="path-2_2_" x="200" y="201" width="321" height="321"/>
					</g>
					<g>
						<rect id="path-2_1_" x="200" y="201" class="st1" width="321" height="321"/>
					</g>
				</g>
				<path id="uEA01-user" class="st2" d="M361,275c46.8,0,85,38.2,85,85s-38.2,85-85,85s-85-38.2-85-85S314.2,275,361,275z
					 M361,281.1c-43.4,0-78.9,35.5-78.9,78.9s35.5,78.9,78.9,78.9s78.9-35.5,78.9-78.9S404.4,281.1,361,281.1z M361,305.7
					c-12.2,0-21.5,9.3-21.5,21.5s9.3,21.5,21.5,21.5s21.5-9.3,21.5-21.5S373.2,305.7,361,305.7z M361,299.6
					c15.6,0,27.6,12,27.6,27.6s-12,27.6-27.6,27.6s-27.6-12-27.6-27.6S345.4,299.6,361,299.6z M361,415.9c18.4,0,35.5-9.2,46.1-24.1
					c-1.3-11.3-26.1-21.5-46.1-21.5s-44.8,10.2-46.1,21.5C325.5,406.8,342.6,415.9,361,415.9z M361,422.1
					c-20.8,0-40.1-10.6-51.7-27.6l-0.5-0.8v-0.9c0-16.4,28.7-28.5,52.2-28.5s52.2,12,52.2,28.5v0.9l-0.5,0.8
					C401.1,411.5,381.8,422.1,361,422.1z"/>
			</g>
		</g>
	</g>
</g>
<path class="st2" d="M308.8,392.8v0.9l0.5,0.8c11.6,17,30.9,27.6,51.7,27.6s40.1-10.6,51.7-27.6l0.5-0.8v-0.9
	c0-16.5-28.7-28.5-52.2-28.5S308.8,376.4,308.8,392.8z M407.1,391.8c-10.6,14.9-27.7,24.1-46.1,24.1s-35.5-9.1-46.1-24.1
	c1.3-11.3,26.1-21.5,46.1-21.5S405.8,380.5,407.1,391.8z"/>
<path class="st2" d="M361,299.6c-15.6,0-27.6,12-27.6,27.6s12,27.6,27.6,27.6s27.6-12,27.6-27.6S376.6,299.6,361,299.6z M361,348.7
	c-12.2,0-21.5-9.3-21.5-21.5s9.3-21.5,21.5-21.5s21.5,9.3,21.5,21.5S373.2,348.7,361,348.7z"/>
<g>
	<path class="st3" d="M362.1,343.7c14.1,0,25.7-11.6,25.7-25.7s-11.6-25.7-25.7-25.7s-25.7,11.6-25.7,25.7
		C336.8,332.4,348.1,343.7,362.1,343.7z M362.1,297.9c11.3,0,20.4,9.1,20.4,20.4s-9.1,20.4-20.4,20.4s-20.4-9.1-20.4-20.4
		C342.1,307.1,350.9,297.9,362.1,297.9z"/>
	<path class="st3" d="M313.6,361.6c-2.5,4.2-3.9,8.8-3.9,12.7c0,0-1.8,16.9-2.5,33.1v2.8h110.1v-2.8c-0.7-16.2-2.5-32.7-2.5-32.7
		c0-4.2-1.4-8.4-3.9-13c-2.5-4.6-6.7-7.7-11.6-9.5l-17.9-6.3l-16.5,29.9h-5.6l-16.2-30.3l-17.9,6.3C320.3,353.9,316,357,313.6,361.6
		z M340.7,351.8l15.5,28.9h12l15.5-28.9l13.7,4.9c3.9,1.4,7,3.9,8.8,7.4c1.4,2.5,3.2,6.3,3.2,10.6c0,0,1.8,14.8,2.5,29.9h-14.1
		l-1.1-18.3l-5.3,0.4l1.1,17.9h-60.5l1.1-17.9l-5.3-0.4l-1.1,18.3h-14.1c0.7-15.1,2.5-29.6,2.5-30.3c0-4.2,1.8-7.7,3.2-10.2
		c1.8-3.2,4.9-6,8.8-7.4L340.7,351.8z"/>
	<path class="st3" d="M355.8,263.8c25.7-1.8,50.3,6.3,69.7,23.2c17.9,15.5,29.6,36.9,32.4,60.5l-15.1-10.2l-2.8,4.2l21.8,14.8
		l14.8-21.8l-4.2-2.8l-9.5,13.7c-3.5-24.3-15.5-46.1-34.1-62.3c-20.4-17.6-46.8-26.4-73.9-24.6c-48.9,3.5-89.4,43.6-93.6,93.3
		l5.3,0.4C270.3,305,308.6,267.3,355.8,263.8z"/>
	<path class="st3" d="M369.5,455.9c-51,3.5-95.7-33.4-102.4-83.4l14.1,10.6l3.2-4.2L263.2,363l-15.8,21.1l4.2,3.2l10.2-13.4
		c3.5,24.3,15.1,46.5,34.1,62.6c18.7,16.2,41.9,25,66.5,25c2.5,0,4.9,0,7.4-0.4c50.3-3.5,90.8-44.3,94.3-94.7l-5.3-0.4
		C455.4,414,417,452.4,369.5,455.9z"/>
</g>
</svg>
