<?xml version="1.0" encoding="utf-8"?>
<!-- Generator: Adobe Illustrator 22.1.0, SVG Export Plug-In . SVG Version: 6.00 Build 0)  -->
<svg version="1.1" id="Layer_1" xmlns="http://www.w3.org/2000/svg" xmlns:xlink="http://www.w3.org/1999/xlink" x="0px" y="0px"
	 viewBox="0 0 720 720" style="enable-background:new 0 0 720 720;" xml:space="preserve">
<style type="text/css">
	.st0{fill:url(#Rectangle-Copy_1_);}
	.st1{fill:#FFFFFF;}
	.st2{display:none;fill:#ED1E24;stroke:#ED1E24;}
	.st3{fill:#C69977;}
</style>
<title>role</title>
<desc>Created with Sketch.</desc>
<g id="Page-1">
	<g id="Artboard-Copy">
		<g id="role">
			<g id="Group">
				
					<radialGradient id="Rectangle-Copy_1_" cx="1119.9431" cy="211.6806" r="0.707" gradientTransform="matrix(720 0 0 -720 -805999 152770)" gradientUnits="userSpaceOnUse">
					<stop  offset="0" style="stop-color:#FAFAFA"/>
					<stop  offset="1" style="stop-color:#EEEEEE"/>
				</radialGradient>
				<rect id="Rectangle-Copy" class="st0" width="720" height="720"/>
				<g id="Rectangle">
					<g>
						<rect id="path-2_2_" x="200" y="201" width="321" height="321"/>
					</g>
					<g>
						<rect id="path-2_1_" x="200" y="201" class="st1" width="321" height="321"/>
					</g>
				</g>
				<path id="uEA01-user" class="st2" d="M361,275c46.8,0,85,38.2,85,85s-38.2,85-85,85s-85-38.2-85-85S314.2,275,361,275z
					 M361,281.1c-43.4,0-78.9,35.5-78.9,78.9s35.5,78.9,78.9,78.9s78.9-35.5,78.9-78.9S404.4,281.1,361,281.1z M361,305.7
					c-12.2,0-21.5,9.3-21.5,21.5s9.3,21.5,21.5,21.5s21.5-9.3,21.5-21.5S373.2,305.7,361,305.7z M361,299.6
					c15.6,0,27.6,12,27.6,27.6s-12,27.6-27.6,27.6s-27.6-12-27.6-27.6S345.4,299.6,361,299.6z M361,415.9c18.4,0,35.5-9.2,46.1-24.1
					c-1.3-11.3-26.1-21.5-46.1-21.5s-44.8,10.2-46.1,21.5C325.5,406.8,342.6,415.9,361,415.9z M361,422.1
					c-20.8,0-40.1-10.6-51.7-27.6l-0.5-0.8v-0.9c0-16.4,28.7-28.5,52.2-28.5s52.2,12,52.2,28.5v0.9l-0.5,0.8
					C401.1,411.5,381.8,422.1,361,422.1z"/>
			</g>
		</g>
	</g>
</g>
<path class="st2" d="M308.8,392.8v0.9l0.5,0.8c11.6,17,30.9,27.6,51.7,27.6s40.1-10.6,51.7-27.6l0.5-0.8v-0.9
	c0-16.5-28.7-28.5-52.2-28.5S308.8,376.4,308.8,392.8z M407.1,391.8c-10.6,14.9-27.7,24.1-46.1,24.1s-35.5-9.1-46.1-24.1
	c1.3-11.3,26.1-21.5,46.1-21.5S405.8,380.5,407.1,391.8z"/>
<path class="st2" d="M361,299.6c-15.6,0-27.6,12-27.6,27.6s12,27.6,27.6,27.6s27.6-12,27.6-27.6S376.6,299.6,361,299.6z M361,348.7
	c-12.2,0-21.5-9.3-21.5-21.5s9.3-21.5,21.5-21.5s21.5,9.3,21.5,21.5S373.2,348.7,361,348.7z"/>
<g>
	<g>
		<path class="st3" d="M434.9,455c-1.9,0-3.7-0.7-5.1-2.1L393.9,417l-7.6,18.8c-1.3,3.3-4.4,5.4-8,5.5c-0.1,0-0.1,0-0.1,0
			c-3.4,0-6.6-2-8-5.2l-41.5-93.8c-1.5-3.3-0.8-7.1,1.8-9.7c2.6-2.6,6.4-3.3,9.7-1.8l93.8,41.5c3.2,1.4,5.3,4.6,5.2,8.1
			c-0.1,3.5-2.2,6.6-5.5,8l-16.1,6.5l35.1,35.1c2.8,2.8,2.8,7.4,0,10.3l-12.7,12.7C438.7,454.3,436.8,455,434.9,455z M392.1,403.1
			c1.3,0,2.6,0.5,3.5,1.5l39.3,39.3l8.9-8.9l-38.5-38.5c-1.2-1.2-1.7-2.9-1.4-4.5c0.3-1.7,1.5-3,3-3.6l20.4-8.2l-88.2-39l39,88.2
			l9.3-23.1c0.6-1.5,2-2.7,3.6-3C391.5,403.2,391.8,403.1,392.1,403.1z M445.7,436.9L445.7,436.9L445.7,436.9z"/>
	</g>
	<g>
		<path class="st3" d="M323.5,383.4c-0.7,0-1.3-0.1-1.9-0.4c-16.8-7.1-27.7-23.5-27.7-41.8c0-25,20.3-45.4,45.4-45.4
			c18.1,0,34.5,10.7,41.7,27.4c1.1,2.5-0.1,5.5-2.6,6.6c-2.5,1.1-5.5-0.1-6.6-2.6c-5.6-13-18.4-21.4-32.5-21.4
			c-19.5,0-35.4,15.9-35.4,35.4c0,14.2,8.5,27,21.6,32.6c2.5,1.1,3.7,4,2.7,6.5C327.3,382.2,325.5,383.4,323.5,383.4z"/>
	</g>
	<g>
		<path class="st3" d="M335.9,414.2c-0.1,0-0.2,0-0.3,0c-39-1.9-69.5-34-69.5-73.1c0-40.3,32.8-73.1,73.1-73.1
			c39.7,0,71.8,31.1,73.1,70.7c0.1,2.8-2.1,5-4.8,5.2c-2.7,0.1-5.1-2.1-5.2-4.8c-1.1-34.3-28.8-61.1-63.1-61.1
			c-34.8,0-63.1,28.3-63.1,63.1c0,33.7,26.4,61.4,60,63.1c2.8,0.1,4.9,2.5,4.7,5.2C340.7,412.2,338.5,414.2,335.9,414.2z"/>
	</g>
</g>
</svg>
