<?xml version="1.0" encoding="utf-8"?>
<!-- Generator: Adobe Illustrator 22.1.0, SVG Export Plug-In . SVG Version: 6.00 Build 0)  -->
<svg version="1.1" id="Layer_1" xmlns="http://www.w3.org/2000/svg" xmlns:xlink="http://www.w3.org/1999/xlink" x="0px" y="0px"
	 viewBox="0 0 720 720" style="enable-background:new 0 0 720 720;" xml:space="preserve">
<style type="text/css">
	.st0{fill:url(#Rectangle-Copy_1_);}
	.st1{fill:#FFFFFF;}
	.st2{display:none;fill:#ED1E24;stroke:#ED1E24;}
	.st3{fill:#C69977;}
</style>
<title>role</title>
<desc>Created with Sketch.</desc>
<g id="Page-1">
	<g id="Artboard-Copy">
		<g id="role">
			<g id="Group">
				
					<radialGradient id="Rectangle-Copy_1_" cx="1119.9431" cy="211.6806" r="0.707" gradientTransform="matrix(720 0 0 -720 -805999 152770)" gradientUnits="userSpaceOnUse">
					<stop  offset="0" style="stop-color:#FAFAFA"/>
					<stop  offset="1" style="stop-color:#EEEEEE"/>
				</radialGradient>
				<rect id="Rectangle-Copy" class="st0" width="720" height="720"/>
				<g id="Rectangle">
					<g>
						<rect id="path-2_2_" x="200" y="201" width="321" height="321"/>
					</g>
					<g>
						<rect id="path-2_1_" x="200" y="201" class="st1" width="321" height="321"/>
					</g>
				</g>
				<path id="uEA01-user" class="st2" d="M361,275c46.8,0,85,38.2,85,85s-38.2,85-85,85s-85-38.2-85-85S314.2,275,361,275z
					 M361,281.1c-43.4,0-78.9,35.5-78.9,78.9s35.5,78.9,78.9,78.9s78.9-35.5,78.9-78.9S404.4,281.1,361,281.1z M361,305.7
					c-12.2,0-21.5,9.3-21.5,21.5s9.3,21.5,21.5,21.5s21.5-9.3,21.5-21.5S373.2,305.7,361,305.7z M361,299.6
					c15.6,0,27.6,12,27.6,27.6s-12,27.6-27.6,27.6s-27.6-12-27.6-27.6S345.4,299.6,361,299.6z M361,415.9c18.4,0,35.5-9.2,46.1-24.1
					c-1.3-11.3-26.1-21.5-46.1-21.5s-44.8,10.2-46.1,21.5C325.5,406.8,342.6,415.9,361,415.9z M361,422.1
					c-20.8,0-40.1-10.6-51.7-27.6l-0.5-0.8v-0.9c0-16.4,28.7-28.5,52.2-28.5s52.2,12,52.2,28.5v0.9l-0.5,0.8
					C401.1,411.5,381.8,422.1,361,422.1z"/>
			</g>
		</g>
	</g>
</g>
<path class="st2" d="M308.8,392.8v0.9l0.5,0.8c11.6,17,30.9,27.6,51.7,27.6s40.1-10.6,51.7-27.6l0.5-0.8v-0.9
	c0-16.5-28.7-28.5-52.2-28.5S308.8,376.4,308.8,392.8z M407.1,391.8c-10.6,14.9-27.7,24.1-46.1,24.1s-35.5-9.1-46.1-24.1
	c1.3-11.3,26.1-21.5,46.1-21.5S405.8,380.5,407.1,391.8z"/>
<path class="st2" d="M361,299.6c-15.6,0-27.6,12-27.6,27.6s12,27.6,27.6,27.6s27.6-12,27.6-27.6S376.6,299.6,361,299.6z M361,348.7
	c-12.2,0-21.5-9.3-21.5-21.5s9.3-21.5,21.5-21.5s21.5,9.3,21.5,21.5S373.2,348.7,361,348.7z"/>
<path class="st3" d="M255.5,389.5c-10.3,4.1-12.1,10.2-12.3,13.4c-0.2,3.2,1,9.4,10.7,14.7l84.5,45.3c6.4,3.4,14.7,5.3,23.6,5.3
	c8.9,0,17.3-1.9,23.6-5.3l84.5-45.3c9.7-5.2,10.9-11.4,10.7-14.7c-0.2-3.2-2-9.3-12.3-13.4L425.2,372l-29.9-82.8c0,0,0,0,0,0
	l-12.1-33.9c-2.6-7.2-12.5-10.4-21.2-10.4c-8.7,0-18.7,3.2-21.2,10.4l-12.1,33.9c0,0,0,0,0,0L298.7,372L255.5,389.5z M334,297.9
	c6.9,5,18.1,7.3,28,7.3s21-2.3,28-7.3l8.3,22.9c-3.1,6-16.9,12-36.3,12c-19.3,0-33.1-6-36.3-12L334,297.9z M411.9,359.3
	c-2.1,8.9-22.1,18-49.9,18c-27.8,0-47.7-9.2-49.9-18l10.6-29.7c7.7,6.8,22.3,11.1,39.3,11.1c17,0,31.6-4.3,39.3-11.1L411.9,359.3z
	 M362,385.4c24.5,0,44.9-6.8,53.5-16.9l2.9,7.9c0,0,0,0,0.1,0.1c0,0,0,0.1,0,0.1c1.7,3.9,4.5,11.1,4.9,13.5c0.3,2.1-0.4,4.1-2.2,6.3
	c-8.1,9.6-33,16.6-59.1,16.6c-26.1,0-50.9-7-59.1-16.6c-1.9-2.2-2.6-4.2-2.2-6.3c0.4-2.4,3.2-9.6,4.9-13.5c0,0,0-0.1,0-0.1
	c0,0,0,0,0.1-0.1l2.9-8C317.1,378.5,337.5,385.4,362,385.4z M431.2,388.9c-0.3-1.6-1.1-4.1-2-6.6l36.3,14.6c4.4,1.8,7.2,4.2,7.3,6.5
	c0.1,2.3-2.3,4.9-6.5,7.2l-84.5,45.3c-10.3,5.5-29.4,5.5-39.7,0l-84.5-45.3c-4.2-2.3-6.7-4.9-6.5-7.2c0.1-2.3,2.9-4.7,7.3-6.5
	l36.3-14.6c-0.9,2.5-1.7,5-2,6.6c-0.7,4.4,0.7,8.8,4,12.7C306.5,413,333.3,421,362,421c28.7,0,55.5-8,65.2-19.4
	C430.5,397.7,431.9,393.3,431.2,388.9z M348.3,257.9c1-2.8,7.3-5.1,13.7-5.1c7.1,0,12.8,2.6,13.7,5.1l11.4,31.9
	c-3.5,3.7-12.8,7.3-25.1,7.3c-12.3,0-21.6-3.5-25.1-7.3L348.3,257.9z"/>
</svg>
