<?xml version="1.0" encoding="utf-8"?>
<!-- Generator: Adobe Illustrator 22.1.0, SVG Export Plug-In . SVG Version: 6.00 Build 0)  -->
<svg version="1.1" id="Layer_1" xmlns="http://www.w3.org/2000/svg" xmlns:xlink="http://www.w3.org/1999/xlink" x="0px" y="0px"
	 viewBox="0 0 720 720" style="enable-background:new 0 0 720 720;" xml:space="preserve">
<style type="text/css">
	.st0{fill:url(#Rectangle-Copy_1_);}
	.st1{fill:#FFFFFF;}
	.st2{display:none;fill:#ED1E24;stroke:#ED1E24;}
	.st3{fill:#C69977;}
</style>
<title>role</title>
<desc>Created with Sketch.</desc>
<g id="Page-1">
	<g id="Artboard-Copy">
		<g id="role">
			<g id="Group">
				
					<radialGradient id="Rectangle-Copy_1_" cx="1119.9431" cy="211.6806" r="0.707" gradientTransform="matrix(720 0 0 -720 -805999 152770)" gradientUnits="userSpaceOnUse">
					<stop  offset="0" style="stop-color:#FAFAFA"/>
					<stop  offset="1" style="stop-color:#EEEEEE"/>
				</radialGradient>
				<rect id="Rectangle-Copy" class="st0" width="720" height="720"/>
				<g id="Rectangle">
					<g>
						<rect id="path-2_2_" x="200" y="201" width="321" height="321"/>
					</g>
					<g>
						<rect id="path-2_1_" x="200" y="201" class="st1" width="321" height="321"/>
					</g>
				</g>
				<path id="uEA01-user" class="st2" d="M361,275c46.8,0,85,38.2,85,85s-38.2,85-85,85s-85-38.2-85-85S314.2,275,361,275z
					 M361,281.1c-43.4,0-78.9,35.5-78.9,78.9s35.5,78.9,78.9,78.9s78.9-35.5,78.9-78.9S404.4,281.1,361,281.1z M361,305.7
					c-12.2,0-21.5,9.3-21.5,21.5s9.3,21.5,21.5,21.5s21.5-9.3,21.5-21.5S373.2,305.7,361,305.7z M361,299.6
					c15.6,0,27.6,12,27.6,27.6s-12,27.6-27.6,27.6s-27.6-12-27.6-27.6S345.4,299.6,361,299.6z M361,415.9c18.4,0,35.5-9.2,46.1-24.1
					c-1.3-11.3-26.1-21.5-46.1-21.5s-44.8,10.2-46.1,21.5C325.5,406.8,342.6,415.9,361,415.9z M361,422.1
					c-20.8,0-40.1-10.6-51.7-27.6l-0.5-0.8v-0.9c0-16.4,28.7-28.5,52.2-28.5s52.2,12,52.2,28.5v0.9l-0.5,0.8
					C401.1,411.5,381.8,422.1,361,422.1z"/>
			</g>
		</g>
	</g>
</g>
<path class="st2" d="M308.8,392.8v0.9l0.5,0.8c11.6,17,30.9,27.6,51.7,27.6s40.1-10.6,51.7-27.6l0.5-0.8v-0.9
	c0-16.5-28.7-28.5-52.2-28.5S308.8,376.4,308.8,392.8z M407.1,391.8c-10.6,14.9-27.7,24.1-46.1,24.1s-35.5-9.1-46.1-24.1
	c1.3-11.3,26.1-21.5,46.1-21.5S405.8,380.5,407.1,391.8z"/>
<path class="st2" d="M361,299.6c-15.6,0-27.6,12-27.6,27.6s12,27.6,27.6,27.6s27.6-12,27.6-27.6S376.6,299.6,361,299.6z M361,348.7
	c-12.2,0-21.5-9.3-21.5-21.5s9.3-21.5,21.5-21.5s21.5,9.3,21.5,21.5S373.2,348.7,361,348.7z"/>
<g>
	<g>
		<path class="st3" d="M438.5,467.7h-157V361.6h-11.4v-60.2H302c-4.9-3.5-10-8.4-12.6-14.6c-2.6-6.1-2.4-12.5,0.4-19
			c5.5-12.6,17.4-17.9,32.8-14.5c8.2,1.8,15.5,7.3,20,15.1c8.9,15.5,14.4,24.9,17.4,29.9c3-4.9,8.5-14.3,17.4-29.9
			c4.5-7.8,11.8-13.3,20-15.1c15.4-3.4,27.4,1.9,32.8,14.5c2.8,6.5,2.9,12.9,0.4,19c-2.6,6.2-7.7,11.1-12.6,14.6h31.9v60.2h-11.4
			V467.7z M383.7,460.5h47.6v-98.9h-47.6V460.5z M341.1,460.5h35.4v-98.9h-35.4V460.5z M288.7,460.5h45.2v-98.9h-45.2V460.5z
			 M438.5,354.4h4.2v-45.8h-59v45.8L438.5,354.4L438.5,354.4z M341.1,354.4h35.4v-45.8h-35.4V354.4z M281.5,354.4h52.3v-45.8h-56.6
			v45.8L281.5,354.4L281.5,354.4z M366.6,301.4h36.7c3-1.2,16.4-7.4,20.6-17.4c1.8-4.2,1.7-8.6-0.4-13.3
			c-5.1-11.9-16.2-12.2-24.6-10.3c-6.3,1.4-11.9,5.7-15.3,11.7C374.9,287.3,369.8,296.2,366.6,301.4z M316.7,301.4h36.7
			c-3.2-5.2-8.3-14-17-29.3c-3.5-6-9-10.3-15.3-11.7c-8.4-1.9-19.5-1.6-24.6,10.3c-2,4.7-2.1,9-0.4,13.3
			C300.3,294,313.7,300.1,316.7,301.4z"/>
	</g>
</g>
</svg>
