<?xml version="1.0" encoding="utf-8"?>
<!-- Generator: Adobe Illustrator 21.1.0, SVG Export Plug-In . SVG Version: 6.00 Build 0)  -->
<svg version="1.1" id="Layer_1" xmlns="http://www.w3.org/2000/svg" xmlns:xlink="http://www.w3.org/1999/xlink" x="0px" y="0px"
	 viewBox="0 0 720 720" style="enable-background:new 0 0 720 720;" xml:space="preserve">
<style type="text/css">
	.st0{fill:url(#Rectangle-Copy_1_);}
	.st1{fill:#FFFFFF;}
	.st2{display:none;fill:#ED1E24;stroke:#ED1E24;}
	.st3{fill:#C69977;}
</style>
<title>role</title>
<desc>Created with Sketch.</desc>
<g id="Page-1">
	<g id="Artboard-Copy">
		<g id="role">
			<g id="Group">
				
					<radialGradient id="Rectangle-Copy_1_" cx="1084.9917" cy="454.2444" r="0.707" gradientTransform="matrix(720 0 0 720 -780834 -326696)" gradientUnits="userSpaceOnUse">
					<stop  offset="0" style="stop-color:#FAFAFA"/>
					<stop  offset="1" style="stop-color:#EEEEEE"/>
				</radialGradient>
				<rect id="Rectangle-Copy" class="st0" width="720" height="720"/>
				<g id="Rectangle">
					<g>
						<rect id="path-2_2_" x="200" y="201" width="321" height="321"/>
					</g>
					<g>
						<rect id="path-2_1_" x="200" y="201" class="st1" width="321" height="321"/>
					</g>
				</g>
				<path id="uEA01-user" class="st2" d="M361,275c46.8,0,85,38.2,85,85s-38.2,85-85,85s-85-38.2-85-85S314.2,275,361,275z
					 M361,281.1c-43.4,0-78.9,35.5-78.9,78.9s35.5,78.9,78.9,78.9s78.9-35.5,78.9-78.9S404.4,281.1,361,281.1z M361,305.7
					c-12.2,0-21.5,9.3-21.5,21.5s9.3,21.5,21.5,21.5s21.5-9.3,21.5-21.5S373.2,305.7,361,305.7z M361,299.6
					c15.6,0,27.6,12,27.6,27.6s-12,27.6-27.6,27.6s-27.6-12-27.6-27.6S345.4,299.6,361,299.6z M361,415.9c18.4,0,35.5-9.2,46.1-24.1
					c-1.3-11.3-26.1-21.5-46.1-21.5s-44.8,10.2-46.1,21.5C325.5,406.8,342.6,415.9,361,415.9z M361,422.1
					c-20.8,0-40.1-10.6-51.7-27.6l-0.5-0.8v-0.9c0-16.4,28.7-28.5,52.2-28.5s52.2,12,52.2,28.5v0.9l-0.5,0.8
					C401.1,411.5,381.8,422.1,361,422.1z"/>
			</g>
		</g>
	</g>
</g>
<path class="st2" d="M308.8,392.8v0.9l0.5,0.8c11.6,17,30.9,27.6,51.7,27.6s40.1-10.6,51.7-27.6l0.5-0.8v-0.9
	c0-16.5-28.7-28.5-52.2-28.5S308.8,376.4,308.8,392.8z M407.1,391.8c-10.6,14.9-27.7,24.1-46.1,24.1s-35.5-9.1-46.1-24.1
	c1.3-11.3,26.1-21.5,46.1-21.5S405.8,380.5,407.1,391.8z"/>
<path class="st2" d="M361,299.6c-15.6,0-27.6,12-27.6,27.6s12,27.6,27.6,27.6s27.6-12,27.6-27.6S376.6,299.6,361,299.6z M361,348.7
	c-12.2,0-21.5-9.3-21.5-21.5s9.3-21.5,21.5-21.5s21.5,9.3,21.5,21.5S373.2,348.7,361,348.7z"/>
<g>
	<path class="st3" d="M318.8,304.7c0-6.2-5-11.4-11.2-11.4c-6.2,0-11.2,5-11.2,11.4c0,6.2,5,11.4,11.2,11.4
		C313.8,315.9,318.8,310.9,318.8,304.7z M302.4,304.7c0-2.8,2.2-5.2,5.2-5.2c3,0,5.2,2.4,5.2,5.2s-2.2,5.2-5.2,5.2
		C304.6,309.9,302.4,307.5,302.4,304.7z"/>
	<path class="st3" d="M307.6,392.6c-6.2,0-11.2,5-11.2,11.4c0,6.4,5,11.4,11.2,11.4c6.2,0,11.2-5,11.2-11.4
		C318.8,397.6,313.8,392.6,307.6,392.6z M307.6,408.9c-2.8,0-5.2-2.4-5.2-5.2s2.2-5.2,5.2-5.2c3,0,5.2,2.4,5.2,5.2
		C312.6,406.7,310.4,408.9,307.6,408.9z"/>
	<path class="st3" d="M401,342.9c-6.2,0-11.2,5-11.2,11.4s5,11.4,11.2,11.4s11.2-5,11.2-11.4S407,342.9,401,342.9z M401,359.4
		c-2.8,0-5.2-2.4-5.2-5.2c0-2.8,2.2-5.2,5.2-5.2s5.2,2.4,5.2,5.2C406.2,357,403.8,359.4,401,359.4z"/>
	<path class="st3" d="M449,380.6c-1.2,0-2.2,0.2-3.2,0.8L426,368c0.4-2,0.6-3.8,0.6-6c0-14.8-11.8-26.7-26.3-26.7
		c-6,0-11.6,2.2-16.2,5.6l-50.7-29.1l0,0c-0.2-5.6-2-10.6-5-14.8l22.6-17c0.8,0.2,1.6,0.4,2.6,0.4c4.2,0,7.8-3.4,7.8-7.8
		s-3.4-7.8-7.8-7.8s-7.8,3.4-7.8,7.8c0,0.4,0,0.8,0.2,1.2L323,291c-4.4-3.4-9.8-5.4-15.8-5.4c-14.6,0-26.3,12-26.3,26.7
		c0,13.8,10.2,25,23.4,26.5V385c-13.2,1.6-23.4,12.8-23.4,26.5c0,6.6,2.2,12.4,6.2,17.2l-17,11.4c-1-0.6-2-0.8-3.2-0.8
		c-4.2,0-7.8,3.4-7.8,7.8s3.4,7.8,7.8,7.8s7.8-3.4,7.8-7.8c0-0.2,0-0.2,0-0.4l18.6-12.6c4,2.6,9,4.2,14,4.2
		c14.2,0,25.5-11.4,26.1-25.5c0,0,0,0,0.2,0l51.1-29.3c4.4,3.4,9.8,5.4,15.6,5.4c9.6,0,18-5.4,22.6-13.2L441,388c0,0.2,0,0.2,0,0.4
		c0,4.2,3.4,7.8,7.8,7.8c4.2,0,7.8-3.4,7.8-7.8S453.3,380.6,449,380.6z M290.9,324.7c-2.6-3.4-4-7.6-4-12.2c0-11.4,9-20.6,20.2-20.6
		c11.2,0,20.2,9.2,20.2,20.6c0,4.2-1.2,8-3.4,11.4c-0.6-1-1.2-1.8-2-2.8c-2.2-2.4-4.8-3.6-8-4c-0.8,0-1.4,0.2-2,0.6
		c0,0-1.8,1.4-4.2,1.4s-4.4-1.4-4.4-1.4c-0.6-0.4-1.4-0.6-2.2-0.6c-3,0.4-5.8,1.8-8,4C292.3,322.1,291.5,323.3,290.9,324.7z
		 M295.7,329.5c0.2-1.6,1-3,2-4.2c1-1,2-1.6,3.2-2c1,0.6,2.6,1.2,4.8,1.6c0.2,0,0.6,0.2,0.8,0.2c0,0,0.2,0,0.4,0l0,0
		c0.2,0,0.4,0,0.8,0l0,0l0,0l0,0l0,0c0.4,0,0.6,0,1,0c0,0,0,0,0.2,0c0.2,0,0.6,0,0.8-0.2c2-0.4,3.8-1,4.8-1.6c1.2,0.4,2.4,1,3.2,2
		c1,1.2,1.6,2.2,2,3.4c-3.4,2.8-7.8,4.4-12.4,4.4C302.8,332.9,299.1,331.7,295.7,329.5z M307,432.1c-4.2,0-8.2-1.4-11.4-3.6
		c0.2-1.6,1-3,2-4.2c1-1,2-1.6,3.2-2c1,0.6,2.6,1.2,4.8,1.6c0.2,0,0.6,0.2,0.8,0.2c0,0,0.2,0,0.4,0l0,0c0.2,0,0.4,0,0.8,0l0,0l0,0
		l0,0l0,0c0.4,0,0.6,0,1,0c0,0,0,0,0.2,0c0.2,0,0.6,0,0.8-0.2c2-0.4,3.8-1,4.8-1.6c1.2,0.4,2.4,1,3.2,2c1,1.2,1.6,2.2,2,3.4
		C316,430.5,311.8,432.1,307,432.1z M324,422.9c-0.6-1-1.2-1.8-2-2.6c-2.2-2.4-4.8-3.6-8-4c-0.8,0-1.4,0.2-2,0.6
		c0,0-1.8,1.4-4.2,1.4s-4.4-1.4-4.4-1.4c-0.6-0.4-1.4-0.6-2.2-0.6c-3,0.4-5.8,1.8-8,4c-1,1-1.8,2.4-2.4,3.6c-2.6-3.4-4-7.6-4-12.2
		c0-11.2,8.8-20.4,19.8-20.6c0.2,0,0.2,0,0.4,0c0.2,0,0.2,0,0.4,0c11,0.2,19.8,9.4,19.8,20.6C327.4,415.7,326.2,419.5,324,422.9z
		 M332.8,405.9c-2.4-11.2-11.4-19.8-22.8-21v-46.1c5.4-0.6,10.4-3,14.2-6.4c0.2-0.2,0.4-0.4,0.6-0.6c3.8-3.6,6.4-8.2,7.6-13.6
		l47.5,27.1c-3.6,4.6-5.8,10.4-5.8,16.6c0,6.4,2.2,12.4,6,17L332.8,405.9z M400.4,382.6c-4.2,0-8.2-1.4-11.4-3.6c0.2-1.6,1-3,2-4.2
		c1-1,2-1.6,3.2-2c1,0.6,2.6,1.2,4.8,1.6c0.2,0,0.6,0.2,0.8,0.2c0,0,0.2,0,0.4,0l0,0c0.2,0,0.4,0,0.8,0l0,0l0,0l0,0l0,0
		c0.4,0,0.6,0,1,0c0,0,0,0,0.2,0c0.2,0,0.6,0,0.8-0.2c2-0.4,3.8-1,4.8-1.6c1.2,0.4,2.4,1,3.2,2c1.4,1.4,1.8,2.2,2,3.2
		C409.4,380.8,405.2,382.6,400.4,382.6z M417.4,373.2c-0.6-1-1.4-1.8-2.2-2.6c-2.2-2.4-4.8-3.6-8-4c-0.8,0-1.4,0.2-2,0.6
		c0,0-1.8,1.4-4.2,1.4c-2.4,0-4.4-1.4-4.4-1.4c-0.6-0.4-1.4-0.6-2-0.6c-3,0.4-5.8,1.8-8,4c-1,1-1.8,2.4-2.4,3.6
		c-2.6-3.4-4-7.6-4-12.2c0-11.4,9-20.6,20.2-20.6c11.2,0,20.2,9.2,20.2,20.6C420.6,366,419.4,370,417.4,373.2z"/>
</g>
</svg>
