<?xml version="1.0" encoding="utf-8"?>
<!-- Generator: Adobe Illustrator 21.1.0, SVG Export Plug-In . SVG Version: 6.00 Build 0)  -->
<svg version="1.1" id="Layer_1" xmlns="http://www.w3.org/2000/svg" xmlns:xlink="http://www.w3.org/1999/xlink" x="0px" y="0px"
	 viewBox="0 0 720 720" style="enable-background:new 0 0 720 720;" xml:space="preserve">
<style type="text/css">
	.st0{fill:url(#Rectangle-Copy_1_);}
	.st1{fill:#FFFFFF;}
	.st2{display:none;fill:#ED1E24;stroke:#ED1E24;}
	.st3{fill:#C69977;}
</style>
<title>role</title>
<desc>Created with Sketch.</desc>
<g id="Page-1">
	<g id="Artboard-Copy">
		<g id="role">
			<g id="Group">
				
					<radialGradient id="Rectangle-Copy_1_" cx="1084.9917" cy="454.2444" r="0.707" gradientTransform="matrix(720 0 0 720 -780834 -326696)" gradientUnits="userSpaceOnUse">
					<stop  offset="0" style="stop-color:#FAFAFA"/>
					<stop  offset="1" style="stop-color:#EEEEEE"/>
				</radialGradient>
				<rect id="Rectangle-Copy" class="st0" width="720" height="720"/>
				<g id="Rectangle">
					<g>
						<rect id="path-2_2_" x="200" y="201" width="321" height="321"/>
					</g>
					<g>
						<rect id="path-2_1_" x="200" y="201" class="st1" width="321" height="321"/>
					</g>
				</g>
				<path id="uEA01-user" class="st2" d="M361,275c46.8,0,85,38.2,85,85s-38.2,85-85,85s-85-38.2-85-85S314.2,275,361,275z
					 M361,281.1c-43.4,0-78.9,35.5-78.9,78.9s35.5,78.9,78.9,78.9s78.9-35.5,78.9-78.9S404.4,281.1,361,281.1z M361,305.7
					c-12.2,0-21.5,9.3-21.5,21.5s9.3,21.5,21.5,21.5s21.5-9.3,21.5-21.5S373.2,305.7,361,305.7z M361,299.6
					c15.6,0,27.6,12,27.6,27.6s-12,27.6-27.6,27.6s-27.6-12-27.6-27.6S345.4,299.6,361,299.6z M361,415.9c18.4,0,35.5-9.2,46.1-24.1
					c-1.3-11.3-26.1-21.5-46.1-21.5s-44.8,10.2-46.1,21.5C325.5,406.8,342.6,415.9,361,415.9z M361,422.1
					c-20.8,0-40.1-10.6-51.7-27.6l-0.5-0.8v-0.9c0-16.4,28.7-28.5,52.2-28.5s52.2,12,52.2,28.5v0.9l-0.5,0.8
					C401.1,411.5,381.8,422.1,361,422.1z"/>
			</g>
		</g>
	</g>
</g>
<path class="st2" d="M308.8,392.8v0.9l0.5,0.8c11.6,17,30.9,27.6,51.7,27.6s40.1-10.6,51.7-27.6l0.5-0.8v-0.9
	c0-16.5-28.7-28.5-52.2-28.5S308.8,376.4,308.8,392.8z M407.1,391.8c-10.6,14.9-27.7,24.1-46.1,24.1s-35.5-9.1-46.1-24.1
	c1.3-11.3,26.1-21.5,46.1-21.5S405.8,380.5,407.1,391.8z"/>
<path class="st2" d="M361,299.6c-15.6,0-27.6,12-27.6,27.6s12,27.6,27.6,27.6s27.6-12,27.6-27.6S376.6,299.6,361,299.6z M361,348.7
	c-12.2,0-21.5-9.3-21.5-21.5s9.3-21.5,21.5-21.5s21.5,9.3,21.5,21.5S373.2,348.7,361,348.7z"/>
<path class="st3" d="M421.5,402.3h9.3h0.8h0.4c0.3,0,0.6,0,0.8,0c15.5-1.1,27.4-14,27.4-29.5v-3.1c0-12.3-7.7-23.3-19.2-27.6
	c-1.1-45.4-38.8-81.3-84.2-80.2c-43.9,1.1-79.2,36.4-80.2,80.2c-11.6,4.3-19.2,15.3-19.2,27.6v3.1c0,16.2,13.2,29.4,29.4,29.4h5.8
	v13.1c0,15,12.2,27.1,27.1,27.1h25.7c2,7.4,9.5,11.8,16.9,9.9c7.4-2,11.8-9.5,9.9-16.9c-2-7.4-9.5-11.8-16.9-9.9
	c-4.8,1.3-8.6,5-9.9,9.9h-25.7c-11.1,0-20-9-20.1-20.1v-71.5c0-32.7,26.5-59.1,59.1-59.1s59.1,26.5,59.1,59.1v54.8
	C418,400.7,419.5,402.3,421.5,402.3z M358.8,432.3c3.8,0,6.8,3,6.8,6.8s-3,6.8-6.8,6.8s-6.8-3-6.8-6.8c0,0,0,0,0,0
	C352,435.3,355.1,432.3,358.8,432.3z M453.2,369.8v3.1c0,10.7-7.5,19.8-18,21.9c-0.9-1.7-3-2.4-4.7-1.6c-0.8,0.4-1.4,1.1-1.7,2H425
	v-47.8h5.8C443.1,347.4,453.2,357.4,453.2,369.8z M292.6,395.2h-5.8c-12.3,0-22.3-10-22.4-22.4v-3.1c0-10.7,7.5-19.8,18-21.9
	c0.9,1.7,3,2.4,4.7,1.6c0.8-0.4,1.4-1.1,1.7-2h3.7V395.2z M358.8,277.7c-35.2,0.1-64.1,27.6-66,62.7h-5.9H286h-0.4
	c-0.3,0-0.6,0-0.8,0h-1c1.8-41.5,36.9-73.6,78.3-71.8c38.9,1.7,70.1,32.9,71.8,71.8c-1-0.1-2.1-0.2-3.1-0.2h-5.9
	C422.9,305.2,393.9,277.8,358.8,277.7z"/>
</svg>
