<?xml version="1.0" encoding="utf-8"?>
<!-- Generator: Adobe Illustrator 21.1.0, SVG Export Plug-In . SVG Version: 6.00 Build 0)  -->
<svg version="1.1" id="Layer_1" xmlns="http://www.w3.org/2000/svg" xmlns:xlink="http://www.w3.org/1999/xlink" x="0px" y="0px"
	 viewBox="0 0 720 720" style="enable-background:new 0 0 720 720;" xml:space="preserve">
<style type="text/css">
	.st0{fill:url(#Rectangle-Copy_1_);}
	.st1{fill:#FFFFFF;}
	.st2{display:none;fill:#ED1E24;stroke:#ED1E24;}
	.st3{fill:#C69977;}
</style>
<title>role</title>
<desc>Created with Sketch.</desc>
<g id="Page-1">
	<g id="Artboard-Copy">
		<g id="role">
			<g id="Group">
				
					<radialGradient id="Rectangle-Copy_1_" cx="1084.9917" cy="454.2444" r="0.707" gradientTransform="matrix(720 0 0 720 -780834 -326696)" gradientUnits="userSpaceOnUse">
					<stop  offset="0" style="stop-color:#FAFAFA"/>
					<stop  offset="1" style="stop-color:#EEEEEE"/>
				</radialGradient>
				<rect id="Rectangle-Copy" class="st0" width="720" height="720"/>
				<g id="Rectangle">
					<g>
						<rect id="path-2_2_" x="200" y="201" width="321" height="321"/>
					</g>
					<g>
						<rect id="path-2_1_" x="200" y="201" class="st1" width="321" height="321"/>
					</g>
				</g>
				<path id="uEA01-user" class="st2" d="M361,275c46.8,0,85,38.2,85,85s-38.2,85-85,85s-85-38.2-85-85S314.2,275,361,275z
					 M361,281.1c-43.4,0-78.9,35.5-78.9,78.9s35.5,78.9,78.9,78.9s78.9-35.5,78.9-78.9S404.4,281.1,361,281.1z M361,305.7
					c-12.2,0-21.5,9.3-21.5,21.5s9.3,21.5,21.5,21.5s21.5-9.3,21.5-21.5S373.2,305.7,361,305.7z M361,299.6
					c15.6,0,27.6,12,27.6,27.6s-12,27.6-27.6,27.6s-27.6-12-27.6-27.6S345.4,299.6,361,299.6z M361,415.9c18.4,0,35.5-9.2,46.1-24.1
					c-1.3-11.3-26.1-21.5-46.1-21.5s-44.8,10.2-46.1,21.5C325.5,406.8,342.6,415.9,361,415.9z M361,422.1
					c-20.8,0-40.1-10.6-51.7-27.6l-0.5-0.8v-0.9c0-16.4,28.7-28.5,52.2-28.5s52.2,12,52.2,28.5v0.9l-0.5,0.8
					C401.1,411.5,381.8,422.1,361,422.1z"/>
			</g>
		</g>
	</g>
</g>
<path class="st2" d="M308.8,392.8v0.9l0.5,0.8c11.6,17,30.9,27.6,51.7,27.6s40.1-10.6,51.7-27.6l0.5-0.8v-0.9
	c0-16.5-28.7-28.5-52.2-28.5S308.8,376.4,308.8,392.8z M407.1,391.8c-10.6,14.9-27.7,24.1-46.1,24.1s-35.5-9.1-46.1-24.1
	c1.3-11.3,26.1-21.5,46.1-21.5S405.8,380.5,407.1,391.8z"/>
<path class="st2" d="M361,299.6c-15.6,0-27.6,12-27.6,27.6s12,27.6,27.6,27.6s27.6-12,27.6-27.6S376.6,299.6,361,299.6z M361,348.7
	c-12.2,0-21.5-9.3-21.5-21.5s9.3-21.5,21.5-21.5s21.5,9.3,21.5,21.5S373.2,348.7,361,348.7z"/>
<g transform="translate(0,-952.36216)">
	<path class="st3" d="M358.4,1216.2c-53.2,0-96.3,43.1-96.3,96.3c0,53.2,43.1,96.3,96.3,96.3s96.3-43.1,96.3-96.3
		C454.7,1259.3,411.6,1216.2,358.4,1216.2z M355.6,1221.9v11.2c-0.1,3.8,5.7,3.8,5.7,0v-11.2c14.4,0.4,28,4.2,40,10.7
		c-1.9,3.2-3.7,6.5-5.6,9.7c-1.9,3.3,3,6.1,4.9,2.8c1.9-3.2,3.7-6.5,5.6-9.7c11.9,7.4,21.9,17.4,29.3,29.3c-3.2,1.9-6.5,3.7-9.7,5.6
		c-3.3,1.9-0.4,6.8,2.8,4.9c3.2-1.9,6.5-3.7,9.7-5.6c6.4,12,10.2,25.6,10.7,40c-3.7,0-7.5,0-11.3,0c-3.8-0.1-3.8,5.7,0,5.7
		c3.7,0,7.5,0,11.3,0c-0.4,14.5-4.2,28.1-10.7,40c-3.2-1.9-6.5-3.7-9.7-5.6c-0.5-0.3-1.1-0.4-1.6-0.4c-2.8,0.2-3.7,3.9-1.2,5.3
		c3.2,1.9,6.5,3.7,9.7,5.6c-7.4,11.9-17.4,21.9-29.3,29.3c-1.9-3.2-3.7-6.5-5.6-9.7c-0.5-0.9-1.5-1.5-2.6-1.4
		c-2.1,0.1-3.4,2.4-2.3,4.3c1.9,3.2,3.7,6.5,5.6,9.7c-12,6.4-25.6,10.2-40,10.7v-11.2c0-1.6-1.3-2.9-2.9-2.9c-1.6,0-2.8,1.3-2.8,2.9
		v11.2c-14.4-0.4-28-4.2-40-10.7c1.9-3.2,3.7-6.5,5.6-9.7c1.1-1.9-0.2-4.3-2.4-4.3c-1,0-2,0.5-2.5,1.5c-1.9,3.2-3.7,6.5-5.6,9.7
		c-11.9-7.4-21.9-17.4-29.3-29.3c3.2-1.9,6.5-3.7,9.7-5.6c2.5-1.4,1.6-5.2-1.3-5.3c-0.5,0-1.1,0.1-1.5,0.4c-3.2,1.9-6.5,3.7-9.7,5.6
		c-6.4-12-10.2-25.6-10.7-40h11.3c3.8,0.1,3.8-5.7,0-5.7h-11.3c0.4-14.4,4.2-28,10.7-40c3.2,1.9,6.5,3.7,9.7,5.6
		c3.3,1.9,6.1-3,2.8-4.9c-3.2-1.9-6.5-3.7-9.7-5.6c7.4-11.9,17.4-21.9,29.3-29.3c1.9,3.2,3.7,6.5,5.6,9.7c1.9,3.3,6.8,0.4,4.9-2.8
		c-1.9-3.2-3.7-6.5-5.6-9.7C327.5,1226.1,341.1,1222.3,355.6,1221.9L355.6,1221.9z M358.4,1257.4c-1.6,0-2.8,1.3-2.8,2.9v38.3
		c0,0-0.1,0-0.1,0l-12.5-21.7c-0.5-0.9-1.5-1.5-2.6-1.4c-2.1,0.1-3.4,2.4-2.3,4.3l12.2,21.2c-3.6,2.6-6,6.8-6,11.5
		c0,7.8,6.4,14.2,14.2,14.2s14.2-6.4,14.2-14.2c0-6.8-4.9-12.6-11.3-13.9v-38.3C361.3,1258.7,360,1257.4,358.4,1257.4z"/>
</g>
</svg>
