<?xml version="1.0" encoding="UTF-8"?>
<svg width="44px" height="50px" viewBox="0 0 44 50" version="1.1" xmlns="http://www.w3.org/2000/svg" xmlns:xlink="http://www.w3.org/1999/xlink">
    <!-- Generator: Sketch 47.1 (45422) - http://www.bohemiancoding.com/sketch -->
    <title>accounts</title>
    <desc>Created with Sketch.</desc>
    <defs></defs>
    <g id="Page-1" stroke="none" stroke-width="1" fill="none" fill-rule="evenodd">
        <g id="accounts" fill-rule="nonzero" fill="#FAFAFA">
            <path d="M17.3288498,49.500843 C17.2165451,49.500843 17.1066818,49.4632453 17.0173264,49.3919563 C16.8981858,49.2967415 16.8288498,49.1531868 16.8288498,49.000843 L16.8288498,36.7435188 L10.239006,36.7435188 C8.9499435,36.7435188 7.9011154,35.695179 7.9011154,34.4061165 L7.9011154,26.3470326 L1.3132243,26.3470326 C0.8825602,26.3470326 0.4963298,26.0906849 0.3293376,25.6937123 C0.1623454,25.2967397 0.2492595,24.8416615 0.5500407,24.5340443 L5.9152756,19.0496693 C6.0197678,13.7806263 8.3371506,8.7635365 12.2932053,5.2586537 C16.3542404,1.6600211 21.5842209,0.014025 27.0222092,0.6234 C35.7643967,1.6038688 42.7585373,8.6761344 43.6535569,17.439318 C44.2448655,23.2288688 42.2189866,28.8729118 38.096428,32.9241832 C34.7551194,36.2078746 32.8386155,40.8177379 32.8386155,45.5716441 C32.8386155,45.8050425 32.6774827,46.007191 32.4499436,46.0589488 L17.440178,49.488148 C17.4035568,49.4969368 17.3659592,49.500843 17.3288498,49.500843 Z M24.8156662,1.4993765 C20.4269943,1.4993765 16.2785568,3.0633411 12.9562912,6.0067007 C9.160881,9.3694937 6.9582443,14.2005484 6.9123459,19.2610952 C6.9113693,19.3904897 6.8600998,19.5140249 6.7697678,19.60631 L1.2648845,25.233263 L1.3132243,25.3470325 L8.4011154,25.3470325 C8.6774826,25.3470325 8.9011154,25.5706653 8.9011154,25.8470325 L8.9011154,34.4061164 C8.9011154,35.1434211 9.5012131,35.7435187 10.239006,35.7435187 L17.3288498,35.7435187 C17.605217,35.7435187 17.8288498,35.9671515 17.8288498,36.2435187 L17.8288498,48.3738898 L31.84301,45.1722296 C31.9470139,40.2938116 33.9577561,35.5892218 37.3952561,32.2112921 C41.3005295,28.3738878 43.2189866,23.0267199 42.6584397,17.54088 C41.8112717,9.2425402 35.1882249,2.5457628 26.9108811,1.6175402 C26.2082443,1.538439 25.5085373,1.4993765 24.8156662,1.4993765 Z" id="Shape"></path>
            <path d="M24.6784592,31.4207649 C17.8332444,31.4207649 12.2643967,25.8519153 12.2643967,19.0071888 C12.2643967,12.161974 17.8332444,6.5931263 24.6784592,6.5931263 C31.5231858,6.5931263 37.0920334,12.161974 37.0920334,19.0071888 C37.0920334,25.8519154 31.5231857,31.4207649 24.6784592,31.4207649 Z M24.6784592,7.5931263 C18.3845139,7.5931263 13.2643967,12.7132435 13.2643967,19.0071888 C13.2643967,25.3006458 18.3845139,30.420763 24.6784592,30.420763 C30.9719162,30.420763 36.0920334,25.3006458 36.0920334,19.0071888 C36.0920334,12.7132435 30.9719162,7.5931263 24.6784592,7.5931263 Z" id="Shape"></path>
            <path d="M23.8761799,13.8756473 L23.8761799,23.171343 C23.8761799,23.5303281 24.1671948,23.821343 24.5261799,23.821343 C24.885165,23.821343 25.1761799,23.5303281 25.1761799,23.171343 L25.1761799,13.8756473 C25.1761799,13.5166622 24.885165,13.2256473 24.5261799,13.2256473 C24.1671948,13.2256473 23.8761799,13.5166622 23.8761799,13.8756473 Z" id="Path-19"></path>
            <path d="M28.6859325,17.5947003 L20.3664274,17.5947003 C20.0074423,17.5947003 19.7164274,17.8857152 19.7164274,18.2447003 C19.7164274,18.6036854 20.0074423,18.8947003 20.3664274,18.8947003 L28.6859325,18.8947003 C29.0449175,18.8947003 29.3359325,18.6036854 29.3359325,18.2447003 C29.3359325,17.8857152 29.0449175,17.5947003 28.6859325,17.5947003 Z" id="Path-19-Copy"></path>
        </g>
    </g>
</svg>