<?xml version="1.0" encoding="UTF-8"?>
<svg width="99px" height="99px" viewBox="0 0 99 99" version="1.1" xmlns="http://www.w3.org/2000/svg" xmlns:xlink="http://www.w3.org/1999/xlink">
    <!-- Generator: Sketch 50.2 (55047) - http://www.bohemiancoding.com/sketch -->
    <title>blog-2</title>
    <desc>Created with Sketch.</desc>
    <defs></defs>
    <g id="Page-1" stroke="none" stroke-width="1" fill="none" fill-rule="evenodd">
        <g id="blog-2" fill="#D93940" fill-rule="nonzero">
            <path d="M76.2,62.3 L88.4,74.4 C88.2,74.6 88,74.8 87.8,75.1 C81.8,81.1 75.8,87.1 69.7,93.1 C69.2,93.6 68.7,93.9 68.1,94.1 C63.8,95.4 59.5,96.7 55.2,97.9 C54.7,98.1 54.2,98.1 53.7,98 C52.9,97.8 52.4,96.9 52.6,96 C52.6,96 52.6,96 52.6,96 C53.9,91.3 55.3,86.7 56.7,82.1 C56.8,81.8 57,81.5 57.3,81.2 C63.5,74.9 69.8,68.7 76,62.4 C76.1,62.4 76.1,62.3 76.2,62.3 Z M66.9,90.8 C66.5,88.9 66.2,87.1 65.8,85.2 C65.7,85 65.6,84.8 65.4,84.7 C63.6,84.3 61.7,83.9 59.8,83.5 C59.1,85.8 58.5,88.1 57.8,90.3 C57.5,91.1 57.8,92 58.5,92.5 C59,93 59.7,93.1 60.3,92.8 L66.9,90.8 Z" id="Shape"></path>
            <path d="M92.2,70 L80.6,58.6 C82.3,56.8 83.9,54.9 85.7,53.2 C87.2,52.1 89.2,52.2 90.6,53.4 C92.8,55.5 94.9,57.6 97,59.8 C98.4,61.3 98.4,63.6 97,65.2 C96.8,65.5 96.6,65.7 96.3,65.9 L92.2,70 Z" id="Shape"></path>
            <path d="M9.6,88.7 C5.4,88.7 1.7,86 0.4,81.9 C0.3,81.4 0.1,81 4.4408921e-16,80.5 L0,80.3 L0,8.6 C0,8.5 0.1,8.4 0.1,8.3 L0.1,8.2 L0.1,8.1 C0.6,4.9 2.6,2.3 5.6,1 C6.5,0.6 7.5,0.2 8.4,0 L80.3,0 C81.2,0.2 82,0.5 82.9,0.9 C86.5,2.3 88.8,5.9 88.7,9.8 C88.8,17.5 88.7,25.3 88.7,32.9 C88.7,36.2 88.7,39.6 88.7,42.9 C88.5,42.9 88.4,42.9 88.2,42.9 C87.1,42.9 86.1,43 85,43.3 L85,11.5 L3.8,11.5 L3.8,13.5 C3.8,13.6 3.8,13.7 3.8,13.8 C3.8,14 3.8,14.3 3.8,14.5 L3.8,78.4 C3.8,82.6 6.2,85 10.3,85 L45.6,85 C45.2,86.3 44.9,87.5 44.5,88.7 L10.1,88.7 C9.9,88.7 9.8,88.7 9.6,88.7 Z" id="Shape"></path>
            <rect id="Rectangle-path" x="19.4" y="46.4" width="50" height="3.6"></rect>
            <rect id="Rectangle-path" x="19.3" y="31" width="50" height="3.6"></rect>
            <path d="M19.3,65.5 L19.3,61.8 L61.4,61.8 C59.6,63 57.9,64.2 56.2,65.4 C56.1,65.4 56.1,65.4 56,65.4 L19.3,65.5 Z" id="Shape"></path>
        </g>
    </g>
</svg>