<?xml version="1.0" encoding="utf-8"?>
<!-- Generator: Adobe Illustrator 22.1.0, SVG Export Plug-In . SVG Version: 6.00 Build 0)  -->
<svg version="1.1" id="Layer_1" xmlns="http://www.w3.org/2000/svg" xmlns:xlink="http://www.w3.org/1999/xlink" x="0px" y="0px"
	 viewBox="0 0 100 100" style="enable-background:new 0 0 100 100;" xml:space="preserve">
<style type="text/css">
	.st0{fill:#FFFFFF;}
</style>
<title>All2</title>
<path class="st0" d="M78.2,64.3l12.2,12.1c-0.2,0.2-0.4,0.4-0.6,0.7c-6,6-12,12-18.1,18c-0.5,0.5-1,0.8-1.6,1
	c-4.3,1.3-8.6,2.6-12.9,3.8c-0.5,0.2-1,0.2-1.5,0.1c-0.8-0.2-1.3-1.1-1.1-2c0,0,0,0,0,0c1.3-4.7,2.7-9.3,4.1-13.9
	c0.1-0.3,0.3-0.6,0.6-0.9c6.2-6.3,12.5-12.5,18.7-18.8C78.1,64.4,78.1,64.3,78.2,64.3z M68.9,92.8c-0.4-1.9-0.7-3.7-1.1-5.6
	c-0.1-0.2-0.2-0.4-0.4-0.5c-1.8-0.4-3.7-0.8-5.6-1.2c-0.7,2.3-1.3,4.6-2,6.8c-0.3,0.8,0,1.7,0.7,2.2c0.5,0.5,1.2,0.6,1.8,0.3
	L68.9,92.8z"/>
<path class="st0" d="M94.2,72L82.6,60.6c1.7-1.8,3.3-3.7,5.1-5.4c1.5-1.1,3.5-1,4.9,0.2c2.2,2.1,4.3,4.2,6.4,6.4
	c1.4,1.5,1.4,3.8,0,5.4c-0.2,0.3-0.4,0.5-0.7,0.7L94.2,72z"/>
<path class="st0" d="M11.6,90.7c-4.2,0-7.9-2.7-9.2-6.8c-0.1-0.5-0.3-0.9-0.4-1.4L2,82.3V10.6c0-0.1,0.1-0.2,0.1-0.3l0-0.1l0-0.1
	c0.5-3.2,2.5-5.8,5.5-7.1C8.5,2.6,9.5,2.2,10.4,2h71.9c0.9,0.2,1.7,0.5,2.6,0.9c3.6,1.4,5.9,5,5.8,8.9c0.1,7.7,0,15.5,0,23.1
	c0,3.3,0,6.7,0,10c-0.2,0-0.3,0-0.5,0c-1.1,0-2.1,0.1-3.2,0.4V13.5H5.8v2c0,0.1,0,0.2,0,0.3c0,0.2,0,0.5,0,0.7v63.9
	c0,4.2,2.4,6.6,6.5,6.6h35.3c-0.4,1.3-0.7,2.5-1.1,3.7l-34.4,0C11.9,90.7,11.8,90.7,11.6,90.7z"/>
<rect x="21.4" y="48.4" class="st0" width="50" height="3.6"/>
<rect x="21.3" y="33" class="st0" width="50" height="3.6"/>
<path class="st0" d="M21.3,67.5v-3.7h42.1c-1.8,1.2-3.5,2.4-5.2,3.6c-0.1,0-0.1,0-0.2,0L21.3,67.5z"/>
</svg>
