<?xml version="1.0" encoding="UTF-8"?>
<svg width="256px" height="218px" viewBox="0 0 256 218" version="1.1" xmlns="http://www.w3.org/2000/svg" xmlns:xlink="http://www.w3.org/1999/xlink">
    <!-- Generator: Sketch 47.1 (45422) - http://www.bohemiancoding.com/sketch -->
    <title>cc-logo-fill</title>
    <desc>Created with Sketch.</desc>
    <defs></defs>
    <g id="Page-1" stroke="none" stroke-width="1" fill="none" fill-rule="evenodd">
        <g id="Artboard" transform="translate(-308.000000, -159.000000)" fill="#C69977">
            <g id="cc-logo2" transform="translate(305.000000, 131.000000)">
                <g id="cc-logo-fill" transform="translate(0.000000, 25.000000)">
                    <path d="M158.510855,218.065414 C190.389071,203.295314 211.893217,176.091729 223.023293,136.454659 L257.83733,136.454659 C242.408292,187.602607 209.299466,214.806192 158.510855,218.065414 Z" id="Path-8"></path>
                    <path d="M179.329623,136.480472 L215.188332,136.480472 C201.155898,188.533762 162.754803,220.164011 108.036047,220.164011 C51.4376893,220.164011 3.66335271,174.910986 3.66335271,108.442255 C3.66335271,41.4524945 68.6072685,3.53462852 111.066349,4.59057147 C63.7481824,27.7685665 40.0890992,62.3857943 40.0890992,108.442255 C40.0890992,155.989808 70.6080765,183.976724 109.425842,183.627066 C126.157573,183.476351 156.652227,186.725866 179.329623,136.480472 Z" id="Path-9"></path>
                    <path d="M179.568391,86.1251696 L213.611013,86.1251696 C212.427641,77.5216989 186.975395,39.870395 142.645726,46.2331812 C163.013839,57.1471613 175.321393,70.4444908 179.568391,86.1251696 Z" id="Path-11"></path>
                    <path d="M119.372475,175.688758 C106.476581,179.384265 44.7560768,174.884312 46.7828774,102.446623 C48.7227638,33.115245 114.955449,3.57053703 155.998568,3.12581563 C188.25869,2.77626212 246.506961,26.4881475 258.547515,86.7786438 L221.940613,86.7786438 C216.506162,68.9917883 190.329892,38.3006791 155.998568,38.3006791 C112.348363,38.3006791 81.6167495,77.0672557 81.0459186,104.09883 C80.6070772,124.880068 86.7994418,157.609046 119.372475,175.688758 Z" id="Path-10"></path>
                </g>
            </g>
        </g>
    </g>
</svg>