<?xml version="1.0" encoding="UTF-8"?>
<svg width="420px" height="224px" viewBox="0 0 420 224" version="1.1" xmlns="http://www.w3.org/2000/svg" xmlns:xlink="http://www.w3.org/1999/xlink">
    <!-- Generator: Sketch 47.1 (45422) - http://www.bohemiancoding.com/sketch -->
    <title>Combined Shape</title>
    <desc>Created with Sketch.</desc>
    <defs></defs>
    <g id="Page-1" stroke="none" stroke-width="1" fill="none" fill-rule="evenodd">
        <g id="Artboard" transform="translate(-223.000000, -158.000000)" fill="#AA4465">
            <g id="Group" transform="translate(223.000000, 158.000000)">
                <path d="M189.928039,31.1426532 C172.68508,52.5750087 170.794755,55.3804869 148.546936,79.4306341 C129.752609,52.4889013 65.6575888,55.7299167 63.8821774,108.35432 C62.1067661,160.978723 116.910825,168.915385 140.985987,151.171079 C182.464724,105.999771 205.86906,78.6944726 243.775877,31.1426532 C292.780495,-22.4003419 391.559149,-0.106076724 417.71484,56.3854905 C391.075556,67.5123955 382.082726,70.9681134 357.812789,79.4306341 C345.882446,62.7238865 309.716965,52.1647167 286.056202,78.6944726 C262.877933,102.838051 215.772419,159.99747 188.045376,192.622653 C95.3626502,266.405116 -4.62265,193.450825 0.165474479,108.35432 C-4.38494642,39.9954375 92.6646945,-47.7094288 189.928039,31.1426532 Z M275.254001,122.299129 C294.012005,173.397805 338.621241,161.069584 358.052483,142.013942 C393.23532,154.84408 401.062107,157.696179 420,165.541607 C363.844477,262.181242 248.400993,219.57424 229.118402,175.796454 C244.34218,158.475983 253.116885,149.124803 275.254001,122.299129 Z" id="Combined-Shape"></path>
            </g>
        </g>
    </g>
</svg>