<?xml version="1.0" encoding="utf-8"?>
<!-- Generator: Adobe Illustrator 21.1.0, SVG Export Plug-In . SVG Version: 6.00 Build 0)  -->
<svg version="1.1" id="Layer_1" xmlns="http://www.w3.org/2000/svg" xmlns:xlink="http://www.w3.org/1999/xlink" x="0px" y="0px"
	 viewBox="0 0 279 330.8" style="enable-background:new 0 0 279 330.8;" xml:space="preserve">
<style type="text/css">
	.st0{fill:none;stroke:#77AD99;stroke-width:7;stroke-miterlimit:10;}
	.st1{fill:none;stroke:#231F20;stroke-width:7;stroke-miterlimit:10;}
</style>
<g>
	<g>
		<path class="st0" d="M144.6,47.5l11.8,11.8c1.6,1.6,3.7,2.4,5.8,2.4c2.1,0,4.2-0.8,5.8-2.4c3.2-3.2,3.2-8.4,0-11.6L142.2,22
			c-3.2-3.2-8.4-3.2-11.6,0l-25.8,25.8c-3.2,3.2-3.2,8.4,0,11.6c3.2,3.2,8.4,3.2,11.6,0l11.9-11.9v246.9
			c-12.2-0.9-23.8-3.9-34.6-8.6V159.8l11.8,11.8c3.2,3.2,8.4,3.2,11.6,0c3.2-3.2,3.2-8.4,0-11.6l-25.8-25.8c-3.2-3.2-8.4-3.2-11.6,0
			L53.9,160c-3.2,3.2-3.2,8.4,0,11.6c1.6,1.6,3.7,2.4,5.8,2.4s4.2-0.8,5.8-2.4l11.9-11.9v117.1c-28.6-19.1-47.4-51.7-47.4-88.6
			c0-42.9,25.6-81.5,65.1-98.2c4.2-1.8,6.1-6.6,4.4-10.7c-1.8-4.2-6.6-6.1-10.7-4.4c-45.6,19.3-75.1,63.8-75.1,113.3
			c0,48.1,27.8,89.8,68.1,110c0.3,0.1,0.5,0.3,0.8,0.4c16.3,8,34.7,12.5,54,12.5c4.2,0,7.6-3.1,8.1-7.2c0.1-0.3,0.1-0.6,0.1-1
			L144.6,47.5L144.6,47.5z"/>
		<path class="st0" d="M179.4,73c-4.2-1.6-9,0.6-10.5,4.8c-1.6,4.2,0.6,9,4.8,10.5c41.5,15.5,69.3,55.6,69.3,99.9
			c0,36.8-19.2,70.9-49.9,90.2v-77.4l11.8,11.8c1.6,1.6,3.7,2.4,5.8,2.4s4.2-0.8,5.8-2.4c3.2-3.2,3.2-8.4,0-11.6l-25.8-25.8
			c-3.2-3.2-8.4-3.2-11.6,0l-25.8,25.8c-3.2,3.2-3.2,8.4,0,11.6c3.2,3.2,8.4,3.2,11.6,0l11.9-11.9v91.2c0,0.1,0,0.1,0,0.1
			c0,1.1,0.2,2.3,0.8,3.3c1.4,3,4.3,4.7,7.4,4.7c1.2,0,2.3-0.2,3.5-0.8c43.1-20.1,71-63.9,71-111.5C259.4,137.1,227.3,90.8,179.4,73
			z"/>
	</g>
</g>
<g>
	<g>
		<path class="st1" d="M153.6,47.5l11.8,11.8c1.6,1.6,3.7,2.4,5.8,2.4c2.1,0,4.2-0.8,5.8-2.4c3.2-3.2,3.2-8.4,0-11.6L151.2,22
			c-3.2-3.2-8.4-3.2-11.6,0l-25.8,25.8c-3.2,3.2-3.2,8.4,0,11.6c3.2,3.2,8.4,3.2,11.6,0l11.9-11.9v246.9
			c-12.2-0.9-23.8-3.9-34.6-8.6V159.8l11.8,11.8c3.2,3.2,8.4,3.2,11.6,0c3.2-3.2,3.2-8.4,0-11.6l-25.8-25.8c-3.2-3.2-8.4-3.2-11.6,0
			L62.9,160c-3.2,3.2-3.2,8.4,0,11.6c1.6,1.6,3.7,2.4,5.8,2.4s4.2-0.8,5.8-2.4l11.9-11.9v117.1c-28.6-19.1-47.4-51.7-47.4-88.6
			c0-42.9,25.6-81.5,65.1-98.2c4.2-1.8,6.1-6.6,4.4-10.7c-1.8-4.2-6.6-6.1-10.7-4.4C52,94.2,22.5,138.7,22.5,188.2
			c0,48.1,27.8,89.8,68.1,110c0.3,0.1,0.5,0.3,0.8,0.4c16.3,8,34.7,12.5,54,12.5c4.2,0,7.6-3.1,8.1-7.2c0.1-0.3,0.1-0.6,0.1-1
			L153.6,47.5L153.6,47.5z"/>
		<path class="st1" d="M188.4,73c-4.2-1.6-9,0.6-10.5,4.8c-1.6,4.2,0.6,9,4.8,10.5c41.5,15.5,69.3,55.6,69.3,99.9
			c0,36.8-19.2,70.9-49.9,90.2v-77.4l11.8,11.8c1.6,1.6,3.7,2.4,5.8,2.4c2.1,0,4.2-0.8,5.8-2.4c3.2-3.2,3.2-8.4,0-11.6l-25.8-25.8
			c-3.2-3.2-8.4-3.2-11.6,0l-25.8,25.8c-3.2,3.2-3.2,8.4,0,11.6c3.2,3.2,8.4,3.2,11.6,0l11.9-11.9v91.2c0,0.1,0,0.1,0,0.1
			c0,1.1,0.2,2.3,0.8,3.3c1.4,3,4.3,4.7,7.4,4.7c1.2,0,2.3-0.2,3.5-0.8c43.1-20.1,71-63.9,71-111.5C268.4,137.1,236.3,90.8,188.4,73
			z"/>
	</g>
</g>
</svg>
