<?xml version="1.0" encoding="UTF-8"?>
<svg width="96px" height="75px" viewBox="0 0 96 75" version="1.1" xmlns="http://www.w3.org/2000/svg" xmlns:xlink="http://www.w3.org/1999/xlink">
    <!-- Generator: Sketch 50.2 (55047) - http://www.bohemiancoding.com/sketch -->
    <title>ecommerce-2</title>
    <desc>Created with Sketch.</desc>
    <defs></defs>
    <g id="Page-1" stroke="none" stroke-width="1" fill="none" fill-rule="evenodd">
        <g id="ecommerce-2" fill="#D93940" fill-rule="nonzero">
            <path d="M27.3,53.9 C26.6,53.9 25.9,53.4 25.7,52.6 L13.5,3.8 L1.7,3.8 C0.8,3.8 0,3 0,2.1 C0,1.1 0.7,0.4 1.7,0.4 L14.9,0.4 C15.6,0.4 16.3,0.9 16.5,1.7 L19.3,12.9 L52.9,12.9 L53.6,16.3 L20.2,16.3 L28.7,50.4 L72,50.4 C73.7,50.4 75.3,50.1 76.8,49.6 L77.6,50.7 L77.2,52.6 C77,53.4 76.4,53.9 75.6,53.9 L27.3,53.9 Z" id="Shape"></path>
            <path d="M33.9,74.8 C30.9,74.8 28.5,72.4 28.5,69.4 C28.5,66.4 30.9,64 33.9,64 C36.9,64 39.3,66.4 39.3,69.4 C39.2,72.4 36.8,74.8 33.9,74.8 Z" id="Shape"></path>
            <path d="M66.7,74.8 C63.7,74.8 61.3,72.4 61.3,69.4 C61.3,66.4 63.7,64 66.7,64 C69.7,64 72.1,66.4 72.1,69.4 C72.1,72.4 69.7,74.8 66.7,74.8 Z" id="Shape"></path>
            <path d="M78.8,28.6 L72.1,36.5 C72,36.6 72,36.6 72,36.6 C72,36.6 71.8,36.6 71.8,36.5 L65.5,5.3 C65.5,5.2 65.5,5.2 65.5,5.1 C65.6,5 65.6,5 65.7,5 L93.4,20.8 C93.5,20.9 93.5,20.9 93.5,21 C93.5,21.1 93.5,21.1 93.4,21.1 L83.9,25 L95.6,41 L90.5,44.7 L78.8,28.6 Z" id="Shape"></path>
        </g>
    </g>
</svg>