<?xml version="1.0" encoding="utf-8"?>
<!-- Generator: Adobe Illustrator 22.1.0, SVG Export Plug-In . SVG Version: 6.00 Build 0)  -->
<svg version="1.1" xmlns="http://www.w3.org/2000/svg" xmlns:xlink="http://www.w3.org/1999/xlink" x="0px" y="0px"
	 viewBox="0 0 101.8 101.4" style="enable-background:new 0 0 101.8 101.4;" xml:space="preserve">
<style type="text/css">
	.st0{fill:#FFFFFF;}
</style>
<g id="Layer_2">
</g>
<g id="Layer_1">
	<path class="st0" d="M30.3,66.9c-0.7,0-1.4-0.5-1.6-1.3L16.5,16.8H4.7C3.8,16.8,3,16,3,15.1c0-1,0.7-1.7,1.7-1.7h13.2
		c0.7,0,1.4,0.5,1.6,1.3l2.8,11.2h33.6l0.7,3.4H23.2l8.5,34.1H75c1.7,0,3.3-0.3,4.8-0.8l0.8,1.1l-0.4,1.9c-0.2,0.8-0.8,1.3-1.6,1.3
		H30.3z"/>
	<path class="st0" d="M36.9,87.8c-3,0-5.4-2.4-5.4-5.4c0-3,2.4-5.4,5.4-5.4s5.4,2.4,5.4,5.4C42.2,85.4,39.8,87.8,36.9,87.8z"/>
	<path class="st0" d="M69.7,87.8c-3,0-5.4-2.4-5.4-5.4c0-3,2.4-5.4,5.4-5.4c3,0,5.4,2.4,5.4,5.4C75.1,85.4,72.7,87.8,69.7,87.8z"/>
	<path class="st0" d="M81.8,41.6l-6.7,7.9c-0.1,0.1-0.1,0.1-0.1,0.1c0,0-0.2,0-0.2-0.1l-6.3-31.2c0-0.1,0-0.1,0-0.2
		c0.1-0.1,0.1-0.1,0.2-0.1l27.7,15.8c0.1,0.1,0.1,0.1,0.1,0.2c0,0.1,0,0.1-0.1,0.1L86.9,38L98.6,54l-5.1,3.7L81.8,41.6z"/>
</g>
</svg>
