<?xml version="1.0" encoding="utf-8"?>
<!-- Generator: Adobe Illustrator 22.1.0, SVG Export Plug-In . SVG Version: 6.00 Build 0)  -->
<svg version="1.1" id="Layer_1" xmlns="http://www.w3.org/2000/svg" xmlns:xlink="http://www.w3.org/1999/xlink" x="0px" y="0px"
	 viewBox="0 0 364.1 48.7" style="enable-background:new 0 0 364.1 48.7;" xml:space="preserve">
<style type="text/css">
	.st0{fill:#F0535B;}
	.st1{fill:#EAC6A8;}
	.st2{fill:#FFFFFF;}
</style>
<title>farfetch-logo</title>
<g id="Layer_2_1_">
	<g id="Layer_1-2">
		<g id="layer1">
			<path class="st0" d="M152.2,9.8l-5.1-0.1l4.8-4.8l4.8-4.8h19.8v10L167,9.9C161.7,9.9,155.1,9.8,152.2,9.8z"/>
			<path class="st0" d="M4.8,4.8C7.5,2.2,9.7,0,9.7,0s0.1,2.2,0.1,4.8v4.8H0L4.8,4.8z"/>
		</g>
		<g id="layer2">
			<path class="st1" d="M292.9,43.9l-4.8-4.8l7.5-0.2c4.1-0.1,10.7-0.2,14.7-0.2h7.2v10h-19.8L292.9,43.9z"/>
			<path class="st1" d="M66.2,4.8c0-4,0.1-4.8,0.4-4.7s2.4,2.2,4.8,4.8l4.5,4.7h-9.7V4.8z"/>
		</g>
		<g id="layer3">
			<path class="st2" d="M0.1,29.2V9.7h9.7V0h19.6v10H10.1v9.4h14.5v10H10.1v19.3h-10V29.2z"/>
			<path class="st2" d="M46.5,29.2V9.8l4.9-4.9L56.3,0h9.8v9.7h10v39h-10V29.3h-9.4v19.4H46.5V29.2z M66.2,14.6V10h-9.4v9.4h9.4
				V14.6z"/>
			<path class="st2" d="M96.9,24.3V0H117l4.8,4.8l4.8,4.8v10.1H117l4.8,4.8l4.8,4.8v19.5h-10V29.3h-9.7v19.4h-10L96.9,24.3z
				 M116.5,14.7V10h-9.7v9.4h9.7V14.7z"/>
			<path class="st2" d="M147.3,29.2V9.7h10v9.7h14.5v10h-14.5v19.3h-10L147.3,29.2z"/>
			<path class="st2" d="M197.2,43.9l-4.8-4.8V9.5l4.8-4.8L202,0h20.1v10h-19.6v9.4h14.8v10h-14.8v9.3h19.6v10H202L197.2,43.9z"/>
			<path class="st2" d="M250.8,29.3V10h-9.7V0h29.3v10h-9.7v38.7h-10L250.8,29.3z"/>
			<path class="st2" d="M334.5,24.3V0h10v19.4h9.4V0h10.2v48.7h-10.3V29.3h-9.4v19.4h-10L334.5,24.3z"/>
			<path class="st2" d="M288.1,24.2V9.5l4.8-4.8l4.8-4.7h19.8v10h-19.4v29h-10L288.1,24.2z"/>
		</g>
	</g>
</g>
</svg>
