<?xml version="1.0" encoding="utf-8"?>
<!-- Generator: Adobe Illustrator 22.1.0, SVG Export Plug-In . SVG Version: 6.00 Build 0)  -->
<svg version="1.1" id="Layer_1" xmlns="http://www.w3.org/2000/svg" xmlns:xlink="http://www.w3.org/1999/xlink" x="0px" y="0px"
	 viewBox="0 0 313.5 58.9" style="enable-background:new 0 0 313.5 58.9;" xml:space="preserve">
<style type="text/css">
	.st0{fill:#FFFFFF;}
</style>
<title>food52-logo</title>
<g id="Layer_2_1_">
	<g id="Layer_1-2">
		<path class="st0" d="M176.1,1c12.3,0.3,24.7-1.8,36.9,1.4c11.7,3,18.5,11.4,19,23.5c0.2,4.1,0,8.2-0.8,12.2
			c-2.2,10.8-9.9,17.7-21.9,18.9c-10.9,1-21.9,0.9-32.9,1c4.2-1.1,5.2-2.3,5.2-6.5c0-14.3,0-28.5,0-42.8C181.7,3.1,181,2.2,176.1,1z
			 M189.1,28.7L189.1,28.7c0,7,0,14,0,21c0,0.8,0.2,1.5,0.3,2.3c0.2,2.5,1.5,4.2,4,4.7c7.8,1.5,20.7-1,26.5-10.7
			c4.1-6.8,4.7-14.2,3.9-21.9c-0.6-5.6-2.4-10.8-6.4-15c-5.7-6.1-13.1-7.6-21-7.6c-5.5,0-7.3,1.9-7.3,7.4
			C189,15.6,189.1,22.1,189.1,28.7L189.1,28.7z"/>
		<path class="st0" d="M75.5,0c12.9-0.4,28.7,9,28.6,29.4C104,50.2,88,59.1,75.1,58.8c-16.4-0.3-28.7-12.7-28.7-29.5S58.7,0,75.5,0z
			 M95.9,29.7c-0.1-7.4-1.5-14-5.4-20C82.7-2.6,67.4-2.6,60.1,9.9c-7.6,13-7.3,26.5,0.3,39.5c6.9,11.8,22.7,11.3,29.8,0.4
			C93.9,43.8,95.9,36.8,95.9,29.7z"/>
		<path class="st0" d="M142,0c16.4,0,28.4,12.3,28.6,29.2s-12.2,29.7-29.1,29.6C125,58.7,112.9,46.1,112.9,29
			C113,12.3,125.3,0,142,0z M162.4,29.1c-0.1-7.3-1.7-14.2-5.9-20.3c-7.7-11.1-22.2-10.9-29.7,0.4s-7.2,29.1,0,40.4
			s22.6,11.2,29.7,0.3C160.6,43.6,162.3,36.6,162.4,29.1L162.4,29.1z"/>
		<path class="st0" d="M31,18.2c0,5.9,0,11.8,0,17.8c0,0.2-0.1,0.3-0.2,0.5c-2.5-7.6-8.8-10.8-16.6-8.6c-0.7,0.5-1.2,1.2-1.3,2.1
			c-0.1,7.2-0.2,14.4-0.1,21.5c0.1,4.2,1,5.1,5.2,6H0.6c1.2-0.6,2.8-1,3.6-2c0.8-1.3,1.3-2.8,1.2-4.3c0.1-14.6,0.1-29.1,0-43.7
			c0-4.3-1-5.4-5.4-6.5h5.3c10.4,0,20.8,0.1,31.2-0.1c2,0,3,0.6,3.5,2.5c0.9,3.1,2,6.2,2.8,9.6c-0.7-1.1-1.5-2.2-2.2-3.3
			c-3.7-5.3-8.7-8.2-15.3-8c-3.3,0.1-6.6,0.1-9.9,0c-1.9,0-2.6,0.7-2.6,2.6c0.1,6.8,0.1,13.6,0,20.4c0,1.7,0.6,2.5,2.4,2.4
			c1.3-0.1,2.5,0,3.8,0C26.2,26.9,28.7,25,31,18.2z"/>
		<path class="st0" d="M275.2,57.2c-1.4-2.4,0.3-3.6,1.4-4.7c6.2-6.4,12.4-12.8,18.6-19.3c3.1-3.1,6-6.3,8.8-9.7
			c3.7-4.9,2.7-12.6-1.7-17.1C297.9,1.9,291,1,285.7,4.2c-4,2.5-5.8,6.4-6.4,10.9c0,0.6,0,1.2-0.2,1.7c-0.3,0.6-0.8,1.1-1.2,1.6
			c-0.3-0.5-0.8-1-0.9-1.6c-0.8-7.4,5.5-15.4,12.8-16.4c7.5-1,13.4,1.8,16.6,7.9c3.4,6.1,2.4,13.8-2.5,18.9
			c-4.6,5-9.3,9.9-13.9,14.9c-4.1,4.4-3.5,8.4,1.7,11.4c7.2,4.2,14,2.8,19.1-4.2c0.5-0.6,1.1-1.2,1.8-1.7l0.9,0.5
			c-0.4,1.2-0.9,2.3-1.5,3.4c-4,5.8-11.4,8.1-18,5.7c-2-0.7-4-1.5-5.9-2.5c-3.1-1.8-7-1.5-9.8,0.7C277.3,56.2,276.3,56.7,275.2,57.2
			z"/>
		<path class="st0" d="M259.2,0.9c3.1,0,6.2-0.1,9.3,0c0.7,0.2,1.4,0.5,2,0.9c-0.6,0.4-1.3,1.1-2,1.1c-5.4,0.1-10.9,0.1-16.3,0
			c-2.1,0-3.1,0.5-3.4,2.8c-0.3,2.7-1.1,5.3-1.6,8c-0.6,3.2,0.8,5.3,4.1,5.8c1.5,0.2,3.1,0.3,4.6,0.2c9.9-0.5,18.7,6.8,19.8,16.4
			c1.2,10.8-5.8,20.4-16,21.9c-10,1.4-19.3-5.4-21.1-15.3c-0.2-1,0.3-2,0.5-3c0.6,0.9,1.5,1.8,1.7,2.8c1.6,8.2,9,13.9,17.4,13.5
			c6.1-0.2,12.1-4.8,14.4-11.1c2.5-7,0.9-13.2-4.3-18.4c-4.9-4.8-10.9-5.9-17.2-3.5c-2.1,0.8-3.8,3-5.7,4.4c-0.8,0.4-1.6,0.8-2.4,1
			c-0.2-0.8-0.3-1.6-0.3-2.4c1.4-7.6,2.9-15.2,4.3-22.9c0.3-1.7,1.2-2.1,2.8-2.1C252.8,1,256,0.9,259.2,0.9L259.2,0.9z"/>
	</g>
</g>
</svg>
