<?xml version="1.0" encoding="utf-8"?>
<!-- Generator: Adobe Illustrator 22.1.0, SVG Export Plug-In . SVG Version: 6.00 Build 0)  -->
<svg version="1.1" id="Layer_1" xmlns="http://www.w3.org/2000/svg" xmlns:xlink="http://www.w3.org/1999/xlink" x="0px" y="0px"
	 viewBox="0 0 792 171.7" style="enable-background:new 0 0 792 171.7;" xml:space="preserve">
<style type="text/css">
	.st0{fill:#FFFFFF;}
</style>
<path class="st0" d="M129.2,110.1c-8.3,0-16.6,0-26,0c1.3-7.2,2.2-13.5,3.7-19.6c0.3-1.2,2.7-2.7,4.2-2.7
	c16.5-0.2,33.1-0.1,51.2-0.1c-4.9,25.4-9.7,49.9-14.5,74.8c-7.8,0-15.1,0-23,0c-0.2-4-0.4-7.7-0.6-11c-7.5,3.8-14.5,9-22.4,11.2
	c-36.4,9.9-68.9-13-72.1-50.7C26.9,78.7,35.3,49,63,28.3c23.7-17.7,50.6-22.9,78.7-10.5c15.8,7,22.7,21.4,25.9,37.6
	c0.3,1.3-1.4,3.6-2.8,4.6c-1.4,1.1-3.6,1.2-5.5,1.6c-5.1,1.2-11,4.4-15.2,2.9c-3.7-1.3-5.4-8-8-12.3c-8.1-13.3-22.4-17.9-39.8-12.7
	c-20.2,6-36.3,27.6-37.6,50.7c-0.4,6.9-0.5,14.1,0.8,20.8c6.1,32.5,39.5,33.1,55.8,20c6.1-4.9,10.5-12,15.7-18
	C130.4,111.9,129.8,111,129.2,110.1z"/>
<path class="st0" d="M588.6,117.9c-0.7,11.7,3,18.3,11.5,22c12.1,5.2,22.6,1,39.4-16.2c6.5,3.4,13.2,6.8,20.5,10.6
	c-9.9,15.9-22.6,26.2-40.5,29.6c-26.9,5-49.5-7-56.5-30.2c-9.7-32,9.4-67.9,41.5-77.4c13.9-4.1,27.9-4.9,41.5,1.6
	c18.4,8.7,29.2,40.4,19.5,57.6c-0.9,1.6-4.4,2.4-6.7,2.4c-20.7,0.2-41.4,0.1-62,0.1C594.3,117.9,591.7,117.9,588.6,117.9z
	 M641.4,96.1c-0.6-12.7-6.7-19.3-18.2-19.9c-12.9-0.8-26.6,8.8-28.5,19.9C610.3,96.1,625.8,96.1,641.4,96.1z"/>
<path class="st0" d="M269.9,164.7c-33.2-0.2-52.1-22.4-47.9-56.5c4.7-37.6,36.4-60.9,73.5-53.7c21.1,4.1,35.5,21.2,35.9,42.6
	c0.6,34.9-17.7,60.1-48.5,66.4C278.6,164.4,274.2,164.3,269.9,164.7z M302.6,106c0.2-16-5.4-25.8-15.5-28.9
	c-11.2-3.3-25,2-30.8,14.2c-3.7,7.9-4.9,17.4-5.5,26.2c-0.7,9.3,2.9,18,12,22c8.9,4,17.9,2.3,25.8-3.6
	C299.3,128.1,301.9,116.6,302.6,106z"/>
<path class="st0" d="M490.8,84.5c-5.5-2.9-10-6.1-15-7.8c-5.2-1.7-10.4,0-12.6,5.5c-2.2,5.4,0.9,9.2,5.6,11.7
	c3.6,1.9,7.3,3.6,11,5.3c18.1,8,24.9,17.6,23.2,33c-1.8,17.2-12.2,28-30.4,31.6c-21.8,4.4-41-4-49.6-21.6c-4-8.2-3.6-9.3,4.6-12.7
	c4.6-1.9,9.3-3.9,14.4-6c1.1,2.1,2.1,3.9,3,5.7c4.6,9.4,12.2,13.9,22.2,11.6c3.6-0.8,8-4.3,9.1-7.6c0.9-2.7-1.4-8.2-4-10.2
	c-6.5-4.8-14.1-8-21.1-12.3c-23.3-14.4-15.5-43.8,0.3-52c14.6-7.6,29.5-7.8,44.1,0.1c3.7,2,6.7,5.3,9.8,8.3c2.7,2.6,2.9,5.1-0.8,7.5
	C499.7,77.8,495,81.5,490.8,84.5z"/>
<path class="st0" d="M402.5,84.7c-4.5-2.7-8.4-5.6-12.7-7.5c-5.6-2.4-11.1-1.5-14.4,4.2c-2.7,4.8-0.3,9.5,6.5,13.1
	c5.7,3,11.7,5.5,17.5,8.4c24.3,12.2,17.2,44,1.3,54.5c-23.2,15.4-56.4,6.6-66.7-18c-2-4.7-1.8-7.5,3.6-9.3s10.6-4.3,16.6-6.8
	c1.2,2.5,2.3,4.8,3.4,7c4.6,8.8,13.7,13.2,23,10.2c3.2-1,7-4.4,7.8-7.4c0.7-2.9-1.1-8-3.5-9.8c-6.5-4.8-14-8.2-21-12.3
	c-23.8-14.1-16.8-44.5,0.9-53.2c10-4.9,20.8-7.2,31.4-3.4c7.4,2.6,14.2,7.4,20.8,11.9c3.5,2.4,3.6,5.7-0.9,8.4
	C411.3,78,406.8,81.7,402.5,84.7z"/>
<path class="st0" d="M195.3,162.4c-8.5,0-16.9,0-26.3,0c2-11.1,3.9-21.6,6-32.1c7-36.4,14.2-72.8,20.9-109.4
	c1.4-7.5,3.9-11.1,12-9.8c4,0.6,8.2-0.3,12.2,0.3c1.6,0.3,4.3,3.2,4.1,4.4c-9.1,48-18.5,95.9-27.8,143.8
	C196,160.6,195.6,161.5,195.3,162.4z"/>
<path class="st0" d="M718.3,69c13.6-13.6,28.2-19.5,46.7-13c-2.7,7.3-5,13.8-7.7,20.1c-0.6,1.3-3.4,2.8-4.7,2.4
	c-13.4-3.7-22.7,2.4-30.8,11.9c-10.5,12.4-13.5,27.7-16.4,43.1c-1.8,9.6-3.8,19.2-5.7,28.9c-8.8,0-17.2,0-26.7,0
	c1.8-10,3.4-19.6,5.2-29.1c4.7-24.2,9.6-48.4,14.1-72.6c0.9-5,3.1-6.4,7.7-6.1c4.3,0.2,8.7,0.3,13,0c6.6-0.5,8.1,2.3,6.2,8.2
	C718.6,64.3,718.6,66,718.3,69z"/>
<path class="st0" d="M536.1,162.3c-8.7,0-17,0-26.4,0c2.3-12.3,4.4-24,6.7-35.7c4.2-21.9,8.7-43.7,12.8-65.6
	c0.9-4.7,2.6-6.4,7.4-6.5c20.8-0.3,21-0.4,17.1,20c-5.2,27.5-10.6,55-16,82.5C537.4,158.9,536.6,160.7,536.1,162.3z"/>
<path class="st0" d="M755.9,164.9c-9,0.2-15.6-6.2-15.7-15.1c-0.1-8.7,6.7-15.7,15.4-15.6c8.3,0,15.1,6.7,15.3,15
	C771.2,158,764.7,164.7,755.9,164.9z"/>
<path class="st0" d="M533.4,28.1c0.1-8.7,6.2-15.1,14.7-15.2c8.5-0.2,15.6,6.8,15.7,15.4c0.1,8.8-6.6,15.4-15.4,15.4
	C539.4,43.7,533.4,37.4,533.4,28.1z"/>
</svg>
