<?xml version="1.0" encoding="utf-8"?>
<!-- Generator: Adobe Illustrator 22.1.0, SVG Export Plug-In . SVG Version: 6.00 Build 0)  -->
<svg version="1.1" id="Layer_1" xmlns="http://www.w3.org/2000/svg" xmlns:xlink="http://www.w3.org/1999/xlink" x="0px" y="0px"
	 viewBox="0 0 337 115" style="enable-background:new 0 0 337 115;" xml:space="preserve">
<style type="text/css">
	.st0{fill:#FFFFFF;}
</style>
<title>goop-logo</title>
<desc>Created with Sketch.</desc>
<g id="Page-1">
	<g id="goop-logo">
		<g id="Shape" transform="translate(62.000000, 12.000000)">
			<path class="st0" d="M17.8,31.7c0,9.2,1.8,13.6,7.3,13.6c5.7,0,7.6-4.6,7.6-14.5c0-9.1-1.9-13.6-7.4-13.6
				C19.9,17.2,17.8,21.7,17.8,31.7L17.8,31.7z M5.9,73.9c0,5.9,6,9.8,17.5,9.8c12.2,0,18.4-3.5,18.4-9.1c0-3.7-2.8-5.7-8.3-6.2
				c-9.1-0.8-17.1,0.3-23.1-1.5C7.5,68.5,5.9,71.1,5.9,73.9L5.9,73.9z M46.4,31c0,8.7-7.1,14.7-20.8,16.3C17.7,48.2,13,49,13,52.7
				c0,3.8,7,3.2,18.4,3.5C43.9,56.5,50.5,60,50.5,69c0,10.3-9.8,17-27.2,17C8.1,86,0,81.2,0,74.5c0-2.3,1.1-4.4,3.1-6
				c1.5-1.2,3.2-2,5.1-2.5c-3-1.8-4.5-4.5-4.5-8c0-7,5.5-10.9,16.4-11.5c-10.5-1.9-16-7-16-14.6c0-8.6,8-15.8,20.7-16.4
				C25.6,5.6,30.5,0,35.8,0c3.5,0,5.8,2.4,5.8,5.5c0,3.6-2.4,6.1-5.7,6.1c-2,0-3.4-1.3-5-1.3c-2.6,0-3.9,1.5-4.2,5
				C39,16,46.4,22.5,46.4,31L46.4,31z M64.9,40c0,15.3,3.7,22.8,11.6,22.8S88.2,55.3,88.2,40s-3.9-22.9-11.7-22.9
				C68.6,17.2,64.9,24.8,64.9,40L64.9,40z M102.5,40c0,14.4-10.6,24.9-26,24.9S50.6,54.5,50.6,40c0-14.4,10.5-24.9,25.9-24.9
				S102.6,25.6,102.5,40L102.5,40z M121.5,40c0,15.3,3.7,22.8,11.6,22.8s11.7-7.5,11.7-22.8s-3.9-22.9-11.7-22.9
				C125.2,17.2,121.5,24.8,121.5,40L121.5,40z M159.1,40c0,14.4-10.6,24.9-26,24.9S107.2,54.5,107.2,40c0-14.4,10.5-24.9,25.9-24.9
				S159.1,25.6,159.1,40L159.1,40z M188,62.3c7.2,0,12.6-7.3,12.6-20.8c0-12.5-5.9-19.9-12.4-19.9c-3.2,0-5.9,1.4-8.7,4v22.8
				C179.4,57.5,181.7,62.3,188,62.3L188,62.3z M179.4,74.5c0,4.4,0.7,6.7,3.5,7.5c2.2,0.7,3.8,0.4,3.8,1.8c0,0.7-0.5,1.3-1.5,1.3
				h-24.3c-0.4,0-0.7-0.1-1-0.3c-0.3-0.2-0.4-0.6-0.4-0.9c0-1.3,1.5-1,3.3-1.7c2.8-1.2,3.6-3.1,3.6-7.6v-43c0-4.6-0.9-6.3-4.2-7.6
				c-1.7-0.7-3.1-0.6-3.1-1.8c0-1.8,6.5-1.4,20.3-6.6v7.2c6.2-5,11.4-7.5,16.9-7.5c10.1,0,17.7,8.5,17.7,21.4
				c0,16.4-11.1,28-27.1,28c-2.5,0-5-0.4-7.5-1.1L179.4,74.5L179.4,74.5z"/>
		</g>
	</g>
</g>
</svg>
