<?xml version="1.0" encoding="utf-8"?>
<!-- Generator: Adobe Illustrator 22.1.0, SVG Export Plug-In . SVG Version: 6.00 Build 0)  -->
<svg version="1.1" id="Layer_1" xmlns="http://www.w3.org/2000/svg" xmlns:xlink="http://www.w3.org/1999/xlink" x="0px" y="0px"
	 viewBox="0 0 337 115" style="enable-background:new 0 0 337 115;" xml:space="preserve">
<style type="text/css">
	.st0{fill:#FFFFFF;}
</style>
<title>hbx-logo</title>
<desc>Created with Sketch.</desc>
<g id="Page-1">
	<g id="hbx-logo">
		<g transform="translate(79.000000, 25.000000)">
			<rect id="_Path_" x="65" class="st0" width="16" height="67"/>
			<path id="_Path_2" class="st0" d="M97.3,30.9c7.5-1.9,13.9-6.5,13.9-14.7S104.2,0,88.5,0H83v3.3h1.5c7.7,0,11,4.3,11,14.4
				c0,9.1-5.9,12.3-10.9,12.3H83v3.3h2.3c7.8,0,12.3,5.5,12.3,15c0,10.3-4.4,15.2-13.7,15.2H83V67h4.5c17,0,27.5-7.2,27.5-18.6
				C115,39.1,108.2,32.7,97.3,30.9z"/>
			<rect id="_Path_3" class="st0" width="16" height="67"/>
			<polygon id="_Path_4" class="st0" points="38.9,30.1 19,30.1 19,33.4 38.9,33.4 38.9,67 55,67 55,0 38.9,0 			"/>
			<polygon id="_Path_5" class="st0" points="170,0 165.2,0 152,18.5 154.2,22 			"/>
			<polygon id="_Path_6" class="st0" points="118,67 122.6,67 141,40.6 138.8,37 			"/>
			<polygon id="_Path_7" class="st0" points="137.2,0 118,0 159.8,67 179,67 			"/>
		</g>
	</g>
</g>
</svg>
