<?xml version="1.0" encoding="utf-8"?>
<!-- Generator: Adobe Illustrator 22.1.0, SVG Export Plug-In . SVG Version: 6.00 Build 0)  -->
<svg version="1.1" id="Layer_1" xmlns="http://www.w3.org/2000/svg" xmlns:xlink="http://www.w3.org/1999/xlink" x="0px" y="0px"
	 viewBox="0 0 297.3 96" style="enable-background:new 0 0 297.3 96;" xml:space="preserve">
<style type="text/css">
	.st0{fill:#FFFFFF;}
	.st1{fill:#7BC144;}
	.st2{fill:#010101;}
</style>
<title>houzz-logo</title>
<g id="Layer_2_1_">
	<g id="Layer_1-2">
		<g id="layer1">
			<path class="st0" d="M14,56L0.2,48.1c-0.1-0.1,5.3-3.3,13.4-8c7.5-4.3,13.7-7.9,13.9-8s0.2,5.9,0.2,15.8c0,8.7-0.1,15.9-0.1,15.9
				S21.4,60.3,14,56z"/>
		</g>
		<g id="layer2">
			<path class="st1" d="M27.7,80V64l-0.9,0.5l-1.8,1l-1.6,0.9c-0.4,0.2-1,0.6-1.4,0.8c-0.7,0.4-5.4,3.1-12.4,7.2l-6.9,4L0.1,80
				L0,64.1c0-8.7,0-15.9,0-16s6.2,3.5,13.6,7.8s13.7,7.9,13.9,7.9s6.5-3.4,14-7.7s13.7-7.9,13.8-7.9s0.1,7.2,0.1,16V80l-0.8,0.5
				c-0.5,0.3-3,1.7-5.7,3.3l-9.7,5.6l-5.2,3l-2.3,1.3c-1.1,0.6-2.5,1.4-3,1.8l-1,0.6L27.7,80z"/>
			<path class="st1" d="M0,31.9V16l0.4-0.2c0.8-0.5,9.1-5.2,10-5.8C10.9,9.7,12,9,13,8.4s3.8-2.2,6.4-3.7s5.4-3.1,6.4-3.7L27.6,0
				l0.1,16v16l4.2-2.4l7.5-4.4c1.8-1.1,4.8-2.8,6.5-3.8l4.2-2.4l3.1-1.8l2-1.2L55.3,32c0,8.7,0,15.9,0,16s-6.2-3.6-13.8-8
				s-13.8-7.9-13.9-7.9s-6.3,3.6-13.8,7.9S0.1,47.9,0.1,47.9S0,40.7,0,31.9z"/>
		</g>
		<g id="layer3">
			<path class="st0" d="M142.8,80.7c-1.2-0.2-2.4-0.6-3.6-1c-6.9-2.9-11.1-7.7-12.9-14.7c-0.5-3.3-0.5-6.6,0-9.8
				c0.6-2.4,1.6-4.8,3.1-6.8c2.4-3.6,5.9-6.3,9.9-7.9c2.5-1,5.1-1.4,7.8-1.2c1.7-0.1,3.4,0,5.1,0.4c4,0.9,7.6,3,10.4,6
				c8,8.4,7.6,21.7-0.8,29.7c-2.9,2.8-6.6,4.7-10.6,5.4C148.4,81.1,145.5,81.1,142.8,80.7z M150.7,73.4c5.7-1.5,9.4-6.7,9.4-13.4
				c0-2-0.4-4-1.1-5.9c-0.1-0.2-0.2-0.5-0.3-0.7c-0.5-1-1.1-2-1.7-2.9c-1.7-1.9-3.8-3.2-6.2-3.9c-2.4-0.5-4.8-0.6-7.2-0.1
				c-4.5,1.2-8,4.8-9.1,9.4c-0.6,2.7-0.6,5.4,0,8.1c1.4,5.2,4.9,8.6,9.8,9.5C146.4,73.9,148.6,73.8,150.7,73.4z"/>
			<path class="st0" d="M191.4,80.6c-1.9-0.3-3.7-1-5.4-1.9c-4.4-2.1-7.1-5.8-8.4-11.2c-0.3-1.3-0.3-3-0.4-14.5l-0.1-13h7.7
				l0.1,12.3c0.1,11.9,0.1,12.4,0.5,13.5c0.7,2.6,2.4,4.8,4.6,6.3c1.6,1,3,1.3,5.7,1.3c1.3,0.1,2.5,0,3.8-0.4c3.3-1.2,5.8-4,6.6-7.4
				c0.4-1.3,0.4-1.9,0.5-13.5l0.1-12.2h7.5v13c0,14,0,14.3-1,17.1c-1.4,3.9-4.3,7.1-8.1,8.8c-0.9,0.5-1.9,0.9-2.9,1.2
				C198.7,81.1,195,81.3,191.4,80.6z"/>
			<path class="st0" d="M80.8,48.1v-32h7.7v13.7c0,7.5,0.1,13.7,0.2,13.7s0.3-0.2,0.5-0.4c1.1-1.2,4-2.7,6.6-3.5
				c1.5-0.4,3.1-0.6,4.7-0.5c6.8-0.4,13.1,3.8,15.5,10.2c0.9,2.8,1,3.6,1,17.6v13h-7.7V68.6c0-10.7,0-11.5-0.4-13.1
				c-0.9-4.2-3.2-7-6.8-8.2c-1-0.3-2-0.4-3-0.4c-3.3-0.2-5.4,0.6-7.4,2.5c-1.5,1.5-2.4,3.4-2.8,5.4c-0.3,1.6-0.4,2.5-0.4,13.5V80
				h-7.7L80.8,48.1z"/>
			<path class="st0" d="M223.2,76.5V73l0.6-0.7c1.1-1.3,1.4-1.7,3-3.5c0.9-1,1.6-1.9,1.6-1.9s0.8-0.9,1.6-1.9
				c2.2-2.6,8.4-9.9,8.6-10.1l1.1-1.2l1.7-2c0.5-0.5,1-1.2,1.2-1.4s1-1.1,1.6-1.9l1.2-1.4l-10.9-0.1h-10.9V40h31.4v6.9l-2.8,3.3
				c-1.6,1.8-3.1,3.6-3.3,3.9s-0.8,0.9-1.2,1.3c-0.9,1-0.7,0.8-6,7c-2.4,2.8-4.7,5.5-5.2,6.1s-1.5,1.8-2.4,2.8l-1.6,1.8l11.8,0.1
				h11.8V80h-33.1L223.2,76.5z"/>
			<path class="st0" d="M264.2,76.5V73l2-2.3l2.8-3.4c0.5-0.6,1.1-1.2,1.3-1.5l1.2-1.5l1.6-1.9c0.5-0.5,1-1.2,1.2-1.4
				c4.5-5.2,6-7,7-8.3c1.7-2,3.9-4.6,4.5-5.3l0.5-0.6l-10.9-0.1h-10.9V40h31.4v6.9l-1.7,2.1c-1,1.1-1.9,2.2-2,2.3
				c-0.3,0.3-1.8,2-5.1,6c-1.7,2-3.5,4.1-4,4.7l-4.5,5.3c-2,2.3-3.9,4.5-4.2,4.8c-1.3,1.4-2.2,1.2,10.9,1.2h11.8V80h-33.1
				L264.2,76.5z"/>
			<path class="st2" d="M27.7,48c0-8.7,0-15.9,0.1-15.9s6.1,3.5,13.5,7.8l13.8,8c0.2,0.1-2.6,1.8-13.3,8.1c-7.5,4.4-13.8,7.9-13.9,8
				S27.7,57.6,27.7,48z"/>
		</g>
	</g>
</g>
</svg>
