<?xml version="1.0" encoding="utf-8"?>
<!-- Generator: Adobe Illustrator 22.1.0, SVG Export Plug-In . SVG Version: 6.00 Build 0)  -->
<svg version="1.1" id="Layer_1" xmlns="http://www.w3.org/2000/svg" xmlns:xlink="http://www.w3.org/1999/xlink" x="0px" y="0px"
	 viewBox="0 0 337 115" style="enable-background:new 0 0 337 115;" xml:space="preserve">
<style type="text/css">
	.st0{fill:#FFFFFF;}
</style>
<title>hypebeast-logo</title>
<desc>Created with Sketch.</desc>
<g id="Page-1">
	<g id="hypebeast-logo">
		<g transform="translate(0.000000, 37.000000)">
			<path class="st0" d="M25,0.9h8.8V41H25V23.7H8.8V41H0V0.9h8.8v15.4H25V0.9z M66.6,0.9h9.8L61.6,25.6V41h-8.8V25.4L38.1,0.9H48
				l9.4,15.8L66.6,0.9z M98.8,0.9c2.2-0.1,4.4,0.3,6.4,1.1c1.6,0.6,3.1,1.6,4.3,2.9c1.1,1.2,1.9,2.6,2.4,4.1c1,3.1,1,6.4,0,9.5
				c-0.5,1.5-1.3,2.9-2.4,4.1c-1.2,1.3-2.7,2.3-4.3,2.9c-2,0.8-4.2,1.1-6.4,1.1h-9.3V41h-8.8v-40H98.8z M96.4,19.8
				c1,0,2-0.1,2.9-0.2c0.9-0.1,1.7-0.4,2.5-0.9c0.7-0.4,1.3-1.1,1.7-1.8c0.5-1,0.7-2,0.6-3.1c0-1.1-0.2-2.1-0.6-3.1
				c-0.4-0.7-1-1.4-1.7-1.8c-0.8-0.4-1.6-0.7-2.5-0.9c-1-0.2-1.9-0.2-2.9-0.2h-6.8v12H96.4z M147.8,0.9v7.4h-21.2v8.6H146v6.9h-19.4
				v9.8h21.6V41h-30.4V0.9H147.8z M172.7,0.9c1.8,0,3.5,0.2,5.2,0.5c1.4,0.3,2.8,0.8,4,1.6c1.1,0.8,2,1.8,2.6,3.1
				c0.7,1.5,1,3.1,0.9,4.7c0.1,1.8-0.4,3.6-1.4,5.1c-1,1.4-2.4,2.6-4.1,3.3c2.2,0.5,4.2,1.8,5.5,3.7c1.3,1.9,1.9,4.1,1.8,6.4
				c0,1.8-0.4,3.6-1.2,5.2c-0.8,1.4-1.8,2.7-3.2,3.6c-1.4,1-2.9,1.7-4.5,2.1c-1.7,0.4-3.5,0.7-5.2,0.7h-19.4v-40H172.7z M171.6,17.2
				c1.4,0.1,2.7-0.3,3.9-1.1c1.1-0.9,1.7-2.2,1.5-3.6c0-0.8-0.1-1.6-0.5-2.3c-0.3-0.6-0.8-1.1-1.4-1.4c-0.6-0.3-1.2-0.6-1.9-0.7
				c-0.8-0.1-1.5-0.2-2.3-0.2h-8.2v9.4H171.6z M172.1,34.2c0.8,0,1.7-0.1,2.5-0.2c0.7-0.1,1.4-0.4,2.1-0.8c0.6-0.4,1.1-1,1.4-1.6
				c0.4-0.8,0.6-1.7,0.5-2.6c0-2.1-0.6-3.5-1.7-4.4c-1.3-0.9-3-1.4-4.6-1.3h-9.6v11L172.1,34.2z M222.5,0.9v7.4h-21.2v8.6h19.4v6.9
				h-19.4v9.8H223V41h-30.4V0.9H222.5z M250.5,0.9l15,40h-9.1l-3-8.9h-15l-3.1,8.9h-8.9l15.1-40H250.5z M251,25.5l-5-14.7h-0.1
				l-5.2,14.7H251z M276,31.1c0.5,0.9,1.2,1.7,2,2.3c0.9,0.6,1.8,1,2.8,1.3c1.1,0.3,2.2,0.4,3.4,0.4c0.8,0,1.7-0.1,2.5-0.2
				c0.9-0.1,1.7-0.4,2.5-0.8c0.8-0.3,1.5-0.9,2-1.5c0.5-0.7,0.8-1.6,0.8-2.5c0-1-0.3-1.9-1-2.6c-0.8-0.7-1.7-1.3-2.7-1.7
				c-1.2-0.5-2.5-0.9-3.8-1.2c-1.4-0.3-2.9-0.7-4.3-1.1c-1.5-0.4-2.9-0.8-4.4-1.4c-1.4-0.5-2.7-1.2-3.8-2.1
				c-2.5-1.9-3.9-4.8-3.8-7.9c0-1.9,0.4-3.7,1.3-5.4c0.8-1.5,2-2.8,3.3-3.8c1.5-1,3.1-1.8,4.8-2.2c1.8-0.5,3.6-0.7,5.4-0.7
				c2,0,4,0.2,6,0.7c1.8,0.4,3.6,1.2,5.2,2.2c1.5,1,2.7,2.4,3.6,4c0.9,1.9,1.4,3.9,1.3,6h-8.5c0-1-0.3-2.1-0.8-3
				c-0.4-0.8-1-1.4-1.7-1.8c-0.7-0.5-1.6-0.8-2.4-1c-1-0.2-2-0.3-3-0.3c-0.7,0-1.4,0.1-2.1,0.2c-0.7,0.1-1.3,0.4-1.9,0.8
				c-0.6,0.4-1.1,0.8-1.4,1.4c-0.4,0.6-0.6,1.4-0.6,2.1c0,0.7,0.1,1.3,0.5,1.9c0.5,0.6,1.1,1.1,1.8,1.3c1.2,0.5,2.4,0.9,3.6,1.2
				c1.6,0.4,3.6,0.9,6.1,1.6c0.8,0.1,1.8,0.4,3.1,0.8c1.4,0.4,2.7,1.1,4,1.9c1.4,0.9,2.5,2.1,3.4,3.4c1,1.7,1.5,3.6,1.4,5.5
				c0,1.8-0.3,3.5-1.1,5.1c-0.7,1.6-1.8,3-3.2,4.1c-1.6,1.2-3.3,2.1-5.3,2.7c-2.3,0.7-4.8,1-7.2,1c-2.2,0-4.3-0.3-6.4-0.8
				c-2-0.5-3.8-1.4-5.5-2.5c-1.6-1.2-2.9-2.7-3.8-4.4c-1-2-1.4-4.2-1.4-6.4h8.5C275.2,28.9,275.5,30.1,276,31.1L276,31.1z
				 M303.2,8.4V0.9H336v7.4h-12V41h-8.8V8.4H303.2z"/>
		</g>
	</g>
</g>
</svg>
