<?xml version="1.0" encoding="UTF-8"?>
<svg width="99px" height="67px" viewBox="0 0 99 67" version="1.1" xmlns="http://www.w3.org/2000/svg" xmlns:xlink="http://www.w3.org/1999/xlink">
    <!-- Generator: Sketch 47.1 (45422) - http://www.bohemiancoding.com/sketch -->
    <title>interactive</title>
    <desc>Created with Sketch.</desc>
    <defs></defs>
    <g id="Page-1" stroke="none" stroke-width="1" fill="none" fill-rule="evenodd">
        <g id="interactive" fill-rule="nonzero" fill="#FAFAFA">
            <path d="M31.1226807,56.049681 L39.9729455,56.299681 C40.4145972,56.3121567 40.7827401,55.9642408 40.7952157,55.5225892 C40.8076914,55.0809376 40.4597755,54.7127946 40.0181239,54.700319 L31.1678591,54.450319 C30.7262074,54.4378433 30.3580645,54.7857592 30.3455889,55.2274108 C30.3331132,55.6690624 30.6810291,56.0372054 31.1226807,56.049681 Z" id="Path-2"></path>
            <path d="M33.0431141,47.2930182 L45.154782,47.6494471 C45.5964186,47.6624439 45.9649717,47.3149626 45.9779685,46.873326 C45.9909652,46.4316894 45.6434839,46.0631362 45.2018473,46.0501395 L33.0901794,45.6937106 C32.6485428,45.6807138 32.2799897,46.0281951 32.2669929,46.4698317 C32.2539962,46.9114683 32.6014775,47.2800214 33.0431141,47.2930182 Z" id="Path-2-Copy"></path>
            <path d="M34.4690741,38.5782256 L50.7653447,39.1065375 C51.2069405,39.1208537 51.5765302,38.7744751 51.5908464,38.3328793 C51.6051626,37.8912835 51.258784,37.5216938 50.8171882,37.5073776 L34.5209176,36.9790657 C34.0793218,36.9647495 33.7097321,37.3111281 33.6954159,37.7527239 C33.6810998,38.1943197 34.0274783,38.5639094 34.4690741,38.5782256 Z" id="Path-2-Copy-2"></path>
            <path d="M31.5805191,29.0372658 L47.8767897,29.5655777 C48.3183855,29.5798939 48.6879752,29.2335153 48.7022914,28.7919195 C48.7166076,28.3503237 48.370229,27.980734 47.9286332,27.9664178 L31.6323626,27.4381059 C31.1907668,27.4237897 30.8211771,27.7701683 30.806861,28.2117641 C30.7925448,28.6533599 31.1389233,29.0229496 31.5805191,29.0372658 Z" id="Path-2-Copy-3"></path>
            <path d="M10.3990028,59.9832926 C10.4891921,60.0527902 10.7968459,60.2918222 10.8098286,60.3018777 C10.9713436,60.4269756 11.0963521,60.52244 11.2200561,60.6146078 C12.6577838,61.6858118 14.0145789,62.2928565 16.3311963,62.6844879 C20.1283548,62.7344321 23.0415126,62.8401975 26.6154227,63.0290832 C26.9411374,63.0462977 27.2693396,63.0639653 27.6926423,63.0869911 C28.2175397,63.1156041 28.505771,63.1313171 28.7317445,63.1435573 C29.5605969,63.1884533 30.1562405,63.2194329 30.7441464,63.2475937 C32.753995,63.3438659 34.4328859,63.3924093 36.1993837,63.4026992 C39.4454748,63.0524382 40.4309646,61.6634431 40.180002,59.0879767 C40.1182125,58.4538706 39.9909251,57.8072881 39.7689245,56.9055964 C39.7289486,56.7432278 39.5836481,56.1650005 39.5962915,56.2155962 C39.5285936,55.9446867 39.4816999,55.7501736 39.4406576,55.5664776 C39.3219403,55.0351259 39.7571605,54.5429784 40.2990431,54.5958142 C43.373535,54.8955902 44.9338744,53.9390794 45.4460478,52.0616525 C45.8492774,50.5835709 45.5329813,48.5226379 44.8859069,47.2100082 C44.6288972,46.6886485 44.9961083,46.0759017 45.5770575,46.0567198 C49.308362,45.9335185 50.2374018,44.5219893 49.9137124,41.2818512 C49.8729888,40.8742071 49.8204605,40.4862796 49.7238507,39.8443411 C49.5797815,38.8870515 49.5568335,38.7267518 49.5149758,38.3380853 C49.4640363,37.8650907 49.8346468,37.452424 50.3103764,37.452424 C52.6389085,37.452424 54.4305703,37.5087126 57.4265959,37.6484889 C59.3140704,37.736547 59.3153598,37.7366059 59.9841774,37.7631796 C61.3217227,37.8163234 62.4440975,37.8428154 63.4946875,37.8469559 C67.3100331,37.4572619 69.0264691,35.8874199 68.8178218,33.9248486 C68.6225263,32.0878661 66.7819793,30.3734086 64.5939844,30.1621942 C57.974257,29.8233943 54.4116176,29.7004041 46.9601217,29.5067392 C46.5044012,29.4948848 46.5044012,29.4948848 46.0493673,29.4829505 C41.7168464,29.3689519 38.8802454,29.2726632 35.1984615,29.0985735 C34.5061171,29.0658366 34.180158,28.2281263 34.6682959,27.7360552 C34.9321715,27.4700535 35.2109768,27.1936363 35.5697245,26.8413316 C35.6961245,26.7172017 36.3163615,26.1098067 36.4894243,25.9396978 C39.1685164,23.3063354 40.4536529,21.779688 41.1024094,20.194669 C42.0204691,17.951698 41.1823189,16.0721724 37.834176,14.2061752 C28.7619978,22.9503175 19.6424565,28.396742 7.10546923,33.8548722 C5.6351628,34.1900109 4.06433527,34.3745649 2.24094605,34.4586871 C1.96670833,44.1312559 1.77144594,51.9524742 1.655162,57.9219022 C6.08721862,57.5958111 8.09182444,58.2054405 10.3990028,59.9832926 Z M41.32253,56.5230916 C41.561432,57.4934307 41.7015665,58.2052735 41.7724595,58.9328019 C42.1042808,62.3380692 40.5393972,64.5436887 36.2827589,64.9980786 C34.4020112,64.9923223 32.6998092,64.9431049 30.6675938,64.8457613 C30.0757156,64.8174102 29.477102,64.7862761 28.6452051,64.7412152 C28.4189022,64.7289572 28.1303208,64.7132252 27.6057377,64.6846292 C27.1831853,64.6616442 26.8557391,64.6440173 26.5309785,64.6268533 C22.9576359,64.4379976 20.0530081,64.3328597 16.2490454,64.2835516 C13.5147298,63.8381761 11.9119392,63.125382 10.2641112,61.8976391 C10.1311167,61.7985492 9.99880803,61.69751 9.83008664,61.5668305 C9.81487888,61.5550517 9.5095759,61.3178461 9.42239623,61.2506677 C7.29542901,59.6116817 5.58558537,59.1516725 0.91306135,59.5898955 C0.437829631,59.6344662 0.0295593604,59.25564 0.0384997478,58.7784065 C0.155181056,52.5500156 0.363300075,44.1790329 0.66286068,33.6649103 C0.674925625,33.2414491 1.01501568,32.9008076 1.43845681,32.8880566 C3.45768574,32.8272518 5.1593457,32.6490293 6.53997255,32.3559944 C19.0711843,26.8945698 28.1070365,21.4602127 37.1388587,12.6517701 C37.3859374,12.4108023 37.7596963,12.3554513 38.0660096,12.5144657 C42.5112573,14.8220983 43.8913065,17.6047685 42.5831734,20.8007534 C41.8220254,22.6603633 40.4499476,24.2902903 37.6110148,27.0807652 C37.5186857,27.1715184 37.3012959,27.3845651 37.0985599,27.5832288 C39.9559377,27.707255 42.5102034,27.7892732 46.0914524,27.883504 C46.5461288,27.895429 46.5461288,27.895429 47.0016918,27.9072793 C54.4654639,28.1012632 58.0399578,28.2246627 64.7114545,28.5669136 C67.6722654,28.8516424 70.1309757,31.1419151 70.4088557,33.7557006 C70.7241447,36.7213606 68.2679938,38.9677413 63.5759755,39.4428154 C62.4206038,39.4428154 61.2778326,39.415842 59.9206558,39.3619181 C59.2463128,39.3351249 59.2450426,39.3350669 57.3520307,39.2467505 C54.7833763,39.1269127 53.1126142,39.069097 51.223544,39.0555822 C51.24545,39.2032316 51.2723204,39.3822168 51.3060333,39.6062274 C51.4063426,40.2727477 51.4617319,40.6818043 51.5057876,41.122803 C51.8793016,44.8616854 50.6380042,47.1048197 46.7503891,47.5726768 C47.2438712,49.0998575 47.4020977,50.9708415 46.989639,52.4827535 C46.3355533,54.8803755 44.4095383,56.26269 41.2537589,56.247011 C41.2819435,56.3596593 41.308441,56.4658669 41.32253,56.5230916 Z" id="Path-3"></path>
            <path d="M53.2900028,12.5156814 L48.9374763,5.66616591 C48.7005123,5.29325861 48.2061139,5.18305483 47.8332066,5.42001887 C47.4602993,5.65698291 47.3500955,6.15138131 47.5870596,6.52428861 L51.9395861,13.3738041 C52.1765501,13.7467114 52.6709485,13.8569152 53.0438558,13.6199512 C53.4167631,13.3829871 53.5269669,12.8885887 53.2900028,12.5156814 Z" id="Path-4"></path>
            <path d="M60.0168054,9.84981047 L57.9794391,1.72181132 C57.8720138,1.29324206 57.4375044,1.03290342 57.0089351,1.1403287 C56.5803659,1.24775397 56.3200272,1.6822634 56.4274525,2.11083266 L58.4648188,10.2388318 C58.572244,10.6674011 59.0067535,10.9277397 59.4353227,10.8203144 C59.863892,10.7128892 60.1242306,10.2783797 60.0168054,9.84981047 Z" id="Path-5"></path>
            <path d="M66.9263145,9.32205681 L66.9263145,0.88469619 C66.9263145,0.44286839 66.5681423,0.0846961895 66.1263145,0.0846961895 C65.6844867,0.0846961895 65.3263145,0.44286839 65.3263145,0.88469619 L65.3263145,9.32205681 C65.3263145,9.76388461 65.6844867,10.1220568 66.1263145,10.1220568 C66.5681423,10.1220568 66.9263145,9.76388461 66.9263145,9.32205681 Z" id="Path-6"></path>
            <path d="M74.0373903,11.0172732 L76.8910921,2.96061665 C77.0386089,2.54414265 76.8205761,2.08693775 76.4041021,1.9394209 C75.9876281,1.79190406 75.5304232,2.00993691 75.3829063,2.4264109 L72.5292046,10.4830675 C72.3816878,10.8995415 72.5997206,11.3567464 73.0161946,11.5042632 C73.4326686,11.6517801 73.8898735,11.4337472 74.0373903,11.0172732 Z" id="Path-7"></path>
            <path d="M80.5000605,14.4788056 L85.0861865,7.61287503 C85.3315958,7.24547053 85.2326992,6.74868677 84.8652947,6.50327745 C84.4978902,6.25786813 84.0011064,6.35676477 83.7556971,6.72416928 L79.1695711,13.5900999 C78.9241618,13.9575044 79.0230584,14.4542882 79.3904629,14.6996975 C79.7578674,14.9451068 80.2546512,14.8462102 80.5000605,14.4788056 Z" id="Path-8"></path>
            <path d="M85.5372855,19.8852754 L91.9751609,14.7176761 C92.3197183,14.4411043 92.3748316,13.9375796 92.0982598,13.5930221 C91.821688,13.2484646 91.3181632,13.1933514 90.9736058,13.4699232 L84.5357304,18.6375225 C84.191173,18.9140943 84.1360597,19.417619 84.4126315,19.7621765 C84.6892033,20.1067339 85.1927281,20.1618472 85.5372855,19.8852754 Z" id="Path-9"></path>
            <path d="M88.7906526,26.4007453 L96.3504368,23.5198955 C96.7633026,23.3625624 96.9704527,22.9003249 96.8131196,22.4874592 C96.6557865,22.0745935 96.1935491,21.8674434 95.7806834,22.0247764 L88.2208992,24.9056262 C87.8080334,25.0629593 87.6008833,25.5251968 87.7582164,25.9380625 C87.9155495,26.3509282 88.3777869,26.5580783 88.7906526,26.4007453 Z" id="Path-10"></path>
            <path d="M89.9777044,33.6472793 L98.0337297,32.8460962 C98.4733886,32.8023715 98.7943567,32.4105117 98.750632,31.9708528 C98.7069073,31.5311939 98.3150475,31.2102258 97.8753886,31.2539505 L89.8193633,32.0551335 C89.3797044,32.0988582 89.0587363,32.4907181 89.102461,32.930377 C89.1461857,33.3700359 89.5380455,33.691004 89.9777044,33.6472793 Z" id="Path-11"></path>
            <path d="M89.0930664,40.5888075 L96.5063774,42.6066019 C96.9326954,42.7226394 97.3723615,42.4711073 97.488399,42.0447893 C97.6044366,41.6184712 97.3529045,41.1788051 96.9265864,41.0627676 L89.5132754,39.0449732 C89.0869573,38.9289357 88.6472912,39.1804677 88.5312537,39.6067858 C88.4152162,40.0331039 88.6667483,40.47277 89.0930664,40.5888075 Z" id="Path-12"></path>
            <path d="M85.9258414,47.0029951 L92.8378606,51.4571689 C93.2092541,51.6964986 93.704343,51.5894397 93.9436727,51.2180462 C94.1830023,50.8466527 94.0759434,50.3515638 93.7045499,50.1122341 L86.7925308,45.6580603 C86.4211373,45.4187306 85.9260484,45.5257895 85.6867187,45.897183 C85.4473891,46.2685765 85.5544479,46.7636654 85.9258414,47.0029951 Z" id="Path-13"></path>
            <path d="M81.0976845,52.6262392 L86.3094782,58.6278517 C86.5991746,58.96145 87.1044548,58.9970395 87.438053,58.7073431 C87.7716513,58.4176468 87.8072408,57.9123666 87.5175445,57.5787683 L82.3057507,51.5771558 C82.0160543,51.2435575 81.5107742,51.207968 81.1771759,51.4976644 C80.8435776,51.7873608 80.8079881,52.2926409 81.0976845,52.6262392 Z" id="Path-14"></path>
            <path d="M75.0665156,56.3023452 L78.1879097,63.5805473 C78.3620562,63.9866074 78.8324066,64.1746105 79.2384667,64.000464 C79.6445267,63.8263175 79.8325298,63.3559671 79.6583833,62.949907 L76.5369892,55.6717049 C76.3628427,55.2656448 75.8924923,55.0776417 75.4864322,55.2517882 C75.0803721,55.4259347 74.892369,55.8962851 75.0665156,56.3023452 Z" id="Path-15"></path>
            <path d="M67.7428676,57.9598538 L69.0005166,66.1737165 C69.0673869,66.6104546 69.4756422,66.9102917 69.9123803,66.8434214 C70.3491184,66.7765512 70.6489555,66.3682959 70.5820852,65.9315578 L69.3244361,57.7176951 C69.2575659,57.280957 68.8493106,56.9811198 68.4125725,57.0479901 C67.9758344,57.1148604 67.6759973,57.5231156 67.7428676,57.9598538 Z" id="Path-16"></path>
            <path d="M60.6069005,57.697834 L59.4250134,65.9224297 C59.3621676,66.3597651 59.6657514,66.765242 60.1030868,66.8280878 C60.5404221,66.8909335 60.945899,66.5873497 61.0087448,66.1500144 L62.1906319,57.9254187 C62.2534776,57.4880833 61.9498938,57.0826064 61.5125585,57.0197606 C61.0752231,56.9569149 60.6697462,57.2604987 60.6069005,57.697834 Z" id="Path-17"></path>
            <path d="M53.7184956,55.3897421 L50.4556791,62.6900414 C50.2753947,63.0934139 50.4562432,63.5665613 50.8596157,63.7468457 C51.2629881,63.9271301 51.7361355,63.7462815 51.9164199,63.3429091 L55.1792364,56.0426097 C55.3595209,55.6392373 55.1786723,55.1660899 54.7752998,54.9858055 C54.3719274,54.8055211 53.89878,54.9863696 53.7184956,55.3897421 Z" id="Path-18"></path>
        </g>
    </g>
</svg>