<?xml version="1.0" encoding="utf-8"?>
<!-- Generator: Adobe Illustrator 22.1.0, SVG Export Plug-In . SVG Version: 6.00 Build 0)  -->
<svg version="1.1" id="Layer_1" xmlns="http://www.w3.org/2000/svg" xmlns:xlink="http://www.w3.org/1999/xlink" x="0px" y="0px"
	 viewBox="0 0 296.8 103" style="enable-background:new 0 0 296.8 103;" xml:space="preserve">
<style type="text/css">
	.st0{fill:#FFFFFF;}
</style>
<title>itg-logo</title>
<g id="Layer_2_1_">
	<g id="Layer_1-2">
		<g id="layer1">
			<path class="st0" d="M16.2,102.2C10,100.3,3.8,93.5,1.3,85.9c-2.2-7-1.6-14.7,1.7-21.3c1.9-3.8,7.1-9.3,11-11.4
				c2.8-1.5,3.8-1.7,7.9-1.9s5-0.1,7.6,1.1c3.3,1.5,6,1.7,6.9,0.6c0.3-0.4,0.8-0.7,1.3-0.8c0.6,0,0.7,1.5,0.7,7.4
				c0,6.8,0,7.4-0.9,7.4c-0.7,0-1.1-0.7-1.5-3.1c-0.8-3.7-3.1-6.9-6.2-9c-2-1.4-2.5-1.5-7.1-1.5c-4.5,0-5.2,0.1-7.1,1.4
				c-3.9,2.6-6,6.6-7.1,14.1c-1,5.5-1,11.2,0,16.7c0.9,6.3,2.3,9.6,5.2,12.2s4,3.1,8.5,3.1c7.6,0,11.2-4,11.2-12.3v-4.1h-4.2
				c-3.6,0-4.1-0.1-4-0.9s1.1-0.9,10-1.1c9.6-0.1,9.8-0.1,9.8,0.9c0,0.9-0.3,1-2.4,1h-2.4l0.2,7.7c0.2,7.5,0.2,7.7-0.9,7.7
				c-0.7-0.1-1.5-0.3-2.1-0.6c-0.8-0.5-1.3-0.5-2.5,0.3c-1.6,0.8-3.2,1.6-4.9,2.2C25.6,103.3,20.8,103.4,16.2,102.2z"/>
			<path class="st0" d="M101.6,102.1c-3.5-1.2-6.7-3.4-9.1-6.2c-4.3-4.7-6.4-9.3-7.2-16.3c-1.2-9.9,5.2-21.4,14.5-26
				c3.6-1.7,4.2-1.9,8.6-1.9s4.9,0.2,8.2,1.7c6.8,3.5,11.8,9.8,13.7,17.3c1.1,4.4,1.1,9.1-0.2,13.4c-1.7,7.3-7.4,14.3-13.8,17.3
				C112.5,103.2,105.6,103.5,101.6,102.1z M115.6,99.2c6.2-3.9,9.3-16.5,7.2-29.5c-0.4-2.5-1.1-5-1.9-7.4c-1.4-3.7-5.2-7.6-8-8.5
				c-2.5-0.7-7.6-0.6-9.7,0.2s-5.6,4-6.8,6.5c-5.5,10.9-4.4,30,2.2,36.9c2.7,2.9,5.1,3.7,10.2,3.5
				C112.6,100.7,113.4,100.5,115.6,99.2z"/>
			<path class="st0" d="M141.8,102c-3.3-1.1-5.6-1.3-6.1-0.6c-0.4,0.4-1,0.6-1.6,0.7l-1.3,0.3v-7.9c0-7.5,0.1-7.9,1-7.9
				c0.7,0,1.1,0.5,1.3,1.4c1.2,5.7,4.4,10.1,8.5,11.8c2.3,1,3.4,1.1,7.6,1c4.4-0.2,5.2-0.3,7.1-1.6c3.1-2,4.4-5,4.1-9.5
				c-0.3-5.9-2.4-7.6-13.5-11.1s-14.6-6.6-14.6-12.7c0-10.9,11.5-17.8,22.3-13.4c3.6,1.5,4.8,1.6,5.7,0.4c1.2-1.7,1.7,0,1.8,6.5
				c0.1,5.8,0,6.4-0.8,6.4c-0.6,0-1.1-0.7-1.5-2.2c-1-3.4-2.1-5.3-3.9-7.1c-2.9-2.8-4.8-3.4-8.9-3.2c-6.4,0.4-9.4,3.2-9.4,8.9
				c0,5.8,2,7.3,14.8,11.3c7.3,2.3,8,2.6,10.4,4.9c4.3,4.3,5.1,8.9,2.6,14.7c-1.8,3.6-4.7,6.5-8.2,8.5
				C155.5,103.2,146.1,103.4,141.8,102z"/>
			<path class="st0" d="M181.2,102.2c-3.8-1.1-6.9-1.5-6.9-0.8c0,0.3-0.6,0.6-1.3,0.6h-1.3v-7.7c0-7.2,0.1-7.7,1-7.7
				c0.7,0,1.1,0.6,1.5,2.4c1.3,5.3,4.6,9.6,8.4,11.2c2.9,1.2,10.7,1.1,13.2-0.2c3.9-2,5.9-5.7,5.6-10.4c-0.5-5.6-3.4-7.9-14.1-11
				c-4.1-1.1-7.9-2.9-11.4-5.4c-2.8-2.2-3.6-8.5-1.5-13c2.4-5.4,7-8.5,13.6-8.8c3.6-0.2,4.5,0,7.3,1.1c3.6,1.5,4.9,1.6,5.8,0.6
				c0.3-0.4,0.8-0.7,1.3-0.8c0.6,0,0.7,1.4,0.7,7c0,6.1-0.1,6.9-0.8,6.8c-0.5-0.1-1.2-1.4-1.9-3.4c-1.9-5.8-6.2-9.3-11.5-9.3
				c-3.8,0-6.4,0.9-8.5,3.1s-2.7,4.2-2.2,7.5c0.7,4.4,3.6,6.1,16.4,10.1c5.1,1.6,6.5,2.3,8.4,3.9c3.1,2.9,4.2,5.3,4.2,9
				c0,4.5-1.2,7.4-4.6,10.8c-3.9,4-7,5.2-13.8,5.1C186.2,103,183.7,102.8,181.2,102.2z"/>
			<path class="st0" d="M63.5,102.1c-18.1-0.1-20.9-0.2-20.9-0.9s0.8-0.8,3.8-0.8h3.8V54.2l-3.8,0.2c-3.7,0.2-3.8,0.1-3.8-1v-1.2
				h21.9v1.2c0,1.1-0.2,1.1-3.8,1l-3.8-0.2v45.7H64c3,0.1,6-0.1,9-0.6c3.7-1,7-5,8.8-10.6c0.5-1.5,1.2-2.7,1.6-2.7s0.7,1.7,0.8,8.1
				c0.1,4.4,0.2,8,0.2,8S75,102.2,63.5,102.1z"/>
			<path class="st0" d="M53.9,46.3c-3.7-16-8.8-38.6-8.8-39.3c0-1.1-0.7,0.5-2.9,6.7c-1.3,3.6-3.2,9.2-4.4,12.2
				c-2.5,7-4.4,12.2-5.2,14.9c-0.4,1.1-1.2,3.3-1.8,4.8s-1.1,2.8-1.1,3s1.7,0.2,3.8,0.1c3.6-0.2,3.9-0.1,3.7,0.9s-0.5,1-18.8,1.2
				S0,50.7,0,49.7c0-0.9,0.4-1,3.7-1.1l3.7-0.2L9,43.8c0.9-2.5,2.6-7.3,3.8-10.5C17.2,21.4,19.1,16,21,10.5c1.1-3.1,2.3-6.2,2.6-6.8
				c0.6-1.1,0.6-1.1-3.3-1.1c-3.1,0-3.8-0.2-3.8-0.8s2-0.8,16.5-0.7l16.6,0.1l4.6,18.6l4.7,18.5l1.2-3.7c0.7-2,1.9-5.4,2.7-7.5
				s1.7-4.5,1.9-5.4c0.6-2.3,6-17.3,6.7-18.3c0.5-0.9,0.2-0.9-3.3-0.9c-3.1,0-3.8-0.2-3.8-0.8S67.8,1,92.5,0.9
				c18.8-0.1,28.5,0,28.5,0.4c-0.5,1.9-1.1,3.8-1.8,5.6c-1,2.8-2.1,5.9-2.4,6.8s-0.9,1.6-1.4,1.6c-0.8,0-0.9-0.4-0.6-4.5
				c0.3-4.5,0.3-4.6-1.2-6.2s-1.7-1.7-6.1-2l-4.6-0.3l-1.4,4c-0.8,2.3-2.2,6.4-3.2,9.2s-2.8,7.9-4,11.3c-2.6,7.3-6.6,18.4-7.4,20.4
				l-0.6,1.5l3.8-0.2c3.6-0.2,3.9-0.1,3.7,0.9s-0.6,1-10.5,1.2c-10.2,0.1-10.4,0.1-10.4-0.9s0.3-1,3.7-1h3.7l2.1-6
				c1.2-3.3,2.9-8.2,3.9-10.9s3.1-8.6,4.7-13.1s3.6-9.9,4.4-12l1.4-3.9l-1.4-0.2c-3.1-0.4-7.7,0.5-9.8,1.9s-6,6.1-7.7,9.2
				c-0.9,1.7-2.5,2.1-2.5,0.7c0.5-2.1,1.2-4.3,2.1-6.3c1.1-2.9,2.1-5.4,2.1-5.5c-1-0.2-2.1-0.2-3.1-0.2c-2,0-3.1,0.2-3.1,0.6
				s-6.3,18.4-10.5,30.1c-0.7,1.8-1.8,5-2.6,7.1c-3.2,9-4,10.9-4.6,10.9C55.3,51.3,54.6,49.2,53.9,46.3z M28.1,47
				c0.3-0.9,1.9-5.3,3.5-9.6s4.2-11.4,5.6-15.6S40.8,11.5,42,8.4l2.1-5.8H37c-6.3,0-7.1,0.1-7.4,0.9c-0.1,0.5-1.2,3.4-2.3,6.5
				c-2.9,7.9-9.1,25.2-11.4,31.5c-1,3-2.1,5.8-2.3,6.3c-0.4,0.8,0.1,0.9,6.8,0.9h7.2L28.1,47z"/>
			<path class="st0" d="M121.8,50c-3.1-1.4-5.6-4.2-7.4-8c-1.1-2.4-1.3-3.7-1.5-9c-0.2-4,0-7,0.4-8.2c3.1-10,7.8-16.4,16-21.4
				c3.5-2.3,7.5-3.5,11.6-3.4c8.1,0.1,13.6,5.9,14.9,16.1c1,7.4-0.8,14.6-5.3,21.4C143.3,48.4,130.3,54,121.8,50z M133.2,48.2
				c2.1-0.9,8.2-6.7,8.2-7.7c0.4-1,0.9-2,1.5-2.9c3.6-5.9,6.9-18.7,6.6-25.8c-0.3-5.2-1.4-7.6-4.3-9c-3.2-1.3-6.8-1.2-10,0.3
				c-7.5,3.8-14.6,17.2-16.4,31.2c-1.4,10.4,1.3,15,8.8,15C129.5,49.3,131.5,48.9,133.2,48.2L133.2,48.2z"/>
			<path class="st0" d="M164,49.8c0-0.9,0.4-1,3.6-1.2l3.7-0.2l2.1-6.2c3.2-9.1,5.5-15.5,8.7-24.4c1.6-4.4,3-8.4,3.2-9
				s0.6-1.7,0.9-2.6s0.8-2.1,1-2.8l0.4-1.2l-4.2,0.3c-3.2,0.3-4.8,0.7-6.4,1.6c-3.1,2.1-5.7,5-7.5,8.3c-1,1.9-2.7,3.2-3.3,2.6
				c0.6-2.5,1.3-5,2.3-7.4l2.5-7.1h30.9c27.1,0,30.8,0.1,30.7,0.8s-1.1,0.8-3.8,1l-3.8,0.3l-3.8,10.5c-2.1,5.8-3.8,10.6-3.8,10.7
				s4.7,0.1,10.5,0.1s10.5,0,10.5-0.1s2.4-6.9,5.6-15.6l2-5.7h-3.8c-3.1,0-3.8-0.2-3.8-0.8s3.8-0.8,29.2-0.9
				c16.1-0.1,29.2,0.1,29.2,0.3c0,0.4-3,9.1-3.8,11.2c-0.3,0.5-0.8,0.9-1.4,0.9c-0.9,0-0.9-0.2-0.6-1.9c0.7-3.2,0.3-6.4-0.9-7.5
				c-1-1-1.8-1.1-9.4-1.2l-8.3-0.2l-2.2,6.4c-1.2,3.4-2.8,8-3.6,10.1l-1.4,3.8l4.1-0.1c4.9-0.2,6.5-1.1,9.4-5.5
				c1.2-1.8,2.2-2.8,2.8-2.8c0.8,0,0.9,0.2,0.7,0.9c-0.6,1.3-4.4,11.6-5.9,16c-0.9,2.6-1.6,3.9-2.3,4c-0.8,0.2-0.9,0-0.5-2.6
				c0.8-6,0-7.2-5.4-7.6l-3.5-0.3l-1,2.8c-0.6,1.5-2,5.8-3.4,9.5s-2.8,7.7-3.3,9.1l-1,2.4h8c4.7,0,8.8-0.3,10-0.6
				c2.7-0.8,6.7-4.5,9.2-8.5c1.9-3,3.5-4.2,3.5-2.6c0,0.6-3.2,9.9-4.4,12.8c-0.4,0.8-2.3,0.9-30.3,0.9H222v-1.1c0-1.1,0.1-1.2,3.7-1
				l3.7,0.2l1.6-4.5c0.9-2.5,2.7-7.4,4-11s2.4-6.7,2.4-6.8c-3.4-0.3-6.9-0.4-10.4-0.3h-10.4l-3.8,10.7c-2.1,5.8-3.9,10.9-4,11.3
				c-0.2,0.6,0.6,0.7,3.7,0.5c3.9-0.2,4.6,0.2,3.3,1.5c-0.7,0.7-20.9,0.9-20.9,0.3c0.1-1.2,1.1-1.6,4.2-1.8l3.5-0.2l5.9-16.4
				c3.2-9,6-17.1,6.3-17.9s1.2-3.6,2.2-6.3s1.9-4.9,1.9-5c-1.2-0.2-2.4-0.3-3.6-0.1l-3.7,0.2L209.4,9c-1.7,4.9-2.4,6.1-3.1,6.1
				s-0.9-0.3-0.9-1c0.5-4.3,0.2-7.9-0.6-9.2c-1.1-1.6-2.5-2-7.4-2l-3.7,0l-2.3,6.4c-1.2,3.5-3.4,9.5-4.7,13.3s-2.6,7.3-2.8,7.7
				c-1.2,3.1-6.5,17.8-6.5,18.1s1.6,0.4,3.6,0.4c3.2,0,3.6,0.1,3.4,0.9s-1.1,0.9-10.3,1C164.4,50.7,164,50.7,164,49.8z M251.1,45.5
				c1.7-5.2,7.8-22,8.5-23.7c0.4-0.8,1.4-3.6,2.3-6.1l3.1-8.9l1.5-4.2h-14.8L251.4,4c-0.4,1.4-1.4,4.5-6.1,17.3
				c-1.3,3.7-3.3,9.2-4.4,12.3s-2.7,7.7-3.7,10.3l-1.8,4.7h14.7L251.1,45.5z"/>
		</g>
	</g>
</g>
</svg>
