<?xml version="1.0" encoding="UTF-8"?>
<svg width="53px" height="49px" viewBox="0 0 53 49" version="1.1" xmlns="http://www.w3.org/2000/svg" xmlns:xlink="http://www.w3.org/1999/xlink">
    <!-- Generator: Sketch 47.1 (45422) - http://www.bohemiancoding.com/sketch -->
    <title>landing-page</title>
    <desc>Created with Sketch.</desc>
    <defs></defs>
    <g id="Page-1" stroke="none" stroke-width="1" fill="none" fill-rule="evenodd">
        <g id="landing-page" fill-rule="nonzero" fill="#FAFAFA">
            <path d="M52.5,0 L0.5,0 C0.224,0 0,0.224 0,0.5 L0,48.5 C0,48.776 0.224,49 0.5,49 L52.5,49 C52.776,49 53,48.776 53,48.5 L53,0.5 C53,0.224 52.776,0 52.5,0 Z M52,1 L52,8 L1,8 L1,1 L52,1 Z M1,48 L1,9 L52,9 L52,48 L1,48 Z" id="Shape"></path>
            <path d="M4.5,5 L6.5,5 C6.776,5 7,4.776 7,4.5 C7,4.224 6.776,4 6.5,4 L4.5,4 C4.224,4 4,4.224 4,4.5 C4,4.776 4.224,5 4.5,5 Z" id="Shape"></path>
            <path d="M10.5,5 L12.5,5 C12.776,5 13,4.776 13,4.5 C13,4.224 12.776,4 12.5,4 L10.5,4 C10.224,4 10,4.224 10,4.5 C10,4.776 10.224,5 10.5,5 Z" id="Shape"></path>
            <path d="M16.5,5 L18.5,5 C18.776,5 19,4.776 19,4.5 C19,4.224 18.776,4 18.5,4 L16.5,4 C16.224,4 16,4.224 16,4.5 C16,4.776 16.224,5 16.5,5 Z" id="Shape"></path>
            <path d="M26.5678013,30.2636719 C27.6723708,30.2636719 28.5678013,29.3682414 28.5678013,28.2636719 C28.5678013,27.1591024 27.6723708,26.2636719 26.5678013,26.2636719 C25.4632318,26.2636719 24.5678013,27.1591024 24.5678013,28.2636719 C24.5678013,29.3682414 25.4632318,30.2636719 26.5678013,30.2636719 Z" id="Oval"></path>
            <path d="M26.5,22 C22.916,22 20,24.916 20,28.5 C20,32.084 22.916,35 26.5,35 C30.084,35 33,32.084 33,28.5 C33,24.916 30.084,22 26.5,22 Z M26.5,34 C23.467,34 21,31.532 21,28.5 C21,25.467 23.467,23 26.5,23 C29.532,23 32,25.467 32,28.5 C32,31.532 29.532,34 26.5,34 Z" id="Shape"></path>
            <path d="M26.5,16 C19.607,16 14,21.607 14,28.5 C14,35.393 19.607,41 26.5,41 C33.393,41 39,35.393 39,28.5 C39,21.607 33.393,16 26.5,16 Z M26.5,40 C20.159,40 15,34.841 15,28.5 C15,22.159 20.159,17 26.5,17 C32.841,17 38,22.159 38,28.5 C38,34.841 32.841,40 26.5,40 Z" id="Shape"></path>
        </g>
    </g>
</svg>