<?xml version="1.0" encoding="utf-8"?>
<!-- Generator: Adobe Illustrator 21.1.0, SVG Export Plug-In . SVG Version: 6.00 Build 0)  -->
<svg version="1.1" id="Layer_1" xmlns="http://www.w3.org/2000/svg" xmlns:xlink="http://www.w3.org/1999/xlink" x="0px" y="0px"
	 viewBox="0 0 181.3 176.2" style="enable-background:new 0 0 181.3 176.2;" xml:space="preserve">
<style type="text/css">
	.st0{fill:#77AD99;}
</style>
<title>52 all</title>
<path class="st0" d="M58,98.3H15.7c-3.6,0-6.5-2.9-6.5-6.5V13c0-3.6,2.9-6.5,6.5-6.5H58c3.6,0,6.5,2.9,6.5,6.5v78.7
	C64.5,95.4,61.6,98.3,58,98.3z"/>
<path class="st0" d="M166.4,55.6H83.6c-3.7,0-6.7-3-6.7-6.7V13.3c0-3.7,3-6.7,6.7-6.7h82.9c3.7,0,6.7,3,6.7,6.7v35.6
	C173.2,52.6,170.2,55.6,166.4,55.6z"/>
<path class="st0" d="M151.1,98.3H83.6c-3.7,0-6.7-3-6.7-6.7V72.6c0-3.7,3-6.7,6.7-6.7h67.6c3.7,0,6.7,3,6.7,6.7v18.9
	C157.9,95.2,154.8,98.3,151.1,98.3z"/>
<path class="st0" d="M164.5,167.7H25c-3.7,0-6.7-3-6.7-6.7v-43.7c0-3.7,3-6.7,6.7-6.7h139.5c3.7,0,6.7,3,6.7,6.7V161
	C171.2,164.7,168.2,167.7,164.5,167.7z"/>
<path d="M14.6,8.7c-1.4,0-2.5,1.1-2.5,2.5v150.2c0,1.4,1.1,2.5,2.5,2.5h150.2c1.4,0,2.5-1.1,2.5-2.5V11.3c0-1.4-1.1-2.5-2.5-2.5
	H14.6z M72.2,62.5c0.2,0.1,0.5,0.1,0.8,0.2h89.3v41.2h-90V62.5z M162.3,57.5H73c-0.3,0-0.5,0.1-0.8,0.2V13.8h90V57.5z M67.2,13.8v90
	H17.1v-90H67.2z M17.1,159v-50.1h145.2V159H17.1z"/>
</svg>
