<svg xmlns="http://www.w3.org/2000/svg" viewBox="0 0 263.14 86.06"><title>look-logo</title><g id="Layer_2" data-name="Layer 2"><g id="Layer_1-2" data-name="Layer 1"><path d="M116.59,43.38c-.8,17.38-7.21,31.59-23.8,38.75C77.17,88.88,61.95,87,48.74,75.79,33.21,62.57,30.43,35.41,42.36,17.45,53.27,1,75.9-4.85,94.14,4.35,110.08,12.4,116,26.41,116.59,43.38ZM76,79.58c20.24-.09,34.12-15,34.1-36.65C110.12,21.47,96,6.45,75.78,6.45c-20.4,0-34.48,15.16-34.37,37C41.51,64.92,55.65,79.67,76,79.58Z"/><path d="M118.73,42.79c0-24.9,17.25-42.81,41-42.68,23.57.13,40.52,18.29,40.4,43.31C200,68,182.91,85.81,159.37,85.79,135.63,85.77,118.68,67.84,118.73,42.79Zm40.61,36.79c20.35,0,34.39-14.76,34.46-36.3s-13.92-36.73-34-36.84C139.29,6.34,125,21.37,125.07,43.1,125.09,64.69,139.06,79.55,159.34,79.58Z"/><path d="M263.14,84.24c-5.26,1.43-8-.36-10.47-4.15-7.88-11.9-16.15-23.54-24.29-35.27-1-1.43-2.06-2.81-3.51-4.78-4.88,5.25-9.58,10.06-13.95,15.17-1,1.15-1.07,3.29-1.09,5-.11,8,0,16,0,24.26h-6v-82l5.81-.25V48.12c7.06-7.59,13.06-14,19-20.49,6.67-7.21,13.49-14.29,19.9-21.72,2.93-3.4,6-4.45,10.91-3.08L229.83,35.08Z"/><path d="M49.08,78.44v6c-1.45.11-2.67.29-3.89.29-15,0-29.91,0-45.19,0V2.5H5.84V78.44Z"/></g></g></svg>