<?xml version="1.0" encoding="utf-8"?>
<!-- Generator: Adobe Illustrator 22.1.0, SVG Export Plug-In . SVG Version: 6.00 Build 0)  -->
<svg version="1.1" id="Layer_1" xmlns="http://www.w3.org/2000/svg" xmlns:xlink="http://www.w3.org/1999/xlink" x="0px" y="0px"
	 viewBox="0 0 104 54" style="enable-background:new 0 0 104 54;" xml:space="preserve">
<style type="text/css">
	.st0{fill:#FFFFFF;}
</style>
<title>lyst</title>
<desc>Created with Sketch.</desc>
<g id="Page-1">
	<g id="visual-detection-8">
		<g id="logo-smaller.aa3a72a87b34" transform="translate(26.000000, 14.500000)">
			<path id="lyst" class="st0" d="M10.1,29l4.1-8.7L7.6,7H12l4.3,8.9l4-8.9h4.2L14.3,29H10.1L10.1,29z M27.1,16.9
				c1,0.9,2.6,1.5,4.1,1.5c1.1,0,1.9-0.5,1.9-1.3c0-2.3-7.2-1.4-7.2-6.2c0-2.8,2.8-4.6,5.7-4.6c2,0,4,0.8,5,1.5l-1.9,2.9
				c-0.8-0.6-1.8-1-2.8-1c-1.1,0-2,0.4-2,1.2c0,2,7.2,1.2,7.2,6.4c0,2.8-2.8,4.6-5.9,4.6c-2,0-4.2-0.7-6-2L27.1,16.9L27.1,16.9z
				 M49.3,22c-2.4,0-4.1-0.8-5.1-2.2c-0.8-1-1.1-2.3-1.2-4.4V10h-4l0-3h4V3h4v4h5v3h-5v6c0,0.9,0.1,1.5,0.5,1.9c0.4,0.4,1,0.8,2,0.8
				c0.6,0,1.3-0.1,1.5-0.2l0.7,3.2C51.3,21.9,50.1,22,49.3,22L49.3,22z M0,0h4v16c0.1,1.1,0.2,1.7,1,2.1c0.8,0.4,2.7,0.3,3,0.2
				l0.8,3.2C8.3,21.6,7.7,22,6.3,22c-2.4,0-4.2-0.6-5.2-2C0.4,18.9,0,17.6,0,15.5V0L0,0z"/>
		</g>
	</g>
</g>
</svg>
