<?xml version="1.0" encoding="utf-8"?>
<!-- Generator: Adobe Illustrator 22.1.0, SVG Export Plug-In . SVG Version: 6.00 Build 0)  -->
<svg version="1.1" id="Layer_1" xmlns="http://www.w3.org/2000/svg" xmlns:xlink="http://www.w3.org/1999/xlink" x="0px" y="0px"
	 viewBox="0 0 341.1 35.5" style="enable-background:new 0 0 341.1 35.5;" xml:space="preserve">
<style type="text/css">
	.st0{fill:#FFFFFF;}
</style>
<title>manrepeller-logo</title>
<g id="Layer_2_1_">
	<g id="Layer_1-2">
		<path class="st0" d="M104.1,35.4c-3.4,0-6.7,0-10,0c-0.4,0-0.9-0.6-1.1-1.1c-2.4-4.2-4.8-8.4-7.2-12.6c-0.2-0.3-0.3-0.5-0.7-1.1
			v14.8c-0.6,0-1,0.1-1.5,0.1c-7,0-14,0-21,0c-1.2,0-1.7-0.3-1.8-1.5c-0.2-1.2-0.4-2.5-0.8-3.7c-1.8,0-3.6,0-5.3,0
			c-0.5,0.1-0.8,0.4-1,0.9c-0.4,1.1-0.5,2.3-0.9,3.5c-0.1,0.3-0.5,0.8-0.8,0.8c-3.5,0-6.9,0-10.7,0l9.3-35.1h13.9l9,34.4h0.3V0.1
			c2.4,0.1,4.7,0.1,7.1-0.1c2.7-0.3,4.2,0.7,5.4,3c1.8,3.6,4.1,7.1,6.2,10.6c0.1,0.2,0.3,0.4,0.7,0.9V0.2h11.1V35.4z M58.6,23.1
			l-1.3-8.5H57l-1.7,8.5L58.6,23.1z"/>
		<path class="st0" d="M10.5,17.9v17.4H0V0.2h16.8l4,16.1c0.1-0.3,0.3-0.6,0.4-0.9c1.2-4.8,2.3-9.5,3.5-14.2c0.1-0.5,0.5-0.9,1-1
			c5-0.1,10.1,0,15.3,0v35.2H29V17.8h-0.3l-3,11.5c-0.4,1.7-0.9,3.4-1.3,5.2c0,0.6-0.6,1.1-1.2,1c0,0-0.1,0-0.1,0
			c-2.4,0-4.8,0-7.2,0c-0.7,0-1.1-0.2-1.2-1c-1.2-5.1-2.4-10.2-3.7-15.2c-0.1-0.5-0.2-0.9-0.4-1.4L10.5,17.9z"/>
		<path class="st0" d="M341.1,35.4c-3.9,0-7.4,0.1-10.9-0.1c-0.7-0.1-1.4-0.6-1.8-1.2c-0.5-1.2-0.9-2.4-1-3.7c-0.2-1.6,0-3.2,0-4.8
			c0-2.8-1-3.6-4-3.3v12.9h-12.6V0.2c0.4,0,0.8-0.1,1.2-0.1c5.5,0,11-0.1,16.4,0.1c2.3,0.1,4.5,0.6,6.7,1.5c2.9,1.2,4.3,3.8,4.5,7
			c0,0.4,0,0.8,0,1.1c0.2,3.9-0.6,7.1-4.9,8.5c3.9,1.7,4.9,3.2,4.9,7.3C339.6,28.9,339.3,32.2,341.1,35.4z M323.5,15.7h1.3
			c2,0,2.5-0.5,2.5-2.4c0-1-0.1-2-0.1-3c0.1-0.9-0.6-1.7-1.5-1.7c-0.1,0-0.1,0-0.2,0c-0.7,0-1.4,0-2.2,0c0,2.1,0,4.1,0,6.1
			C323.4,14.9,323.4,15.2,323.5,15.7z"/>
		<path class="st0" d="M146,35.4c-4,0-7.5,0-11,0c-0.7-0.1-1.3-0.5-1.7-1.1c-0.5-1.1-0.9-2.3-1-3.5c-0.2-1.6,0-3.3-0.1-4.9
			c-0.1-2.9-1-3.7-4.1-3.3v12.9h-12.4V0.1h1.3c5.4,0,10.8,0,16.2,0c2.9,0,5.7,0.4,8,2.3c1.1,0.9,2,2.1,2.6,3.4
			c1,2.7,1.1,5.6,0.3,8.4c-0.6,2.2-2.3,3.3-4.6,4.2c4.1,1.1,5.1,3.9,5,7.5C144.4,29,144.2,32.2,146,35.4z M128.2,15.7h1.3
			c2.1,0,2.6-0.4,2.6-2.5c0-0.9,0-1.7,0-2.6c0.1-1.4-0.7-2-2-2.1c-0.6,0-1.2,0-1.9,0L128.2,15.7z"/>
		<path class="st0" d="M203.2,0.2h26v8.9h-13.4v4.1h10.8v9.1h-10.8v3.6h13.3v9.4h-26L203.2,0.2z"/>
		<path class="st0" d="M146.2,35.3V0.2h25.9v8.9h-13.2v4.1h10.8v9H159v3.6h13.2v9.4L146.2,35.3z"/>
		<path class="st0" d="M283.9,35.3V0.2h26v8.9h-13.2v4.1h10.7v9.1h-10.7v3.6h13.2v9.5L283.9,35.3z"/>
		<path class="st0" d="M173.7,0.2c0.5,0,1-0.1,1.4-0.1c5.3,0,10.7-0.1,16,0.1c2.1,0.1,4.3,0.6,6.2,1.4c2.7,1,4.5,3.5,4.8,6.4
			c0.3,2.4,0.4,4.8,0.1,7.2c-0.6,5.2-4.6,8.5-10,8.6c-2,0-3.9,0-6,0v11.6h-12.6V0.2z M186.3,16.6h1.4c2,0,2.4-0.5,2.5-2.4
			c0-1.2,0-2.4,0-3.6c0.1-1-0.6-1.8-1.6-1.9c-0.1,0-0.2,0-0.3,0c-0.6,0-1.3,0-2,0L186.3,16.6z"/>
		<path class="st0" d="M243.1,25.9h13v9.4h-25.5V0.2h12.5V25.9z"/>
		<path class="st0" d="M257.3,0.2h12.4v25.7h13v9.4h-25.4L257.3,0.2z"/>
	</g>
</g>
</svg>
