<?xml version="1.0" encoding="utf-8"?>
<!-- Generator: Adobe Illustrator 22.1.0, SVG Export Plug-In . SVG Version: 6.00 Build 0)  -->
<svg version="1.1" id="Layer_1" xmlns="http://www.w3.org/2000/svg" xmlns:xlink="http://www.w3.org/1999/xlink" x="0px" y="0px"
	 viewBox="0 0 321.7 71.6" style="enable-background:new 0 0 321.7 71.6;" xml:space="preserve">
<style type="text/css">
	.st0{fill:#FFFFFF;}
</style>
<title>matches-logo</title>
<g id="Layer_2_1_">
	<g id="Layer_1-2">
		<g id="layer1">
			<path class="st0" d="M64.3,71.2C61.5,70.8,56,68.7,56,68c0.2-0.5,0.5-1,0.8-1.4l0.8-1.1l2.5,1.2c6.1,2.7,14.3,2.2,16-1
				c0.2-0.5,0.3-1.1,0.2-1.7c-0.6-1.7-2.1-2.1-8.8-2.8c-8-0.8-9.9-1.5-10.6-4c-1.7-5.6,4.9-9.2,14-7.7c1.9,0.3,3.7,0.8,5.5,1.5
				l2.4,1l-0.9,1.3c-0.7,0.9-1.2,1.2-1.7,1c-4.4-1.8-5.1-2-8.8-2c-5,0-7,0.8-7,2.7s1.5,2.5,7.8,3c6.7,0.6,9.3,1.3,10.7,3
				c1.3,1.8,1.5,4.1,0.6,6.1C77.9,70.4,71.4,72.1,64.3,71.2z"/>
			<path class="st0" d="M146.2,71c-2.4-0.5-4.5-1.7-6.1-3.5c-3.2-3.2-3.9-8.1-1.7-12.1c3.8-7.2,16.4-8.7,22.9-2.6
				c4.3,4,4,11.8-0.6,15.5C157.1,71.1,150.8,72.3,146.2,71z M156.3,67.1c2.9-1.2,4.7-4.2,4.3-7.3c-0.3-4.8-3.9-7.5-10-7.5
				c-3,0-3.7,0.2-5.8,1.3c-7.2,4.1-4.9,13.5,3.6,14.7C151.1,68.7,153.9,68.3,156.3,67.1L156.3,67.1z"/>
			<path class="st0" d="M230.4,71.2c-4.1-0.8-7.7-3.4-9.2-6.6c-1.1-2.9-1.1-6.1,0.1-8.9c1.3-2.6,4.5-5,7.9-6
				c3.8-0.9,7.7-0.7,11.4,0.6c1.9,0.8,5.1,3.3,5.1,3.9c0,0.2-0.6,0.6-1.2,0.8c-1.1,0.4-1.4,0.4-3-0.8c-3.3-2.4-9.1-2.8-13.1-0.8
				c-2.6,1.3-4.3,3.9-4.4,6.9c0,5.3,4.2,8.3,11.3,8c3.5-0.2,5.3-0.8,6.9-2.4c0.8-0.8,0.9-0.8,2.3-0.2c0.7,0.4,1.4,0.8,1.4,1
				c-0.3,0.6-0.7,1.1-1.1,1.4C241.4,71,235.7,72.3,230.4,71.2z"/>
			<path class="st0" d="M264.1,71.3c-4.4-0.9-8.3-4.1-9.4-7.6c-1.7-5.6,0.6-10.5,6.3-13.2c2.1-1,2.8-1.2,6.8-1.2s4.7,0.1,6.8,1.2
				c4.1,2.1,6.2,4.9,6.7,8.8c0.7,6.4-4.7,11.8-12.3,12.3C267.5,71.6,265.8,71.5,264.1,71.3z M272.3,67.8c3.4-1,5.8-4.2,5.6-7.8
				c-0.1-8.8-15.6-10.9-19.4-2.6c-1,1.9-1,4.1,0,6c0.8,2,2.5,3.6,4.6,4.3C266.1,68.4,269.2,68.4,272.3,67.8z"/>
			<path class="st0" d="M0,60.2V49.5l10.8,0.1l10.8,0.1v3l-9.1,0.1l-9.1,0.1l0.1,2l0.1,2l6.3,0.1l6.3,0.1l-0.1,1.4L16,59.9l-6.3,0.1
				l-6.3,0.1v10.6H0V60.2z"/>
			<path class="st0" d="M23.9,70.5c0-0.2,2.5-5,5.5-10.6l5.5-10.3l1.8-0.1c0.8-0.1,1.6,0,2.4,0.3c1.5,2.3,2.9,4.7,4.1,7.2
				c1.9,3.7,4.4,8.2,5.4,10.2l1.9,3.5h-1.9c-1.9,0-2,0-3.1-2.3l-1.2-2.3H30l-1.3,2.3c-1.3,2.2-1.5,2.3-3,2.3
				C24.7,70.8,23.9,70.7,23.9,70.5z M42.3,62.8c0-0.2-1.2-2.6-2.6-5.4L37,52.3l-2.2,4.3c-1.2,2.4-2.5,4.8-2.7,5.4l-0.5,1.1H37
				C39.9,63.1,42.3,63,42.3,62.8z"/>
			<path class="st0" d="M88.5,60.2V49.5h3.4v7.7h17l0.1-3.7l0.1-3.8l1.6-0.1l1.6-0.1v21.4H109V60.2H91.9v10.7h-3.4V60.2z"/>
			<path class="st0" d="M123.5,60.2V49.5h3.4v21.4h-3.4V60.2z"/>
			<path class="st0" d="M173.6,60.3l0.1-10.6l2-0.1c0.9-0.2,1.8,0,2.6,0.5c0.3,0.3,4.1,4.3,8.3,8.8l7.7,8.2l0.2-8.7l0.2-8.7l1.6-0.1
				l1.6-0.1v21.4h-4.4l-3.9-4.2c-2.1-2.3-5.7-6.2-7.9-8.5c-1.3-1.6-2.8-3.1-4.4-4.4c-0.2,0-0.3,3.8-0.3,8.5v8.6h-3.4L173.6,60.3z"/>
			<path class="st0" d="M208.1,69.3v-1.5h4.3v3h-4.3V69.3z"/>
			<path class="st0" d="M290.2,60.3l0.1-10.6l1.9-0.1l1.9-0.1l5,6.5c2.8,3.5,5.2,6.4,5.4,6.4c1.9-2,3.7-4.2,5.4-6.4l5.1-6.5l1.9,0.1
				l2,0.1l0.1,10.6l0.1,10.6h-3.4l-0.1-8.6l-0.1-8.6l-4.3,5.3c-2.4,2.9-4.8,6-5.5,6.9l-1.2,1.6l-2-2.6c-1.1-1.4-3.5-4.5-5.4-6.9
				l-3.4-4.3l-0.1,8.6l-0.1,8.6h-3.4L290.2,60.3z"/>
			<path class="st0" d="M157.5,32.8c-8.3-1.2-14-5.5-15.9-11.9c-1-3.7-0.7-7.6,0.9-11.1c3.3-6.4,11.5-10.4,20.3-9.7
				c6,0.4,10.6,2.4,14.1,6c1.7,1.8,1.8,2,1.1,2.2l-2.3,0.9c-1.4,0.6-1.5,0.5-3.1-0.9c-2.8-2.4-6.2-3.5-11.4-3.5s-8.4,1-11.2,3.6
				c-2.6,2.4-3.6,4.4-3.6,8.2s0.9,5.9,3.5,8.1c5.6,4.9,16.8,5,22.6,0.2l1.8-1.5l2.2,1.1l2.2,1.1l-1,1.1c-2.5,2.4-5.5,4.1-8.7,5.2
				C165.2,32.9,161.3,33.2,157.5,32.8z"/>
			<path class="st0" d="M298.1,32.5c-2.9-0.5-5.7-1.4-8.3-2.7c-3.9-2-3.8-1.8-2.4-3.8c0.4-0.7,0.9-1.3,1.6-1.8
				c0.7,0.2,1.4,0.5,2,0.9c4.8,2.5,10.2,3.6,15.6,3.3c7.4-0.6,11-3.4,9.2-7.3c-0.7-1.5-3.2-2.4-8.4-2.8c-13.5-1.3-14.6-1.5-17-2.9
				c-3.8-2.3-4.1-7.7-0.6-11.2c2.5-2.4,5.8-3.5,12-3.7c6-0.2,9,0.2,13.9,2.1c4.4,1.7,4.6,2.1,2.8,4.1l-1.5,1.6l-2.1-0.9
				c-3.4-1.5-7-2.3-10.6-2.6c-6.3-0.4-11.3,1.4-11.3,4c0,2.9,2.3,3.8,11.3,4.4c12.6,0.9,16.8,2.9,17.5,8.2c0.7,4.5-2,8.4-7.1,10.2
				c-2.3,0.8-3.8,1-8.9,1.1C302.1,32.7,298.8,32.6,298.1,32.5z"/>
			<path class="st0" d="M0.3,32.1C0.1,31.9,0,24.9,0,16.5V1.3l3.2-0.2L6.4,1l6.7,8.5c3.7,4.7,7.1,8.9,7.4,9.4s0.9,0.7,1.1,0.6
				s3.6-4.2,7.4-9.1s7-8.8,7.2-8.9c1.1-0.2,2.2-0.3,3.2-0.3l3-0.1v31.2h-4.3L38,19.6c-0.1-6.8-0.4-12.5-0.6-12.5s-3.7,4.3-7.9,9.5
				s-7.7,9.7-7.9,10s-0.6,0.1-1-0.4s-2.1-2.8-4-5.1s-5.2-6.6-7.4-9.4l-4-5.1L5.1,19.4L4.9,32.2l-2.1,0.1C1.9,32.4,1.1,32.4,0.3,32.1
				z"/>
			<path class="st0" d="M55.5,31.9c0-0.5,3.5-7.3,11.8-23c3.4-6.3,4.4-7.9,5-7.9c0.5,0,2,0.1,3.3,0.1c2.2,0.1,2.5,0.2,3,1.2
				c0.3,0.7,3.9,7.5,7.9,15.1S94,31.6,94,31.8c0,0.3-0.9,0.5-2.5,0.4l-2.5,0l-1.8-3.8l-1.9-3.8H64.1l-1.8,3.9l-1.8,3.9h-2.5
				C56.5,32.4,55.5,32.2,55.5,31.9z M82.3,19.2C81.9,18.1,75,5.5,74.8,5.4c-0.5,0.6-1,1.3-1.3,2.1l-3.7,6.9c-1,1.7-1.9,3.4-2.7,5.2
				c0,0.2,3.5,0.4,7.7,0.4C82.1,20,82.5,19.9,82.3,19.2z"/>
			<path class="st0" d="M112.7,32.1c-0.2-0.2-0.3-6.2-0.3-13.5V5.4h-15V1.2h35v4.3h-15l-0.1,13.4l-0.1,13.3l-2.1,0.1
				C114.2,32.4,113.5,32.3,112.7,32.1z"/>
			<path class="st0" d="M191.8,32.1c-0.2-0.2-0.3-7.2-0.3-15.6V1.2l1.4-0.1c0.7,0,1.8-0.1,2.4-0.1h1.1l0.1,5.5l0.1,5.4h25.2V6.5
				c0-4.8,0.1-5.3,0.8-5.4c1.3-0.1,2.6-0.1,3.9,0c0.4,0,0.5,3.3,0.4,15.6l-0.1,15.5H222l-0.2-7.9l-0.2-7.9h-24.8l-0.2,7.9l-0.2,7.9
				l-2.1,0.1C193.4,32.4,192.6,32.4,191.8,32.1z"/>
			<path class="st0" d="M244,16.8V1.2l14.4-0.1c7.9-0.1,14.9-0.1,15.6,0c1.1,0.1,1.1,0.3,1.1,2.3v2.1l-13.1,0.1L249,5.7l-0.2,1.7
				c-0.1,1,0,2.1,0.1,3.1l0.3,1.4h17.9v4.5h-18.2v11.1l13.8,0.1l13.8,0.1l-0.1,2.3l-0.1,2.2l-16.1,0.1L244,32.4V16.8z"/>
		</g>
	</g>
</g>
</svg>
