<?xml version="1.0" encoding="utf-8"?>
<!-- Generator: Adobe Illustrator 22.1.0, SVG Export Plug-In . SVG Version: 6.00 Build 0)  -->
<svg version="1.1" id="Layer_1" xmlns="http://www.w3.org/2000/svg" xmlns:xlink="http://www.w3.org/1999/xlink" x="0px" y="0px"
	 viewBox="0 0 293.5 90.2" style="enable-background:new 0 0 293.5 90.2;" xml:space="preserve">
<style type="text/css">
	.st0{fill:#FFFFFF;}
</style>
<title>mytheresa-logo</title>
<g id="Layer_2_1_">
	<g id="Layer_1-2">
		<g id="layer1">
			<path class="st0" d="M45.3,88.8c-5-5,5.6-14.7,23.6-21.8c4.5-1.8,9.7-6,9.8-8c0-0.4-1.8,0.2-4,1.2c-5,2.3-10.2,2.5-10.9,0.5
				c-1.2-2.9,0.8-6.6,6.5-12.6c3.3-3.4,5.6-6.4,5.3-6.7c-0.9-0.9-3.7,1.2-12.2,8.7c-8.6,7.7-15.7,12-19.9,12c-6.4,0-5.3-5,3.4-13.9
				c5.8-6,6.1-6.7,4.2-7C47.8,40.8,41.3,45,31.7,54c-6.9,6.4-9.3,8.2-11.6,8.2c-1.5,0-2.8-0.3-2.8-0.6s3.5-4.3,7.8-8.8
				C34.5,42.5,35.5,41,32.2,41S20,47.4,11.8,55.3c-4.9,4.8-7.7,6.8-9.4,6.8c-1.3,0-2.4-0.3-2.4-0.6c2.4-3.5,4.9-6.9,7.7-10.1
				c4.2-5.3,7.7-9.8,7.7-10.1c0-0.8-4.4,2.1-9.4,6.1c-2.3,1.8-4.4,3.1-4.7,2.7c-1.7-1.6,10.4-11.1,14.3-11.1c2.8,0,2.9,0.2,2.5,3.7
				l-0.3,3.7l4.1-3.2c5.1-3.8,11.2-5.9,13.4-4.4c1,0.6,1.5,2.2,1.5,3.8l-0.2,2.9l4.8-3.2c5.8-3.9,10.8-5.1,13-3
				c2.4,2.4-0.1,8-6.7,14.9c-4.6,4.8-5.4,6-3.8,6c2.6,0,10.1-5.1,18.3-12.3c8.4-7.5,10.7-8.8,13.8-8.8c2.4,0,2.7,0.3,2.7,3.4
				c0,2.9-1,4.5-6.3,10.2c-3.4,3.7-6,7-5.8,7.3c1.1,1.1,9.2-2.8,14.7-7c3.6-2.9,7-6.1,10.2-9.5c3.7-4.1,5.3-5.3,7.5-5.3
				c1.5,0,2.8,0.3,2.8,0.6c0,0.5-9.6,12-17.7,21.4l-2,2.2l3.9-1.9c8.2-4.1,31-24.8,30.7-27.8c0-1,0.7-1.7,2-1.9s3.7-2.5,6.2-5.9
				c3.3-4.5,4.7-5.7,6.8-5.8c1.4,0,2.6,0.3,2.6,0.7c-1.2,2-2.5,4-3.9,5.9l-4,5.3l4.5-0.5c3.4-0.4,4.4-0.2,4.4,0.8
				c0,1-1.4,1.3-5.1,1.3h-5.1l-10.1,12.5c-10.5,13-11.8,15.3-8.7,15.3c2.1,0,7.3-3.5,14.6-10.3c2.9-2.6,9.2-8,13.9-11.8
				c6.5-5.5,12.7-11.4,18.4-17.8C164.5,8,171.4,2.2,176.8,0.6c4.7-1.3,6.9-0.3,7.3,3.7c0.6,6.2-7,13.1-24.5,22.3
				c-9.1,4.7-11.3,6.3-16.1,12.1l-5.6,6.6l4-2.7c2.6-1.8,5.6-2.8,8.7-3.2l4.8-0.5v3.4c0,3.7-1.7,6.3-8.5,13.5
				c-3.6,3.7-4,4.5-2.4,4.5c2.6,0,9.1-4.3,17.2-11.4c10.6-9.4,19.3-12.8,21.9-8.5c2.5,3.9-3.9,9.4-13.1,10.9
				c-3.6,0.7-8.4,4.9-8.4,7.7c0,2.2,6.3,1.6,12.2-1.2c6.3-3.1,19.9-15.3,19.1-17.2c-0.7-1.4-0.1-3.2,1.3-3.9
				c0.4-0.2,0.8-0.3,1.3-0.3c1.1,0,2,0.7,2.4,1.7c0.3,1.3,1.1,1.6,3.2,1.3s3,0.1,3.8,1.6c1,1.8,0.2,3-6.2,10.3
				c-4,4.5-7.1,8.4-6.8,8.7c1.3,1.3,5.9-1.3,14.5-8.8c13.4-11.6,22-15.5,24.4-11.1c2.2,4.3-4.1,9.9-12.9,11.3
				c-3.3,0.5-8.2,4.8-8.2,7.1c0,3.3,10.6,0.7,17.7-4.3c2.6-1.8,8.6-7,13.5-11.5s9.4-8.2,10-8.2c1.3,0,1.3,1.6,0.1,2.4
				c-0.5,0.3-0.7,2.4-0.3,4.8c0.8,5.8-0.3,10.5-3.4,14c-3.6,4.4-0.3,2.4,8-4.8c11-9.7,23.4-14.7,27.2-11.2c1.5,1.4,1.8,1.4,2.3,0.1
				s7.4-2.2,7.4-0.9c0,0.3-3.2,4.1-7,8.4c-9.9,11.1-10.6,12-10.1,12.7c0.9,0.9,7.6-3,12.8-7.2c5.7-4.7,7.3-3.3,1.8,1.5
				c-6.3,5.4-11.5,8.2-15,7.8c-2.4-0.2-3.3-0.8-3.5-2.4l-0.3-2.1l-4.5,2.4c-2.5,1.5-5.4,2.3-8.4,2.1c-3.6-0.3-3.8-0.5-3.8-3.4
				s-0.1-3.1-2.1-1.7c-1.2,0.8-3.2,2-4.3,2.8s-5.7,1.7-9.9,2c-6.5,0.6-8,0.5-9-0.9c-2.3-2.7,0.4-4.6,5.9-4.2c4.7,0.3,4.9,0.2,8-3.8
				c2.9-3.7,5.9-11.3,4.9-12.3c-0.2-0.2-4.4,3.3-9.3,7.8c-10.5,9.5-17.1,13.1-25,13.7c-4.8,0.4-5.6,0.2-6.6-1.6
				c-0.6-1.3-0.7-2.6-0.5-4c0.6-1.6-0.3-1.2-4.3,1.6c-3.7,2.7-5.9,3.7-9,3.7c-3.7,0.1-3.9-0.1-4.2-2.9c-0.2-2.4,0.8-4.2,5.2-9.6
				c7.4-9,4.7-9.2-4.5-0.2c-9.5,9.4-15.6,12.6-23.9,12.7l-6.2,0.1l-0.4-3.7l-0.3-3.5l-3.1,2.3c-4.7,3.5-8.9,5.4-12.2,5.4
				c-6.1,0-4.9-5.7,3.1-14c3.3-3.4,5.6-6.4,5.3-6.8c-1.8-1.7-15.4,7-24.6,15.9c-4.1,4-5.7,5-8,4.7c-2.8-0.3-2.8-0.3,5.7-9.9
				c4.6-5.3,6.8-8.2,5-6.7s-6.4,5.4-10,8.3c-7.4,6.3-11.5,8.5-15.7,8.5c-4,0-4.9-3.4-2-8.7l2-4L99.6,54c-3.8,3.1-7.9,5.8-12.3,8.1
				c-5.8,2.8-9,5.3-17.3,13.5C57.6,88.2,49.1,92.7,45.3,88.8z M55.8,84.4c4-2.6,15-14.2,14.1-15.1c-1.3-1.4-20.1,9.8-22.5,13.5
				C44.2,87.7,49.1,88.6,55.8,84.4L55.8,84.4z M234.6,59.3c-0.3-0.6-0.9-0.9-1.5-1c-0.5,0.1-0.9,0.5-0.9,1c0,0.6,0.7,1,1.5,1
				S234.9,59.9,234.6,59.3z M264.2,58.7c8.8-4.5,19.2-14.9,17.1-17c-0.5-0.5-2.5-0.6-4.5-0.2c-2.9,0.5-5.4,2.4-11.6,8.6
				c-4.4,4.3-8,8.4-8,9C257.2,60.7,260.6,60.5,264.2,58.7L264.2,58.7z M176.9,46.6c3.4-1.7,5.4-4,4.2-5.2s-4,0.6-8.4,4.4
				c-3.6,3.3-3.9,3.8-1.9,3.3C172.9,48.4,174.9,47.6,176.9,46.6z M223.8,47.2c3-1.5,5.6-3.9,5.6-5.3c0-2.1-3.7-0.5-8.2,3.5
				c-3.8,3.5-4.3,4.3-2.4,3.7C220.5,48.6,222.2,47.9,223.8,47.2L223.8,47.2z M167.4,19.3c8-5.1,11.6-8.4,13.6-12.2
				c1.2-2.4,1.2-2.9,0-4.1c-1.9-2-4.3-1.1-10.2,3.5c-4.3,3.5-18.3,19.1-18.3,20.5C152.6,27.9,159.7,24.3,167.4,19.3z"/>
		</g>
	</g>
</g>
</svg>
