<?xml version="1.0" encoding="UTF-8"?>
<svg width="60px" height="60px" viewBox="0 0 60 60" version="1.1" xmlns="http://www.w3.org/2000/svg" xmlns:xlink="http://www.w3.org/1999/xlink">
    <!-- Generator: Sketch 47.1 (45422) - http://www.bohemiancoding.com/sketch -->
    <title>not-applicable</title>
    <desc>Created with Sketch.</desc>
    <defs></defs>
    <g id="Page-1" stroke="none" stroke-width="1" fill="none" fill-rule="evenodd" fill-opacity="0.72">
        <path d="M10.3512974,14.8332317 C7.75696798,18.6972996 6.35,23.2446644 6.35,28 C6.35,41.0615343 16.9384657,51.65 30,51.65 C34.8222597,51.65 39.430047,50.2030282 43.3270694,47.5401239 C43.6234657,47.3375911 43.699557,46.9331292 43.4970242,46.6367329 C43.2944914,46.3403366 42.8900295,46.2642453 42.5936332,46.4667781 C38.9110219,48.9831714 34.5584455,50.35 30,50.35 C17.6564358,50.35 7.65,40.3435642 7.65,28 C7.65,23.5047959 8.97904008,19.2092965 11.4305999,15.5578738 C11.6307043,15.2598326 11.5513109,14.8560059 11.2532697,14.6559015 C10.9552286,14.4557971 10.5514018,14.5351905 10.3512974,14.8332317 Z M48.116214,43.2036324 C47.8853041,43.4784977 47.4752923,43.5141306 47.200427,43.2832208 C46.9255617,43.0523109 46.8899288,42.6422991 47.1208386,42.3674338 C50.4787196,38.3703545 52.35,33.3301953 52.35,28 C52.35,15.6564358 42.3435642,5.65 30,5.65 C24.6382946,5.65 19.5704267,7.54358275 15.563224,10.9376537 C15.289293,11.1696712 14.8791408,11.1356936 14.6471233,10.8617626 C14.4151058,10.5878317 14.4490834,10.1776794 14.7230143,9.94566192 C18.9628654,6.3545395 24.3276911,4.35 30,4.35 C43.0615343,4.35 53.65,14.9384657 53.65,28 C53.65,33.6389628 51.6690649,38.974469 48.116214,43.2036324 Z M0.540380592,1.45961941 C0.286539803,1.20577862 0.286539803,0.794221382 0.540380592,0.540380592 C0.794221382,0.286539803 1.20577862,0.286539803 1.45961941,0.540380592 L59.0788332,58.1595944 C59.332674,58.4134352 59.332674,58.8249924 59.0788332,59.0788332 C58.8249924,59.332674 58.4134352,59.332674 58.1595944,59.0788332 L0.540380592,1.45961941 Z" id="not-applicable" fill="#FAFAFA" fill-rule="nonzero"></path>
    </g>
</svg>