<svg id="Layer_1" xmlns="http://www.w3.org/2000/svg" width="32" height="32" viewBox="0 0 32 32"><path fill="#FFF" d="M14.38 17.602c-.17 0-.342-.014-.516-.037-1.899-.282-3.349-2.078-2.928-3.954 1.618-7.218 7.535-10.966 11.227-12.139 2.585-.821 4.276-.526 4.862.586.524.996.05 2.137-1.289 2.93-2.342 1.384-6.461 3.433-7.922 9.646-.398 1.698-1.74 2.968-3.434 2.968"/><path d="M24.757 2.006c-.637 0-1.407.142-2.29.422-3.973 1.261-9.118 5.003-10.552 11.403-.125.557-.003 1.142.342 1.646a2.64 2.64 0 0 0 1.755 1.095c1.312.188 2.486-.719 2.827-2.168 1.472-6.257 5.527-8.615 7.949-10.024l.438-.256c.312-.186 1.308-.85.912-1.599-.226-.429-.876-.519-1.381-.519M14.38 18.604a4.614 4.614 0 0 1-3.778-1.989c-.664-.97-.893-2.113-.645-3.22C11.578 6.165 17.381 1.939 21.859.518 22.938.174 23.913 0 24.757 0c2.019 0 2.845.996 3.157 1.592.786 1.492.117 3.204-1.665 4.26l-.452.264c-2.281 1.327-5.73 3.333-7.005 8.748-.526 2.236-2.3 3.74-4.412 3.74"/><path fill="#FFF" d="M20.755 9.896s-1.681 3.556-1.44 6.861c.373 5.118 3.639 9.312 7.855 11.534 1.227.646 1.066 2.443-.514 2.617-8.16.893-15.501-4.999-16.394-13.159a14.628 14.628 0 0 1 .142-4.242c.188-1.032 1.205-3.454 1.205-3.454"/><path d="M25.027 32c-7.982 0-14.875-6.027-15.763-14.141a15.777 15.777 0 0 1 .151-4.534c.203-1.106 1.159-3.403 1.268-3.661l1.849.775c-.271.646-1.005 2.49-1.143 3.246a13.625 13.625 0 0 0-.13 3.954c.832 7.601 7.7 13.111 15.287 12.271.175-.02.39-.08.427-.274.025-.13-.031-.327-.271-.454-4.877-2.572-8.015-7.188-8.39-12.352-.256-3.527 1.463-7.207 1.535-7.361l1.812.856c-.018.033-1.562 3.367-1.35 6.36.326 4.465 3.063 8.474 7.324 10.719.979.518 1.502 1.562 1.303 2.606-.192 1.025-1.049 1.771-2.176 1.894-.578.065-1.158.096-1.733.096"/><path d="M28.495 30.934h-.033c-7.601-.246-13.945-6.053-14.76-13.507a15.007 15.007 0 0 1 .072-3.841 1.003 1.003 0 0 1 1.983.295 12.998 12.998 0 0 0-.062 3.327c.708 6.469 6.224 11.508 12.831 11.722.556.021.988.48.972 1.034-.019.541-.465.97-1.003.97"/><path d="M8.696 10.773c-1.687.345-4.438 1.938-4.17 5.431.111 1.435.665 2.401 1.275 3.042a11.652 11.652 0 0 1-.089-3.142c.223-1.961 1.139-4.183 2.984-5.331M7.407 22.374c-.079 0-.159-.01-.238-.028-1.474-.361-4.341-2.078-4.642-5.987-.368-4.79 3.49-7.351 6.348-7.639 2.241-.227 3.966.286 5.171 1.495 1.119 1.122 1.688 2.769 1.688 4.895.031.419.046.783-.258 1.113a1 1 0 0 1-.718.32.979.979 0 0 1-.729-.293c-.308-.308-.304-.643-.3-1.027v-.035c-.059-.785-.392-3.183-2.24-3.183l-.096.002c-3.056.112-3.609 3.623-3.688 4.326-.282 2.481.615 4.623.624 4.646.149.35.088.752-.157 1.043a1.013 1.013 0 0 1-.765.352"/><path d="M26.287 18.691a1.003 1.003 0 0 1-.994-.865c-.037-.262-.945-6.403-5.697-6.403-3.245 0-3.848 3.791-3.872 3.952a.994.994 0 0 1-1.089.853 1.003 1.003 0 0 1-.905-1.043c.143-3.068 1.753-5.16 4.657-6.053a7.168 7.168 0 0 1 8.075 2.874c1.259 1.872 1.537 4.138.753 6.062-.156.38-.526.623-.928.623"/><path fill="#FFF" d="M8.628 10.82v-.031c-1.692.373-4.365 1.969-4.102 5.416.111 1.436.665 2.402 1.275 3.042a11.652 11.652 0 0 1-.089-3.142c.22-1.937 1.117-4.125 2.916-5.285z"/></svg>