<svg xmlns="http://www.w3.org/2000/svg" viewBox="0 0 352.35 52.58"><defs><style>.cls-1{fill:none;stroke:#000;stroke-miterlimit:10;stroke-width:0.25px;}</style></defs><title>peonylim-logo</title><g id="Layer_2" data-name="Layer 2"><g id="Layer_1-2" data-name="Layer 1"><path d="M352.35.85c-1,0-1.94.07-2.89,0s-1.36.25-1.35,1.32c0,8.44,0,16.88,0,25.32q0,11.29,0,22.58c0,.43,0,.87,0,1.41h4.19v.19H338.11v-.12h4.2V2.42l-.13,0c-.66,2.06-1.33,4.11-2,6.17L326.94,50.62c-.2.63-.3,1.27-1.26,1.14s-1.66.21-2.11-1.07Q315.28,27,306.84,3.45a3,3,0,0,0-.64-1.14v1c0,12.86,0,25.72,0,38.58a23.87,23.87,0,0,0,.91,6.12,4.57,4.57,0,0,0,4,3.61h-9.51c3.21-.91,3.73-3.59,4.1-6.28a35.52,35.52,0,0,0,.22-4.81q0-19.13,0-38.26V.91h-4.21V.66h3.91c1.79,0,3.58.07,5.37,0,1-.05,1.29.35,1.58,1.19q7.51,21.66,15.08,43.31c.08.24.18.47.36.92.8-2.49,1.54-4.79,2.27-7.09q5.9-18.63,11.78-37.27A1.22,1.22,0,0,1,343.49.64c3,.05,5.91,0,8.86,0Z"/><path d="M127.46,25.17c-.16,8-2,14.63-6.93,20.11a21.41,21.41,0,0,1-14,7.11A23.26,23.26,0,0,1,90.83,49c-5.16-3.36-8.07-8.32-9.41-14.23-1.7-7.51-1.36-14.89,2.1-21.87C87.15,5.54,93,1.12,101.29.2c6.81-.76,13.08.64,18.31,5.34a23.4,23.4,0,0,1,7.23,13.9C127.2,21.58,127.31,23.78,127.46,25.17Zm-6.56.36c-.14-1.54-.28-4.14-.65-6.7a28.5,28.5,0,0,0-4.63-12.37C109.79-2,98.38-1,93.22,4.78a22.49,22.49,0,0,0-5,10.33,50.29,50.29,0,0,0-.84,16.44A31.85,31.85,0,0,0,91.09,44a15.23,15.23,0,0,0,6.64,6.76c6.7,3.16,15.69,1.51,19.91-7.39C120.16,38.08,120.74,32.38,120.9,25.54Z"/><path d="M10.33,51.52h4.2v.15H0v-.17H4.27V.92H.06V.72C.26.7.47.66.68.66c6.61,0,13.22,0,19.83,0,4.1,0,8.08.67,11.61,2.94,7.36,4.73,7.63,14.46.59,19.72-4,3-8.58,4-13.46,4.05-2.63,0-5.26,0-7.89,0-.32,0-.64,0-1,.07Zm0-24.46a1.35,1.35,0,0,0,.35.11c3.25,0,6.5.12,9.74,0a11.23,11.23,0,0,0,10.66-8.94,17.56,17.56,0,0,0,0-8.23c-1.12-4.83-4.51-8.25-9.41-8.79C18,.76,14.23,1,10.51.92c-.06,0-.11.08-.2.15Z"/><path d="M51.5,51.64c5.1-.12,10.14-.07,15.16-.41a8.28,8.28,0,0,0,7.4-5.52c.77-1.91,1.3-3.91,1.89-5.71V51.67H41.25v-.12h4.21V50.29q0-24.06,0-48.11c0-1-.25-1.45-1.33-1.34A12.93,12.93,0,0,1,41.22.72H75.28V13.27c-.38-1.5-.66-2.77-1-4a21.1,21.1,0,0,0-1-2.76,8.71,8.71,0,0,0-7.8-5.35C60.89.85,56.32.95,51.76.88c-.06,0-.13.05-.26.11V26.07c.47,0,1,0,1.46,0,3-.12,6.07,0,9.05-.42,3.35-.43,5.18-2.7,5.88-5.94.08-.36.16-.71.25-1.06,0,0,.06,0,.14-.06V33.95l-.14,0c-.09-.45-.19-.89-.29-1.34-.84-3.83-3.32-6-7.63-6.26-2.87-.19-5.76,0-8.72,0Z"/><path d="M141,51.68h-9.54c2.59-.67,3.44-2.75,3.88-5a28.44,28.44,0,0,0,.54-5.32c0-12.78,0-25.57,0-38.36,0-.18,0-.37,0-.55,0-1.57,0-1.58-1.59-1.59a13.18,13.18,0,0,1-2.73-.19h2.91c2.23,0,4.46,0,6.68,0a1.66,1.66,0,0,1,1.71,1Q156.12,24.34,169.4,47a6.09,6.09,0,0,0,1.13,1.51c0-.38.06-.75.06-1.13,0-12.2,0-24.4,0-36.6A26,26,0,0,0,170,5.51c-.51-2.39-1.64-4.4-4.44-4.79h9.71c-.7.34-1.56.49-1.95,1a11.34,11.34,0,0,0-1.91,3.47,15.52,15.52,0,0,0-.5,4.32q-.05,20.38,0,40.77v1.44c-1.67,0-3.26,0-4.85,0-.3,0-.64-.51-.84-.86q-6.23-10.48-12.44-21l-16-27.11a2,2,0,0,0-.79-.83V3.06c0,12.89,0,25.79,0,38.68a25.13,25.13,0,0,0,.79,6A4.81,4.81,0,0,0,141,51.68Z"/><path d="M254.92,51.44c4.87,0,9.6.24,14.28-.07,5.18-.34,7.87-2.9,9.35-8.08.37-1.28.65-2.59,1.13-3.86V51.67h-35v-.16h4.25V.91h-4.22V.72h14.44V.85c-1,0-2.1.05-3.14,0-.88-.06-1.11.25-1.1,1.11,0,7.2,0,14.39,0,21.59v27.9Z"/><path d="M203,25.33a16.38,16.38,0,0,0-.24,2q0,11.39,0,22.78v1.38h4.21v.18H192.53v-.12h4.18c0-.45,0-.81,0-1.16,0-7.56,0-15.12,0-22.67a3.44,3.44,0,0,0-.52-1.72C191.09,17.91,186,9.84,180.91,1.75a1.59,1.59,0,0,0-1.66-.91A8.89,8.89,0,0,1,177,.73h14.85V.81h-4.34C187.76,2.25,202.48,25.28,203,25.33Z"/><path d="M294,51.51h4v.15H283.68v-.13h4.21V.9h-4.15V.73H298V.84h-4Z"/><path d="M211.77.7h11.84c-4.48.82-6.6,4.47-9.32,7.5.27-.52.59-1,.81-1.57a10.79,10.79,0,0,0,.74-2.15c.36-2-.43-3-2.4-3.41-.56-.11-1.13-.19-1.69-.29Z"/><line class="cls-1" x1="214.81" y1="7.42" x2="201.5" y2="27.5"/></g></g></svg>