<?xml version="1.0" encoding="UTF-8"?>
<svg width="90px" height="93px" viewBox="0 0 90 93" version="1.1" xmlns="http://www.w3.org/2000/svg" xmlns:xlink="http://www.w3.org/1999/xlink">
    <!-- Generator: Sketch 47.1 (45422) - http://www.bohemiancoding.com/sketch -->
    <title>scissors</title>
    <desc>Created with Sketch.</desc>
    <defs></defs>
    <g id="Page-1" stroke="none" stroke-width="1" fill="none" fill-rule="evenodd">
        <g id="scissors" fill-rule="nonzero" fill="#FAFAFA">
            <path d="M36.23,92.63 C36.4946469,92.7522536 36.7994661,92.7529368 37.0646584,92.6318708 C37.3298507,92.5108047 37.5290107,92.2800441 37.61,92 L50.61,40 L68.07,31.81 C64.1106285,37.0398176 65.0843011,44.4797838 70.2561398,48.5145948 C75.4279784,52.5494058 82.8812846,51.6837489 86.9906863,46.5709773 C91.1000879,41.4582058 90.3426288,33.9931277 85.29,29.81 C81.8487017,26.9244768 77.1476389,26.0518017 72.9,27.51 L51.15,37.81 L57,14.46 C57.6247649,10.0173573 55.8798496,5.57161654 52.4,2.74 C47.3299758,-1.42929108 39.8508359,-0.75115576 35.6133904,4.26204573 C31.3759449,9.27524723 31.952917,16.7628706 36.9083797,21.0676962 C41.8638424,25.3725218 49.358581,24.8968183 53.73,20 L49,38.74 L0.53,61.51 C0.271525322,61.648821 0.0870543691,61.8941485 0.0254481826,62.1810023 C-0.0361580038,62.4678561 0.0313166309,62.7672927 0.21,63 L0.28,63 C0.561635029,63.2272633 0.944080948,63.2846302 1.28,63.15 L48.52,41 L35.82,91.58 C35.7336949,91.9508799 35.8655158,92.3385884 36.16,92.58 L36.23,92.63 Z M71.2,47 C68.0170845,44.380952 66.7255041,40.1023 67.927636,36.1595544 C69.1297678,32.2168088 72.5888164,29.3866101 76.6915244,28.9889278 C80.7942323,28.5912455 84.7324498,30.704415 86.669441,34.3428802 C88.6064322,37.9813453 88.1606493,42.4284028 85.54,45.61 C83.8254023,47.6999717 81.3492656,49.0213079 78.6585773,49.2821208 C75.9678889,49.5429337 73.2840752,48.7217601 71.2,47 L71.2,47 Z M38.27,19.9 C35.0870845,17.280952 33.7955041,13.0023 34.997636,9.05955442 C36.1997678,5.11680883 39.6588164,2.28661007 43.7615244,1.88892778 C47.8642323,1.49124549 51.8024498,3.60441497 53.739441,7.24288015 C55.6764322,10.8813453 55.2306493,15.3284028 52.61,18.51 C50.8954023,20.5999717 48.4192656,21.9213079 45.7285773,22.1821208 C43.0378889,22.4429337 40.3540752,21.6217601 38.27,19.9 Z" id="Shape"></path>
        </g>
    </g>
</svg>