<svg xmlns="http://www.w3.org/2000/svg" viewBox="0 0 285.69 59.88"><title>shein-logo</title><g id="Layer_2" data-name="Layer 2"><g id="Layer_1-2" data-name="Layer 1"><path d="M253.47,30.65c0,9,0,17.46-.06,25.93a2,2,0,0,1-1.24,1.53c-3.65.38-7.32.59-10.93.86-1.16-5.1-.72-56.08.51-59,5.16,4.77,10.26,9.51,15.39,14.23s10.47,9.54,16.32,14.87V1.83h12.22v58Z"/><path d="M66.61,58.23V1.32H79.18V24.22h24.49c.06-1.06.18-2.17.18-3.29,0-5.43,0-10.86,0-16.29,0-.74-.26-1.78.12-2.18,2.95-3.07,6.76-1.28,10.17-1.37.72,0,2.17,2.46,2.18,3.8.15,17.75.1,35.5.1,53.34-3.36,0-6.61-.15-9.84.05-2.22.14-2.77-.75-2.75-2.74.06-6.71-.07-13.42.09-20.12,0-2-.62-2.57-2.51-2.55-7.33.07-14.66,0-22,0,0,7.28-.09,14.57,0,21.85,0,2.73,0,4.35-3.66,3.61C72.94,57.77,69.87,58.23,66.61,58.23Z"/><path d="M182.47.86a59.29,59.29,0,0,0,0,6.67c.35,2.83-.89,3.43-3.45,3.39-7.78-.13-15.56,0-23.33-.1-2.48,0-3.49.77-3.43,3.21.07,3.32,0,6.64,0,9.73,9.75,0,18.56-.06,27.37.1.76,0,2,1.42,2.12,2.32a42.55,42.55,0,0,1,.1,6.54H152.33c0,4.63-.18,9.15.14,13.63A4.05,4.05,0,0,0,155.37,49c8.41.2,16.83.1,25.24,0a8.24,8.24,0,0,0,1.91-.63v10H140.64q0-24.75,0-49.62c0-7.94,0-7.94,7.82-7.94h34Z"/><path d="M0,51.39l8.06-7.34c3.7,1.54,7.44,3.22,11.27,4.65,4.08,1.52,9.66-.13,12.38-3.44,1.13-1.36.47-4.45-.94-5.68-4.06-3.55-9.17-4.42-14.05-6.06-6.73-2.27-12.55-6-15-13.31C.28,15.83,3.92,7.15,7.77,4.52,14.51-.09,22.21-.18,29.66.32c4.92.33,10.11,2.1,13.27,5.83-2.11,2.43-4.26,4.87-6.38,7.34-1,1.22-1.79,1.53-3.27.2-4-3.6-8.93-3.42-13.87-2.55-2.65.47-4.62,2.56-4.66,4.68a7.37,7.37,0,0,0,3.37,5.45c4,2.2,8.46,3.65,12.78,5.27,5.1,1.92,9.87,4.47,13,8.95,2.86,4.07,1.9,12.61-1.65,16.52-4.54,5-10.15,7.74-17.18,7-2.66-.27-5.41.35-8.05,0C10.61,58.32,4.78,56.12,0,51.39Z"/><path d="M216.64,57.9l-11.88.57q0-26.57,0-53.14c0-4,.43-4.45,4.51-4.47h8.07c0,11.39,0,22.62,0,33.85,0,6.92,0,13.83,0,20.75a9.74,9.74,0,0,1-.7,2.47,26.88,26.88,0,0,0,.43-3.46q0-24.26,0-48.53c0-.85-.1-1.7-.15-2.55a1.52,1.52,0,0,0-.54,1.24q0,25.86,0,51.72A8.41,8.41,0,0,0,216.64,57.9Z"/></g></g></svg>