<?xml version="1.0" encoding="utf-8"?>
<!-- Generator: Adobe Illustrator 21.1.0, SVG Export Plug-In . SVG Version: 6.00 Build 0)  -->
<svg version="1.1" id="Layer_1" xmlns="http://www.w3.org/2000/svg" xmlns:xlink="http://www.w3.org/1999/xlink" x="0px" y="0px"
	 viewBox="0 0 332.4 344.7" style="enable-background:new 0 0 332.4 344.7;" xml:space="preserve">
<style type="text/css">
	.st0{fill:none;stroke:#77AD99;stroke-width:10;stroke-miterlimit:10;}
</style>
<polygon class="st0" points="232,186.1 177.9,156.8 123,184.7 134.2,124.1 90.7,80.6 151.8,72.6 179.8,17.8 206.2,73.4 267.1,83 
	222.4,125.4 "/>
<g transform="translate(-10.468, -13.595)">
	<path d="M60.1,234.6L60.1,234.6c9.3,1.6,12.1,10.7,14.7,18.5c2.7-1.2,5.4-2.5,8.1-3.7c28-12.2,53.9-15.6,93.9-7
		c0.4,0.1,2.1-0.2,4.8-0.9c1.8-0.5,9.6-2.6,10.7-2.9c6-1.6,10.8-2.7,15.6-3.4l6.4-0.6c13.5-0.3,21.9,3.2,28.6,15.1l1.1-0.3
		c3-0.9,6.3-1.8,9.9-2.9c2.9-0.8,14.9-4.6,14-4.3c4-1.2,7.2-2.2,10.4-3c7.2-2.2,14.6-3.3,22.1-4.2c7.8,0.1,4.6-0.2,9.8,0.6
		c10.7,2.3,15.7,10.4,13.7,23.7c-0.6,4-3.5,5.3-9.9,6.9c-0.8,0.2-7.5,1.6-9.8,2.2c-4.2,1-7.7,2.1-11.1,3.5c-0.9,0.4-1.8,0.8-2.6,1.2
		c-14.4,6.9-27.2,11.6-39.7,14.9c-4.9,1.3-9.5,2.4-14.6,3.4c-2.9,0.6-11.7,2.1-11.7,2.1c-4.4,0.8-7.3,1.5-9.8,2.3
		c-4,1.3-8.3,2.7-13.6,4.5c-1.1,0.4-2.2,0.8-3.4,1.2c-25.5,8.8-27.3,9.4-33.5,10.9c-1.1,0.3-2.3,0.5-3.4,0.7
		c-19.5,3.8-37.9,2-64.7-4.3c-7.2-1.7-3.3-0.8-11.8-2.7c-0.1,11.6,4,35.2-9.6,40.9l0,0l-33.1,4.6l-1.1-7.6l24.8-3.4
		c-9.3-13.9-11-31.4-13.4-47.6c-1.6-14.6-3.3-29.6-0.7-44.1c0.3-1.7,0.9-3.3,1.3-4.9L19,249l-1.2-7.6l42-6.7l0.2-0.1l0,0L60.1,234.6
		L60.1,234.6z M65,302.5c-2.5,0.1-1.3,0-3.6,0.3h0c4.4,19.7,2.1,11.5,6.3,24.6c2.8,7.7,5.7,11.8,6.1,11.7c1.6-2.9,1.9-6.6,2.5-9.8
		c1-8.4,0.9-16.8,0.3-25.2c-5.8-1.2-2.8-0.7-8.9-1.6L65,302.5z M214.1,242.4l-5.2,0.5c-4.4,0.6-9,1.6-14.6,3.2
		c-1.1,0.3-8.9,2.5-10.8,3c-4,1-6.3,1.3-8.3,0.9c-38.3-8.2-62.6-5.1-89.2,6.6c-2.4,1.1-11.1,5-13.1,5.9c-4.9,2.1-8.7,3.5-12.5,4.5
		c-2.2,0.5-1.3,0.3-2.6,0.6c0.7,17.5,0,9.4,1.7,24.3l0.5,3.5l0,0c7.3-1.2,7.7-1.1,37.6,5.9c25.9,6.1,43.4,7.8,61.5,4.3
		c1.1-0.2,2.1-0.4,3.2-0.7c5.9-1.4,7.8-2,32.8-10.7c1.2-0.4,2.4-0.8,3.4-1.2c5.3-1.8,9.7-3.3,13.7-4.6c2.9-0.9,6.1-1.6,10.7-2.5
		c30.4-5.7,39.7-8.2,64.1-19.8c1-0.5,2-0.9,3-1.3c3.8-1.6,7.7-2.8,12.2-3.9c2.3-0.6,9.1-2,9.8-2.2c2-0.5,3.4-0.9,4.2-1.3l0,0
		c1-7.4-0.3-12.1-7.7-14.3c-6.2-1.3-15.5,0-28.3,3.5c-3.1,0.8-6.2,1.8-10.1,3c0.9-0.3-11.2,3.5-14.1,4.4c-3.6,1.1-7,2.1-10,2.9
		c-2.5,0.7-1.5,0.4-2.8,0.8c-2.2,7.4-14.5,9.5-21,11.2c0,0-25.7,5.8-34.3,8.2c-13.2,3.6-22.6,4.3-32.7,2.7
		c-4.9-0.8-23.9-5.4-24.7-5.6c-0.3-0.1-0.3-0.1-0.6-0.1c-2.1-0.5-3.4-2.5-2.9-4.6c0.5-2.1,2.5-3.4,4.6-2.9c0.3,0.1,0.3,0.1,0.6,0.1
		c1.2,0.3,19.7,4.8,24.3,5.5c9,1.4,17.3,0.8,29.5-2.5c8.8-2.4,34.7-8.3,34.5-8.2c13-3.2,16.7-5.6,15.7-8.2
		C231.6,243,224,242.8,214.1,242.4z M60.8,242.4c-1.8,4-2.2,8.5-2.7,12.7l-0.2,4.4l0.7-0.2c3.1-0.8,6.2-1.9,9.1-3.2
		c-1-3.8-2.8-7.3-4.6-10.7c-0.9-1.4-1.6-2.5-2.3-3L60.8,242.4z"/>
	<path d="M175.4,37.8c2.2,0.2,1.1,0.1,3.1,0.2l1.5,1.6L208,96.1l62.5,9.1c3.2,0.5,4.4,4.3,2.1,6.6l-45.2,44.1l10.7,62.2
		c0.5,3.1-2.8,5.5-5.6,4.1l-55.9-29.4l-55.9,29.4c-2.8,1.5-6.1-0.9-5.6-4.1l10.7-62.2l-45.2-44.1c-2.3-2.2-1-6.1,2.1-6.6l62.5-9.1
		l27.9-56.6C173.9,38.7,174.3,38,175.4,37.8z M176.6,49.9l-25.4,51.4c-0.6,1.1-1.6,1.9-2.9,2.1l-56.7,8.2l41.1,40
		c0.9,0.9,1.3,2.2,1.1,3.4l-9.7,56.5l50.8-26.7c1.1-0.6,2.5-0.6,3.6,0l50.8,26.7l-9.7-56.5c-0.2-1.2,0.2-2.5,1.1-3.4l41.1-40
		l-56.7-8.2c-1.3-0.2-2.3-1-2.9-2.1L176.6,49.9z"/>
</g>
</svg>
