<?xml version="1.0" encoding="UTF-8"?>
<svg width="71px" height="63px" viewBox="0 0 71 63" version="1.1" xmlns="http://www.w3.org/2000/svg" xmlns:xlink="http://www.w3.org/1999/xlink">
    <!-- Generator: Sketch 47.1 (45422) - http://www.bohemiancoding.com/sketch -->
    <title>unique</title>
    <desc>Created with Sketch.</desc>
    <defs></defs>
    <g id="Page-1" stroke="none" stroke-width="1" fill="none" fill-rule="evenodd">
        <path d="M53.99841,3.953125 L53.674191,3.785156 C49.46716,1.695313 43.334347,0 35.107785,0 C26.834347,0 20.982785,1.386719 15.869504,3.753906 L15.353879,4.03125 C-1.94690305,14.210938 0.0179409541,24.753906 0.111690954,25.199219 L0.162472954,25.441406 L7.87731595,33.460938 L9.01403495,34.640625 L35.603879,62.28125 L36.326535,63.035156 L36.771847,62.527344 L61.678097,34.25 L62.760129,33.023438 L70.115597,24.675782 L70.15466,24.433594 C70.228879,23.988282 71.732785,13.363282 53.99841,3.953125 Z M60.115597,30.417969 L47.646847,18.101563 C52.014035,16.75 55.236691,14.71875 56.65466,12.316406 L60.115597,30.417969 Z M16.721066,5.300782 C21.381223,3.429688 27.244504,1.714844 35.107785,1.714844 C46.514035,1.714844 55.740597,4.871094 55.740597,9.550782 C55.740597,12.496094 51.920285,15.152344 46.240597,16.714844 L46.02966,16.769532 C42.732785,17.652344 38.838254,18.179688 34.701535,18.179688 C30.892941,18.179688 27.295285,17.730469 24.170285,16.96875 L23.361691,16.765625 C17.576535,15.207032 13.662473,12.53125 13.662473,9.550782 C13.662473,8.113282 14.037473,6.734375 16.170285,5.542969 L16.721066,5.300782 Z M44.889035,18.820313 L35.615597,37.203125 L25.439816,19.019532 C28.256223,19.574219 31.381223,19.890625 34.701535,19.890625 C38.392941,19.890625 41.834347,19.5 44.889035,18.820313 Z M12.545285,11.929688 C13.857785,14.550782 17.299191,16.765625 22.045285,18.1875 L10.049191,31.117188 L12.545285,11.929688 Z M1.75622295,24.628906 C1.61559695,23.324219 1.46325395,16.449219 11.201535,8.917969 L8.27965995,31.410156 L1.75622295,24.628906 Z M23.494504,19.136719 L33.74841,37.519532 L24.27966,37.519532 L10.474973,33.175782 L23.494504,19.136719 Z M11.916379,35.191406 L23.182004,39.050782 L31.771847,55.832032 L11.916379,35.191406 Z M36.09216,61.082032 L25.150754,39.230469 L45.807004,39.230469 L36.09216,61.082032 Z M39.865597,56.421875 L47.639035,39.28125 L58.799191,34.933594 L39.865597,56.421875 Z M47.34216,37.59375 L47.34216,37.519532 L37.400754,37.519532 L46.525754,19.402344 L60.150754,32.855469 L47.34216,37.59375 Z M68.482785,23.9375 L62.025754,31.265625 L57.603879,8.132813 C68.349973,15.382813 68.557004,22.597656 68.482785,23.9375 Z" id="unique" fill="#FAFAFA" fill-rule="nonzero"></path>
    </g>
</svg>