<?xml version="1.0" encoding="utf-8"?>
<!-- Generator: Adobe Illustrator 22.1.0, SVG Export Plug-In . SVG Version: 6.00 Build 0)  -->
<svg version="1.1"
	 id="Layer_1" xmlns:cc="http://creativecommons.org/ns#" xmlns:dc="http://purl.org/dc/elements/1.1/" xmlns:inkscape="http://www.inkscape.org/namespaces/inkscape" xmlns:rdf="http://www.w3.org/1999/02/22-rdf-syntax-ns#" xmlns:sodipodi="http://sodipodi.sourceforge.net/DTD/sodipodi-0.dtd" xmlns:svg="http://www.w3.org/2000/svg"
	 xmlns="http://www.w3.org/2000/svg" xmlns:xlink="http://www.w3.org/1999/xlink" x="0px" y="0px" viewBox="0 0 100 99.6"
	 style="enable-background:new 0 0 100 99.6;" xml:space="preserve">
<style type="text/css">
	.st0{fill:#FFFFFF;}
</style>
<g transform="translate(0,-952.36218)">
	<path class="st0" d="M49.9,952.3c-27.5,0-49.9,22.3-49.9,49.9s22.3,49.9,49.9,49.9s49.9-22.3,49.9-49.9S77.4,952.3,49.9,952.3z
		 M48.7,954.8v21.9H30.4C34.2,964.2,40.8,955.6,48.7,954.8z M51.1,954.8c7.8,0.8,14.4,9.4,18.3,21.9H51.1V954.8z M40.7,955.6
		c-5.4,4-9.9,11.5-12.8,21H9.9C16.7,965.9,27.8,958.1,40.7,955.6z M59,955.6c12.9,2.5,24,10.3,30.8,21H71.8
		C68.9,967.1,64.4,959.6,59,955.6z M8.5,979h18.8c-1.8,6.6-2.8,14-2.9,21.9H2.5C2.7,993,4.8,985.5,8.5,979z M29.7,979h19v21.9H26.8
		C26.9,993,27.9,985.6,29.7,979z M51.1,979h19c1.8,6.5,2.8,14,2.9,21.9H51.1V979z M72.5,979h18.8c3.6,6.5,5.8,13.9,6,21.9H75.4
		C75.3,993,74.3,985.6,72.5,979z M2.5,1003.3h21.9c0.1,7.9,1.2,15.3,2.9,21.9H8.5C4.8,1018.7,2.7,1011.3,2.5,1003.3z M26.8,1003.3
		h21.9v21.9h-19C27.9,1018.7,26.9,1011.2,26.8,1003.3z M51.1,1003.3h21.9c-0.1,7.9-1.1,15.4-2.9,21.9h-19V1003.3z M75.4,1003.3h21.9
		c-0.2,7.9-2.3,15.4-6,21.9H72.5C74.3,1018.7,75.3,1011.2,75.4,1003.3z M9.9,1027.7h18c2.9,9.5,7.4,16.9,12.7,21
		C27.8,1046.1,16.8,1038.4,9.9,1027.7z M30.4,1027.7h18.3v21.8C40.8,1048.7,34.2,1040.1,30.4,1027.7z M51.1,1027.7h18.3
		c-3.8,12.4-10.4,21-18.3,21.8V1027.7z M71.8,1027.7h18c-6.8,10.7-17.8,18.4-30.7,21C64.4,1044.6,68.9,1037.2,71.8,1027.7z"/>
</g>
</svg>
