<?xml version="1.0" encoding="UTF-8"?>
<svg width="86px" height="95px" viewBox="0 0 86 95" version="1.1" xmlns="http://www.w3.org/2000/svg" xmlns:xlink="http://www.w3.org/1999/xlink">
    <!-- Generator: Sketch 47.1 (45422) - http://www.bohemiancoding.com/sketch -->
    <title>wishlists</title>
    <desc>Created with Sketch.</desc>
    <defs></defs>
    <g id="Page-1" stroke="none" stroke-width="1" fill="none" fill-rule="evenodd">
        <g id="wishlists" fill-rule="nonzero" fill="#FAFAFA">
            <path d="M9.8,75.46 L34.52,75.46 C35.1219904,75.46 35.61,74.9719904 35.61,74.37 C35.61,73.7680096 35.1219904,73.28 34.52,73.28 L9.8,73.28 C5.59159021,73.28 2.18,69.8684098 2.18,65.66 L2.18,24.28 L19.85,24.28 C22.2579615,24.28 24.21,22.3279615 24.21,19.92 L24.21,2.18 L51.86,2.18 C56.0684098,2.18 59.48,5.59159021 59.48,9.8 L59.48,47.8 C59.48,48.4019904 59.9680096,48.89 60.57,48.89 C61.1719904,48.89 61.66,48.4019904 61.66,47.8 L61.66,9.8 C61.66,4.38760945 57.2723905,3.31413338e-16 51.86,0 L23.12,0 C22.8310656,0.000395782607 22.5541096,0.115494391 22.35,0.32 L0.32,22.4 C0.115494391,22.6041096 0.000395782607,22.8810656 9.64150499e-16,23.17 L9.64150499e-16,65.64 C-0.00530974577,68.2391232 1.02209847,70.7339019 2.85620542,72.5755103 C4.69031237,74.4171187 7.18087673,75.4547011 9.78,75.46 L9.8,75.46 Z M19.9,22.1 L3.71,22.1 L22,3.77 L22,19.9 C22,21.1039808 21.0239808,22.08 19.82,22.08 L19.9,22.1 Z" id="Shape"></path>
            <path d="M15,35 C14.3980096,35 13.91,35.4880096 13.91,36.09 C13.91,36.6919904 14.3980096,37.18 15,37.18 L46.69,37.18 C47.2919904,37.18 47.78,36.6919904 47.78,36.09 C47.78,35.4880096 47.2919904,35 46.69,35 L15,35 Z" id="Shape"></path>
            <path d="M61.65,94.34 C62.0705052,94.7387349 62.7294948,94.7387349 63.15,94.34 L81.61,76.79 C86.6687208,71.7972583 86.7224455,63.6490131 81.73,58.59 L81.61,58.47 C76.4847039,53.392275 68.2252961,53.392275 63.1,58.47 C62.8391184,58.7266617 62.5921014,58.9970452 62.36,59.28 C62.12,59 61.87,58.74 61.62,58.47 C56.4947039,53.392275 48.2352961,53.392275 43.11,58.47 C38.060718,63.4643907 38.01149,71.604908 43,76.66 L43.14,76.8 L61.65,94.34 Z M44.73,60 C47.0385406,57.6908376 50.2614081,56.5393963 53.5105466,56.862954 C56.7596851,57.1865116 59.6921848,58.9509202 61.5,61.67 C61.7024377,61.9715662 62.0417876,62.1524846 62.405,62.1524846 C62.7682124,62.1524846 63.1075623,61.9715662 63.31,61.67 C65.1180915,58.9544062 68.048438,57.1924966 71.2948218,56.8690204 C74.5412057,56.5455442 77.7616047,57.6945811 80.07,60 C82.0913868,61.9888872 83.2396912,64.6994456 83.2621967,67.5351413 C83.2847022,70.370837 82.1795645,73.0992799 80.19,75.12 L80.07,75.24 L62.4,92.05 L44.73,75.24 C42.7086132,73.2511128 41.5603088,70.5405544 41.5378033,67.7048587 C41.5152978,64.869163 42.6204355,62.1407201 44.61,60.12 L44.73,60 L44.73,60 Z" id="Shape"></path>
            <path d="M47.78,48.07 C47.7690961,47.4758344 47.2842656,46.9999 46.69,47 L15,47 C14.3980096,47 13.91,47.4880096 13.91,48.09 C13.91,48.6919904 14.3980096,49.18 15,49.18 L46.69,49.18 C46.9825848,49.1800493 47.2629051,49.0624689 47.4679045,48.8537081 C47.672904,48.6449472 47.7853685,48.3625355 47.78,48.07 L47.78,48.07 Z" id="Shape"></path>
            <path d="M34.71,59 L15,59 C14.6105805,59 14.250742,59.2077528 14.0560322,59.545 C13.8613225,59.8822472 13.8613225,60.2977528 14.0560322,60.635 C14.250742,60.9722472 14.6105805,61.18 15,61.18 L34.71,61.18 C35.0994195,61.18 35.459258,60.9722472 35.6539678,60.635 C35.8486775,60.2977528 35.8486775,59.8822472 35.6539678,59.545 C35.459258,59.2077528 35.0994195,59 34.71,59 L34.71,59 Z" id="Shape"></path>
        </g>
    </g>
</svg>