<?xml version="1.0" encoding="utf-8"?>
<!-- Generator: Adobe Illustrator 16.0.0, SVG Export Plug-In . SVG Version: 6.00 Build 0)  -->
<!DOCTYPE svg PUBLIC "-//W3C//DTD SVG 1.1//EN" "http://www.w3.org/Graphics/SVG/1.1/DTD/svg11.dtd">
<svg version="1.1" id="Layer_1" xmlns="http://www.w3.org/2000/svg" xmlns:xlink="http://www.w3.org/1999/xlink" x="0px" y="0px"
	 width="128px" height="128px" viewBox="0 0 128 128" enable-background="new 0 0 128 128" xml:space="preserve">
<g>
	<g>
		<g>
			<path fill="#78909C" d="M61.3,77.1c0,12.5-10.2,22.6-22.7,22.6c-12.6,0-22.7-10.1-22.7-22.6c0-12.5,10.2-22.6,22.7-22.6
				C51.1,54.5,61.3,64.6,61.3,77.1z"/>
			<path fill="#37474F" d="M38.6,101.2c-13.4,0-24.2-10.8-24.2-24.1C14.4,63.8,25.2,53,38.6,53C52,53,62.8,63.8,62.8,77.1
				C62.8,90.4,52,101.2,38.6,101.2z M38.6,56c-11.7,0-21.2,9.5-21.2,21.1c0,11.6,9.5,21.1,21.2,21.1c11.7,0,21.2-9.5,21.2-21.1
				C59.8,65.5,50.3,56,38.6,56z"/>
		</g>
		<g>
			<g>
				<path fill="#37474F" d="M37,97v-4.6c-3-0.1-5.9-0.9-7.6-2.2l1.2-3.3c1.8,1.2,4.4,2.1,7.1,2.1c3.5,0,5.9-2,5.9-4.8
					c0-2.7-1.9-4.4-5.6-5.9c-5-2-8.3-4.2-8.3-8.5c0-4.1,3.4-7.2,7.4-7.9V57h3v4.6c3,0.1,5.2,0.9,6.6,1.7l-1.2,3.3
					c-1-0.6-3-1.7-6.2-1.7c-3.8,0-5.2,2.3-5.2,4.2c0,2.6,1.8,3.8,6.1,5.6c5.1,2.1,7.7,4.6,7.7,9c0,3.9-2.8,7.6-7.8,8.4V97H37z"/>
			</g>
		</g>
	</g>
	<g>
		<g>
			<path fill="#78909C" d="M61.3,68.6c0,12.5-10.2,22.6-22.7,22.6c-12.6,0-22.7-10.1-22.7-22.6C15.9,56.1,26,46,38.6,46
				C51.1,46,61.3,56.1,61.3,68.6z"/>
			<path fill="#37474F" d="M38.6,92.7c-13.4,0-24.2-10.8-24.2-24.1c0-13.3,10.9-24.1,24.2-24.1c13.3,0,24.2,10.8,24.2,24.1
				C62.8,81.9,52,92.7,38.6,92.7z M38.6,47.5c-11.7,0-21.2,9.5-21.2,21.1c0,11.6,9.5,21.1,21.2,21.1c11.7,0,21.2-9.5,21.2-21.1
				C59.8,57,50.3,47.5,38.6,47.5z"/>
		</g>
		<g>
			<g>
				<path fill="#37474F" d="M37,89v-5.1c-3-0.1-5.9-0.9-7.6-2.2l1.2-3.3c1.8,1.2,4.4,2.1,7.1,2.1c3.5,0,5.9-2,5.9-4.8
					c0-2.7-1.9-4.4-5.6-5.9c-5-2-8.3-4.2-8.3-8.5c0-4.1,3.4-7.2,7.4-7.9V48h3v5.1c3,0.1,5.2,0.9,6.6,1.7l-1.2,3.3
					c-1-0.6-3-1.7-6.2-1.7c-3.8,0-5.2,2.3-5.2,4.3c0,2.6,1.8,3.8,6.1,5.6c5.1,2.1,7.7,4.6,7.7,9c0,3.9-2.8,7.6-7.8,8.4V89H37z"/>
			</g>
		</g>
	</g>
	<g>
		<g>
			<path fill="#78909C" d="M61.3,60.1c0,12.5-10.2,22.6-22.7,22.6c-12.6,0-22.7-10.1-22.7-22.6c0-12.5,10.2-22.6,22.7-22.6
				C51.1,37.5,61.3,47.6,61.3,60.1z"/>
			<path fill="#37474F" d="M38.6,84.2c-13.4,0-24.2-10.8-24.2-24.1C14.4,46.8,25.2,36,38.6,36C52,36,62.8,46.8,62.8,60.1
				C62.8,73.4,52,84.2,38.6,84.2z M38.6,39c-11.7,0-21.2,9.5-21.2,21.1c0,11.6,9.5,21.1,21.2,21.1c11.7,0,21.2-9.5,21.2-21.1
				C59.8,48.5,50.3,39,38.6,39z"/>
		</g>
		<g>
			<g>
				<path fill="#37474F" d="M37,80v-4.6c-3,0-5.9-0.9-7.6-2.2l1.2-3.3c1.8,1.2,4.4,2.1,7.1,2.1c3.5,0,5.9-2,5.9-4.8
					c0-2.7-1.9-4.4-5.6-5.9c-5-2-8.3-4.2-8.3-8.5c0-4.1,3.4-7.2,7.4-7.9V40h3v4.6c3,0.1,5.2,0.9,6.6,1.7l-1.2,3.3
					c-1-0.6-3-1.7-6.2-1.7c-3.8,0-5.2,2.3-5.2,4.3c0,2.6,1.8,3.8,6.1,5.6c5.1,2.1,7.7,4.6,7.7,9c0,3.9-2.8,7.5-7.8,8.4V80H37z"/>
			</g>
		</g>
	</g>
	<g>
		<g>
			<path fill="#78909C" d="M61.3,51.6c0,12.5-10.2,22.6-22.7,22.6c-12.6,0-22.7-10.1-22.7-22.6C15.9,39.1,26,29,38.6,29
				C51.1,29,61.3,39.1,61.3,51.6z"/>
			<path fill="#37474F" d="M38.6,75.7c-13.4,0-24.2-10.8-24.2-24.1c0-13.3,10.9-24.1,24.2-24.1c13.3,0,24.2,10.8,24.2,24.1
				C62.8,64.9,52,75.7,38.6,75.7z M38.6,30.5c-11.7,0-21.2,9.5-21.2,21.1c0,11.6,9.5,21.1,21.2,21.1c11.7,0,21.2-9.5,21.2-21.1
				C59.8,40,50.3,30.5,38.6,30.5z"/>
		</g>
		<g>
			<g>
				<path fill="#37474F" d="M37,72v-5.1c-3-0.1-5.9-0.9-7.6-2.2l1.2-3.3c1.8,1.2,4.4,2.1,7.1,2.1c3.5,0,5.9-2,5.9-4.8
					c0-2.7-1.9-4.4-5.6-5.9c-5-2-8.3-4.2-8.3-8.5c0-4.1,3.4-7.2,7.4-7.9V31h3v5.1c3,0.1,5.2,0.9,6.6,1.7l-1.2,3.3
					c-1-0.6-3-1.7-6.2-1.7c-3.8,0-5.2,2.3-5.2,4.3c0,2.6,1.8,3.8,6.1,5.6c5.1,2.1,7.7,4.6,7.7,9c0,3.9-2.8,7.6-7.8,8.4V72H37z"/>
			</g>
		</g>
	</g>
	<g>
		<g>
			<path fill="#37474F" d="M25.7,105c-0.6,0.6-1.7,0.6-2.3,0c-0.6-0.6-0.6-1.7,0-2.3c0.6-0.6,1.7-0.6,2.3,0
				C26.3,103.3,26.3,104.3,25.7,105z"/>
			<path fill="#37474F" d="M24.5,105.9c-0.6,0-1.1-0.2-1.5-0.6c-0.4-0.4-0.6-1-0.6-1.5c0-0.6,0.2-1.1,0.6-1.5c0.8-0.8,2.2-0.8,3,0
				c0.4,0.4,0.6,0.9,0.6,1.5c0,0.6-0.2,1.1-0.6,1.5C25.6,105.7,25.1,105.9,24.5,105.9z M24.5,102.7c-0.3,0-0.6,0.1-0.8,0.3
				c-0.2,0.2-0.3,0.5-0.3,0.8c0,0.3,0.1,0.6,0.3,0.8c0.4,0.4,1.2,0.4,1.6,0c0.2-0.2,0.3-0.5,0.3-0.8c0-0.3-0.1-0.6-0.3-0.8
				C25.1,102.8,24.8,102.7,24.5,102.7z"/>
		</g>
		<g>
			<path fill="#37474F" d="M33.8,113.1c-0.6,0.6-1.7,0.6-2.3,0c-0.6-0.6-0.6-1.7,0-2.3c0.6-0.6,1.7-0.6,2.3,0
				C34.5,111.4,34.5,112.4,33.8,113.1z"/>
			<path fill="#37474F" d="M32.7,114.1c-0.6,0-1.1-0.2-1.5-0.6c-0.8-0.8-0.8-2.2,0-3c0.8-0.8,2.2-0.8,3.1,0c0.4,0.4,0.6,0.9,0.6,1.5
				c0,0.6-0.2,1.1-0.6,1.5C33.8,113.8,33.2,114.1,32.7,114.1z M32.7,110.8c-0.3,0-0.6,0.1-0.8,0.3c-0.4,0.4-0.4,1.2,0,1.6
				c0.4,0.4,1.2,0.4,1.6,0c0.2-0.2,0.3-0.5,0.3-0.8c0-0.3-0.1-0.6-0.3-0.8C33.3,110.9,33,110.8,32.7,110.8z"/>
		</g>
		<g>
			<path fill="#37474F" d="M42,121.2c-0.6,0.6-1.7,0.6-2.3,0c-0.6-0.7-0.6-1.7,0-2.3c0.6-0.6,1.7-0.6,2.3,0
				C42.6,119.5,42.6,120.6,42,121.2z"/>
			<path fill="#37474F" d="M40.8,122.2c-0.6,0-1.1-0.2-1.5-0.6c-0.4-0.4-0.6-1-0.6-1.6c0-0.6,0.2-1.1,0.6-1.5c0.8-0.8,2.2-0.8,3,0
				c0.4,0.4,0.6,0.9,0.6,1.5c0,0.6-0.2,1.1-0.6,1.5C41.9,122,41.4,122.2,40.8,122.2z M40.8,118.9c-0.3,0-0.6,0.1-0.8,0.3
				c-0.2,0.2-0.3,0.5-0.3,0.8c0,0.3,0.1,0.6,0.3,0.8c0.4,0.4,1.2,0.4,1.6,0c0.2-0.2,0.3-0.5,0.3-0.8c0-0.3-0.1-0.6-0.3-0.8
				C41.4,119,41.1,118.9,40.8,118.9z"/>
		</g>
	</g>
	<g>
		<g>
			<g>
				<rect x="49.5" y="5.5" fill="#FFECB3" width="63" height="117"/>
				<path fill="#37474F" d="M112.5,124h-63c-0.8,0-1.5-0.7-1.5-1.5V5.5C48,4.7,48.7,4,49.5,4h63c0.8,0,1.5,0.7,1.5,1.5v117
					C114,123.3,113.3,124,112.5,124z M51,121h60V7H51V121z"/>
			</g>
			<g>
				<path fill="#FFAB00" d="M81.3,86.3c-12.4,0-22.5-10-22.5-22.4c0-12.4,10.1-22.4,22.5-22.4c12.5,0,22.5,10,22.5,22.4
					C103.8,76.2,93.7,86.3,81.3,86.3z"/>
				<path fill="#37474F" d="M81.3,87.8c-13.2,0-24-10.7-24-23.9C57.3,50.7,68,40,81.3,40c13.3,0,24,10.7,24,23.9
					C105.3,77.1,94.5,87.8,81.3,87.8z M81.3,43c-11.6,0-21,9.4-21,20.9c0,11.5,9.4,20.9,21,20.9c11.6,0,21-9.4,21-20.9
					C102.3,52.4,92.9,43,81.3,43z"/>
			</g>
			<g>
				<g>
					<g>
						<path fill="#37474F" d="M94,22.9c0-1.1,1-2.1,2.1-2.1c1.2,0,2.1,1,2.1,2.1c0,1.2-0.9,2.1-2.1,2.1C94.9,25,94,24.1,94,22.9z"/>
						<path fill="#37474F" d="M96.1,25.5c-1.4,0-2.6-1.2-2.6-2.6c0-1.4,1.2-2.6,2.6-2.6c1.4,0,2.6,1.2,2.6,2.6
							C98.7,24.3,97.5,25.5,96.1,25.5z M96.1,21.3c-0.9,0-1.6,0.7-1.6,1.6c0,0.9,0.7,1.6,1.6,1.6c0.9,0,1.6-0.7,1.6-1.6
							C97.7,22,97,21.3,96.1,21.3z"/>
					</g>
					<g>
						<path fill="#37474F" d="M79.2,22.9c0-1.1,1-2.1,2.1-2.1c1.2,0,2.1,1,2.1,2.1c0,1.2-1,2.1-2.1,2.1C80.1,25,79.2,24.1,79.2,22.9
							z"/>
						<path fill="#37474F" d="M81.3,25.5c-1.4,0-2.6-1.2-2.6-2.6c0-1.4,1.2-2.6,2.6-2.6c1.5,0,2.6,1.2,2.6,2.6
							C83.9,24.3,82.7,25.5,81.3,25.5z M81.3,21.3c-0.9,0-1.6,0.7-1.6,1.6c0,0.9,0.7,1.6,1.6,1.6c0.9,0,1.6-0.7,1.6-1.6
							C82.9,22,82.2,21.3,81.3,21.3z"/>
					</g>
					<g>
						<path fill="#37474F" d="M64.4,22.9c0-1.1,1-2.1,2.1-2.1c1.2,0,2.1,1,2.1,2.1c0,1.2-1,2.1-2.1,2.1C65.3,25,64.4,24.1,64.4,22.9
							z"/>
						<path fill="#37474F" d="M66.5,25.5c-1.4,0-2.6-1.2-2.6-2.6c0-1.4,1.2-2.6,2.6-2.6c1.4,0,2.6,1.2,2.6,2.6
							C69.1,24.3,67.9,25.5,66.5,25.5z M66.5,21.3c-0.9,0-1.6,0.7-1.6,1.6c0,0.9,0.7,1.6,1.6,1.6c0.9,0,1.6-0.7,1.6-1.6
							C68.1,22,67.3,21.3,66.5,21.3z"/>
					</g>
				</g>
				<g>
					<g>
						<path fill="#37474F" d="M94,104.8c0-1.2,1-2.1,2.1-2.1c1.2,0,2.1,0.9,2.1,2.1c0,1.2-0.9,2.1-2.1,2.1C94.9,107,94,106,94,104.8
							z"/>
						<path fill="#37474F" d="M96.1,107.5c-1.4,0-2.6-1.2-2.6-2.6c0-1.4,1.2-2.6,2.6-2.6c1.4,0,2.6,1.2,2.6,2.6
							C98.7,106.3,97.5,107.5,96.1,107.5z M96.1,103.2c-0.9,0-1.6,0.7-1.6,1.6c0,0.9,0.7,1.6,1.6,1.6c0.9,0,1.6-0.7,1.6-1.6
							C97.7,104,97,103.2,96.1,103.2z"/>
					</g>
					<g>
						<path fill="#37474F" d="M79.2,104.8c0-1.2,1-2.1,2.1-2.1c1.2,0,2.1,0.9,2.1,2.1c0,1.2-1,2.1-2.1,2.1
							C80.1,107,79.2,106,79.2,104.8z"/>
						<path fill="#37474F" d="M81.3,107.5c-1.4,0-2.6-1.2-2.6-2.6c0-1.4,1.2-2.6,2.6-2.6c1.5,0,2.6,1.2,2.6,2.6
							C83.9,106.3,82.7,107.5,81.3,107.5z M81.3,103.2c-0.9,0-1.6,0.7-1.6,1.6c0,0.9,0.7,1.6,1.6,1.6c0.9,0,1.6-0.7,1.6-1.6
							C82.9,104,82.2,103.2,81.3,103.2z"/>
					</g>
					<g>
						<path fill="#37474F" d="M64.4,104.8c0-1.2,1-2.1,2.1-2.1c1.2,0,2.1,0.9,2.1,2.1c0,1.2-1,2.1-2.1,2.1
							C65.3,107,64.4,106,64.4,104.8z"/>
						<path fill="#37474F" d="M66.5,107.5c-1.4,0-2.6-1.2-2.6-2.6c0-1.4,1.2-2.6,2.6-2.6c1.4,0,2.6,1.2,2.6,2.6
							C69.1,106.3,67.9,107.5,66.5,107.5z M66.5,103.2c-0.9,0-1.6,0.7-1.6,1.6c0,0.9,0.7,1.6,1.6,1.6c0.9,0,1.6-0.7,1.6-1.6
							C68.1,104,67.3,103.2,66.5,103.2z"/>
					</g>
				</g>
			</g>
			<g>
				<g>
					<path fill="#37474F" d="M61,62h5.1c0.1-3,0.9-5.6,2.2-7.4l3.3,1.2c-1.2,1.8-2.1,4.3-2.1,7.1c0,3.5,2,5.8,4.8,5.8
						c2.7,0,4.4-1.9,5.8-5.5c2-5,4.2-8.3,8.5-8.3c4.1,0,7.2,3.1,7.9,7.1h4.5v3h-4.3c-0.1,3-0.9,5.2-1.7,6.7l-3.3-1.1
						c0.6-1,1.7-3,1.7-6.1c0-3.7-2.3-5.1-4.2-5.1c-2.5,0-3.8,1.8-5.6,6.1c-2.1,5-4.6,7.4-9,7.4c-3.9,0-7.5-2.9-8.4-7.9H61V62z"/>
				</g>
			</g>
		</g>
	</g>
	<g>
		<g>
			<path fill="#B0BEC5" d="M61.3,43.1c0,12.5-10.2,22.6-22.7,22.6c-12.6,0-22.7-10.1-22.7-22.6c0-12.5,10.2-22.6,22.7-22.6
				C51.1,20.5,61.3,30.6,61.3,43.1z"/>
			<path fill="#37474F" d="M38.6,67.2c-13.4,0-24.2-10.8-24.2-24.1C14.4,29.8,25.2,19,38.6,19C52,19,62.8,29.8,62.8,43.1
				C62.8,56.4,52,67.2,38.6,67.2z M38.6,22c-11.7,0-21.2,9.5-21.2,21.1c0,11.6,9.5,21.1,21.2,21.1c11.7,0,21.2-9.5,21.2-21.1
				C59.8,31.5,50.3,22,38.6,22z"/>
		</g>
	</g>
</g>
</svg>
