<?xml version="1.0" encoding="utf-8"?>
<!-- Generator: Adobe Illustrator 16.0.0, SVG Export Plug-In . SVG Version: 6.00 Build 0)  -->
<!DOCTYPE svg PUBLIC "-//W3C//DTD SVG 1.1//EN" "http://www.w3.org/Graphics/SVG/1.1/DTD/svg11.dtd">
<svg version="1.1" id="Layer_1" xmlns="http://www.w3.org/2000/svg" xmlns:xlink="http://www.w3.org/1999/xlink" x="0px" y="0px"
	 width="128px" height="128px" viewBox="0 0 128 128" enable-background="new 0 0 128 128" xml:space="preserve">
<g>
	<g>
		<path fill="#FFECB3" d="M41.1,87.8l22.4,30.1l49.6-66.7c0.1-0.1,0.2-0.2,0.2-0.3c0,0,0-0.1,0.1-0.1c3-4.4,4.5-9.5,4.5-14.9
			c0-14.7-11.9-26.6-26.6-26.6c-11.5,0-21.7,7.4-25.3,18.3c-0.4,1.1-1.5,1.7-2.6,1.4c-0.1,0-0.2,0-0.2,0l13.9,19.8L43.9,90.6"/>
		<path fill="#37474F" d="M63.5,121.2L39.5,89c-0.7-0.9-0.5-2.1,0.4-2.8c0.9-0.7,2.1-0.5,2.8,0.4l0.9,1.2l31-39L59.8,27.6l3.2-0.5
			l0.5-0.1l0.5,0.2c0.1,0,0.1,0,0.1-0.1C68,15.2,78.9,7.3,91.3,7.3c15.8,0,28.6,12.8,28.6,28.6c0,5.7-1.7,11.2-4.8,15.9
			c0,0.1-0.1,0.2-0.1,0.2l-0.2,0.3L63.5,121.2z M46.1,91.1l17.4,23.4l48-64.6c0.1-0.1,0.1-0.2,0.2-0.3l0,0c2.7-4.1,4.2-8.8,4.2-13.7
			c0-13.5-11-24.6-24.6-24.6c-10.7,0-20.1,6.8-23.4,17c-0.3,0.8-0.8,1.5-1.4,2l13.1,18.6L46.1,91.1z"/>
	</g>
	<g>
		<path fill="#FFAB00" d="M56.4,19.4C51.5,13.2,43.9,9.3,35.6,9.3C20.9,9.3,9,21.2,9,35.9c0,5.3,1.6,10.5,4.5,14.9
			c0,0,0,0.1,0.1,0.1c0.1,0.1,0.2,0.2,0.2,0.3l22.7,30.5"/>
		<path fill="#37474F" d="M36.5,83.6c-0.6,0-1.2-0.3-1.6-0.8L12.2,52.3c-0.1-0.1-0.3-0.3-0.4-0.5C8.7,47.1,7,41.6,7,35.9
			C7,20.1,19.8,7.3,35.6,7.3c8.8,0,17,4,22.4,10.8c0.7,0.9,0.5,2.1-0.3,2.8c-0.9,0.7-2.1,0.5-2.8-0.3c-4.7-5.9-11.7-9.3-19.3-9.3
			C22,11.3,11,22.3,11,35.9c0,4.9,1.4,9.7,4.2,13.7c0.1,0.1,0.2,0.2,0.3,0.3l22.6,30.4c0.7,0.9,0.5,2.1-0.4,2.8
			C37.3,83.4,36.9,83.6,36.5,83.6z"/>
	</g>
	<g>
		<path fill="#FFAB00" d="M58.2,22c-0.5-0.9-1.1-1.7-1.8-2.5L58.2,22z"/>
		<path fill="#37474F" d="M58.2,24c-0.6,0-1.2-0.3-1.6-0.8l-1.8-2.5c-0.6-0.9-0.4-2.1,0.4-2.8c0.9-0.6,2.1-0.5,2.8,0.4
			c0.7,0.9,1.4,1.8,1.9,2.7c0.6,0.9,0.3,2.1-0.6,2.7C59,23.9,58.6,24,58.2,24z"/>
	</g>
	<g>
		<g>
			<line fill="#FFECB3" x1="34" y1="46" x2="52" y2="46"/>
			<path fill="#37474F" d="M52,48H34c-1.1,0-2-0.9-2-2s0.9-2,2-2h18c1.1,0,2,0.9,2,2S53.1,48,52,48z"/>
		</g>
		<g>
			<line fill="#FFECB3" x1="43" y1="37" x2="43" y2="55"/>
			<path fill="#37474F" d="M43,57c-1.1,0-2-0.9-2-2V37c0-1.1,0.9-2,2-2s2,0.9,2,2v18C45,56.1,44.1,57,43,57z"/>
		</g>
	</g>
	<g>
		<g>
			<line fill="#FFECB3" x1="77" y1="62" x2="94" y2="62"/>
			<path fill="#37474F" d="M94,64H77c-1.1,0-2-0.9-2-2s0.9-2,2-2h17c1.1,0,2,0.9,2,2S95.1,64,94,64z"/>
		</g>
	</g>
	<g>
		<polyline fill="#FFECB3" points="74,92.1 87,105.3 87,78 		"/>
		<path fill="#37474F" d="M87,107.3c-0.5,0-1-0.2-1.4-0.6l-13-13.2c-0.8-0.8-0.8-2.1,0-2.8c0.8-0.8,2.1-0.8,2.8,0l9.5,9.7V78
			c0-1.1,0.9-2,2-2s2,0.9,2,2v27.3c0,0.8-0.5,1.5-1.2,1.9C87.5,107.2,87.3,107.3,87,107.3z"/>
	</g>
	<g>
		<polyline fill="#FFAB00" points="32,66 19,79.1 19,52 		"/>
		<path fill="#37474F" d="M19,81.1c-0.3,0-0.5,0-0.8-0.1c-0.8-0.3-1.2-1-1.2-1.9V52c0-1.1,0.9-2,2-2s2,0.9,2,2v22.3l9.5-9.7
			c0.8-0.8,2-0.8,2.8,0c0.8,0.8,0.8,2,0,2.8l-13,13.1C20,80.9,19.5,81.1,19,81.1z"/>
	</g>
</g>
</svg>
