<?xml version="1.0" encoding="utf-8"?>
<!-- Generator: Adobe Illustrator 16.0.0, SVG Export Plug-In . SVG Version: 6.00 Build 0)  -->
<!DOCTYPE svg PUBLIC "-//W3C//DTD SVG 1.1//EN" "http://www.w3.org/Graphics/SVG/1.1/DTD/svg11.dtd">
<svg version="1.1" id="Layer_1" xmlns="http://www.w3.org/2000/svg" xmlns:xlink="http://www.w3.org/1999/xlink" x="0px" y="0px"
	 width="128px" height="128px" viewBox="0 0 128 128" enable-background="new 0 0 128 128" xml:space="preserve">
<g>
	<g>
		<polygon fill="#FFAB00" points="47.5,23.7 79.5,5.3 111.5,23.7 111.5,60.4 79.5,78.8 47.5,60.4 		"/>
		<path fill="#37474F" d="M79.5,80.6L46,61.3V22.8L79.5,3.6L113,22.8v38.5L79.5,80.6z M49,59.6l30.5,17.5L110,59.6v-35L79.5,7.1
			L49,24.6V59.6z"/>
	</g>
	<g>
		<polyline fill="#FFECB3" points="34.2,110.8 39.8,112.1 54.2,118 89.3,114.1 117.1,86.8 108.7,84.6 90.8,94.9 		"/>
		<path fill="#37474F" d="M54.2,119.5c-0.2,0-0.4,0-0.6-0.1l-14.3-5.9l-5.5-1.3c-0.8-0.2-1.3-1-1.1-1.8s1-1.3,1.8-1.1l5.6,1.3
			c0.1,0,0.2,0,0.2,0.1l14.1,5.8l34.2-3.8l25.5-25.1l-5.3-1.4l-17.3,10c-0.7,0.4-1.6,0.2-2-0.5c-0.4-0.7-0.2-1.6,0.5-2l17.9-10.3
			c0.3-0.2,0.7-0.3,1.1-0.2l8.4,2.2c0.5,0.1,0.9,0.5,1.1,1.1c0.1,0.5,0,1.1-0.4,1.5l-27.8,27.3c-0.2,0.2-0.6,0.4-0.9,0.4l-35.1,3.9
			C54.4,119.5,54.3,119.5,54.2,119.5z"/>
	</g>
	<g>
		<polyline fill="#FFECB3" points="34.6,87.5 59.2,78.3 91.8,96.4 83.9,102.3 60.6,97.4 		"/>
		<path fill="#37474F" d="M83.9,103.8c-0.1,0-0.2,0-0.3,0l-23.4-4.9c-0.8-0.2-1.3-1-1.2-1.8c0.2-0.8,1-1.3,1.8-1.2l22.7,4.8l5.5-4.1
			L59,80l-24,9c-0.8,0.3-1.6-0.1-1.9-0.9c-0.3-0.8,0.1-1.6,0.9-1.9l24.6-9.2c0.4-0.2,0.9-0.1,1.3,0.1l32.6,18
			c0.4,0.2,0.7,0.7,0.8,1.2c0,0.5-0.2,1-0.6,1.3l-7.9,5.9C84.6,103.7,84.2,103.8,83.9,103.8z"/>
	</g>
	<g>
		<path fill="#37474F" d="M35.5,117.9c0,3.2-2.9,5.6-6.2,5.6H17.8c-3.2,0-6.3-2.4-6.3-5.6V81.6c0-3.3,3.1-6.1,6.3-6.1h11.5
			c3.2,0,6.2,2.8,6.2,6.1V117.9z"/>
		<path fill="#37474F" d="M29.3,125H17.8c-4.3,0-7.8-3.2-7.8-7.1V81.6c0-4.1,3.6-7.6,7.8-7.6h11.5c4.1,0,7.7,3.6,7.7,7.6v36.3
			C37,121.8,33.6,125,29.3,125z M17.8,77c-2.5,0-4.8,2.2-4.8,4.6v36.3c0,2.5,2.5,4.1,4.8,4.1h11.5c2.6,0,4.7-1.8,4.7-4.1V81.6
			c0-2.4-2.2-4.6-4.7-4.6H17.8z"/>
	</g>
	<g>
		<g>
			<path fill="#37474F" d="M23.6,31.3c-1,0-1.8-0.8-1.8-1.8c0-1,0.8-1.8,1.8-1.8c1,0,1.8,0.8,1.8,1.8C25.4,30.5,24.6,31.3,23.6,31.3
				z"/>
			<path fill="#37474F" d="M23.6,31.8c-1.3,0-2.3-1-2.3-2.3c0-1.3,1-2.3,2.3-2.3c1.3,0,2.3,1,2.3,2.3C25.9,30.7,24.8,31.8,23.6,31.8
				z M23.6,28.2c-0.7,0-1.3,0.6-1.3,1.3c0,0.7,0.6,1.3,1.3,1.3c0.7,0,1.3-0.6,1.3-1.3C24.9,28.8,24.3,28.2,23.6,28.2z"/>
		</g>
		<g>
			<path fill="#37474F" d="M23.6,43.9c-1,0-1.8-0.8-1.8-1.8c0-1,0.8-1.8,1.8-1.8c1,0,1.8,0.8,1.8,1.8C25.4,43.1,24.6,43.9,23.6,43.9
				z"/>
			<path fill="#37474F" d="M23.6,44.4c-1.2,0-2.3-1.1-2.3-2.3c0-1.3,1-2.3,2.3-2.3c1.3,0,2.3,1,2.3,2.3
				C25.9,43.3,24.8,44.4,23.6,44.4z M23.6,40.8c-0.7,0-1.3,0.6-1.3,1.3c0,0.7,0.6,1.3,1.3,1.3c0.7,0,1.3-0.6,1.3-1.3
				C24.9,41.4,24.3,40.8,23.6,40.8z"/>
		</g>
		<g>
			<path fill="#37474F" d="M23.6,56.5c-1,0-1.8-0.8-1.8-1.8c0-1,0.8-1.8,1.8-1.8c1,0,1.8,0.8,1.8,1.8C25.4,55.7,24.6,56.5,23.6,56.5
				z"/>
			<path fill="#37474F" d="M23.6,57c-1.3,0-2.3-1-2.3-2.3c0-1.3,1-2.3,2.3-2.3c1.3,0,2.3,1,2.3,2.3C25.9,56,24.8,57,23.6,57z
				 M23.6,53.4c-0.7,0-1.3,0.6-1.3,1.3c0,0.7,0.6,1.3,1.3,1.3c0.7,0,1.3-0.6,1.3-1.3C24.9,54,24.3,53.4,23.6,53.4z"/>
		</g>
	</g>
	<g>
		<g>
			<path fill="#FFFFFF" d="M98.5,42.1c0,10.6-8.6,19.2-19.2,19.2c-10.6,0-19.2-8.6-19.2-19.2c0-10.6,8.6-19.2,19.2-19.2
				C89.9,22.9,98.5,31.5,98.5,42.1z"/>
			<path fill="#37474F" d="M79.3,62.8c-11.4,0-20.7-9.3-20.7-20.7c0-11.4,9.3-20.7,20.7-20.7c11.4,0,20.7,9.3,20.7,20.7
				C100,53.5,90.7,62.8,79.3,62.8z M79.3,24.4c-9.8,0-17.7,7.9-17.7,17.7c0,9.7,7.9,17.7,17.7,17.7c9.7,0,17.7-7.9,17.7-17.7
				C97,32.3,89.1,24.4,79.3,24.4z"/>
		</g>
		<g>
			<g>
				<path fill="#37474F" d="M78,59v-3.9c-3,0-5-0.8-6.5-1.9l1-2.8c1.5,1,3.7,1.8,6,1.8c3,0,5-1.7,5-4.1c0-2.3-1.6-3.7-4.7-5
					c-4.3-1.7-7-3.6-7-7.2c0-3.5,2.2-6.1,6.2-6.7V25h3v4c2,0.1,4.1,0.8,5.3,1.5l-1.1,2.8c-0.9-0.5-2.6-1.5-5.3-1.5
					c-3.2,0-4.4,2-4.4,3.6c0,2.2,1.5,3.3,5.2,4.8c4.3,1.8,6.2,3.9,6.2,7.7c0,3.3-1.9,6.4-5.9,7.1V59H78z"/>
			</g>
		</g>
	</g>
</g>
</svg>
