<?xml version="1.0" encoding="utf-8"?>
<!-- Generator: Adobe Illustrator 16.0.0, SVG Export Plug-In . SVG Version: 6.00 Build 0)  -->
<!DOCTYPE svg PUBLIC "-//W3C//DTD SVG 1.1//EN" "http://www.w3.org/Graphics/SVG/1.1/DTD/svg11.dtd">
<svg version="1.1" id="Layer_1" xmlns="http://www.w3.org/2000/svg" xmlns:xlink="http://www.w3.org/1999/xlink" x="0px" y="0px"
	 width="128px" height="128px" viewBox="0 0 128 128" enable-background="new 0 0 128 128" xml:space="preserve">
<g>
	<g>
		<g>
			<g>
				<g>
					<g>
						<path fill="#FFFFFF" d="M73,60H59.5l10.3-18.8c1.2-1.1,2.5-10.8,2-13.7c-0.2-2.8-7.5-12.7-9.8,1.8l-24.9,31
							c-0.7,0.3-1.4,0.7-2,1.2L34.6,62l0.2,0.3c-1.4,1.4-2.2,2.7-2.3,5.7H24"/>
					</g>
					<g>
						<path fill="#37474F" d="M32.5,70H24c-1.1,0-2-0.9-2-2s0.9-2,2-2h6.6c0.3-1.9,1-3.1,1.9-4.3c0.1-0.6,0.4-1.1,0.9-1.4l0.6-0.4
							c0.6-0.5,1.2-0.9,1.8-1.2l24.2-30.2c1-6,3.2-8.9,6.4-8.9c3.7,0.1,7,5.1,7.3,7.6c0.3,2.4-0.4,12.2-2.3,15L62.9,58H73
							c1.1,0,2,0.9,2,2s-0.9,2-2,2H59.5c-0.7,0-1.4-0.4-1.7-1c-0.4-0.6-0.4-1.4,0-2l10.3-18.8c0.1-0.1,0.2-0.3,0.3-0.4
							c0.8-1.4,1.9-9.5,1.5-12c0,0,0-0.1,0-0.1c-0.1-1-2.2-4-3.4-4.1c0,0,0,0,0,0c-0.4,0-1.6,1.1-2.4,6c-0.1,0.3-0.2,0.7-0.4,0.9
							l-24.9,31c-0.2,0.3-0.5,0.5-0.8,0.6c-0.5,0.2-1,0.5-1.5,0.9c0,0,0,0,0,0c-0.1,0.2-0.2,0.4-0.4,0.6c-1,1.1-1.7,1.9-1.7,4.3
							C34.5,69.1,33.6,70,32.5,70z"/>
					</g>
				</g>
				<g>
					<g>
						<path fill="#FFFFFF" d="M24,105h10.7c0,5,4.6,8,9,8H73"/>
					</g>
					<g>
						<path fill="#37474F" d="M73,115H43.7c-4.8,0-9.7-3-10.8-8H24c-1.1,0-2-0.9-2-2s0.9-2,2-2h10.7c1.1,0,2,0.9,2,2
							c0,3.8,3.6,6,7,6H73c1.1,0,2,0.9,2,2S74.1,115,73,115z"/>
					</g>
				</g>
				<g>
					<g>
						<path fill="#FFFFFF" d="M73,113h17.5c3.3,0,6-2.7,6-6s-2.7-6-6-6H82"/>
					</g>
					<g>
						<path fill="#37474F" d="M90.5,115H73c-1.1,0-2-0.9-2-2s0.9-2,2-2h17.5c2.2,0,4-1.8,4-4s-1.8-4-4-4H82c-1.1,0-2-0.9-2-2
							s0.9-2,2-2h8.5c4.4,0,8,3.6,8,8S94.9,115,90.5,115z"/>
					</g>
				</g>
				<g>
					<g>
						<path fill="#FFFFFF" d="M82,99h14c3.3,0,6-2.7,6-6s-2.7-6-6-6H82"/>
					</g>
					<g>
						<path fill="#37474F" d="M96,101H82c-1.1,0-2-0.9-2-2s0.9-2,2-2h14c2.2,0,4-1.8,4-4s-1.8-4-4-4H82c-1.1,0-2-0.9-2-2s0.9-2,2-2
							h14c4.4,0,8,3.6,8,8S100.5,101,96,101z"/>
					</g>
				</g>
				<g>
					<g>
						<path fill="#FFFFFF" d="M82,86h16.7c3.3,0,6-2.7,6-6s-2.7-6-6-6H81"/>
					</g>
					<g>
						<path fill="#37474F" d="M98.7,88H82c-1.1,0-2-0.9-2-2s0.9-2,2-2h16.7c2.2,0,4-1.8,4-4s-1.8-4-4-4H81c-1.1,0-2-0.9-2-2
							s0.9-2,2-2h17.7c4.4,0,8,3.6,8,8S103.1,88,98.7,88z"/>
					</g>
				</g>
				<g>
					<g>
						<path fill="#FFFFFF" d="M82,72h14c3.3,0,6-2.7,6-6c0-3.3-2.7-6-6-6H72"/>
					</g>
					<g>
						<path fill="#37474F" d="M96,74H82c-1.1,0-2-0.9-2-2s0.9-2,2-2h14c2.2,0,4-1.8,4-4c0-2.2-1.8-4-4-4H72c-1.1,0-2-0.9-2-2
							s0.9-2,2-2h24c4.4,0,8,3.6,8,8C104.1,70.4,100.5,74,96,74z"/>
					</g>
				</g>
			</g>
		</g>
	</g>
</g>
</svg>
