<?xml version="1.0" encoding="utf-8"?>
<!-- Generator: Adobe Illustrator 16.0.0, SVG Export Plug-In . SVG Version: 6.00 Build 0)  -->
<!DOCTYPE svg PUBLIC "-//W3C//DTD SVG 1.1//EN" "http://www.w3.org/Graphics/SVG/1.1/DTD/svg11.dtd">
<svg version="1.1" id="Layer_1" xmlns="http://www.w3.org/2000/svg" xmlns:xlink="http://www.w3.org/1999/xlink" x="0px" y="0px"
	 width="128px" height="128px" viewBox="0 0 128 128" enable-background="new 0 0 128 128" xml:space="preserve">
<g>
	<g>
		<rect x="11" y="24" fill="#FFFFFF" width="106" height="70"/>
		<path fill="#37474F" d="M117,96H11c-1.1,0-2-0.9-2-2V24c0-1.1,0.9-2,2-2h106c1.1,0,2,0.9,2,2v70C119,95.1,118.1,96,117,96z M13,92
			h102V26H13V92z"/>
	</g>
	<g>
		<line fill="#FFFFFF" x1="64" y1="113" x2="64" y2="103"/>
		<path fill="#37474F" d="M64,115c-1.1,0-2-0.9-2-2v-10c0-1.1,0.9-2,2-2s2,0.9,2,2v10C66,114.1,65.1,115,64,115z"/>
	</g>
	<g>
		<path fill="#FFAB00" d="M25.7,120.4c-1.8,0-3.3-1.3-3.3-2.7l0,0c0-1.4,1.5-2.7,3.3-2.7h76.7c1.8,0,3.3,1.3,3.3,2.7l0,0
			c0,1.4-1.5,2.6-3.3,2.6"/>
		<path fill="#37474F" d="M25.7,122.4c-2.9,0-5.3-2.1-5.3-4.7c0-2.5,2.4-4.7,5.3-4.7h76.7c2.9,0,5.3,2.1,5.3,4.7
			c0,2.5-2.4,4.6-5.3,4.6c-1.1,0-2-0.9-2-2s0.9-2,2-2c0.8,0,1.3-0.5,1.3-0.6c0-0.2-0.5-0.7-1.3-0.7H25.7c-0.8,0-1.3,0.5-1.3,0.7
			c0,0.2,0.5,0.7,1.3,0.7c1.1,0,2,0.9,2,2S26.8,122.4,25.7,122.4z"/>
	</g>
	<g>
		<line fill="#FFAB00" x1="4" y1="102" x2="124" y2="102"/>
		<path fill="#37474F" d="M124,104H4c-1.1,0-2-0.9-2-2s0.9-2,2-2h120c1.1,0,2,0.9,2,2S125.1,104,124,104z"/>
	</g>
	<g>
		<line fill="#FFAB00" x1="4" y1="14" x2="41" y2="14"/>
		<path fill="#37474F" d="M41,16H4c-1.1,0-2-0.9-2-2s0.9-2,2-2h37c1.1,0,2,0.9,2,2S42.1,16,41,16z"/>
	</g>
	<g>
		<line fill="#FFAB00" x1="87" y1="14" x2="124" y2="14"/>
		<path fill="#37474F" d="M124,16H87c-1.1,0-2-0.9-2-2s0.9-2,2-2h37c1.1,0,2,0.9,2,2S125.1,16,124,16z"/>
	</g>
	<g>
		<polyline fill="#FFECB3" points="5.3,93.7 23.8,75.2 33.1,84.4 43.3,74.2 50,80.9 50,63.1 67.5,88.5 75.5,53.5 93.7,74.5 
			102.3,40.5 122.7,23.5 		"/>
		<path fill="#37474F" d="M5.3,95.7c-0.5,0-1-0.2-1.4-0.6c-0.8-0.8-0.8-2,0-2.8l18.5-18.5c0.8-0.8,2.1-0.8,2.8,0l7.8,7.8l8.8-8.8
			c0.8-0.8,2-0.8,2.8,0l3.3,3.3v-13c0-0.9,0.6-1.7,1.4-1.9c0.8-0.3,1.7,0.1,2.2,0.8l14.9,21.7l7-30.6c0.2-0.7,0.7-1.3,1.5-1.5
			c0.7-0.2,1.5,0.1,2,0.6l15.7,18.1l7.7-30.3c0.1-0.4,0.3-0.8,0.7-1l20.4-17c0.8-0.7,2.1-0.6,2.8,0.3c0.7,0.8,0.6,2.1-0.3,2.8
			L104,41.7L95.6,75c-0.2,0.7-0.8,1.3-1.5,1.5c-0.7,0.2-1.5-0.1-2-0.6l-15.6-18L69.5,89c-0.2,0.8-0.8,1.4-1.6,1.5
			c-0.8,0.2-1.6-0.2-2-0.8L52,69.5v11.4c0,0.8-0.5,1.5-1.2,1.8c-0.7,0.3-1.6,0.1-2.2-0.4L43.3,77l-8.8,8.8c-0.8,0.8-2,0.8-2.8,0
			L23.8,78L6.7,95.1C6.4,95.5,5.8,95.7,5.3,95.7z"/>
	</g>
	<g>
		<path fill="#B0BEC5" d="M48.6,17.7c0-5.4,2-9.7,4.5-9.7h21.8c2.5,0,4.5,4.3,4.5,9.7"/>
		<path fill="#37474F" d="M79.4,19.7c-1.1,0-2-0.9-2-2c0-5.1-1.9-7.7-2.5-7.7H53.1c-0.7,0-2.5,2.7-2.5,7.7c0,1.1-0.9,2-2,2
			s-2-0.9-2-2c0-6.8,2.7-11.7,6.5-11.7h21.8c3.8,0,6.5,4.9,6.5,11.7C81.4,18.9,80.5,19.7,79.4,19.7z"/>
	</g>
</g>
</svg>
