<?xml version="1.0" encoding="utf-8"?>
<!-- Generator: Adobe Illustrator 22.1.0, SVG Export Plug-In . SVG Version: 6.00 Build 0)  -->
<svg version="1.1" id="Layer_1" xmlns="http://www.w3.org/2000/svg" xmlns:xlink="http://www.w3.org/1999/xlink" x="0px" y="0px"
	 viewBox="0 0 720 720" style="enable-background:new 0 0 720 720;" xml:space="preserve">
<style type="text/css">
	.st0{fill:url(#Rectangle-Copy_1_);}
	.st1{fill:#FFFFFF;}
	.st2{display:none;fill:#ED1E24;stroke:#ED1E24;}
	.st3{display:none;fill:#DC4A51;}
	.st4{fill:#DC4A51;}
</style>
<title>role</title>
<desc>Created with Sketch.</desc>
<g id="Page-1">
	<g id="Artboard-Copy">
		<g id="role">
			<g id="Group">
				
					<radialGradient id="Rectangle-Copy_1_" cx="860.3041" cy="248.6806" r="0.7071" gradientTransform="matrix(720 0 0 720 -619059 -178690)" gradientUnits="userSpaceOnUse">
					<stop  offset="0" style="stop-color:#FAFAFA"/>
					<stop  offset="1" style="stop-color:#EEEEEE"/>
				</radialGradient>
				<rect id="Rectangle-Copy" class="st0" width="720" height="720"/>
				<g id="Rectangle">
					<g>
						<rect id="path-2_2_" x="200" y="201" width="321" height="321"/>
					</g>
					<g>
						<rect id="path-2_1_" x="200" y="201" class="st1" width="321" height="321"/>
					</g>
				</g>
				<path id="uEA01-user" class="st2" d="M361,275c46.8,0,85,38.2,85,85s-38.2,85-85,85s-85-38.2-85-85S314.2,275,361,275z
					 M361,281.1c-43.4,0-78.9,35.5-78.9,78.9s35.5,78.9,78.9,78.9s78.9-35.5,78.9-78.9S404.4,281.1,361,281.1z M361,305.7
					c-12.2,0-21.5,9.3-21.5,21.5s9.3,21.5,21.5,21.5s21.5-9.3,21.5-21.5S373.2,305.7,361,305.7z M361,299.6
					c15.6,0,27.6,12,27.6,27.6s-12,27.6-27.6,27.6s-27.6-12-27.6-27.6S345.4,299.6,361,299.6z M361,415.9c18.4,0,35.5-9.2,46.1-24.1
					c-1.3-11.3-26.1-21.5-46.1-21.5s-44.8,10.2-46.1,21.5C325.5,406.8,342.6,415.9,361,415.9z M361,422.1
					c-20.8,0-40.1-10.6-51.7-27.6l-0.5-0.8v-0.9c0-16.4,28.7-28.5,52.2-28.5s52.2,12,52.2,28.5v0.9l-0.5,0.8
					C401.1,411.5,381.8,422.1,361,422.1z"/>
			</g>
		</g>
	</g>
</g>
<path class="st2" d="M308.8,392.8v0.9l0.5,0.8c11.6,17,30.9,27.6,51.7,27.6s40.1-10.6,51.7-27.6l0.5-0.8v-0.9
	c0-16.5-28.7-28.5-52.2-28.5S308.8,376.4,308.8,392.8z M407.1,391.8c-10.6,14.9-27.7,24.1-46.1,24.1s-35.5-9.1-46.1-24.1
	c1.3-11.3,26.1-21.5,46.1-21.5S405.8,380.5,407.1,391.8z"/>
<path class="st2" d="M361,299.6c-15.6,0-27.6,12-27.6,27.6s12,27.6,27.6,27.6s27.6-12,27.6-27.6S376.6,299.6,361,299.6z M361,348.7
	c-12.2,0-21.5-9.3-21.5-21.5s9.3-21.5,21.5-21.5s21.5,9.3,21.5,21.5S373.2,348.7,361,348.7z"/>
<g>
	<path class="st3" d="M454.5,359.4c0-9-7.4-16.4-16.4-16.4H333.3c-1,0-2.1,1-2.1,2.1c0,1,1,2.1,2.1,2.1H438
		c6.8,0,12.3,5.5,12.3,12.3c0,6.8-5.5,12.3-12.3,12.3H333.3c-1,0-2.1,1-2.1,2.1v28.8H325c-1,0-2.1,1-2.1,2.1v20.5c0,1,1,2.1,2.1,2.1
		h6.2v8.2h-37.4c-1.8-9.9-10.1-17.5-20.1-18.5V382c10.9-1,19.5-9.7,20.5-20.5h113c1,0,2.1-1,2.1-2.1c0-1-1-2.1-2.1-2.1H271.6
		c-1,0-2.1,1-2.1,2.1v78.1c0,1,1,2.1,2.1,2.1h59.6V456c0,1,1,2.1,2.1,2.1H438c9,0,16.4-7.4,16.4-16.4v-80.1c0-0.2,0-0.2,0-0.4
		C454.5,360.5,454.5,360,454.5,359.4z M273.7,361.5h16.2c-1,8.6-7.8,15.4-16.2,16.2C273.7,377.7,273.7,361.5,273.7,361.5z
		 M273.7,435.4v-14.2c7.8,0.8,14.2,6.6,16,14.2H273.7z M327.1,423.1v-16.4h20.5v16.4H327.1z M450.3,441.6c0,6.8-5.5,12.3-12.3,12.3
		H335.3v-26.7h14.4c1,0,2.1-1,2.1-2.1v-20.5c0-1-1-2.1-2.1-2.1h-14.4v-26.7H438c4.9,0,9.2-2.3,12.3-5.5V441.6z"/>
	<path class="st4" d="M361,456.4c41.4,0,75.3-33.9,75.3-75.3s-33.9-75.3-75.3-75.3s-75.3,33.9-75.3,75.3S319.6,456.4,361,456.4z
		 M361,318.4c34.5,0,62.7,28.2,62.7,62.7s-28.2,62.7-62.7,62.7s-62.7-28.2-62.7-62.7S326.5,318.4,361,318.4z"/>
	<path class="st4" d="M310.8,293.3c3.8,0,6.3-2.5,6.3-6.3v-18.8c0-3.8-2.5-6.3-6.3-6.3s-6.3,2.5-6.3,6.3v18.8
		C304.5,290.8,307,293.3,310.8,293.3z"/>
	<path class="st4" d="M361,293.3c3.8,0,6.3-2.5,6.3-6.3v-18.8c0-3.8-2.5-6.3-6.3-6.3c-3.8,0-6.3,2.5-6.3,6.3v18.8
		C354.7,290.8,357.2,293.3,361,293.3z"/>
	<path class="st4" d="M411.2,293.3c3.8,0,6.3-2.5,6.3-6.3v-18.8c0-3.8-2.5-6.3-6.3-6.3c-3.8,0-6.3,2.5-6.3,6.3v18.8
		C404.9,290.8,407.4,293.3,411.2,293.3z"/>
	<path class="st3" d="M335.3,408.7c-3.5,0-6.2,2.7-6.2,6.2c0,3.3,2.7,6.2,6.2,6.2c3.5,0,6.2-2.9,6.2-6.2
		C341.5,411.4,338.8,408.7,335.3,408.7z M335.3,416.9c-1,0-2.1-1-2.1-2.1c0-1,1-2.1,2.1-2.1c1,0,2.1,1,2.1,2.1
		C337.4,415.9,336.3,416.9,335.3,416.9z"/>
	<path class="st4" d="M367.3,406.2h-12.5c-5,0-9.4-4.4-9.4-9.4c0-3.1-3.1-6.3-6.3-6.3c-3.1,0-6.3,3.1-6.3,6.3c0,11.9,10,22,22,22
		v3.1c0,3.1,3.1,6.3,6.3,6.3s6.3-3.1,6.3-6.3v-3.1c11.9,0,22-10,22-22c0-11.9-10-22-22-22h-12.5c-5,0-9.4-4.4-9.4-9.4
		s4.4-9.4,9.4-9.4h12.5c5,0,9.4,4.4,9.4,9.4c0,3.1,3.1,6.3,6.3,6.3s6.3-3.1,6.3-6.3c0-11.9-10-22-22-22v-3.1c0-3.1-3.1-6.3-6.3-6.3
		s-6.3,3.1-6.3,6.3v3.1c-11.9,0-22,10-22,22s10,22,22,22h12.5c5,0,9.4,4.4,9.4,9.4C376.7,401.8,372.3,406.2,367.3,406.2z"/>
</g>
</svg>
