<?xml version="1.0" encoding="utf-8"?>
<!-- Generator: Adobe Illustrator 16.0.0, SVG Export Plug-In . SVG Version: 6.00 Build 0)  -->
<!DOCTYPE svg PUBLIC "-//W3C//DTD SVG 1.1//EN" "http://www.w3.org/Graphics/SVG/1.1/DTD/svg11.dtd">
<svg version="1.1" id="Layer_1" xmlns="http://www.w3.org/2000/svg" xmlns:xlink="http://www.w3.org/1999/xlink" x="0px" y="0px"
	 width="128px" height="128px" viewBox="0 0 128 128" enable-background="new 0 0 128 128" xml:space="preserve">
<g>
	<g>
		<polyline fill="#FFAB00" points="5.3,99.1 23.8,80.6 33.1,89.8 43.3,79.6 50,86.3 50,68.5 67.5,93.9 75.5,58.9 93.7,79.9 
			102.3,45.9 122.7,28.9 		"/>
		<path fill="#37474F" d="M5.3,101.1c-0.5,0-1-0.2-1.4-0.6c-0.8-0.8-0.8-2,0-2.8l18.5-18.5c0.8-0.8,2.1-0.8,2.8,0l7.8,7.8l8.8-8.8
			c0.8-0.8,2-0.8,2.8,0l3.3,3.3v-13c0-0.9,0.6-1.6,1.4-1.9c0.8-0.3,1.7,0.1,2.2,0.8L66.6,89l7-30.6c0.2-0.7,0.7-1.3,1.5-1.5
			c0.7-0.2,1.5,0.1,2,0.6l15.7,18.1l7.7-30.3c0.1-0.4,0.3-0.8,0.7-1l20.4-17c0.8-0.7,2.1-0.6,2.8,0.3c0.7,0.8,0.6,2.1-0.3,2.8
			L104,47.1l-8.4,33.4c-0.2,0.7-0.8,1.3-1.5,1.5c-0.7,0.2-1.5-0.1-2-0.6l-15.6-18l-7.1,31.2c-0.2,0.8-0.8,1.4-1.6,1.5
			c-0.8,0.1-1.6-0.2-2-0.8L52,74.9v11.4c0,0.8-0.5,1.5-1.2,1.8c-0.7,0.3-1.6,0.1-2.2-0.4l-5.3-5.3l-8.8,8.8c-0.8,0.8-2,0.8-2.8,0
			l-7.8-7.8L6.7,100.5C6.4,100.9,5.8,101.1,5.3,101.1z"/>
	</g>
	<g>
		<circle fill="#FFECB3" cx="49.5" cy="66.6" r="6.7"/>
		<path fill="#37474F" d="M49.5,75.3c-4.8,0-8.7-3.9-8.7-8.7c0-4.8,3.9-8.7,8.7-8.7s8.7,3.9,8.7,8.7C58.2,71.4,54.3,75.3,49.5,75.3z
			 M49.5,61.9c-2.6,0-4.7,2.1-4.7,4.7c0,2.6,2.1,4.7,4.7,4.7s4.7-2.1,4.7-4.7C54.2,64,52.1,61.9,49.5,61.9z"/>
	</g>
	<g>
		<circle fill="#FFECB3" cx="102.9" cy="44.6" r="6.7"/>
		<path fill="#37474F" d="M102.9,53.3c-4.8,0-8.7-3.9-8.7-8.7c0-4.8,3.9-8.7,8.7-8.7s8.7,3.9,8.7,8.7
			C111.5,49.4,107.6,53.3,102.9,53.3z M102.9,39.9c-2.6,0-4.7,2.1-4.7,4.7c0,2.6,2.1,4.7,4.7,4.7s4.7-2.1,4.7-4.7
			C107.5,42,105.4,39.9,102.9,39.9z"/>
	</g>
	<g>
		<circle fill="#FFECB3" cx="92.5" cy="83.3" r="6.7"/>
		<path fill="#37474F" d="M92.5,91.9c-4.8,0-8.7-3.9-8.7-8.7c0-4.8,3.9-8.7,8.7-8.7s8.7,3.9,8.7,8.7C101.2,88.1,97.3,91.9,92.5,91.9
			z M92.5,78.6c-2.6,0-4.7,2.1-4.7,4.7c0,2.6,2.1,4.7,4.7,4.7s4.7-2.1,4.7-4.7C97.2,80.7,95.1,78.6,92.5,78.6z"/>
	</g>
</g>
</svg>
