<?xml version="1.0" encoding="utf-8"?>
<!-- Generator: Adobe Illustrator 16.0.0, SVG Export Plug-In . SVG Version: 6.00 Build 0)  -->
<!DOCTYPE svg PUBLIC "-//W3C//DTD SVG 1.1//EN" "http://www.w3.org/Graphics/SVG/1.1/DTD/svg11.dtd">
<svg version="1.1" id="Layer_1" xmlns="http://www.w3.org/2000/svg" xmlns:xlink="http://www.w3.org/1999/xlink" x="0px" y="0px"
	 width="128px" height="128px" viewBox="0 0 128 128" enable-background="new 0 0 128 128" xml:space="preserve">
<g>
	<g>
		<path fill="#FFFFFF" d="M110,58.2c0,6.9-5.6,12.5-12.5,12.5c-6.9,0-12.5-5.6-12.5-12.5c0-6.9,5.6-12.5,12.5-12.5
			C104.5,45.7,110,51.3,110,58.2z"/>
		<path fill="#37474F" d="M97.6,72.1c-7.7,0-14-6.3-14-14c0-7.7,6.3-14,14-14c7.7,0,14,6.3,14,14C111.5,65.9,105.3,72.1,97.6,72.1z
			 M97.6,47.2c-6,0-11,4.9-11,11c0,6,4.9,11,11,11c6,0,11-4.9,11-11C108.5,52.1,103.6,47.2,97.6,47.2z"/>
	</g>
	<g>
		<g>
			<g>
				<polygon fill="#FFECB3" points="93.4,107.5 64.5,107.5 64.5,77.2 86,76.6 				"/>
				<path fill="#37474F" d="M93.4,109C93.4,109,93.4,109,93.4,109H64.5c-0.8,0-1.5-0.7-1.5-1.5V77.2c0-0.8,0.6-1.5,1.5-1.5L86,75.1
					c0.7-0.1,1.3,0.5,1.5,1.2l7.3,30.6c0.1,0.2,0.1,0.4,0.1,0.6C94.9,108.3,94.2,109,93.4,109z M66,106h25.5l-6.6-27.8L66,78.7V106z
					"/>
			</g>
			<g>
				<polygon fill="#78909C" points="52.5,117.8 54,105.2 91.6,91.7 97.6,107.3 103.3,124.5 40.5,124.5 				"/>
				<path fill="#37474F" d="M105.3,126H34.7l16.3-9.2l1.6-12.7l39.8-14.4l6.5,17L105.3,126z M46.2,123h55l-5-15.2l-5.5-14.2
					l-35.3,12.8l-1.5,12.3L46.2,123z"/>
			</g>
			<g>
				<line fill="#FFECB3" x1="53.2" y1="118" x2="95.8" y2="105.2"/>
				<path fill="#37474F" d="M53.2,119.5c-0.6,0-1.2-0.4-1.4-1.1c-0.2-0.8,0.2-1.6,1-1.9l42.6-12.8c0.8-0.2,1.6,0.2,1.9,1
					c0.2,0.8-0.2,1.6-1,1.9l-42.6,12.8C53.5,119.5,53.3,119.5,53.2,119.5z"/>
			</g>
			<g>
				<g>
					<path fill="#FFECB3" d="M86.6,67.5h-2.4c0,0,0,0,0-0.2c0-21.3,14.7-38.3-33.4-38.3c-13.3,0-14.8,17-14.8,38.3
						c0,0.5,0.1,1.3,0.1,1.3h6.6c0,14,9.8,24.4,22,24.4c12.1,0,22-10.9,22-24.2C86.6,68.3,86.6,68.5,86.6,67.5z"/>
					<path fill="#37474F" d="M64.7,94.4C52,94.4,42,83.8,41.3,70h-5.2c-1.6,0-1.6-1.7-1.6-2.8c0-21,1.2-39.8,16.3-39.8
						c18.6,0,29,2.5,33.8,8c4.4,5.1,3.4,11.9,2.3,19.8c-0.5,3.5-1,7.1-1.1,10.8h0.9c0.8,0,1.5,0.7,1.5,1.5c0,0.5,0,0.6,0,0.6
						c0,0.1,0.1,0.3,0.1,0.5C88.1,82.8,77.6,94.4,64.7,94.4z M37.5,67h5.2c0.8,0,1.5,0.7,1.5,1.5c0,12.8,9,22.9,20.5,22.9
						c11.2,0,20.3-10,20.4-22.4h-1c-0.8,0-1.5-0.7-1.5-1.5c0-0.1,0-0.2,0-0.2c0-4.5,0.6-8.7,1.2-12.5c1.1-7.4,1.9-13.3-1.6-17.4
						c-4.1-4.7-14.1-7-31.5-7C39.7,30.4,37.5,43.8,37.5,67z M84.1,66c-0.8,0-1.3,0.6-1.5,1.2C82.8,66.5,83.4,66,84.1,66z"/>
				</g>
				<g>
					<path fill="#37474F" d="M56.4,37.9c0,0-9,1.4-11.1-5.9c0,0-5.2,1.2-5,3.1c0,0-2.5-8.3,8-16.3c20.2-15.2,42.9-1.4,42.9-1.4
						s24.8,15.6-2,24.3c-17.1,5.6-20.5,10.9-20.5,10.9L56.4,37.9z"/>
					<path fill="#37474F" d="M68.7,54.1c-0.4,0-0.9-0.2-1.2-0.5l-11.8-14c-0.3,0-0.7,0-1.1,0c-4.9,0-8.6-2.1-10.3-5.7
						c-1.2,0.4-2.2,0.9-2.5,1.2c0,0.7-0.5,1.3-1.2,1.5c-0.8,0.2-1.5-0.3-1.8-1c-0.1-0.4-2.7-9.4,8.5-17.9c6.6-5,14.1-7.5,22.2-7.5
						c12.4,0,21.9,5.7,22.3,6c0.5,0.3,12.1,7.7,11.1,15.9c-0.6,4.7-5.1,8.4-13.4,11.2C73.6,48.4,70,53.4,69.9,53.4
						C69.6,53.8,69.2,54,68.7,54.1C68.7,54.1,68.7,54.1,68.7,54.1z M56.4,36.4c0.4,0,0.9,0.2,1.2,0.5l11.2,13.3c2.2-2.1,7.7-6,20-10
						c7-2.3,11-5.3,11.4-8.7c0.6-5.2-6.8-11.1-9.7-12.9c-0.1,0-9.2-5.5-20.7-5.5c-7.5,0-14.4,2.3-20.4,6.9
						c-5.9,4.4-7.4,8.9-7.6,11.7c1.2-0.6,2.5-0.9,3.3-1.1c0.8-0.2,1.6,0.3,1.8,1c1.2,4.1,5,4.9,7.9,4.9c0.9,0,1.5-0.1,1.5-0.1
						C56.2,36.4,56.3,36.4,56.4,36.4z"/>
				</g>
				<g>
					<path fill="#37474F" d="M58.5,37.2c0,0-1,17.5,6,19.1v12.1h6.9l9.4-16.8l-0.5-18l-22,2.6"/>
					<path fill="#37474F" d="M71.4,70h-6.9c-0.8,0-1.5-0.7-1.5-1.5V57.4c-6.8-3.2-6.1-18.4-6-20.3c0-0.1,0-0.1,0-0.2
						c-0.1-0.2-0.1-0.3-0.2-0.5c-0.1-0.8,0.5-1.6,1.3-1.7l22-2.6c0.4-0.1,0.8,0.1,1.2,0.4c0.3,0.3,0.5,0.7,0.5,1.1l0.5,18
						c0,0.3-0.1,0.5-0.2,0.8l-9.4,16.8C72.4,69.7,71.9,70,71.4,70z M66,67h4.5l8.8-15.7l-0.4-15.9L60,37.6
						c-0.2,4.5,0.3,16.2,4.9,17.3c0.7,0.2,1.2,0.8,1.2,1.5V67z"/>
				</g>
				<g>
					<path fill="#37474F" d="M79.5,75.5v12.4c0,0,12.4-2.5,15.6-11.7L79.5,75.5z"/>
					<path fill="#37474F" d="M79.5,89.4c-0.3,0-0.7-0.1-1-0.3c-0.3-0.3-0.5-0.7-0.5-1.2V75.5c0-0.4,0.2-0.8,0.5-1.1
						c0.3-0.3,0.7-0.4,1.1-0.4l15.6,0.7c0.5,0,0.9,0.3,1.2,0.7c0.3,0.4,0.3,0.9,0.2,1.3c-3.4,9.9-16.2,12.6-16.7,12.7
						C79.7,89.4,79.6,89.4,79.5,89.4z M81,77v8.9c3-0.9,9-3.4,11.8-8.3L81,77z"/>
				</g>
				<g>
					<line fill="#FFFFFF" x1="50" y1="54.5" x2="46" y2="54.5"/>
					<path fill="#37474F" d="M50,56h-4c-0.8,0-1.5-0.7-1.5-1.5S45.2,53,46,53h4c0.8,0,1.5,0.7,1.5,1.5S50.8,56,50,56z"/>
				</g>
				<g>
					<line fill="#FFFFFF" x1="53" y1="78.5" x2="51" y2="78.5"/>
					<path fill="#37474F" d="M53,80h-2c-0.8,0-1.5-0.7-1.5-1.5S50.2,77,51,77h2c0.8,0,1.5,0.7,1.5,1.5S53.8,80,53,80z"/>
				</g>
			</g>
			<g>
				<path fill="#37474F" d="M78.1,22c0,5.8-4.7,10.5-10.5,10.5H44.5C38.7,32.5,34,27.8,34,22l0,0c0-5.8,4.7-10.5,10.5-10.5h23.1
					C73.4,11.5,78.1,16.2,78.1,22L78.1,22z"/>
				<path fill="#37474F" d="M67.6,34H44.5c-6.6,0-12-5.4-12-12c0-6.6,5.4-12,12-12h23.1c6.6,0,12,5.4,12,12
					C79.6,28.6,74.2,34,67.6,34z M44.5,13c-5,0-9,4-9,9c0,5,4,9,9,9h23.1c5,0,9-4,9-9c0-5-4-9-9-9H44.5z"/>
			</g>
		</g>
		<g>
			<g>
				<path fill="#37474F" d="M10.1,54.5c0,0.7-0.6,1.3-1.3,1.3c-0.7,0-1.3-0.6-1.3-1.3c0-0.7,0.6-1.3,1.3-1.3
					C9.5,53.2,10.1,53.8,10.1,54.5z"/>
				<path fill="#37474F" d="M8.8,56.3c-1,0-1.8-0.8-1.8-1.8c0-1,0.8-1.8,1.8-1.8c1,0,1.8,0.8,1.8,1.8C10.6,55.5,9.8,56.3,8.8,56.3z
					 M8.8,53.7c-0.4,0-0.8,0.3-0.8,0.8c0,0.4,0.4,0.8,0.8,0.8c0.4,0,0.8-0.4,0.8-0.8C9.6,54.1,9.3,53.7,8.8,53.7z"/>
			</g>
			<g>
				<path fill="#37474F" d="M19.1,54.5c0,0.7-0.6,1.3-1.3,1.3c-0.7,0-1.3-0.6-1.3-1.3c0-0.7,0.6-1.3,1.3-1.3
					C18.5,53.2,19.1,53.8,19.1,54.5z"/>
				<path fill="#37474F" d="M17.8,56.3c-1,0-1.8-0.8-1.8-1.8c0-1,0.8-1.8,1.8-1.8c1,0,1.8,0.8,1.8,1.8
					C19.6,55.5,18.8,56.3,17.8,56.3z M17.8,53.7c-0.4,0-0.8,0.4-0.8,0.8c0,0.4,0.4,0.8,0.8,0.8c0.4,0,0.8-0.4,0.8-0.8
					C18.6,54.1,18.2,53.7,17.8,53.7z"/>
			</g>
			<g>
				<path fill="#37474F" d="M28,54.5c0,0.7-0.6,1.3-1.3,1.3c-0.7,0-1.3-0.6-1.3-1.3c0-0.7,0.6-1.3,1.3-1.3
					C27.5,53.2,28,53.8,28,54.5z"/>
				<path fill="#37474F" d="M26.8,56.3c-1,0-1.8-0.8-1.8-1.8c0-1,0.8-1.8,1.8-1.8c1,0,1.8,0.8,1.8,1.8
					C28.5,55.5,27.7,56.3,26.8,56.3z M26.8,53.7c-0.4,0-0.8,0.4-0.8,0.8c0,0.4,0.4,0.8,0.8,0.8c0.4,0,0.8-0.4,0.8-0.8
					C27.5,54.1,27.2,53.7,26.8,53.7z"/>
			</g>
		</g>
	</g>
	<g>
		<path fill="#FFAB00" d="M115.3,56.8c0-3.2,2.2-5.8,5.1-6.6c-0.6-2.5-1.6-4.8-2.9-6.9c-2.7,1.5-6,1.2-8.3-1.1
			c-2.2-2.3-2.5-5.6-1.1-8.3c-2.1-1.3-4.4-2.2-6.9-2.9c-0.8,2.9-3.4,5.1-6.6,5.1s-5.8-2.2-6.6-5.1c-2.5,0.6-4.8,1.6-6.9,2.9
			c1.5,2.7,1.2,6-1.1,8.3c-2.3,2.3-5.6,2.5-8.3,1.1c-1.3,2.1-2.2,4.4-2.9,6.9c2.9,0.8,5.1,3.4,5.1,6.6c0,3.2-2.2,5.8-5.1,6.6
			c0.6,2.5,1.6,4.8,2.9,6.9c2.7-1.5,6-1.2,8.3,1.1c2.2,2.3,2.5,5.6,1.1,8.3c2.1,1.3,4.4,2.2,6.9,2.9c0.8-2.9,3.4-5.1,6.6-5.1
			s5.8,2.2,6.6,5.1c2.5-0.6,4.8-1.6,6.9-2.9c-1.5-2.7-1.2-6,1.1-8.3c2.3-2.3,5.6-2.5,8.3-1.1c1.3-2.1,2.2-4.4,2.9-6.9
			C117.5,62.6,115.3,60,115.3,56.8z M94.7,64.2c-4.1,0-7.4-3.3-7.4-7.4c0-4.1,3.3-7.4,7.4-7.4s7.4,3.3,7.4,7.4
			C102.1,60.9,98.8,64.2,94.7,64.2z"/>
		<path fill="#37474F" d="M89.1,84.4L87.7,84c-2.6-0.7-5-1.7-7.3-3l-1.2-0.7l0.7-1.3c1.2-2.2,0.9-4.8-0.8-6.5c-1-1-2.3-1.5-3.7-1.5
			c-1,0-1.9,0.2-2.8,0.7l-1.3,0.7l-0.7-1.2c-1.4-2.3-2.4-4.7-3-7.3l-0.4-1.4l1.4-0.4c2.4-0.7,4-2.8,4-5.2c0-2.4-1.6-4.5-4-5.2
			l-1.4-0.4l0.4-1.4c0.6-2.5,1.7-5,3-7.3l0.7-1.3l1.3,0.7c0.9,0.5,1.8,0.7,2.8,0.7c1.4,0,2.7-0.5,3.7-1.5c1.7-1.7,2-4.3,0.8-6.5
			l-0.7-1.3l1.3-0.7c2.3-1.3,4.7-2.4,7.3-3l1.4-0.4l0.4,1.4c0.7,2.4,2.8,4,5.2,4c2.4,0,4.5-1.6,5.2-4l0.4-1.4l1.4,0.4
			c2.6,0.7,5,1.7,7.3,3l1.2,0.7l-0.7,1.3c-1.2,2.2-0.9,4.8,0.8,6.5c1,1,2.3,1.5,3.7,1.5c1,0,1.9-0.2,2.8-0.7l1.3-0.7l0.7,1.2
			c1.4,2.3,2.4,4.8,3,7.3l0.4,1.4l-1.4,0.4c-2.4,0.7-4,2.8-4,5.2c0,2.4,1.6,4.5,4,5.2l1.4,0.4l-0.4,1.4c-0.7,2.6-1.7,5-3,7.3
			l-0.7,1.2l-1.3-0.7c-0.8-0.5-1.8-0.7-2.8-0.7c-1.4,0-2.8,0.5-3.7,1.5c-1.7,1.7-2,4.3-0.8,6.5l0.7,1.3l-1.2,0.7
			c-2.3,1.3-4.7,2.4-7.3,3l-1.4,0.4L99.8,83c-0.7-2.4-2.8-4-5.2-4c-2.4,0-4.5,1.6-5.2,4L89.1,84.4z M94.7,75.9
			c3.3,0,6.1,1.9,7.5,4.8c1.4-0.4,2.8-1,4.1-1.7c-1.1-3-0.4-6.4,1.9-8.7c1.6-1.6,3.6-2.4,5.9-2.4c1,0,1.9,0.2,2.8,0.5
			c0.7-1.3,1.2-2.7,1.7-4.1c-2.9-1.4-4.8-4.3-4.8-7.5c0-3.3,1.9-6.1,4.8-7.5c-0.4-1.4-1-2.8-1.7-4.1c-0.9,0.3-1.9,0.5-2.8,0.5
			c-2.2,0-4.3-0.9-5.9-2.4c-2.3-2.3-3-5.6-1.9-8.7c-1.3-0.7-2.7-1.2-4.1-1.7c-1.4,2.9-4.3,4.8-7.5,4.8c-3.3,0-6.1-1.9-7.5-4.8
			c-1.4,0.4-2.8,1-4.1,1.7c1.1,3,0.4,6.4-1.9,8.7c-1.6,1.6-3.6,2.4-5.9,2.4c-1,0-1.9-0.2-2.8-0.5c-0.7,1.3-1.3,2.7-1.7,4.1
			c2.9,1.4,4.8,4.3,4.8,7.5c0,3.3-1.9,6.1-4.8,7.5c0.4,1.4,1,2.8,1.7,4.1c0.9-0.3,1.9-0.5,2.8-0.5c2.2,0,4.3,0.9,5.9,2.4
			c2.3,2.3,3,5.7,1.9,8.7c1.3,0.7,2.7,1.2,4.1,1.7C88.5,77.8,91.4,75.9,94.7,75.9z M94.7,65.7c-4.9,0-8.9-4-8.9-8.9
			c0-4.9,4-8.9,8.9-8.9c4.9,0,8.9,4,8.9,8.9C103.6,61.7,99.6,65.7,94.7,65.7z M94.7,50.9c-3.3,0-5.9,2.6-5.9,5.9
			c0,3.2,2.6,5.9,5.9,5.9c3.2,0,5.9-2.6,5.9-5.9C100.6,53.6,97.9,50.9,94.7,50.9z"/>
	</g>
	<g>
		<path fill="#B0BEC5" d="M101.6,21.3c0.5-1.6,2-2.6,3.6-2.6c0.1-1.4-0.1-2.7-0.4-4c-1.6,0.3-3.3-0.3-4.1-1.8
			c-0.8-1.5-0.4-3.3,0.7-4.4c-0.9-1-1.9-1.8-3.1-2.5c-0.9,1.4-2.6,2.1-4.2,1.6c-1.6-0.5-2.6-2-2.6-3.6c-1.4-0.1-2.7,0.1-4,0.4
			c0.3,1.6-0.3,3.3-1.8,4.1c-1.5,0.8-3.3,0.4-4.4-0.8c-1,0.9-1.8,1.9-2.5,3.1c1.4,0.9,2.1,2.6,1.6,4.2c-0.5,1.6-2,2.6-3.6,2.6
			c-0.1,1.4,0.1,2.7,0.4,4c1.6-0.3,3.3,0.3,4.1,1.8c0.8,1.5,0.4,3.3-0.8,4.4c0.9,1,1.9,1.8,3.1,2.5c0.9-1.4,2.5-2.1,4.2-1.6
			c1.6,0.5,2.6,2,2.6,3.6c1.4,0.1,2.7-0.1,4-0.4c-0.3-1.6,0.3-3.3,1.8-4.1c1.5-0.8,3.3-0.4,4.4,0.7c1-0.9,1.8-1.9,2.5-3.1
			C101.8,24.6,101.1,22.9,101.6,21.3z M89.9,21.9c-2.1-0.6-3.3-2.8-2.6-4.9c0.6-2.1,2.8-3.3,4.9-2.6c2.1,0.6,3.3,2.8,2.6,4.9
			C94.2,21.3,91.9,22.5,89.9,21.9z"/>
		<path fill="#37474F" d="M91,33.8c-0.2,0-0.4,0-0.7,0l-1.5-0.1l0-1.5c0-1-0.6-1.9-1.5-2.2c-0.9-0.3-1.9,0.1-2.5,1l-0.8,1.2
			l-1.2-0.8c-1.2-0.8-2.4-1.7-3.4-2.8l-1-1.1l1.1-1c0.7-0.7,0.9-1.8,0.5-2.6c-0.4-0.8-1.4-1.3-2.4-1.1l-1.4,0.3l-0.3-1.4
			c-0.4-1.4-0.5-2.9-0.4-4.4l0.1-1.5l1.5,0c0,0,0,0,0,0c1,0,1.9-0.6,2.2-1.5c0.3-0.9-0.1-1.9-1-2.5l-1.2-0.8l0.8-1.2
			c0.8-1.3,1.7-2.4,2.8-3.4l1.1-1l1,1c0.7,0.7,1.8,0.9,2.6,0.5c0.8-0.5,1.3-1.4,1.1-2.4l-0.3-1.4l1.4-0.3c1.4-0.4,2.9-0.5,4.4-0.4
			l1.5,0.1l0,1.5c0,1,0.6,1.9,1.5,2.2c1,0.3,1.9-0.1,2.5-1l0.8-1.2l1.2,0.8c1.3,0.8,2.4,1.7,3.4,2.8l1,1.1l-1,1
			c-0.7,0.7-0.9,1.8-0.5,2.6c0.5,0.9,1.4,1.3,2.4,1.1l1.4-0.3l0.3,1.4c0.4,1.4,0.5,2.9,0.4,4.4l-0.1,1.5l-1.5,0h0
			c-1.1,0-1.9,0.6-2.2,1.5c-0.3,0.9,0.1,1.9,1,2.5l1.2,0.8l-0.7,1.2c-0.8,1.3-1.7,2.4-2.8,3.4l-1.1,1l-1-1c-0.7-0.7-1.8-0.9-2.6-0.5
			c-0.9,0.5-1.3,1.4-1.1,2.4l0.3,1.4l-1.4,0.3C93.4,33.6,92.2,33.8,91,33.8z M86.7,27c0.5,0,1,0.1,1.5,0.2c1.7,0.5,3,1.9,3.5,3.6
			c0.4,0,0.7-0.1,1.1-0.1c0.1-1.7,1.1-3.3,2.7-4.2c1.5-0.8,3.5-0.8,5,0.1c0.2-0.3,0.5-0.6,0.7-0.8c-1.1-1.3-1.6-3.1-1-4.9
			c0.5-1.7,1.9-3,3.6-3.5c0-0.4-0.1-0.7-0.1-1.1c-1.8-0.1-3.3-1.2-4.2-2.7c-0.8-1.6-0.8-3.4,0.1-5c-0.3-0.2-0.6-0.5-0.8-0.7
			c-1.3,1.1-3.2,1.5-4.9,1c-1.7-0.5-3-1.9-3.5-3.6c-0.4,0-0.7,0.1-1.1,0.1c-0.1,1.7-1.1,3.3-2.7,4.2c-1.6,0.8-3.5,0.8-5-0.1
			c-0.2,0.3-0.5,0.6-0.7,0.8c1.1,1.3,1.6,3.1,1,4.9c-0.5,1.7-1.9,3-3.6,3.5c0,0.4,0.1,0.7,0.1,1.1c1.8,0.1,3.3,1.1,4.2,2.7
			c0.8,1.6,0.8,3.5-0.1,5c0.3,0.2,0.6,0.5,0.8,0.7C84.3,27.4,85.5,27,86.7,27z M91,23.5c-0.5,0-1.1-0.1-1.6-0.2
			c-2.9-0.9-4.5-3.9-3.6-6.8c0.7-2.3,2.8-3.9,5.2-3.9c0.5,0,1.1,0.1,1.6,0.2c2.9,0.9,4.5,3.9,3.6,6.8C95.5,22,93.4,23.5,91,23.5z
			 M91,15.6c-1.1,0-2,0.7-2.3,1.7c-0.4,1.3,0.3,2.7,1.6,3.1c0.2,0.1,0.5,0.1,0.7,0.1c1.1,0,2-0.7,2.4-1.7c0.4-1.3-0.3-2.7-1.6-3.1
			C91.5,15.7,91.3,15.6,91,15.6z"/>
	</g>
</g>
</svg>
