<?xml version="1.0" encoding="utf-8"?>
<!-- Generator: Adobe Illustrator 16.0.0, SVG Export Plug-In . SVG Version: 6.00 Build 0)  -->
<!DOCTYPE svg PUBLIC "-//W3C//DTD SVG 1.1//EN" "http://www.w3.org/Graphics/SVG/1.1/DTD/svg11.dtd">
<svg version="1.1" id="Layer_1" xmlns="http://www.w3.org/2000/svg" xmlns:xlink="http://www.w3.org/1999/xlink" x="0px" y="0px"
	 width="128px" height="128px" viewBox="0 0 128 128" enable-background="new 0 0 128 128" xml:space="preserve">
<g>
	<g>
		<circle fill="#FFECB3" cx="54.7" cy="75.7" r="48.6"/>
		<path fill="#37474F" d="M54.7,126.3c-27.9,0-50.6-22.7-50.6-50.6c0-27.9,22.7-50.6,50.6-50.6s50.6,22.7,50.6,50.6
			C105.3,103.6,82.6,126.3,54.7,126.3z M54.7,29.1C29,29.1,8.1,50,8.1,75.7c0,25.7,20.9,46.6,46.6,46.6s46.6-20.9,46.6-46.6
			C101.3,50,80.4,29.1,54.7,29.1z"/>
	</g>
	<g>
		<circle fill="#FFFFFF" cx="54.7" cy="75.7" r="34.1"/>
		<path fill="#37474F" d="M54.7,111.9c-19.9,0-36.1-16.2-36.1-36.1c0-19.9,16.2-36.1,36.1-36.1c19.9,0,36.1,16.2,36.1,36.1
			C90.8,95.6,74.6,111.9,54.7,111.9z M54.7,43.6C37,43.6,22.5,58,22.5,75.7c0,17.7,14.4,32.1,32.1,32.1c17.7,0,32.1-14.4,32.1-32.1
			C86.8,58,72.4,43.6,54.7,43.6z"/>
	</g>
	<g>
		<path fill="#FFECB3" d="M72,13.6c0,1.9-1.3,3.4-3.3,3.4H40.6c-1.9,0-3.6-1.5-3.6-3.4V7.2C37,5.2,38.7,4,40.6,4h28.1
			C70.7,4,72,5.2,72,7.2V13.6z"/>
		<path fill="#37474F" d="M68.7,19H40.6c-3.1,0-5.6-2.4-5.6-5.4V7.2C35,4.2,37.4,2,40.6,2h28.1C71.8,2,74,4.2,74,7.2v6.5
			C74,16.7,71.7,19,68.7,19z M40.6,6C40,6,39,6.3,39,7.2v6.5c0,0.9,0.8,1.4,1.6,1.4h28.1c0.9,0,1.3-0.7,1.3-1.4V7.2
			C70,6.8,70,6,68.7,6H40.6z"/>
	</g>
	<g>
		<line fill="#FFECB3" x1="55" y1="17" x2="55" y2="24"/>
		<path fill="#37474F" d="M55,26c-1.1,0-2-0.9-2-2v-7c0-1.1,0.9-2,2-2s2,0.9,2,2v7C57,25.1,56.1,26,55,26z"/>
	</g>
	<g>
		<line fill="#FFECB3" x1="55" y1="49" x2="55" y2="76"/>
		<path fill="#37474F" d="M55,78c-1.1,0-2-0.9-2-2V49c0-1.1,0.9-2,2-2s2,0.9,2,2v27C57,77.1,56.1,78,55,78z"/>
	</g>
	<g>
		<path fill="#FFAB00" d="M61.1,75.7c0,3.6-2.9,6.5-6.5,6.5s-6.5-2.9-6.5-6.5c0-3.6,2.9-6.5,6.5-6.5S61.1,72.2,61.1,75.7z"/>
		<path fill="#37474F" d="M54.7,84.2c-4.7,0-8.5-3.8-8.5-8.5c0-4.7,3.8-8.5,8.5-8.5s8.5,3.8,8.5,8.5C63.1,80.4,59.3,84.2,54.7,84.2z
			 M54.7,71.3c-2.5,0-4.5,2-4.5,4.5c0,2.5,2,4.5,4.5,4.5s4.5-2,4.5-4.5C59.1,73.3,57.1,71.3,54.7,71.3z"/>
	</g>
	<g>
		<path fill="#FFECB3" d="M63,73h7.4c1.8,0,3.3,1.2,3.3,3l0,0c0,1.8-1.5,3-3.3,3H63"/>
		<path fill="#37474F" d="M70.4,81H63c-1.1,0-2-0.9-2-2s0.9-2,2-2h7.4c0.1,0,1.3,0,1.3-1c0-1-1.1-1-1.3-1H63c-1.1,0-2-0.9-2-2
			s0.9-2,2-2h7.4c3,0,5.3,2.1,5.3,5C75.7,78.8,73.4,81,70.4,81z"/>
	</g>
	<g>
		<g>
			<path fill="#37474F" d="M85,26c-1.1,0-2-0.9-2-2V10c0-1.1,0.9-2,2-2s2,0.9,2,2v14C87,25.1,86.1,26,85,26z"/>
		</g>
		<g>
			<path fill="#37474F" d="M122,49h-14c-1.1,0-2-0.9-2-2s0.9-2,2-2h14c1.1,0,2,0.9,2,2S123.1,49,122,49z"/>
		</g>
		<g>
			<path fill="#37474F" d="M101.6,32.4c-0.5,0-1-0.2-1.4-0.6c-0.8-0.8-0.8-2,0-2.8l9.6-9.6c0.8-0.8,2-0.8,2.8,0s0.8,2,0,2.8
				l-9.6,9.6C102.6,32.2,102.1,32.4,101.6,32.4z"/>
		</g>
	</g>
</g>
</svg>
