<?xml version="1.0" encoding="utf-8"?>
<!-- Generator: Adobe Illustrator 22.1.0, SVG Export Plug-In . SVG Version: 6.00 Build 0)  -->
<svg version="1.1" id="Layer_1" xmlns="http://www.w3.org/2000/svg" xmlns:xlink="http://www.w3.org/1999/xlink" x="0px" y="0px"
	 width="96px" height="75px" viewBox="0 0 96 75" style="enable-background:new 0 0 96 75;" xml:space="preserve">
<style type="text/css">
	.st0{fill:#C69977;}
</style>
<title>ecommerce-2</title>
<desc>Created with Sketch.</desc>
<g>
	<g>
		<path class="st0" d="M53.5,69.2h-11c-0.6,0-1-0.5-1-1v-5.3c-2.6-0.6-5-1.6-7.2-3l-3.7,3.7c-0.4,0.4-1,0.4-1.4,0l-7.8-7.7
			c-0.4-0.4-0.4-1,0-1.4l3.7-3.7c-1.3-2.3-2.4-4.7-3-7.2h-5.3c-0.6,0-1-0.5-1-1v-11c0-0.6,0.5-1,1-1h5.3c0.6-2.6,1.6-5,3-7.2
			l-3.7-3.7c-0.4-0.4-0.4-1,0-1.4l7.7-7.8c0.4-0.4,1-0.4,1.4,0l3.7,3.7c2.3-1.3,4.7-2.4,7.2-3V5.8c0-0.6,0.5-1,1-1h11
			c0.6,0,1,0.5,1,1v5.4c2.6,0.6,5,1.6,7.2,3l3.7-3.8c0.2-0.2,0.5-0.3,0.7-0.3l0,0c0.3,0,0.5,0.1,0.7,0.3l7.8,7.7
			c0.4,0.4,0.4,1,0,1.4L71,23.2c1.3,2.3,2.4,4.7,3,7.2h5.3c0.6,0,1,0.5,1,1v11c0,0.6-0.5,1-1,1h-5.3c-0.6,2.6-1.6,5-3,7.2l3.7,3.7
			c0.4,0.4,0.4,1,0,1.4l-7.7,7.8c-0.4,0.4-1,0.4-1.4,0L61.8,60c-2.3,1.3-4.7,2.4-7.2,3v5.3C54.5,68.8,54,69.2,53.5,69.2z M43.5,67.2
			h9v-5.1c0-0.5,0.4-0.9,0.8-1c2.9-0.6,5.6-1.7,8-3.3c0.4-0.3,0.9-0.2,1.3,0.2l3.6,3.6l6.3-6.3l-3.6-3.6c-0.4-0.4-0.4-0.9-0.2-1.3
			c1.6-2.5,2.7-5.2,3.3-8c0.1-0.5,0.5-0.8,1-0.8h5.1v-8.9h-5.1c-0.5,0-0.9-0.4-1-0.8c-0.6-2.9-1.7-5.6-3.3-8
			c-0.3-0.4-0.2-0.9,0.2-1.3l3.6-3.6l-6.3-6.3l-3.6,3.6c-0.4,0.4-0.9,0.4-1.3,0.2c-2.5-1.6-5.2-2.7-8.1-3.3c-0.5-0.1-0.8-0.5-0.8-1
			V6.8h-8.9v5.1c0,0.5-0.4,0.9-0.8,1c-2.9,0.6-5.6,1.7-8,3.3c-0.4,0.3-0.9,0.2-1.3-0.2l-3.6-3.6l-6.3,6.2l3.6,3.6
			c0.4,0.4,0.4,0.9,0.2,1.3c-1.6,2.5-2.7,5.2-3.3,8c-0.1,0.5-0.5,0.8-1,0.8h-5.1v9h5.1c0.5,0,0.9,0.4,1,0.8c0.6,2.9,1.7,5.6,3.3,8
			c0.3,0.4,0.2,0.9-0.2,1.3l-3.6,3.6l6.3,6.3l3.6-3.6c0.4-0.4,0.9-0.4,1.3-0.2c2.5,1.6,5.2,2.7,8,3.3c0.5,0.1,0.8,0.5,0.8,1V67.2z"
			/>
		<path class="st0" d="M48,58.9c-12,0-21.9-9.8-21.9-21.9S36,15.1,48,15.1S69.9,24.9,69.9,37S60,58.9,48,58.9z M48,17.2
			C37.1,17.2,28.2,26,28.2,37S37,56.8,48,56.8S67.8,48,67.8,37S58.9,17.2,48,17.2z"/>
	</g>
	<g>
		<path class="st0" d="M47.7,46.5c-2.8,0-5.5-1.8-6.8-4.6c-0.3-0.5-0.1-1.1,0.5-1.4c0.5-0.3,1.1-0.1,1.4,0.5c1,2.1,3,3.5,5.1,3.4
			c1.4-0.1,3-0.8,3.9-1.8c0.6-0.7,0.9-1.4,0.9-2c-0.1-0.5-0.3-1-0.7-1.5c-0.2-0.2-0.5-0.5-0.8-0.7l-6.9-5c-0.6-0.5-1.1-1-1.3-1.5
			c-0.2-0.4-0.4-0.9-0.4-1.3c-0.4-2.8,2.5-5.4,5.1-6c2.7-0.6,5.7,0.8,7.4,3.4c0.3,0.5,0.2,1.1-0.3,1.4s-1.1,0.2-1.4-0.3
			c-1.2-1.9-3.3-2.9-5.2-2.6c-1.9,0.4-3.7,2.3-3.5,3.7c0.1,0.2,0.1,0.4,0.2,0.7c0.2,0.3,0.4,0.6,0.7,0.8l6.9,5
			c0.5,0.3,0.8,0.7,1.1,1c0.7,0.8,1.1,1.7,1.2,2.7c0.1,1.2-0.4,2.5-1.4,3.5c-1.3,1.5-3.4,2.5-5.4,2.5C47.8,46.5,47.8,46.5,47.7,46.5
			z"/>
		<path class="st0" d="M48.1,49.1c-0.6,0-1-0.5-1-1V21.9c0-0.6,0.5-1,1-1s1,0.5,1,1v26.2C49.1,48.7,48.7,49.1,48.1,49.1z"/>
		<path class="st0" d="M47.8,53.1L47.8,53.1c-0.4,0-0.7-0.2-0.9-0.5l-1.5-2.6c-0.2-0.3-0.2-0.7,0-1c0.2-0.3,0.5-0.5,0.9-0.5h3.2
			c0.4,0,0.7,0.2,0.9,0.5c0.2,0.3,0.2,0.7-0.1,1l-1.7,2.6C48.5,52.9,48.2,53.1,47.8,53.1z"/>
	</g>
</g>
</svg>
