<?xml version="1.0" encoding="utf-8"?>
<!-- Generator: Adobe Illustrator 22.1.0, SVG Export Plug-In . SVG Version: 6.00 Build 0)  -->
<svg version="1.1" id="Layer_1" xmlns="http://www.w3.org/2000/svg" xmlns:xlink="http://www.w3.org/1999/xlink" x="0px" y="0px"
	 width="96px" height="75px" viewBox="0 0 96 75" style="enable-background:new 0 0 96 75;" xml:space="preserve">
<style type="text/css">
	.st0{fill:#C69977;}
</style>
<title>ecommerce-2</title>
<desc>Created with Sketch.</desc>
<g>
	<path class="st0" d="M22.8,18.3L22.8,18.3c3,0,5.4-2.4,5.4-5.3v-1.8c0-2.9-2.4-5.3-5.3-5.3h-0.1c-2.9,0-5.3,2.4-5.3,5.3V13
		C17.5,15.9,19.9,18.3,22.8,18.3z M19.8,11.2c0-1.7,1.4-3.1,3.1-3.1h0.1c1.7,0,3.1,1.4,3.1,3.1V13c0,1.7-1.4,3.1-3.1,3.1h-0.1
		c-1.7,0-3.1-1.4-3.1-3.1V11.2z"/>
	<path class="st0" d="M29.1,20h-2.2c-0.3,0-0.6,0.1-0.8,0.3L23,23.2l-3-2.9c-0.2-0.2-0.5-0.3-0.8-0.3h-2.4c-1.6,0-3,0.7-4.1,1.8
		c-1,1.1-1.5,2.7-1.4,4.2v13c0,0.9,0.4,1.8,1,2.5c0.7,0.7,1.5,1,2.5,1c0,0,0,0,0,0c0.5,0,0.9-0.1,1.3-0.3l0.6,23.4
		c0.1,2,1.7,3.5,3.7,3.5c1,0,1.9-0.4,2.5-1c0.7,0.6,1.5,1,2.5,1c2,0,3.6-1.5,3.7-3.5l0.6-23.4c0.4,0.2,0.9,0.3,1.4,0.3
		c1.9,0,3.5-1.5,3.5-3.5V26c0.1-1.5-0.4-3.1-1.4-4.2C32.2,20.7,30.7,20,29.1,20z M25.6,66.9c-0.8,0-1.4-0.6-1.4-1.4V42h-2.3v23.5
		c0,0.8-0.6,1.4-1.4,1.4c-0.8,0-1.4-0.6-1.4-1.3L18.4,39h9.2l-0.7,26.5C26.9,66.3,26.3,66.9,25.6,66.9z M32.4,25.9c0,0,0,0.1,0,0.1
		v13c0,0.7-0.5,1.2-1.2,1.2c-0.3,0-0.6-0.1-0.9-0.4C30.1,39.6,30,39.3,30,39v-2.8l0-0.5h0v-5.4h-2.3v5.9l0,0.6h-9.3l0-1.1h0v-5.4
		h-2.3v8.6c0,0.7-0.5,1.3-1.2,1.3c-0.3,0-0.6-0.1-0.9-0.4c-0.2-0.2-0.4-0.5-0.4-0.9V26c0,0,0-0.1,0-0.1c-0.1-0.9,0.2-1.8,0.8-2.5
		c0.6-0.7,1.5-1.1,2.4-1.1h1.9l3.4,3.3l0,0c0,0,0.1,0.1,0.1,0.1l0,0c0,0,0.1,0,0.1,0.1c0,0,0,0,0,0c0,0,0.1,0,0.1,0c0,0,0,0,0,0
		c0,0,0.1,0,0.1,0c0,0,0,0,0,0c0,0,0.1,0,0.1,0h0c0,0,0.1,0,0.1,0c0,0,0,0,0,0c0,0,0.1,0,0.1,0l0,0c0,0,0.1,0,0.1,0h0h0
		c0.1,0,0.2-0.1,0.3-0.2c0,0,0,0,0,0c0,0,0,0,0,0l3.6-3.3h1.8c0.9,0,1.8,0.4,2.4,1.1C32.2,24,32.5,24.9,32.4,25.9z"/>
	<path class="st0" d="M72.8,18.3L72.8,18.3c3,0,5.4-2.4,5.4-5.3v-1.8c0-2.9-2.4-5.3-5.3-5.3h-0.1c-2.9,0-5.3,2.4-5.3,5.3V13
		C67.5,15.9,69.8,18.3,72.8,18.3z M69.7,11.2c0-1.7,1.4-3.1,3.1-3.1h0.1c1.7,0,3.1,1.4,3.1,3.1V13c0,1.7-1.4,3.1-3.1,3.1h-0.1
		c-1.7,0-3.1-1.4-3.1-3.1V11.2z"/>
	<path class="st0" d="M79.1,20h-2.2c-0.3,0-0.6,0.1-0.8,0.3L73,23.2l-3-2.9c-0.2-0.2-0.5-0.3-0.8-0.3h-2.4c-1.6,0-3,0.7-4.1,1.8
		c-1,1.1-1.5,2.7-1.4,4.2v13c0,0.9,0.4,1.8,1,2.5c0.7,0.7,1.5,1,2.5,1c0,0,0,0,0,0c0.5,0,0.9-0.1,1.3-0.3l0.6,23.4
		c0.1,2,1.7,3.5,3.7,3.5c1,0,1.9-0.4,2.5-1c0.7,0.6,1.5,1,2.5,1c2,0,3.6-1.5,3.7-3.5l0.6-23.4c0.4,0.2,0.9,0.3,1.4,0.3
		c1.9,0,3.5-1.5,3.5-3.5V26c0.1-1.5-0.4-3.1-1.4-4.2C82.1,20.7,80.6,20,79.1,20z M75.5,66.9c-0.8,0-1.4-0.6-1.4-1.4V42h-2.3v23.5
		c0,0.8-0.6,1.4-1.4,1.4c-0.8,0-1.4-0.6-1.4-1.3L68.4,39h9.2l-0.7,26.5C76.9,66.3,76.3,66.9,75.5,66.9z M82.3,25.9c0,0,0,0.1,0,0.1
		v13c0,0.7-0.5,1.2-1.2,1.2c-0.3,0-0.6-0.1-0.9-0.4c-0.2-0.2-0.4-0.5-0.4-0.9v-2.8l0-0.5h0v-5.4h-2.3v5.9l0,0.6h-9.3l0-1.1h0v-5.4
		H66v8.6c0,0.7-0.5,1.3-1.2,1.3c-0.3,0-0.6-0.1-0.9-0.4c-0.2-0.2-0.4-0.5-0.4-0.9V26c0,0,0-0.1,0-0.1c-0.1-0.9,0.2-1.8,0.8-2.5
		c0.6-0.7,1.5-1.1,2.4-1.1h1.9l3.4,3.3l0,0c0,0,0.1,0.1,0.1,0.1l0,0c0,0,0.1,0,0.1,0.1c0,0,0,0,0,0c0,0,0.1,0,0.1,0c0,0,0,0,0,0
		c0,0,0.1,0,0.1,0c0,0,0,0,0,0c0,0,0.1,0,0.1,0h0c0,0,0.1,0,0.1,0c0,0,0,0,0,0c0,0,0.1,0,0.1,0l0,0c0,0,0.1,0,0.1,0h0h0
		c0.1,0,0.2-0.1,0.3-0.2c0,0,0,0,0,0c0,0,0,0,0,0l3.6-3.3h1.8c0.9,0,1.8,0.4,2.4,1.1C82.1,24,82.4,24.9,82.3,25.9z"/>
	<path class="st0" d="M47.8,18.3L47.8,18.3c3,0,5.4-2.4,5.4-5.3v-1.8c0-2.9-2.4-5.3-5.3-5.3h-0.1c-2.9,0-5.3,2.4-5.3,5.3V13
		C42.5,15.9,44.9,18.3,47.8,18.3z M44.7,11.2c0-1.7,1.4-3.1,3.1-3.1h0.1c1.7,0,3.1,1.4,3.1,3.1V13c0,1.7-1.4,3.1-3.1,3.1h-0.1
		c-1.7,0-3.1-1.4-3.1-3.1V11.2L44.7,11.2z"/>
	<path class="st0" d="M54.1,20h-2.2c-0.3,0-0.6,0.1-0.8,0.3L48,23.2l-3-2.9c-0.2-0.2-0.5-0.3-0.8-0.3h-2.4c-1.6,0-3,0.7-4.1,1.8
		c-1,1.1-1.5,2.7-1.4,4.2v13c0,0.9,0.4,1.8,1,2.5c0.7,0.7,1.5,1,2.5,1c0,0,0,0,0,0c0.5,0,0.9-0.1,1.3-0.3l0.6,23.4
		c0.1,2,1.7,3.5,3.7,3.5c1,0,1.9-0.4,2.5-1c0.7,0.6,1.5,1,2.5,1c2,0,3.6-1.5,3.7-3.5l0.6-23.4c0.4,0.2,0.9,0.3,1.4,0.3
		c1.9,0,3.5-1.5,3.5-3.5V26c0.1-1.5-0.4-3.1-1.4-4.2C57.2,20.7,55.7,20,54.1,20z M50.5,66.9c-0.8,0-1.4-0.6-1.4-1.4V42h-2.3v23.5
		c0,0.8-0.6,1.4-1.4,1.4c-0.8,0-1.4-0.6-1.4-1.3L43.4,39h9.2l-0.7,26.5C51.9,66.3,51.3,66.9,50.5,66.9z M57.4,25.9c0,0,0,0.1,0,0.1
		v13c0,0.7-0.5,1.2-1.2,1.2c-0.3,0-0.6-0.1-0.9-0.4c-0.2-0.2-0.4-0.5-0.4-0.9v-2.8l0-0.5h0v-5.4h-2.3v5.9l0,0.6h-9.3l0-1.1h0v-5.4
		H41v8.6c0,0.7-0.5,1.3-1.2,1.3c-0.3,0-0.6-0.1-0.9-0.4c-0.2-0.2-0.4-0.5-0.4-0.9V26c0,0,0-0.1,0-0.1c-0.1-0.9,0.2-1.8,0.8-2.5
		c0.6-0.7,1.5-1.1,2.4-1.1h1.9l3.4,3.3l0,0c0,0,0.1,0.1,0.1,0.1l0,0c0,0,0.1,0,0.1,0.1c0,0,0,0,0,0c0,0,0.1,0,0.1,0c0,0,0,0,0,0
		c0,0,0.1,0,0.1,0c0,0,0,0,0,0c0,0,0.1,0,0.1,0h0c0,0,0.1,0,0.1,0c0,0,0,0,0,0c0,0,0.1,0,0.1,0l0,0c0,0,0.1,0,0.1,0h0h0
		c0.1,0,0.2-0.1,0.3-0.2c0,0,0,0,0,0c0,0,0,0,0,0l3.6-3.3h1.8c0.9,0,1.8,0.4,2.4,1.1C57.2,24,57.5,24.9,57.4,25.9z"/>
</g>
</svg>
