<?xml version="1.0" encoding="utf-8"?>
<!-- Generator: Adobe Illustrator 22.1.0, SVG Export Plug-In . SVG Version: 6.00 Build 0)  -->
<svg version="1.1" id="Layer_1" xmlns="http://www.w3.org/2000/svg" xmlns:xlink="http://www.w3.org/1999/xlink" x="0px" y="0px"
	 width="96px" height="75px" viewBox="0 0 96 75" style="enable-background:new 0 0 96 75;" xml:space="preserve">
<style type="text/css">
	.st0{fill:#C69977;}
</style>
<title>ecommerce-2</title>
<desc>Created with Sketch.</desc>
<g>
	<g>
		<g>
			<path class="st0" d="M52.8,51.4C53,50.9,52.8,51.4,52.8,51.4c-0.1,0.2-0.2,0.2-0.2,0.3c0.2-0.2,0.2-0.2,0.1-0.1
				c-0.1,0.1-0.2,0.2-0.3,0.3c0.4-0.3-0.1,0-0.2,0.1C52,52,52,52,52.2,51.9c-0.1,0-0.1,0-0.2,0.1c-0.1,0-0.1,0-0.2,0.1
				c-0.4,0.1,0.4,0,0,0c-0.1,0-0.6-0.1-0.2,0c-0.1,0-0.7-0.2-0.3,0c-0.1-0.1-0.3-0.1-0.4-0.2c-0.1-0.1-0.1-0.1,0.1,0.1
				c-0.1-0.1-0.2-0.2-0.2-0.2c-0.1-0.1-0.1-0.1,0,0.1c0-0.1-0.1-0.1-0.1-0.2c0-0.1-0.1-0.1-0.1-0.2c-0.2-0.4,0.1,0.4,0,0
				c0-0.1-0.1-0.6-0.1-0.2c0-0.2,0-0.4,0-0.6c0,0.5,0,0,0-0.1c0-0.1,0-0.1,0.1-0.2c-0.2,0.4,0,0.1,0,0c0.1-0.1,0.3-0.5,0-0.1
				c0.1-0.1,0.2-0.2,0.3-0.3c0.1,0,0.1-0.1,0.2-0.1c-0.2,0.2-0.2,0.2-0.1,0.1c0.1-0.1,0.6-0.3,0.2-0.1c0.1-0.1,0.3-0.1,0.4-0.1
				c0.2,0,0.1,0-0.1,0c0.1,0,0.2,0,0.3,0c0.1,0,0.6,0.1,0.1,0c0.2,0,0.3,0.1,0.5,0.1c-0.5-0.2,0,0,0.1,0.1c0.1,0,0.1,0.1,0.2,0.1
				c-0.4-0.3-0.1-0.1,0,0c0.1,0.1,0.2,0.2,0.3,0.3c-0.3-0.4,0,0.1,0.1,0.2c0.1,0.2,0.1,0.1,0-0.1c0,0.1,0,0.1,0.1,0.2
				c0,0.1,0,0.1,0.1,0.2c0.1,0.4,0-0.4,0,0c0,0.2,0,0.3,0,0.5c0-0.2,0-0.2,0,0C52.9,51.1,52.9,51.2,52.8,51.4
				c-0.3,0.9,0.3,1.8,1.2,2.1c0.9,0.3,1.8-0.3,2.1-1.2c0.4-1.2,0.3-2.4-0.2-3.6c-0.5-1.1-1.5-1.8-2.5-2.2c-2.1-0.9-4.7,0.2-5.7,2.2
				c-1.1,2.3-0.2,5.2,2.1,6.3c1.4,0.6,2.7,0.5,4,0c1.1-0.5,1.9-1.5,2.3-2.6c0.3-0.9-0.4-1.8-1.2-2.1C53.9,49.9,53.2,50.5,52.8,51.4z
				"/>
			<path class="st0" d="M21.4,52C21.2,52,20.7,51.9,21.4,52c-0.3,0-0.4-0.1-0.6-0.1c0.5,0.2,0,0-0.2-0.1c-0.1-0.1-0.1-0.1,0.1,0.1
				c-0.1-0.1-0.2-0.1-0.2-0.2c-0.1-0.1-0.4-0.5-0.1-0.1c-0.1-0.1-0.2-0.3-0.3-0.4c0.2,0.5,0-0.1,0-0.2c0-0.2,0-0.1,0,0.1
				c0-0.1,0-0.2,0-0.3c0-0.1,0.1-0.6,0-0.1c0-0.2,0.1-0.3,0.1-0.5c-0.2,0.5,0,0,0.1-0.2c0.1-0.1,0.1-0.1-0.1,0.1
				c0.1-0.1,0.1-0.2,0.2-0.2c0.1-0.1,0.5-0.4,0.1-0.1c0.1-0.1,0.3-0.2,0.4-0.3c-0.5,0.2,0.1,0,0.2,0c0.2,0,0.1,0-0.1,0
				c0.1,0,0.2,0,0.3,0c0.1,0,0.6,0.1,0.1,0c0.2,0,0.3,0.1,0.5,0.1c-0.5-0.2,0,0,0.2,0.1c0.1,0.1,0.1,0.1-0.1-0.1
				c0.1,0.1,0.2,0.1,0.2,0.2c0.1,0.1,0.4,0.5,0.1,0.1c0.1,0.1,0.2,0.3,0.3,0.4c-0.2-0.5,0,0.1,0,0.2c0,0.2,0,0.1,0-0.1
				c0,0.1,0,0.2,0,0.3c0,0.1-0.1,0.6,0,0.1c0,0.2-0.1,0.3-0.1,0.5c0.2-0.5,0,0-0.1,0.2c-0.1,0.1-0.1,0.1,0.1-0.1
				c-0.1,0.1-0.1,0.2-0.2,0.2c-0.1,0.1-0.5,0.4-0.1,0.1c-0.1,0.1-0.3,0.2-0.4,0.3c0.5-0.2-0.1,0-0.2,0c-0.2,0-0.1,0,0.1,0
				C21.6,52,21.5,52,21.4,52c-0.9,0-1.7,0.8-1.7,1.7c0,0.9,0.8,1.7,1.7,1.7c2.5,0,4.6-2.1,4.6-4.6c0-2.5-2.1-4.6-4.6-4.6
				c-2.5,0-4.6,2.1-4.6,4.6c0,2.5,2.1,4.6,4.6,4.6c0.9,0,1.7-0.8,1.7-1.7C23,52.8,22.3,52,21.4,52z"/>
			<path class="st0" d="M61.6,42.4c-1.1-1.8-2.9-2.9-4.9-3.1c-0.9-0.1-1.7,0.8-1.7,1.7c0,0,0,0,0,0c0.6-0.6,1.1-1.1,1.7-1.7
				c-0.8-0.1-1.6,0-2.3,0c-1.7,0-3.3,0-5,0c-5,0-10,0-15,0c-4.5,0-9.1,0-13.6,0c-1.1,0-2.2,0-3.4,0c-0.7,0-1.4,0.1-2,0.2
				c-2.2,0.6-3.9,2.4-4.5,4.5c-0.3,0.9-0.2,1.8-0.2,2.7c0,1.2,0,2.3,0,3.5c0,1.8-0.1,3.7,0,5.6c0.1,2.2,1.4,4.3,3.4,5.4
				c1,0.5,2.1,0.8,3.2,0.8c1,0,1.9,0,2.9,0c4.4,0,8.8,0,13.2,0c5.1,0,10.1,0,15.2,0c2.5,0,5.1,0,7.6,0c0.1,0,0.3,0,0.4,0
				c-0.6-0.6-1.1-1.1-1.7-1.7c0,0,0,0,0,0c0,0.9,0.8,1.8,1.7,1.7c2.2-0.2,4.2-1.4,5.2-3.4c0.6-1.1,0.7-2.3,0.7-3.5c0-2.3,0-4.7,0-7
				c0-0.7,0-1.3,0-2C62.4,44.7,62.2,43.5,61.6,42.4c-0.4-0.8-1.5-1.1-2.3-0.6c-0.8,0.5-1,1.5-0.6,2.3c0.1,0.1,0.1,0.2,0.2,0.4
				c-0.2-0.4,0,0,0,0.1c0,0.1,0.1,0.3,0.1,0.4c0,0.1,0.1,0.5,0,0.1c0,0.2,0,0.4,0,0.6c0,0.3,0,0.5,0,0.8c0,1.1,0,2.2,0,3.4
				c0,1.9,0,3.8,0,5.6c0,0.2,0,0.4,0,0.6c0.1-0.5,0,0,0,0.1c0,0.1-0.1,0.3-0.1,0.4c0,0.1,0,0.1-0.1,0.2c0.1-0.2,0.1-0.3,0-0.1
				c-0.1,0.1-0.1,0.3-0.2,0.4c-0.1,0.1-0.1,0.2-0.2,0.4c-0.1,0.1-0.1,0.1,0.1-0.1c0,0.1-0.1,0.1-0.1,0.2c-0.2,0.2-0.3,0.3-0.5,0.5
				c0.4-0.3,0,0-0.1,0c-0.1,0.1-0.2,0.1-0.4,0.2c-0.1,0.1-0.6,0.2-0.1,0c-0.1,0.1-0.3,0.1-0.4,0.1c-0.1,0-0.3,0.1-0.4,0.1
				c-0.4,0.1,0.4,0,0,0c0.6,0.6,1.1,1.1,1.7,1.7c0,0,0,0,0,0c0-0.9-0.8-1.8-1.7-1.7c-0.7,0.1-1.5,0-2.2,0c-1.7,0-3.3,0-5,0
				c-5,0-10,0-15,0c-4.5,0-9.1,0-13.6,0c-1.1,0-2.2,0-3.4,0c-0.1,0-0.2,0-0.3,0c0,0,0,0,0,0c-0.1,0-0.2,0-0.3,0c-0.1,0-0.5-0.1,0,0
				c-0.1,0-0.3-0.1-0.4-0.1c-0.1,0-0.8-0.3-0.3-0.1c-0.2-0.1-0.4-0.2-0.6-0.3c-0.1-0.1-0.2-0.1-0.3-0.2c-0.3-0.2,0.3,0.2,0,0
				c-0.2-0.2-0.4-0.3-0.5-0.5c-0.2-0.3,0.2,0.3,0,0c-0.1-0.1-0.1-0.2-0.2-0.3c-0.1-0.2-0.2-0.4-0.3-0.6c0.2,0.5,0-0.2-0.1-0.3
				c0-0.1-0.1-0.2-0.1-0.3c0-0.2,0-0.1,0,0.1c0-0.1,0-0.1,0-0.2c-0.1-0.6,0-1.3,0-1.9c0-1.2,0-2.5,0-3.7c0-1.2,0-2.3,0-3.5
				c0-0.3,0-0.6,0-1c0-0.1,0-0.1,0-0.2c0-0.2,0-0.3,0-0.5c0-0.4-0.1,0.4,0,0c0-0.1,0.1-0.3,0.1-0.4c0-0.1,0.1-0.2,0.1-0.3
				c0.1-0.4-0.2,0.4,0,0c0.1-0.2,0.2-0.4,0.3-0.6c0.1-0.1,0.3-0.4,0,0c0.1-0.1,0.1-0.2,0.2-0.2c0.2-0.2,0.4-0.3,0.5-0.5
				c-0.4,0.3,0.2-0.1,0.3-0.2c0.1-0.1,0.2-0.1,0.3-0.1c0.3-0.2-0.4,0.1,0,0c0.2-0.1,0.4-0.1,0.6-0.2c0.1,0,0.2,0,0.3-0.1
				c-0.5,0.1,0.2,0,0.3,0c0.2,0,0.3,0,0.5,0c1.2,0,2.5,0,3.7,0c4.7,0,9.3,0,14,0c4.9,0,9.8,0,14.8,0c1.5,0,3,0,4.5,0
				c0.7,0,1.5-0.1,2.2,0c0.9,0.1,1.7-0.9,1.7-1.7c0,0,0,0,0,0c-0.6,0.6-1.1,1.1-1.7,1.7c-0.7-0.1-0.1,0,0.1,0c0.2,0,0.3,0.1,0.5,0.1
				c0.1,0,0.1,0.1,0.2,0.1c-0.2-0.1-0.2-0.1-0.1,0c0.2,0.1,0.3,0.2,0.5,0.3c0.1,0,0.1,0.1,0.2,0.1c-0.2-0.1-0.2-0.2-0.1,0
				c0.1,0.1,0.2,0.2,0.3,0.3c0.1,0.1,0.4,0.5,0.1,0.1c0.1,0.2,0.2,0.3,0.3,0.5c0.5,0.8,1.5,1.1,2.3,0.6C61.7,44.3,62,43.2,61.6,42.4
				z"/>
		</g>
	</g>
	<g>
		<g>
			<path class="st0" d="M22.6,50.8C22.6,50.9,22.5,51.4,22.6,50.8c0,0.3-0.1,0.4-0.1,0.6c0.2-0.5,0,0-0.1,0.2
				c-0.1,0.1-0.1,0.1,0.1-0.1c-0.1,0.1-0.1,0.2-0.2,0.2c-0.1,0.1-0.5,0.4-0.1,0.1c-0.1,0.1-0.3,0.2-0.4,0.3c0.5-0.2-0.1,0-0.2,0
				c-0.2,0-0.1,0,0.1,0c-0.1,0-0.2,0-0.3,0c-0.1,0-0.6-0.1-0.1,0c-0.2,0-0.3-0.1-0.5-0.1c0.5,0.2,0,0-0.2-0.1
				c-0.1-0.1-0.1-0.1,0.1,0.1c-0.1-0.1-0.2-0.1-0.2-0.2c-0.1-0.1-0.4-0.5-0.1-0.1c-0.1-0.1-0.2-0.3-0.3-0.4c0.2,0.5,0-0.1,0-0.2
				c0-0.2,0-0.1,0,0.1c0-0.1,0-0.2,0-0.3c0-0.1,0.1-0.6,0-0.1c0-0.2,0.1-0.3,0.1-0.5c-0.2,0.5,0,0,0.1-0.2c0.1-0.1,0.1-0.1-0.1,0.1
				c0.1-0.1,0.1-0.2,0.2-0.2c0.1-0.1,0.5-0.4,0.1-0.1c0.1-0.1,0.3-0.2,0.4-0.3c-0.5,0.2,0.1,0,0.2,0c0.2,0,0.1,0-0.1,0
				c0.1,0,0.2,0,0.3,0c0.1,0,0.6,0.1,0.1,0c0.2,0,0.3,0.1,0.5,0.1c-0.5-0.2,0,0,0.2,0.1c0.1,0.1,0.1,0.1-0.1-0.1
				c0.1,0.1,0.2,0.1,0.2,0.2c0.1,0.1,0.4,0.5,0.1,0.1c0.1,0.1,0.2,0.3,0.3,0.4c-0.2-0.5,0,0.1,0,0.2c0,0.2,0,0.1,0-0.1
				C22.6,50.5,22.6,50.6,22.6,50.8c0,0.9,0.8,1.7,1.7,1.7c0.9,0,1.7-0.8,1.7-1.7c0-2.5-2.1-4.6-4.6-4.6c-2.5,0-4.6,2.1-4.6,4.6
				c0,2.5,2.1,4.6,4.6,4.6c2.5,0,4.6-2.1,4.6-4.6c0-0.9-0.8-1.7-1.7-1.7C23.4,49.1,22.6,49.8,22.6,50.8z"/>
		</g>
	</g>
	<g>
		<g>
			<path class="st0" d="M54.8,60.1C54.8,60.1,54.8,60.1,54.8,60.1c0.6-0.6,1.1-1.1,1.7-1.7c-0.1,0-0.2,0-0.2,0c0,1.1,0,2.2,0,3.4
				c0.1,0,0.2,0,0.2,0c0.1,0,0.3,0,0.4-0.1c0.3-0.1,0.5-0.2,0.7-0.4c0.3-0.3,0.5-0.7,0.5-1.2s-0.2-0.9-0.5-1.2
				c-0.1-0.1-0.2-0.2-0.3-0.3c-0.3-0.2-0.5-0.2-0.8-0.2c-0.1,0-0.2,0-0.2,0c-0.1,0-0.3,0-0.4,0.1c-0.3,0.1-0.5,0.2-0.7,0.4
				c-0.3,0.3-0.5,0.7-0.5,1.2s0.2,0.9,0.5,1.2c0.3,0.3,0.8,0.5,1.2,0.5c0.1,0,0.2,0,0.2,0c0.1,0,0.3,0,0.4-0.1
				c0.3-0.1,0.5-0.2,0.7-0.4c0.3-0.3,0.5-0.7,0.5-1.2c0,0,0,0,0,0c0-0.4-0.2-0.9-0.5-1.2c-0.3-0.3-0.7-0.5-1.2-0.5s-0.9,0.2-1.2,0.5
				C55,59.3,54.8,59.7,54.8,60.1z"/>
		</g>
	</g>
	<g>
		<g>
			<path class="st0" d="M54.9,40.9C54.9,40.9,54.9,40.9,54.9,40.9c0.7-0.5,1.4-1.1,2.1-1.6c-0.2,0-0.4-0.1-0.6-0.1
				c0,1.1,0,2.2,0,3.4c0,0,0.1,0,0.1,0c0.1,0,0.3,0,0.4-0.1c0.3-0.1,0.5-0.2,0.7-0.4c0.3-0.3,0.5-0.7,0.5-1.2s-0.2-0.9-0.5-1.2
				c-0.1-0.1-0.2-0.2-0.3-0.3c-0.3-0.2-0.5-0.2-0.8-0.2c0,0-0.1,0-0.1,0c-0.1,0-0.3,0-0.4,0.1c-0.3,0.1-0.5,0.2-0.7,0.4
				c-0.3,0.3-0.5,0.7-0.5,1.2c0,0.4,0.2,0.9,0.5,1.2c0.1,0.1,0.2,0.2,0.3,0.3c0.3,0.2,0.5,0.2,0.8,0.2c0,0,0,0,0.1,0
				c-0.1,0-0.3,0-0.4-0.1c0,0,0,0,0.1,0c0.1,0,0.3,0,0.4,0.1c0.3,0,0.6-0.1,0.8-0.2c0.5-0.3,0.8-0.9,0.8-1.5c0,0,0,0,0,0
				c0-0.4-0.2-0.9-0.5-1.2c-0.3-0.3-0.7-0.5-1.2-0.5c-0.4,0-0.9,0.2-1.2,0.5C55.1,40.1,54.9,40.5,54.9,40.9z"/>
		</g>
	</g>
	<g>
		<g>
			<path class="st0" d="M54.9,38.2c0,0.9,0,1.8,0,2.8c0.6-0.6,1.1-1.1,1.7-1.7c-0.8-0.1-1.6,0-2.3,0c-1.7,0-3.3,0-5,0
				c-5,0-10,0-15,0c-4.5,0-9.1,0-13.6,0c-0.9,0-1.8,0-2.8,0c-0.5,0-1,0-1.5,0c0.6,0.6,1.1,1.1,1.7,1.7c0-0.9,0-1.8,0-2.7
				c0-0.9,0.1-1.7,0.2-2.6c-0.1,0.5,0-0.2,0.1-0.3c0-0.2,0.1-0.4,0.1-0.6c0.1-0.5,0.2-0.9,0.3-1.4c0.1-0.4,0.2-0.8,0.4-1.2
				c0.1-0.2,0.1-0.4,0.2-0.6c0-0.1,0.1-0.2,0.1-0.3c0-0.1,0.1-0.1,0.1-0.2c-0.1,0.2-0.1,0.3,0,0.1c0.4-0.8,0.8-1.6,1.2-2.4
				c0.2-0.4,0.4-0.7,0.7-1.1c0.1-0.2,0.2-0.3,0.4-0.5c0.1-0.1,0.1-0.2,0.2-0.3c-0.3,0.4,0,0,0.1-0.1c0.5-0.7,1.1-1.3,1.8-1.9
				c0.3-0.3,0.6-0.6,0.9-0.8c0.2-0.1,0.3-0.3,0.5-0.4c0.3-0.2-0.3,0.2,0,0c0.1-0.1,0.2-0.2,0.3-0.3c0.7-0.5,1.5-1,2.2-1.4
				c0.4-0.2,0.8-0.4,1.1-0.6c0.1-0.1,0.8-0.3,0.3-0.1c0.2-0.1,0.5-0.2,0.7-0.3c0.8-0.3,1.7-0.6,2.6-0.8c0.4-0.1,0.9-0.2,1.3-0.2
				c0.1,0,0.2,0,0.3,0c-0.5,0.1-0.1,0,0,0c0.3,0,0.5-0.1,0.8-0.1c1.1-0.1,2.3-0.1,3.4,0c0.3,0,0.5,0.1,0.8,0.1c-0.4-0.1,0,0,0.1,0
				c0.1,0,0.3,0,0.4,0.1c0.6,0.1,1.1,0.2,1.7,0.4c0.5,0.1,1,0.3,1.5,0.5c0.2,0.1,0.5,0.2,0.7,0.3c0.1,0,0.5,0.2,0.1,0
				c0.2,0.1,0.3,0.1,0.5,0.2c0.8,0.4,1.6,0.8,2.3,1.2c0.4,0.2,0.7,0.5,1.1,0.7c0.1,0.1,0.2,0.1,0.2,0.2c0.4,0.3-0.3-0.2,0.1,0.1
				c0.2,0.2,0.4,0.3,0.6,0.5c0.7,0.6,1.4,1.3,2,2c0.1,0.2,0.3,0.3,0.4,0.5c0.1,0.1,0.1,0.1,0.2,0.2c0,0.1,0.3,0.4,0.1,0.1
				c0.3,0.4,0.6,0.8,0.8,1.2c0.5,0.7,0.9,1.5,1.3,2.3c0.1,0.2,0.2,0.4,0.3,0.6c0.1,0.2,0.1,0.2,0,0c0.1,0.1,0.1,0.2,0.1,0.4
				c0.2,0.5,0.3,0.9,0.5,1.4c0.3,0.9,0.5,1.8,0.6,2.7c0,0.1,0,0.2,0,0.3c0.1,0.5,0-0.4,0,0.1c0,0.2,0.1,0.5,0.1,0.7
				C54.9,37.1,54.9,37.6,54.9,38.2c0,0.9,0.8,1.7,1.7,1.7c0.9,0,1.7-0.8,1.7-1.7c0-2.5-0.4-5-1.3-7.3c-0.8-2.3-2-4.3-3.5-6.2
				c-2.9-3.7-7.1-6.4-11.6-7.6C34,15,25.4,17.7,20,23.9c-2.3,2.7-4,5.9-4.8,9.3c-0.6,2.6-0.6,5.1-0.6,7.7c0,0.8,0.8,1.8,1.7,1.7
				c0.8-0.1,1.6,0,2.4,0c1.7,0,3.3,0,5,0c5,0,10,0,15,0c4.5,0,9.1,0,13.6,0c0.9,0,1.8,0,2.8,0c0.5,0,1,0,1.5,0
				c0.9,0.1,1.7-0.8,1.7-1.7c0-0.9,0-1.8,0-2.8c0-0.9-0.8-1.7-1.7-1.7C55.7,36.5,54.9,37.3,54.9,38.2z"/>
		</g>
	</g>
	<g>
		<g>
			<path class="st0" d="M54.9,40.9C54.9,40.9,54.9,40.9,54.9,40.9c0.7-0.5,1.4-1.1,2.1-1.6c-0.2,0-0.4-0.1-0.6-0.1
				c0,1.1,0,2.2,0,3.4c0,0,0.1,0,0.1,0c0.1,0,0.3,0,0.4-0.1c0.3-0.1,0.5-0.2,0.7-0.4c0.3-0.3,0.5-0.7,0.5-1.2s-0.2-0.9-0.5-1.2
				c-0.1-0.1-0.2-0.2-0.3-0.3c-0.3-0.2-0.5-0.2-0.8-0.2c0,0-0.1,0-0.1,0c-0.1,0-0.3,0-0.4,0.1c-0.3,0.1-0.5,0.2-0.7,0.4
				c-0.3,0.3-0.5,0.7-0.5,1.2c0,0.4,0.2,0.9,0.5,1.2c0.1,0.1,0.2,0.2,0.3,0.3c0.3,0.2,0.5,0.2,0.8,0.2c0,0,0,0,0.1,0
				c-0.1,0-0.3,0-0.4-0.1c0,0,0,0,0.1,0c0.1,0,0.3,0,0.4,0.1c0.3,0,0.6-0.1,0.8-0.2c0.5-0.3,0.8-0.9,0.8-1.5c0,0,0,0,0,0
				c0-0.4-0.2-0.9-0.5-1.2c-0.3-0.3-0.7-0.5-1.2-0.5c-0.4,0-0.9,0.2-1.2,0.5C55.1,40.1,54.9,40.5,54.9,40.9z"/>
		</g>
	</g>
	<g>
		<g>
			<path class="st0" d="M21.1,60.2c0,1,0,2,0,3c0,0.2,0,0.3,0,0.5c0,0.1,0,0.1,0,0.2c0,0.1-0.1,0.5,0,0c0,0.1-0.1,0.3-0.1,0.4
				c0,0.1-0.2,0.4,0,0c0,0.1-0.1,0.2-0.1,0.3c-0.1,0.1-0.1,0.2-0.2,0.3c0.3-0.4,0.1-0.1,0,0c-0.1,0.1-0.1,0.1-0.2,0.2
				c-0.3,0.2,0.3-0.2,0,0c-0.1,0.1-0.2,0.1-0.3,0.2c-0.2,0.1-0.1,0.1,0.1,0c-0.1,0-0.1,0-0.2,0.1c-0.1,0-0.2,0.1-0.3,0.1
				c-0.4,0.1,0.4,0,0,0c-0.2,0-0.4,0-0.6,0c0.5,0,0.1,0,0,0c-0.1,0-0.2-0.1-0.3-0.1c-0.4-0.1,0.4,0.2,0,0c-0.1-0.1-0.2-0.1-0.4-0.2
				c-0.3-0.2,0.3,0.2,0,0c-0.1-0.1-0.2-0.1-0.2-0.2c-0.1-0.1-0.3-0.4,0,0c-0.1-0.1-0.1-0.2-0.2-0.3c-0.1-0.1-0.1-0.2-0.1-0.3
				c0.2,0.4,0.1,0.1,0,0c0-0.1-0.1-0.2-0.1-0.3c0.1,0.5,0,0,0-0.1c0-1,0-2,0-3c0-0.2,0-0.4,0-0.6c-0.6,0.6-1.1,1.1-1.7,1.7
				c1,0.1,2.1,0,3.2,0c1.1,0,2.1,0,3.2,0c0.9,0,1.7-0.8,1.7-1.7c0-0.9-0.8-1.7-1.7-1.7c-1,0-2.1,0-3.1,0c-1.1,0-2.2,0.1-3.2,0
				c-0.9-0.1-1.7,0.8-1.7,1.7c0,1,0,2,0,3c0,0.6,0,1.2,0.2,1.8c0.3,1.2,1.1,2.2,2.1,2.8c1.9,1.3,4.7,0.9,6.2-0.8
				c0.8-0.9,1.2-2,1.2-3.2c0-0.4,0-0.8,0-1.2c0-0.8,0-1.6,0-2.3c0-0.9-0.8-1.7-1.7-1.7S21.1,59.2,21.1,60.2z"/>
		</g>
	</g>
	<g>
		<g>
			<path class="st0" d="M54.8,60.1c0,1,0,2,0,3c0,0.2,0,0.3,0,0.5c0,0.1,0,0.1,0,0.2c0,0.1-0.1,0.5,0,0c0,0.1-0.1,0.3-0.1,0.4
				c0,0.1-0.2,0.4,0,0c0,0.1-0.1,0.2-0.1,0.3c-0.1,0.1-0.1,0.2-0.2,0.3c0.3-0.4,0.1-0.1,0,0c-0.1,0.1-0.1,0.1-0.2,0.2
				c-0.3,0.2,0.3-0.2,0,0C54.1,64.9,54,65,53.9,65c-0.2,0.1-0.1,0.1,0.1,0c-0.1,0-0.1,0-0.2,0.1c-0.1,0-0.2,0.1-0.3,0.1
				c-0.4,0.1,0.4,0,0,0c-0.2,0-0.4,0-0.6,0c0.5,0,0.1,0,0,0c-0.1,0-0.2-0.1-0.3-0.1c-0.4-0.1,0.3,0.2,0,0c-0.1-0.1-0.2-0.1-0.4-0.2
				c-0.3-0.2,0.3,0.2,0,0c-0.1-0.1-0.2-0.1-0.2-0.2c-0.1-0.1-0.3-0.4,0,0c-0.1-0.1-0.1-0.2-0.2-0.3c-0.1-0.1-0.1-0.2-0.1-0.3
				c0.2,0.4,0.1,0.1,0,0c0-0.1-0.1-0.2-0.1-0.3c0.1,0.5,0,0,0-0.1c0-1,0-2,0-3c0-0.2,0-0.4,0-0.6c-0.6,0.6-1.1,1.1-1.7,1.7
				c1,0,2.1,0,3.1,0c1.1,0,2.1,0.1,3.2,0c0.9-0.1,1.7-0.7,1.7-1.7c0-0.9-0.8-1.8-1.7-1.7c-1,0.1-2.1,0-3.1,0c-1.1,0-2.1,0-3.2,0
				c-0.9,0-1.7,0.8-1.7,1.7c0,1,0,2,0,3c0,0.6,0,1.2,0.2,1.8c0.3,1.2,1.1,2.2,2.1,2.8c1.9,1.3,4.7,0.9,6.2-0.8
				c0.8-0.9,1.2-2,1.2-3.2c0-0.4,0-0.8,0-1.2c0-0.8,0-1.6,0-2.4c0-0.9-0.8-1.7-1.7-1.7C55.6,58.5,54.8,59.2,54.8,60.1z"/>
		</g>
	</g>
	<g>
		<g>
			<path class="st0" d="M22.6,50.8C22.6,50.9,22.5,51.4,22.6,50.8c0,0.3-0.1,0.4-0.1,0.6c0.2-0.5,0,0-0.1,0.2
				c-0.1,0.1-0.1,0.1,0.1-0.1c-0.1,0.1-0.1,0.2-0.2,0.2c-0.1,0.1-0.5,0.4-0.1,0.1c-0.1,0.1-0.3,0.2-0.4,0.3c0.5-0.2-0.1,0-0.2,0
				c-0.2,0-0.1,0,0.1,0c-0.1,0-0.2,0-0.3,0c-0.1,0-0.6-0.1-0.1,0c-0.2,0-0.3-0.1-0.5-0.1c0.5,0.2,0,0-0.2-0.1
				c-0.1-0.1-0.1-0.1,0.1,0.1c-0.1-0.1-0.2-0.1-0.2-0.2c-0.1-0.1-0.4-0.5-0.1-0.1c-0.1-0.1-0.2-0.3-0.3-0.4c0.2,0.5,0-0.1,0-0.2
				c0-0.2,0-0.1,0,0.1c0-0.1,0-0.2,0-0.3c0-0.1,0.1-0.6,0-0.1c0-0.2,0.1-0.3,0.1-0.5c-0.2,0.5,0,0,0.1-0.2c0.1-0.1,0.1-0.1-0.1,0.1
				c0.1-0.1,0.1-0.2,0.2-0.2c0.1-0.1,0.5-0.4,0.1-0.1c0.1-0.1,0.3-0.2,0.4-0.3c-0.5,0.2,0.1,0,0.2,0c0.2,0,0.1,0-0.1,0
				c0.1,0,0.2,0,0.3,0c0.1,0,0.6,0.1,0.1,0c0.2,0,0.3,0.1,0.5,0.1c-0.5-0.2,0,0,0.2,0.1c0.1,0.1,0.1,0.1-0.1-0.1
				c0.1,0.1,0.2,0.1,0.2,0.2c0.1,0.1,0.4,0.5,0.1,0.1c0.1,0.1,0.2,0.3,0.3,0.4c-0.2-0.5,0,0.1,0,0.2c0,0.2,0,0.1,0-0.1
				C22.6,50.5,22.6,50.6,22.6,50.8c0,0.9,0.8,1.7,1.7,1.7c0.9,0,1.7-0.8,1.7-1.7c0-2.5-2.1-4.6-4.6-4.6c-2.5,0-4.6,2.1-4.6,4.6
				c0,2.5,2.1,4.6,4.6,4.6c2.5,0,4.6-2.1,4.6-4.6c0-0.9-0.8-1.7-1.7-1.7C23.4,49.1,22.6,49.8,22.6,50.8z"/>
		</g>
	</g>
	<g>
		<g>
			<path class="st0" d="M30.2,51.9c3.9,0,7.8,0,11.7,0c0.2,0,0.5,0,0.7,0c0.9,0,1.7-0.8,1.7-1.7s-0.8-1.7-1.7-1.7
				c-3.9,0-7.8,0-11.7,0c-0.2,0-0.5,0-0.7,0c-0.9,0-1.7,0.8-1.7,1.7S29.3,51.9,30.2,51.9L30.2,51.9z"/>
		</g>
	</g>
	<g>
		<g>
			<path class="st0" d="M53,50.8c0,0.1,0,0.2,0,0.3c0-0.2,0-0.2,0,0c0,0.1-0.2,0.6,0,0.2c-0.1,0.1-0.1,0.3-0.2,0.4
				c-0.1,0.1-0.1,0.1,0.1-0.1c-0.1,0.1-0.1,0.2-0.2,0.2c-0.1,0-0.1,0.1-0.2,0.1c0.2-0.1,0.2-0.2,0.1-0.1c-0.1,0.1-0.7,0.3-0.2,0.1
				C52.1,52,52,52,51.8,52c-0.2,0-0.1,0,0.1,0c-0.1,0-0.3,0-0.4,0c-0.2,0-0.2,0,0,0c-0.1,0-0.2,0-0.2-0.1c-0.1,0-0.1,0-0.2-0.1
				c0.4,0.1,0.1,0,0,0c-0.1-0.1-0.5-0.4-0.1-0.1c-0.1-0.1-0.5-0.5-0.2-0.2c-0.1-0.1-0.2-0.3-0.2-0.4c-0.1-0.2-0.1-0.1,0,0.1
				c0-0.1-0.1-0.2-0.1-0.4c0-0.2,0-0.2,0,0c0-0.1,0-0.2,0-0.3c0-0.1,0-0.1,0-0.2c0-0.4-0.1,0.4,0,0c0-0.1,0.1-0.3,0.1-0.4
				c-0.2,0.5,0,0,0.1-0.1c0-0.1,0.1-0.1,0.1-0.2c-0.2,0.2-0.2,0.2-0.1,0.1c0.1-0.1,0.2-0.2,0.4-0.4c-0.4,0.3,0,0,0.1,0
				c0.1,0,0.1-0.1,0.2-0.1c-0.4,0.2-0.1,0.1,0,0c0.1,0,0.6-0.1,0.1,0c0.2,0,0.4,0,0.5,0c0.2,0,0.1,0-0.1,0c0.1,0,0.1,0,0.2,0
				c0.1,0,0.1,0,0.2,0.1c0.4,0.1-0.4-0.2,0,0c0.1,0.1,0.2,0.1,0.4,0.2c-0.4-0.3,0,0,0.1,0.1c0,0,0.1,0.1,0.1,0.2
				c-0.2-0.2-0.2-0.2-0.1-0.1c0.1,0.1,0.3,0.6,0.1,0.2c0.1,0.1,0.1,0.3,0.1,0.4c0,0.2,0,0.1,0-0.1C52.9,50.5,52.9,50.6,53,50.8
				c0,0.9,0.8,1.7,1.7,1.7c0.9,0,1.7-0.8,1.7-1.7c0-1.2-0.5-2.2-1.2-3.1c-0.8-0.9-1.9-1.3-3.1-1.5c-2.2-0.3-4.5,1.5-4.9,3.7
				c-0.2,1.2,0,2.6,0.8,3.6c0.9,1.2,2,1.7,3.5,1.9c1.3,0.2,2.5-0.4,3.4-1.2c1-0.8,1.5-2.1,1.5-3.4c0-0.9-0.8-1.7-1.7-1.7
				C53.7,49.1,53,49.8,53,50.8z"/>
		</g>
	</g>
	<g>
		<g>
			<path class="st0" d="M54.9,40.9C54.9,40.9,54.9,40.9,54.9,40.9c0.7-0.5,1.4-1.1,2.1-1.6c-0.2,0-0.4-0.1-0.6-0.1
				c0,1.1,0,2.2,0,3.4c0,0,0.1,0,0.1,0c0.1,0,0.3,0,0.4-0.1c0.3-0.1,0.5-0.2,0.7-0.4c0.3-0.3,0.5-0.7,0.5-1.2s-0.2-0.9-0.5-1.2
				c-0.1-0.1-0.2-0.2-0.3-0.3c-0.3-0.2-0.5-0.2-0.8-0.2c0,0-0.1,0-0.1,0c-0.1,0-0.3,0-0.4,0.1c-0.3,0.1-0.5,0.2-0.7,0.4
				c-0.3,0.3-0.5,0.7-0.5,1.2c0,0.4,0.2,0.9,0.5,1.2c0.1,0.1,0.2,0.2,0.3,0.3c0.3,0.2,0.5,0.2,0.8,0.2c0,0,0,0,0.1,0
				c-0.1,0-0.3,0-0.4-0.1c0,0,0,0,0.1,0c0.1,0,0.3,0,0.4,0.1c0.3,0,0.6-0.1,0.8-0.2c0.5-0.3,0.8-0.9,0.8-1.5c0,0,0,0,0,0
				c0-0.4-0.2-0.9-0.5-1.2c-0.3-0.3-0.7-0.5-1.2-0.5c-0.4,0-0.9,0.2-1.2,0.5C55.1,40.1,54.9,40.5,54.9,40.9z"/>
		</g>
	</g>
	<g>
		<g>
			<path class="st0" d="M76,44.6c-0.1,0-0.1,0-0.2,0C76,44.6,76.1,44.6,76,44.6c-0.2,0-0.7-0.2-0.2,0c-0.1-0.1-0.2-0.1-0.4-0.2
				c-0.1-0.1-0.1-0.1,0.1,0.1c-0.1,0-0.1-0.1-0.2-0.1c0,0-0.1-0.1-0.1-0.2c0.2,0.2,0.2,0.2,0.1,0.1c-0.1-0.1-0.1-0.2-0.2-0.4
				c0.2,0.5,0,0,0-0.1c0-0.2,0-0.1,0,0.1c0-0.1,0-0.1,0-0.2c0-0.1,0-0.1,0-0.2c0,0.3,0,0.3,0,0.1c0-0.1,0.2-0.6,0-0.1
				c0.1-0.1,0.1-0.2,0.2-0.4c0.1-0.1,0.1-0.1-0.1,0.1c0-0.1,0.1-0.1,0.1-0.2c0,0,0.1-0.1,0.2-0.1c-0.2,0.2-0.2,0.2-0.1,0.1
				c0.1-0.1,0.2-0.1,0.4-0.2c-0.5,0.2,0,0,0.1,0c0.2,0,0.1,0-0.1,0c0.1,0,0.1,0,0.2,0c0.1,0,0.1,0,0.2,0c-0.3,0-0.3,0-0.1,0
				c0.1,0,0.6,0.2,0.1,0c0.1,0.1,0.2,0.1,0.4,0.2c0.1,0.1,0.1,0.1-0.1-0.1c0.1,0,0.1,0.1,0.2,0.1c0,0,0.1,0.1,0.1,0.2
				c-0.2-0.2-0.2-0.2-0.1-0.1c0.1,0.1,0.1,0.2,0.2,0.4c-0.2-0.5,0,0,0,0.1c0,0.2,0,0.1,0-0.1c0,0.1,0,0.1,0,0.2c0,0.1,0,0.1,0,0.2
				c0-0.3,0-0.3,0-0.1c0,0.1-0.2,0.6,0,0.1c-0.1,0.1-0.1,0.2-0.2,0.4c-0.1,0.1-0.1,0.1,0.1-0.1c0,0.1-0.1,0.1-0.1,0.2
				c0,0-0.1,0.1-0.2,0.1c0.2-0.2,0.2-0.2,0.1-0.1c-0.1,0.1-0.2,0.1-0.4,0.2C76.6,44.4,76.2,44.5,76,44.6c-0.1,0,0,0,0.2,0
				C76.1,44.6,76.1,44.6,76,44.6c-0.9,0-1.7,0.7-1.7,1.7c0,0.9,0.8,1.7,1.7,1.7c2.3,0,4.2-1.9,4.2-4.2s-2-4.2-4.2-4.2
				c-2.3,0-4.2,2-4.2,4.2c0,2.3,2,4.2,4.2,4.2c0.9,0,1.7-0.8,1.7-1.7C77.7,45.3,76.9,44.6,76,44.6z"/>
			<path class="st0" d="M80.7,33.6C80.7,33.6,80.7,33.6,80.7,33.6c-0.5-0.1-0.9-0.1-1.3,0.2c-0.5,0.3-0.8,0.9-0.8,1.5c0,0,0,0,0,0
				c0.6-0.6,1.1-1.1,1.7-1.7c-0.4-0.1-0.8,0-1.1,0c-0.7,0-1.4,0-2.1,0c-2.3,0-4.6,0-6.9,0c-4.3,0-8.6,0-13,0c-0.2,0-0.4,0-0.7,0
				c-0.4,0-0.9,0.2-1.2,0.5c-0.5,0.5-0.5,1-0.4,1.6c0,0.2,0,0.2,0,0c0,0.1,0,0.2,0,0.3c0,0.2,0,0.4,0.1,0.6c0,0.4,0.1,0.9,0.1,1.4
				c0,0.3,0,0.6,0,0.9c0,0.7,0,1.4,0,2.1c0,1,0.8,1.6,1.7,1.7c-0.7-0.1,0,0,0.2,0.1c0.2,0,0.4,0.1,0.6,0.2c-0.4-0.2,0.1,0.1,0.2,0.1
				c0.1,0.1,0.6,0.4,0.2,0.1c0.2,0.1,0.3,0.3,0.4,0.4c0.1,0.1,0.1,0.1,0.2,0.2c0.3,0.3-0.2-0.3,0,0c0.1,0.2,0.2,0.3,0.3,0.5
				c0,0.1,0.2,0.5,0.1,0.1c0.1,0.1,0.1,0.3,0.1,0.4c0,0.1,0,0.2,0.1,0.3c0,0.1,0.1,0.5,0,0.1c0,0.2,0,0.4,0,0.6c0,0.1,0,0.1,0,0.2
				c0,0.3,0,0.7,0,1c0,1.7,0,3.3,0,5c0,0.9,0.8,1.7,1.7,1.7c3.7,0,7.5,0,11.2,0c1.9,0,3.7,0,5.6,0c0.8,0,1.7,0.1,2.6,0
				c-0.6-0.6-1.1-1.1-1.7-1.7c0,0,0,0,0,0c0,0.9,0.8,1.8,1.7,1.7c2.4-0.2,4.3-1.7,5.1-4c0.3-0.9,0.3-1.9,0.3-2.9c0-2.3,0-4.6,0-6.9
				c0-1.1-0.2-2.1-0.6-3C84.1,35.1,82.4,33.9,80.7,33.6c-0.9-0.1-1.8,0.2-2.1,1.2c-0.2,0.8,0.3,1.9,1.2,2.1c0.2,0,0.4,0.1,0.6,0.1
				c0.1,0,0.2,0.1,0.3,0.1c-0.4-0.2-0.1,0,0,0c0.2,0.1,0.4,0.2,0.5,0.3c-0.4-0.3-0.1-0.1,0,0c0.1,0.1,0.2,0.2,0.3,0.3
				c0.1,0.1,0.3,0.4,0,0c0.1,0.1,0.1,0.2,0.2,0.3c0.1,0.1,0.1,0.2,0.2,0.3c0.2,0.3-0.1-0.4,0,0c0.1,0.2,0.1,0.4,0.2,0.6
				c0.1,0.4,0-0.4,0,0c0,0.1,0,0.2,0,0.3c0,0.7,0,1.4,0,2c0,2.1,0,4.3,0,6.4c0,0,0,0,0,0.1c0,0.1,0,0.2,0,0.2c0,0.1,0,0.1,0,0.2
				c0-0.3,0-0.3,0-0.1c0,0.2-0.1,0.5-0.2,0.7c0.2-0.5,0,0-0.1,0.1c-0.1,0.1-0.1,0.2-0.2,0.4c-0.2,0.3,0.2-0.3,0,0
				c-0.1,0.1-0.2,0.2-0.3,0.3c-0.1,0.1-0.5,0.4-0.1,0.1c-0.1,0.1-0.2,0.2-0.4,0.2c-0.1,0.1-0.2,0.1-0.3,0.1c-0.2,0.1-0.1,0.1,0.1,0
				c-0.1,0-0.1,0-0.2,0.1c-0.1,0-0.3,0.1-0.4,0.1c-0.4,0.1,0.4,0,0,0c0.6,0.6,1.1,1.1,1.7,1.7c0,0,0,0,0,0c0-0.9-0.8-1.8-1.7-1.7
				c-1.2,0.1-2.5,0-3.7,0c-2.5,0-5,0-7.5,0c-2.7,0-5.5,0-8.2,0c0.6,0.6,1.1,1.1,1.7,1.7c0-1.8,0-3.5,0-5.3c0-0.3,0-0.6,0-0.8
				c0-1-0.3-2-0.7-2.9c-0.9-2-3-3.3-5.1-3.5c0.6,0.6,1.1,1.1,1.7,1.7c0-2.1,0-4.1-0.3-6.2c-0.5,0.7-1.1,1.4-1.6,2.1
				c3.4,0,6.8,0,10.1,0c4.2,0,8.5,0,12.7,0c0.3,0,0.7,0,1,0c0.9,0.1,1.7-0.9,1.7-1.7c0,0,0,0,0,0c-0.7,0.5-1.4,1.1-2.1,1.6
				c0,0,0,0,0,0c0.5,0.1,0.9,0.1,1.3-0.2c0.4-0.2,0.7-0.6,0.8-1C82.1,34.9,81.6,33.8,80.7,33.6z"/>
		</g>
	</g>
	<g>
		<g>
			<path class="st0" d="M76.8,43.7c0,0.1,0,0.1,0,0.2C76.9,43.7,76.9,43.6,76.8,43.7c0,0.2-0.2,0.7,0,0.2c-0.1,0.1-0.1,0.2-0.2,0.4
				c-0.1,0.1-0.1,0.1,0.1-0.1c0,0.1-0.1,0.1-0.1,0.2c0,0-0.1,0.1-0.2,0.1c0.2-0.2,0.2-0.2,0.1-0.1c-0.1,0.1-0.2,0.1-0.4,0.2
				c0.5-0.2,0,0-0.1,0c-0.2,0-0.1,0,0.1,0c-0.1,0-0.1,0-0.2,0c-0.1,0-0.1,0-0.2,0c0.3,0,0.3,0,0.1,0c-0.1,0-0.6-0.2-0.1,0
				c-0.1-0.1-0.2-0.1-0.4-0.2c-0.1-0.1-0.1-0.1,0.1,0.1c-0.1,0-0.1-0.1-0.2-0.1c0,0-0.1-0.1-0.1-0.2c0.2,0.2,0.2,0.2,0.1,0.1
				c-0.1-0.1-0.1-0.2-0.2-0.4c0.2,0.5,0,0,0-0.1c0-0.2,0-0.1,0,0.1c0-0.1,0-0.1,0-0.2c0-0.1,0-0.1,0-0.2c0,0.3,0,0.3,0,0.1
				c0-0.1,0.2-0.6,0-0.1c0.1-0.1,0.1-0.2,0.2-0.4c0.1-0.1,0.1-0.1-0.1,0.1c0-0.1,0.1-0.1,0.1-0.2c0,0,0.1-0.1,0.2-0.1
				c-0.2,0.2-0.2,0.2-0.1,0.1c0.1-0.1,0.2-0.1,0.4-0.2c-0.5,0.2,0,0,0.1,0c0.2,0,0.1,0-0.1,0c0.1,0,0.1,0,0.2,0c0.1,0,0.1,0,0.2,0
				c-0.3,0-0.3,0-0.1,0c0.1,0,0.6,0.2,0.1,0c0.1,0.1,0.2,0.1,0.4,0.2c0.1,0.1,0.1,0.1-0.1-0.1c0.1,0,0.1,0.1,0.2,0.1
				c0,0,0.1,0.1,0.1,0.2c-0.2-0.2-0.2-0.2-0.1-0.1c0.1,0.1,0.1,0.2,0.2,0.4C76.6,43.1,76.8,43.5,76.8,43.7c0,0.1,0,0,0-0.2
				C76.8,43.6,76.8,43.6,76.8,43.7c0,0.9,0.7,1.7,1.7,1.7c0.9,0,1.7-0.8,1.7-1.7c0-2.3-1.9-4.2-4.2-4.2c-2.3,0-4.2,2-4.2,4.2
				c0,2.3,2,4.2,4.2,4.2c2.3,0,4.2-2,4.2-4.2c0-0.9-0.8-1.7-1.7-1.7C77.6,42,76.9,42.8,76.8,43.7z"/>
		</g>
	</g>
	<g>
		<g>
			<path class="st0" d="M78.4,51.8C78.4,51.8,78.4,51.8,78.4,51.8c0.6-0.6,1.1-1.1,1.7-1.7c0,0-0.1,0-0.1,0c0,1.1,0,2.2,0,3.4
				c0,0,0.1,0,0.1,0c0.1,0,0.3,0,0.4-0.1c0.3-0.1,0.5-0.2,0.7-0.4c0.3-0.3,0.5-0.7,0.5-1.2s-0.2-0.9-0.5-1.2
				c-0.1-0.1-0.2-0.2-0.3-0.3c-0.3-0.2-0.5-0.2-0.8-0.2c0,0-0.1,0-0.1,0c-0.1,0-0.3,0-0.4,0.1c-0.3,0.1-0.5,0.2-0.7,0.4
				c-0.3,0.3-0.5,0.7-0.5,1.2s0.2,0.9,0.5,1.2c0.1,0.1,0.2,0.2,0.3,0.3c0.3,0.2,0.5,0.2,0.8,0.2c0,0,0.1,0,0.1,0
				c0.1,0,0.3,0,0.4-0.1c0.3-0.1,0.5-0.2,0.7-0.4c0.3-0.3,0.5-0.7,0.5-1.2c0,0,0,0,0,0c0-0.4-0.2-0.9-0.5-1.2
				c-0.3-0.3-0.7-0.5-1.2-0.5c-0.4,0-0.9,0.2-1.2,0.5C78.6,50.9,78.4,51.3,78.4,51.8z"/>
		</g>
	</g>
	<g>
		<g>
			<path class="st0" d="M78.5,35.3C78.5,35.3,78.5,35.3,78.5,35.3c0.7-0.5,1.4-1.1,2.1-1.6c-0.2,0-0.4-0.1-0.5-0.1
				c0,1.1,0,2.2,0,3.4c0,0,0.1,0,0.1,0c0.1,0,0.3,0,0.4-0.1c0.3-0.1,0.5-0.2,0.7-0.4c0.3-0.3,0.5-0.7,0.5-1.2c0-0.4-0.2-0.9-0.5-1.2
				c-0.1-0.1-0.2-0.2-0.3-0.3c-0.3-0.2-0.5-0.2-0.8-0.2c0,0-0.1,0-0.1,0c-0.1,0-0.3,0-0.4,0.1c-0.3,0.1-0.5,0.2-0.7,0.4
				c-0.3,0.3-0.5,0.7-0.5,1.2c0,0.4,0.2,0.9,0.5,1.2c0.1,0.1,0.2,0.2,0.3,0.3c0.3,0.2,0.5,0.2,0.8,0.2c0,0,0,0,0.1,0
				c-0.1,0-0.3,0-0.4-0.1c0,0,0,0,0,0c0.1,0,0.3,0,0.4,0.1c0.3,0,0.6-0.1,0.8-0.2c0.5-0.3,0.8-0.9,0.8-1.5c0,0,0,0,0,0
				c0-0.4-0.2-0.9-0.5-1.2c-0.3-0.3-0.7-0.5-1.2-0.5c-0.4,0-0.9,0.2-1.2,0.5C78.7,34.4,78.5,34.8,78.5,35.3z"/>
		</g>
	</g>
	<g>
		<g>
			<path class="st0" d="M76.3,19.4c-3.2-3.2-7.5-5.1-12-5.5c-4.9-0.4-9.7,1.2-13.5,4.2c-1.3,1-2.3,2.2-3.3,3.4
				c-0.4,0.5-0.3,1.6,0.3,2c1,0.8,1.9,1.7,2.8,2.7c0.2,0.2,0.3,0.4,0.5,0.6c0.3,0.3-0.2-0.3,0.1,0.1c0.1,0.1,0.2,0.3,0.3,0.4
				c0.4,0.5,0.7,1,1,1.5c0.3,0.5,0.5,1,0.8,1.5c0.1,0.1,0.1,0.2,0.2,0.4c0,0.1,0.1,0.2,0.1,0.2c-0.1-0.2-0.1-0.2,0,0
				c0.1,0.3,0.2,0.6,0.3,0.9c0.4,1.2,0.7,2.5,0.9,3.8c0.1,0.7,0.9,1.2,1.6,1.2c3.4,0,6.8,0,10.1,0c4.2,0,8.5,0,12.7,0
				c0.3,0,0.7,0,1,0c0.9,0.1,1.7-0.8,1.7-1.7c0-2.3,0-4.6-0.5-6.9C80.6,25,78.8,21.9,76.3,19.4c-0.6-0.6-1.7-0.6-2.4,0
				c-0.6,0.6-0.6,1.7,0,2.4c0.3,0.3,0.5,0.5,0.8,0.8c0.1,0.1,0.2,0.2,0.3,0.4c0.1,0.1,0.5,0.6,0.2,0.2c0.5,0.6,0.9,1.3,1.3,2
				c0.2,0.3,0.4,0.7,0.5,1c0.1,0.2,0.2,0.4,0.3,0.6c0.1,0.2,0.1,0.2,0-0.1c0,0.1,0.1,0.2,0.1,0.3c0.3,0.7,0.5,1.5,0.7,2.3
				c0.1,0.4,0.2,0.8,0.2,1.1c0,0.1,0.1,0.7,0,0.2c0,0.2,0,0.4,0.1,0.6c0.1,0.6,0.1,1.2,0.1,1.7c0,0.7,0,1.5,0,2.2
				c0.6-0.6,1.1-1.1,1.7-1.7c-1.1-0.1-2.2,0-3.3,0c-2.3,0-4.6,0-6.9,0c-4.3,0-8.6,0-13,0c-0.2,0-0.4,0-0.7,0
				c0.5,0.4,1.1,0.8,1.6,1.2c-0.8-5.3-3.6-10.2-7.8-13.5c0.1,0.7,0.2,1.4,0.3,2c-0.2,0.3,0,0,0.1-0.1c0.1-0.1,0.2-0.2,0.2-0.3
				c0.2-0.2,0.3-0.4,0.5-0.6c0.4-0.4,0.8-0.8,1.2-1.2c0.2-0.2,0.4-0.3,0.6-0.5c0.1-0.1,0.2-0.2,0.3-0.2c-0.3,0.3,0,0,0.1,0
				c0.4-0.3,0.9-0.6,1.4-0.9c0.4-0.3,0.9-0.5,1.3-0.7c0.2-0.1,0.5-0.2,0.7-0.3c-0.4,0.2,0,0,0.1,0c0.2-0.1,0.3-0.1,0.5-0.2
				c1.1-0.4,2.2-0.7,3.4-0.9c0.5-0.1-0.3,0,0.1,0c0.2,0,0.3,0,0.5,0c0.3,0,0.6,0,0.9-0.1c0.6,0,1.2,0,1.8,0c0.3,0,0.5,0,0.8,0.1
				c0.1,0,0.5,0.1,0.1,0c0.1,0,0.3,0,0.4,0.1c0.5,0.1,1.1,0.2,1.6,0.4c0.5,0.1,1,0.3,1.4,0.5c0.2,0.1,0.5,0.2,0.7,0.3
				c-0.4-0.2,0,0,0.1,0c0.2,0.1,0.3,0.1,0.5,0.2c0.9,0.4,1.8,1,2.7,1.6c0.1,0,0.1,0.1,0.2,0.1c0.3,0.3-0.3-0.2,0.1,0
				c0.2,0.1,0.3,0.3,0.5,0.4c0.3,0.3,0.7,0.6,1,0.9c0.6,0.6,1.7,0.6,2.4,0C77,21.2,77,20.1,76.3,19.4z"/>
		</g>
	</g>
	<g>
		<g>
			<path class="st0" d="M78.5,35.3C78.5,35.3,78.5,35.3,78.5,35.3c0.7-0.5,1.4-1.1,2.1-1.6c-0.2,0-0.4-0.1-0.5-0.1
				c0,1.1,0,2.2,0,3.4c0,0,0.1,0,0.1,0c0.1,0,0.3,0,0.4-0.1c0.3-0.1,0.5-0.2,0.7-0.4c0.3-0.3,0.5-0.7,0.5-1.2c0-0.4-0.2-0.9-0.5-1.2
				c-0.1-0.1-0.2-0.2-0.3-0.3c-0.3-0.2-0.5-0.2-0.8-0.2c0,0-0.1,0-0.1,0c-0.1,0-0.3,0-0.4,0.1c-0.3,0.1-0.5,0.2-0.7,0.4
				c-0.3,0.3-0.5,0.7-0.5,1.2c0,0.4,0.2,0.9,0.5,1.2c0.1,0.1,0.2,0.2,0.3,0.3c0.3,0.2,0.5,0.2,0.8,0.2c0,0,0,0,0.1,0
				c-0.1,0-0.3,0-0.4-0.1c0,0,0,0,0,0c0.1,0,0.3,0,0.4,0.1c0.3,0,0.6-0.1,0.8-0.2c0.5-0.3,0.8-0.9,0.8-1.5c0,0,0,0,0,0
				c0-0.4-0.2-0.9-0.5-1.2c-0.3-0.3-0.7-0.5-1.2-0.5c-0.4,0-0.9,0.2-1.2,0.5C78.7,34.4,78.5,34.8,78.5,35.3z"/>
		</g>
	</g>
	<g>
		<g>
			<path class="st0" d="M78.4,51.8c0,0.9,0,1.8,0,2.7c0,0.1,0,0.2,0,0.3c0,0.1,0,0.1,0,0.2c0-0.5,0-0.1,0,0c0,0.1-0.1,0.2-0.1,0.3
				c0.2-0.4,0.1-0.1,0,0c0,0.1-0.1,0.1-0.1,0.2c-0.2,0.3,0.3-0.3,0,0c-0.1,0.1-0.1,0.1-0.2,0.2c-0.3,0.2,0.3-0.2,0,0
				c-0.1,0.1-0.2,0.1-0.3,0.2c0.4-0.2,0.1-0.1,0,0c-0.1,0-0.2,0.1-0.3,0.1c0.5-0.1,0.1,0,0,0c0,0-0.1,0-0.1,0c-0.4,0,0.4,0.1,0,0
				c-0.1,0-0.2-0.1-0.3-0.1c-0.4-0.1,0.3,0.2,0,0c-0.1,0-0.2-0.1-0.3-0.2c-0.3-0.2,0.3,0.2,0,0c-0.1-0.1-0.2-0.1-0.2-0.2
				c-0.3-0.3,0.2,0.3,0,0c0-0.1-0.1-0.1-0.1-0.2c-0.2-0.3,0.1,0.4,0,0c0-0.1-0.1-0.2-0.1-0.3c-0.1-0.4,0,0.4,0,0c0-0.1,0-0.3,0-0.4
				c0-0.9,0-1.8,0-2.7c-0.6,0.6-1.1,1.1-1.7,1.7c0.9,0,1.8,0,2.7,0c0.9,0,1.8,0.1,2.7,0c0.9-0.1,1.7-0.7,1.7-1.7
				c0-0.9-0.8-1.8-1.7-1.7c-0.9,0.1-1.8,0-2.6,0c-0.9,0-1.9,0-2.8,0c-0.9,0-1.7,0.8-1.7,1.7c0,1,0,1.9,0,2.9c0,2.4,1.8,4.3,4.1,4.5
				c2.6,0.3,4.7-1.9,4.7-4.4c0-1,0-1.9,0-2.9c0-0.1,0-0.1,0-0.2c0-0.9-0.8-1.7-1.7-1.7C79.2,50.1,78.4,50.9,78.4,51.8z"/>
		</g>
	</g>
	<g>
		<g>
			<path class="st0" d="M76.8,43.7c0,0.1,0,0.1,0,0.2C76.9,43.7,76.9,43.6,76.8,43.7c0,0.2-0.2,0.7,0,0.2c-0.1,0.1-0.1,0.2-0.2,0.4
				c-0.1,0.1-0.1,0.1,0.1-0.1c0,0.1-0.1,0.1-0.1,0.2c0,0-0.1,0.1-0.2,0.1c0.2-0.2,0.2-0.2,0.1-0.1c-0.1,0.1-0.2,0.1-0.4,0.2
				c0.5-0.2,0,0-0.1,0c-0.2,0-0.1,0,0.1,0c-0.1,0-0.1,0-0.2,0c-0.1,0-0.1,0-0.2,0c0.3,0,0.3,0,0.1,0c-0.1,0-0.6-0.2-0.1,0
				c-0.1-0.1-0.2-0.1-0.4-0.2c-0.1-0.1-0.1-0.1,0.1,0.1c-0.1,0-0.1-0.1-0.2-0.1c0,0-0.1-0.1-0.1-0.2c0.2,0.2,0.2,0.2,0.1,0.1
				c-0.1-0.1-0.1-0.2-0.2-0.4c0.2,0.5,0,0,0-0.1c0-0.2,0-0.1,0,0.1c0-0.1,0-0.1,0-0.2c0-0.1,0-0.1,0-0.2c0,0.3,0,0.3,0,0.1
				c0-0.1,0.2-0.6,0-0.1c0.1-0.1,0.1-0.2,0.2-0.4c0.1-0.1,0.1-0.1-0.1,0.1c0-0.1,0.1-0.1,0.1-0.2c0,0,0.1-0.1,0.2-0.1
				c-0.2,0.2-0.2,0.2-0.1,0.1c0.1-0.1,0.2-0.1,0.4-0.2c-0.5,0.2,0,0,0.1,0c0.2,0,0.1,0-0.1,0c0.1,0,0.1,0,0.2,0c0.1,0,0.1,0,0.2,0
				c-0.3,0-0.3,0-0.1,0c0.1,0,0.6,0.2,0.1,0c0.1,0.1,0.2,0.1,0.4,0.2c0.1,0.1,0.1,0.1-0.1-0.1c0.1,0,0.1,0.1,0.2,0.1
				c0,0,0.1,0.1,0.1,0.2c-0.2-0.2-0.2-0.2-0.1-0.1c0.1,0.1,0.1,0.2,0.2,0.4C76.6,43.1,76.8,43.5,76.8,43.7c0,0.1,0,0,0-0.2
				C76.8,43.6,76.8,43.6,76.8,43.7c0,0.9,0.7,1.7,1.7,1.7c0.9,0,1.7-0.8,1.7-1.7c0-2.3-1.9-4.2-4.2-4.2c-2.3,0-4.2,2-4.2,4.2
				c0,2.3,2,4.2,4.2,4.2c2.3,0,4.2-2,4.2-4.2c0-0.9-0.8-1.7-1.7-1.7C77.6,42,76.9,42.8,76.8,43.7z"/>
		</g>
	</g>
	<g>
		<g>
			<path class="st0" d="M60.8,44.9c2.5,0,5,0,7.5,0c0.9,0,1.7-0.8,1.7-1.7c0-0.9-0.8-1.7-1.7-1.7c-2.5,0-5,0-7.5,0
				c-0.9,0-1.7,0.8-1.7,1.7C59.1,44.2,59.9,44.9,60.8,44.9L60.8,44.9z"/>
		</g>
	</g>
	<g>
		<g>
			<path class="st0" d="M48.3,20.6c-0.3,0.3-0.5,0.6-0.8,1c0.9-0.1,1.8-0.2,2.6-0.3c-0.4-0.3-0.8-0.6-1.2-0.9
				c-0.3,1-0.6,2.1-0.8,3.1c0.4,0,0.9,0,1.3,0c0.9,0,1.7-0.8,1.7-1.7c0-0.9-0.8-1.7-1.7-1.7c-0.4,0-0.9,0-1.3,0
				c-0.7,0-1.4,0.5-1.6,1.2c-0.2,0.8,0.2,1.5,0.8,1.9c0.2,0.1,0.4,0.3,0.6,0.4c-0.1-0.1-0.2-0.2-0.3-0.3c0.1,0.1,0.1,0.1,0.2,0.2
				c0.4,0.3,0.7,0.5,1.2,0.5c0.6,0,1.1-0.3,1.5-0.8c0-0.1,0.1-0.1,0.1-0.2c-0.1,0.1-0.2,0.2-0.3,0.3c0.1-0.2,0.2-0.3,0.4-0.5
				c0.3-0.4,0.5-0.7,0.5-1.2c0-0.4-0.2-0.9-0.5-1.2C50.1,20,48.9,19.9,48.3,20.6z"/>
		</g>
	</g>
	<g>
		<g>
			<path class="st0" d="M58,14.5c-3.7,1-7.2,3.2-9.6,6.1c0.4-0.2,0.8-0.3,1.2-0.5c-0.4,0-0.9,0-1.3,0c0.3,0.1,0.6,0.2,0.8,0.2
				c-4-2.9-9-4.2-13.9-4c0.5,0.7,1.1,1.4,1.6,2.1c0.1-0.4,0.2-0.9,0.3-1.3c0.1-0.2,0.1-0.4,0.2-0.6c0-0.1,0.1-0.2,0.1-0.3
				c0-0.1,0.1-0.1,0.1-0.2c-0.1,0.2-0.1,0.3,0,0.1c0.4-0.8,0.8-1.6,1.4-2.3c0.2-0.3-0.2,0.3,0,0c0.1-0.1,0.1-0.2,0.2-0.2
				c0.1-0.2,0.3-0.3,0.4-0.5c0.3-0.3,0.7-0.7,1-1c0.1-0.1,0.2-0.1,0.2-0.2c0.3-0.2-0.3,0.2,0,0c0.2-0.1,0.3-0.3,0.5-0.4
				c0.4-0.3,0.8-0.5,1.2-0.7c0.2-0.1,0.4-0.2,0.6-0.3c0.4-0.2-0.4,0.1,0,0c0.1,0,0.2-0.1,0.3-0.1c0.4-0.2,0.9-0.3,1.4-0.4
				C45,10,45.2,10,45.4,10c0.1,0,0.2,0,0.3-0.1c0.4-0.1-0.4,0,0,0c0.5-0.1,1-0.1,1.5-0.1c0.3,0,0.5,0,0.8,0c0.1,0,0.3,0,0.4,0
				c0.4,0-0.4-0.1,0.1,0c0.5,0.1,1.1,0.2,1.6,0.4c0.2,0.1,0.5,0.2,0.7,0.2c0.1,0,0.2,0.1,0.4,0.1c-0.4-0.2,0,0,0.1,0
				c0.5,0.2,1,0.5,1.4,0.8c0.2,0.2,0.5,0.3,0.7,0.5c0.3,0.2-0.3-0.2,0.1,0c0.1,0.1,0.3,0.2,0.4,0.3c0.5,0.4,0.9,0.9,1.3,1.4
				c0.1,0.1,0.2,0.2,0.2,0.3c-0.3-0.3,0.1,0.1,0.1,0.2c0.2,0.3,0.4,0.6,0.6,0.9c0.2,0.3,0.3,0.5,0.4,0.8c0,0.1,0.3,0.6,0.1,0.2
				c0.1,0.2,0.1,0.3,0.2,0.5c0.3,0.9,1.1,1.4,2.1,1.2c0.8-0.2,1.5-1.2,1.2-2.1c-1.6-4.5-5.4-7.9-10.1-8.9c-4.2-0.9-8.6,0.3-11.9,3
				c-2.3,2-4,4.8-4.5,7.8c-0.1,0.5-0.1,0.9,0.2,1.3c0.3,0.5,0.9,0.9,1.5,0.8c1.2-0.1,2.3,0,3.5,0.1c0.1,0,0.3,0,0.4,0
				c-0.4-0.1,0,0,0.1,0c0.3,0,0.5,0.1,0.8,0.1c0.6,0.1,1.1,0.3,1.7,0.4c0.5,0.1,1,0.3,1.5,0.5c0.1,0,0.2,0.1,0.4,0.1
				c0.1,0,0.5,0.2,0.1,0c0.3,0.1,0.6,0.3,0.8,0.4c1,0.5,1.9,1,2.8,1.7c0.6,0.4,1.5,0.3,2.2,0.3c0.8,0,1.2-0.5,1.7-1.1
				c0.4-0.4,0.8-0.8,1.2-1.2c0.2-0.2,0.4-0.3,0.6-0.5c0.1-0.1,0.2-0.2,0.3-0.2c0.3-0.3-0.3,0.2,0.1,0c0.4-0.3,0.9-0.6,1.4-0.9
				c0.4-0.3,0.9-0.5,1.3-0.7c0.2-0.1,0.5-0.2,0.7-0.3c0.4-0.2-0.3,0.1,0.1,0c0.2-0.1,0.3-0.1,0.5-0.2c0.5-0.2,1.1-0.4,1.6-0.5
				c0.9-0.2,1.4-1.2,1.2-2.1C59.8,14.8,58.9,14.3,58,14.5z"/>
		</g>
	</g>
</g>
</svg>
