<?xml version="1.0" encoding="utf-8"?>
<!-- Generator: Adobe Illustrator 22.1.0, SVG Export Plug-In . SVG Version: 6.00 Build 0)  -->
<svg version="1.1" id="Layer_1" xmlns="http://www.w3.org/2000/svg" xmlns:xlink="http://www.w3.org/1999/xlink" x="0px" y="0px"
	 width="96px" height="75px" viewBox="0 0 96 75" style="enable-background:new 0 0 96 75;" xml:space="preserve">
<style type="text/css">
	.st0{fill:#C69977;}
</style>
<title>ecommerce-2</title>
<desc>Created with Sketch.</desc>
<path class="st0" d="M69.3,68.2H26.7c-1.2,0-2.1-0.9-2.1-2.1v0V8.9c0-1.2,0.9-2.1,2.1-2.1l0,0h42.6c1.2,0,2.1,0.9,2.1,2.1v57.3
	C71.4,67.3,70.5,68.2,69.3,68.2z M28.8,64h38.4V11H28.8V64z"/>
<path class="st0" d="M69.3,69.9c-0.2,0-0.4,0-0.6,0c-13.4-4.4-27.9-4.4-41.3,0c-0.6,0.2-1.4,0.1-1.9-0.3c-0.5-0.4-0.9-1-0.9-1.7
	V10.5c0-0.9,0.6-1.7,1.5-2c14.3-4.7,29.6-4.7,43.9,0c0.9,0.3,1.5,1.1,1.5,2v57.3c0,0.7-0.3,1.3-0.9,1.7
	C70.2,69.8,69.7,69.9,69.3,69.9z M48,62.3c6.5,0,12.9,0.9,19.2,2.6V12.1c-12.5-3.8-25.9-3.8-38.4,0v52.8
	C35.1,63.2,41.5,62.3,48,62.3z"/>
<path class="st0" d="M48.9,45.2c-0.3,0-0.5,0-0.8,0c-0.8-0.3-1.3-1.1-1.3-2v-6.7l-9.7,8.2c-0.9,0.8-2.3,0.6-3.1-0.3
	c-0.8-0.9-0.6-2.3,0.3-3.1l13.1-11.1c0.6-0.6,1.5-0.7,2.2-0.3c0.7,0.4,1.2,1.1,1.3,1.9V38l7.9-7.6c0.6-0.6,1.5-0.7,2.3-0.4
	c0.8,0.3,1.3,1.1,1.3,1.9V43c-0.1,1.2-1.2,2-2.4,1.9c-1-0.1-1.7-0.9-1.9-1.9V37l-7.8,7.6C50,45,49.5,45.2,48.9,45.2z"/>
<rect x="34" y="35.4" class="st0" width="28" height="4.3"/>
<rect x="34" y="35.4" class="st0" width="28" height="4.3"/>
</svg>
