<?xml version="1.0" encoding="utf-8"?>
<!-- Generator: Adobe Illustrator 22.1.0, SVG Export Plug-In . SVG Version: 6.00 Build 0)  -->
<svg version="1.1" id="Layer_1" xmlns="http://www.w3.org/2000/svg" xmlns:xlink="http://www.w3.org/1999/xlink" x="0px" y="0px"
	 width="96px" height="75px" viewBox="0 0 96 75" style="enable-background:new 0 0 96 75;" xml:space="preserve">
<style type="text/css">
	.st0{fill:#C69977;}
</style>
<title>ecommerce-2</title>
<desc>Created with Sketch.</desc>
<g>
	<path class="st0" d="M15.9,5.4v64.2h64.2V5.4H15.9z M26.6,67.5V48.2h4.3v19.3H26.6z M39.4,67.5V39.6h4.3v27.8H39.4z M52.3,67.5
		V43.9h4.3v23.6H52.3z M65.1,67.5V33.2h4.3v34.3H65.1z M78,67.5h-6.4V31.1H63v36.4h-4.3V41.8h-8.6v25.7h-4.3v-30h-8.6v30H33V46.1
		h-8.6v21.4H18V16.1h60V67.5z M18,13.9V7.5h60v6.4H18z"/>
	<rect x="20.2" y="9.7" class="st0" width="2.1" height="2.1"/>
	<rect x="24.4" y="9.7" class="st0" width="2.1" height="2.1"/>
	<rect x="28.7" y="9.7" class="st0" width="2.1" height="2.1"/>
	<path class="st0" d="M28.7,40.7c1.8,0,3.2-1.4,3.2-3.2c0-0.3-0.1-0.6-0.2-1l7.9-6c0.5,0.3,1.2,0.5,1.8,0.5c1,0,1.8-0.4,2.4-1.1
		l7.3,3.1v0.1c0,1.8,1.4,3.2,3.2,3.2s3.2-1.4,3.2-3.2c0-0.4-0.1-0.7-0.2-1.2l8.1-6.9c0.5,0.3,1.1,0.4,1.7,0.4c1.8,0,3.2-1.4,3.2-3.2
		s-1.4-3.2-3.2-3.2c-1.8,0-3.2,1.4-3.2,3.2c0,0.4,0.1,0.7,0.2,1.1L56,30.3c-0.4-0.3-1.1-0.4-1.6-0.4c-1,0-1.8,0.4-2.4,1.1l-7.3-3
		v-0.1c0-1.8-1.4-3.2-3.2-3.2s-3.2,1.4-3.2,3.2c0,0.3,0.1,0.6,0.1,1l-8,6c-0.5-0.3-1.1-0.5-1.7-0.5c-1.8,0-3.2,1.4-3.2,3.2
		S26.9,40.7,28.7,40.7z M67.3,21.4c0.6,0,1.1,0.4,1.1,1.1s-0.4,1.1-1.1,1.1c-0.6,0-1.1-0.4-1.1-1.1S66.6,21.4,67.3,21.4z M54.4,32.1
		c0.6,0,1.1,0.4,1.1,1.1s-0.4,1.1-1.1,1.1s-1.1-0.4-1.1-1.1S53.8,32.1,54.4,32.1z M41.6,26.8c0.6,0,1.1,0.4,1.1,1.1
		s-0.4,1.1-1.1,1.1c-0.6,0-1.1-0.4-1.1-1.1S40.9,26.8,41.6,26.8z M28.7,36.4c0.6,0,1.1,0.4,1.1,1.1c0,0.6-0.4,1.1-1.1,1.1
		s-1.1-0.4-1.1-1.1S28.1,36.4,28.7,36.4z"/>
</g>
</svg>
