<?xml version="1.0" encoding="utf-8"?>
<!-- Generator: Adobe Illustrator 22.1.0, SVG Export Plug-In . SVG Version: 6.00 Build 0)  -->
<svg version="1.1" id="Layer_1" xmlns="http://www.w3.org/2000/svg" xmlns:xlink="http://www.w3.org/1999/xlink" x="0px" y="0px"
	 width="96px" height="75px" viewBox="0 0 96 75" style="enable-background:new 0 0 96 75;" xml:space="preserve">
<style type="text/css">
	.st0{fill:#C69977;stroke:#C69977;stroke-width:0.75;stroke-miterlimit:10;}
</style>
<title>ecommerce-2</title>
<desc>Created with Sketch.</desc>
<path class="st0" d="M59.1,18.2c0.1,0.5-0.3,0.9-0.8,1c-0.3,0-0.5,0.1-0.8,0.1c-0.9,0-1.7-0.3-2.3-0.8c-0.6-0.6-0.8-1.4-0.9-2
	c-0.3,0-0.6,0.1-0.8,0.1c-0.2,0-0.3,0-0.4,0c-0.5,0-0.9-0.5-0.8-1c0-0.5,0.5-0.9,1-0.8c0,0,0.1,0,0.2,0c0.5,0,1.9-0.1,2.7-0.9
	c0.6-0.5,0.9-1.3,0.9-2.3c0-0.5,0.4-0.9,0.9-0.9c0,0,0,0,0,0c0.5,0,0.9,0.4,0.9,0.9c0,1.5-0.5,2.7-1.5,3.6c-0.4,0.4-0.9,0.6-1.3,0.8
	c0,0.4,0.1,0.9,0.4,1.3c0.3,0.3,0.8,0.4,1.5,0.3C58.6,17.4,59,17.7,59.1,18.2z"/>
<path class="st0" d="M43.6,15.4c0,0.5-0.3,0.9-0.8,1c0,0-0.2,0-0.4,0c-0.2,0-0.5,0-0.8-0.1c0,0.6-0.3,1.4-0.9,2
	c-0.6,0.6-1.3,0.8-2.3,0.8c-0.2,0-0.5,0-0.8-0.1c-0.5-0.1-0.8-0.5-0.8-1s0.5-0.8,1-0.8c0.7,0.1,1.2,0,1.5-0.3
	c0.3-0.3,0.4-0.9,0.4-1.3c-0.5-0.2-0.9-0.5-1.3-0.8c-1-0.9-1.5-2.1-1.5-3.6c0-0.5,0.4-0.9,0.9-0.9c0,0,0,0,0,0
	c0.5,0,0.9,0.4,0.9,0.9c0,1,0.3,1.8,0.9,2.3c1.1,1,2.9,0.9,3,0.9C43.2,14.6,43.6,14.9,43.6,15.4z"/>
<g>
	<path class="st0" d="M64.3,21l-0.1-0.8h-1.7c0.1-0.7,0-1.3-0.1-2c-0.1-0.4-0.3-0.7-0.4-1c-0.3-0.6-0.3-0.6-0.2-0.7
		c0.7-1.2,0.9-2.8,0.5-4.4c-0.5-2-2.1-3.4-4.2-3.7c-0.2,0-0.4,0-0.5-0.1c0.3-1.7-0.7-3.3-2.7-4.4c-1.8-1.1-5.1-1.3-6.9,0.2
		c-1.9-1.5-5.1-1.2-7-0.2c-2,1.1-2.9,2.7-2.7,4.4c-0.2,0-0.4,0-0.5,0.1c-2.1,0.3-3.7,1.7-4.2,3.7c-0.4,1.6-0.2,3.2,0.5,4.4
		c0.1,0.1,0.1,0.2-0.2,0.7c-0.2,0.3-0.3,0.6-0.4,1c-0.1,0.6-0.2,1.3-0.1,2h-1.7L31.7,21c-0.7,5.2,1,10.2,4.7,13.9
		c3.1,3.1,7.3,4.8,11.7,4.8s8.6-1.7,11.7-4.8C63.4,31.3,65.1,26.2,64.3,21z M48.9,13.4c0.3,0.2,0.6,0.4,1,0.6
		c0.3,0.1,0.7,0.2,1.1,0.2c0.5,0,1.1-0.1,1.6-0.4c0.4-0.2,0.6-0.8,0.4-1.2c-0.2-0.4-0.8-0.6-1.2-0.4c-0.5,0.2-0.9,0.3-1.3,0.1
		c-0.4-0.2-0.8-0.5-1.1-0.9c-0.2-0.3-0.4-0.6-0.5-0.8V5.7c0.6-0.7,1.6-0.9,2.6-0.9c-0.7,0.9-1.4,2.3-0.9,3.8
		c0.1,0.4,0.5,0.6,0.8,0.6c0.1,0,0.2,0,0.3,0c0.5-0.2,0.7-0.7,0.6-1.1c-0.4-1.2,0.9-2.5,1.3-2.9c0.2,0.1,0.3,0.1,0.5,0.2
		C56.2,6.7,56,8,55.7,8.6c-1.1,0.4-2,1.1-2.6,2.1c-0.3,0.4-0.1,1,0.3,1.2c0.4,0.3,1,0.1,1.2-0.3c0.8-1.3,2.2-1.7,3.3-1.5
		c1.1,0.2,2.3,0.9,2.7,2.4c0.3,1.1,0.2,2.3-0.3,3c-0.6,1-0.2,1.9,0.1,2.5c0.1,0.2,0.2,0.4,0.3,0.6c0.1,0.5,0.1,1.1,0.1,1.6
		c0,0,0,0,0,0H48.9V13.4z M35.7,15.6c-0.5-0.8-0.6-1.9-0.3-3c0.4-1.5,1.7-2.2,2.7-2.4c1-0.2,2.5,0.2,3.3,1.5
		c0.3,0.4,0.8,0.6,1.2,0.3c0.4-0.3,0.6-0.8,0.3-1.2c-0.6-1-1.5-1.8-2.6-2.1C40,8,39.8,6.7,41.9,5.5c0.1-0.1,0.3-0.2,0.4-0.2
		c0.4,0.3,1.7,1.6,1.3,2.9c-0.2,0.5,0.1,1,0.6,1.1c0.1,0,0.2,0,0.3,0c0.4,0,0.7-0.2,0.8-0.6c0.5-1.5-0.2-2.9-0.9-3.8
		c1.1,0,2.1,0.2,2.7,0.9v6.7c-0.1,0.3-1,0.6-1.8,0.6c-0.5,0-0.9,0.4-0.9,0.9c0,0.5,0.4,0.9,0.9,0.9h0c0.2,0,1,0,1.8-0.3v5.8H35.3
		c0,0,0,0,0,0c-0.1-0.5,0-1.1,0.1-1.6c0-0.2,0.2-0.4,0.3-0.6C35.9,17.5,36.3,16.6,35.7,15.6z M58.4,33.7C55.6,36.5,51.9,38,48,38
		s-7.6-1.5-10.4-4.3c-3.1-3.1-4.6-7.3-4.3-11.7h29.3C63,26.4,61.5,30.6,58.4,33.7z"/>
</g>
<path class="st0" d="M72.8,69.3l0,1.8c0,0.5-0.4,0.9-0.9,0.9c0,0,0,0,0,0c-0.5,0-0.9-0.4-0.9-0.9l0-1.8c0.2-8.8,0.4-17.2-8.2-22.4
	c-4.1-2.5-9-2.9-14.1-3h-1.6c-5.1,0-10,0.4-14.1,3c-8.6,5.2-8.4,13.6-8.2,22.4l0,1.8c0,0.5-0.4,0.9-0.9,0.9c0,0,0,0,0,0
	c-0.5,0-0.9-0.4-0.9-0.9l0-1.8c-0.2-9-0.4-18.2,9-24c4.7-2.9,10.1-3.2,15.8-3.2h0.1c5.6,0,11,0.3,15.7,3.2
	C73.3,51.1,73.1,60.4,72.8,69.3z"/>
</svg>
