<?xml version="1.0" encoding="utf-8"?>
<!-- Generator: Adobe Illustrator 22.1.0, SVG Export Plug-In . SVG Version: 6.00 Build 0)  -->
<svg version="1.1" id="Layer_1" xmlns="http://www.w3.org/2000/svg" xmlns:xlink="http://www.w3.org/1999/xlink" x="0px" y="0px"
	 width="96px" height="75px" viewBox="0 0 96 75" style="enable-background:new 0 0 96 75;" xml:space="preserve">
<style type="text/css">
	.st0{fill:#C69977;}
</style>
<title>ecommerce-2</title>
<desc>Created with Sketch.</desc>
<g>
	<path class="st0" d="M79.6,33.2l-3.9-1.1c-0.2-1.3-0.6-2.6-1-3.8l2.8-2.9c0.3-0.3,0.4-0.8,0.2-1.2c-0.9-2-2-4-3.3-5.8
		c-0.3-0.4-0.7-0.5-1.1-0.4l-3.9,1c-0.9-1-1.8-1.9-2.8-2.8l1-3.9c0.1-0.4-0.1-0.9-0.4-1.1c-1.8-1.3-3.7-2.4-5.8-3.3
		c-0.4-0.2-0.9-0.1-1.2,0.2l-2.9,2.8c-1.3-0.4-2.5-0.8-3.8-1l-1.1-3.9c-0.1-0.4-0.5-0.7-0.9-0.8c-2.2-0.2-4.5-0.2-6.7,0
		c-0.4,0-0.8,0.4-0.9,0.8l-1.1,3.9c-1.3,0.2-2.6,0.6-3.8,1L35.9,8c-0.3-0.3-0.8-0.4-1.2-0.2c-2,0.9-4,2-5.8,3.3
		c-0.4,0.3-0.5,0.7-0.4,1.1l1,3.9c-1,0.9-1.9,1.8-2.8,2.8l-3.9-1c-0.4-0.1-0.9,0.1-1.1,0.4c-1.3,1.8-2.4,3.7-3.3,5.8
		c-0.2,0.4-0.1,0.9,0.2,1.2l2.8,2.9c-0.4,1.3-0.8,2.5-1,3.8l-3.9,1.1c-0.4,0.1-0.7,0.5-0.8,0.9c-0.2,2.2-0.2,4.5,0,6.7
		c0,0.4,0.4,0.8,0.8,0.9l3.9,1.1c0.2,1.3,0.6,2.6,1,3.8l-2.8,2.9c-0.3,0.3-0.4,0.8-0.2,1.2c0.9,2,2,4,3.3,5.8
		c0.3,0.4,0.7,0.5,1.1,0.4l3.9-1c0.9,1,1.8,1.9,2.8,2.8l-1,3.9c-0.1,0.4,0.1,0.9,0.4,1.1c1.8,1.3,3.7,2.4,5.8,3.3
		c0.4,0.2,0.9,0.1,1.2-0.2l2.9-2.8c1.3,0.4,2.5,0.8,3.8,1l1.1,3.9c0.1,0.4,0.5,0.7,0.9,0.8c2.2,0.2,4.5,0.2,6.7,0
		c0.4,0,0.8-0.4,0.9-0.8l1.1-3.9c1.3-0.2,2.6-0.6,3.8-1l2.9,2.8c0.3,0.3,0.8,0.4,1.2,0.2c2-0.9,4-2,5.8-3.3c0.4-0.3,0.5-0.7,0.4-1.1
		l-1-3.9c1-0.9,1.9-1.8,2.8-2.8l3.9,1c0.4,0.1,0.9-0.1,1.1-0.4c1.3-1.8,2.4-3.7,3.3-5.8c0.2-0.4,0.1-0.9-0.2-1.2l-2.8-2.9
		c0.4-1.3,0.8-2.5,1-3.8l3.9-1.1c0.4-0.1,0.7-0.5,0.8-0.9c0.2-2.2,0.2-4.5,0-6.7C80.3,33.7,80,33.4,79.6,33.2z M78.3,39.9L74.4,41
		c-0.4,0.1-0.7,0.5-0.8,0.9c-0.3,1.6-0.7,3.2-1.3,4.8c-0.1,0.4-0.1,0.8,0.2,1.1l2.8,2.8c-0.7,1.4-1.5,2.8-2.4,4.1l-3.8-1
		c-0.4-0.1-0.8,0-1.1,0.4c-1.1,1.3-2.2,2.4-3.5,3.5c-0.3,0.3-0.5,0.7-0.4,1.1l1,3.8c-1.3,0.9-2.7,1.7-4.1,2.4l-2.8-2.8
		c-0.3-0.3-0.7-0.4-1.1-0.2c-1.5,0.6-3.1,1-4.8,1.3c-0.4,0.1-0.8,0.4-0.9,0.8l-1.1,3.8c-1.6,0.1-3.2,0.1-4.8,0l-1.1-3.8
		c-0.1-0.4-0.5-0.7-0.9-0.8c-1.6-0.3-3.2-0.7-4.8-1.3c-0.4-0.1-0.8-0.1-1.1,0.2l-2.8,2.8c-1.4-0.7-2.8-1.5-4.1-2.4l1-3.8
		c0.1-0.4,0-0.8-0.4-1.1c-1.3-1.1-2.4-2.2-3.5-3.5c-0.3-0.3-0.7-0.5-1.1-0.4l-3.8,1c-0.9-1.3-1.7-2.7-2.4-4.1l2.8-2.8
		c0.3-0.3,0.4-0.7,0.2-1.1c-0.6-1.5-1-3.1-1.3-4.8c-0.1-0.4-0.4-0.8-0.8-0.9l-3.8-1.1c-0.1-0.8-0.1-1.6-0.1-2.4c0-0.8,0-1.6,0.1-2.4
		l3.8-1.1c0.4-0.1,0.7-0.5,0.8-0.9c0.3-1.6,0.7-3.2,1.3-4.8c0.1-0.4,0.1-0.8-0.2-1.1l-2.8-2.8c0.7-1.4,1.5-2.8,2.4-4.1l3.8,1
		c0.4,0.1,0.8,0,1.1-0.4c1.1-1.3,2.2-2.4,3.5-3.5c0.3-0.3,0.5-0.7,0.4-1.1l-1-3.8c1.3-0.9,2.7-1.7,4.1-2.4l2.8,2.8
		c0.3,0.3,0.7,0.4,1.1,0.2c1.5-0.6,3.1-1,4.8-1.3c0.4-0.1,0.8-0.4,0.9-0.8l1.1-3.8c1.6-0.1,3.2-0.1,4.8,0l1.1,3.8
		c0.1,0.4,0.5,0.7,0.9,0.8c1.6,0.3,3.2,0.7,4.8,1.3c0.4,0.1,0.8,0.1,1.1-0.2l2.8-2.8c1.4,0.7,2.8,1.5,4.1,2.4l-1,3.8
		c-0.1,0.4,0,0.8,0.4,1.1c1.3,1.1,2.4,2.2,3.5,3.5c0.3,0.3,0.7,0.5,1.1,0.4l3.8-1c0.9,1.3,1.7,2.7,2.4,4.1l-2.8,2.8
		c-0.3,0.3-0.4,0.7-0.2,1.1c0.6,1.5,1,3.1,1.3,4.8c0.1,0.4,0.4,0.8,0.8,0.9l3.8,1.1c0.1,0.8,0.1,1.6,0.1,2.4
		C78.4,38.3,78.3,39.1,78.3,39.9L78.3,39.9z"/>
	<path class="st0" d="M48,15.8c-12,0-21.7,9.7-21.7,21.7S36,59.2,48,59.2s21.7-9.7,21.7-21.7C69.7,25.5,60,15.8,48,15.8z M67.5,38.6
		c-0.2,4.4-2,8.6-4.9,11.9l-2.3-2.3l-1.5,1.5L61,52c-3.3,3-7.5,4.7-11.9,4.9v-3.2h-2.2V57c-4.4-0.2-8.6-2-11.9-4.9l2.3-2.3l-1.5-1.5
		l-2.3,2.3c-3-3.3-4.7-7.5-4.9-11.9h3.2v-2.2h-3.2c0.2-4.4,2-8.6,4.9-11.9l2.3,2.3l1.5-1.5L35,23c3.3-3,7.5-4.7,11.9-4.9v3.2h2.2V18
		c4.4,0.2,8.6,2,11.9,4.9l-2.3,2.3l1.5,1.5l2.3-2.3c3,3.3,4.7,7.5,4.9,11.9h-3.2v2.2H67.5z"/>
	<path class="st0" d="M56.1,27.9l-7.9,5.2c-0.1,0-0.1,0-0.2,0c-2.4,0-4.3,1.9-4.3,4.3s1.9,4.3,4.3,4.3c2.4,0,4.3-1.9,4.3-4.3
		c0-0.1,0-0.1,0-0.2l5.2-7.9c0.3-0.5,0.2-1.2-0.3-1.5C56.9,27.7,56.4,27.7,56.1,27.9z M50.3,36.4c-0.1,0.2-0.2,0.5-0.2,0.8
		c0,0.1,0,0.2,0,0.3c0,1.2-1,2.2-2.2,2.2s-2.2-1-2.2-2.2c0-1.2,1-2.2,2.2-2.2c0.1,0,0.2,0,0.3,0c0.3,0,0.5,0,0.8-0.2l3.7-2.5
		L50.3,36.4z"/>
</g>
</svg>
