<?xml version="1.0" encoding="utf-8"?>
<!-- Generator: Adobe Illustrator 22.1.0, SVG Export Plug-In . SVG Version: 6.00 Build 0)  -->
<svg version="1.1" id="Layer_1" xmlns="http://www.w3.org/2000/svg" xmlns:xlink="http://www.w3.org/1999/xlink" x="0px" y="0px"
	 width="96px" height="75px" viewBox="0 0 96 75" style="enable-background:new 0 0 96 75;" xml:space="preserve">
<style type="text/css">
	.st0{fill:#C69977;}
</style>
<title>ecommerce-2</title>
<desc>Created with Sketch.</desc>
<g>
	<path class="st0" d="M27.9,70c-0.3,0-0.6-0.1-0.9-0.3c-0.5-0.3-0.7-0.9-0.6-1.5l3.7-21.6L14.4,31.3c-0.4-0.4-0.6-1-0.4-1.6
		c0.2-0.6,0.7-1,1.2-1.1l21.7-3.2l9.7-19.6C46.9,5.3,47.4,5,48,5s1.1,0.3,1.4,0.9l9.7,19.6l21.7,3.2c0.6,0.1,1.1,0.5,1.2,1.1
		c0.2,0.6,0,1.2-0.4,1.6L65.9,46.6l3.7,21.6c0.1,0.6-0.1,1.2-0.6,1.5c-0.5,0.3-1.1,0.4-1.6,0.1L48,59.6L28.6,69.8
		C28.4,69.9,28.1,70,27.9,70z M48,56.3c0.2,0,0.5,0.1,0.7,0.2l17.3,9.1l-3.3-19.3c-0.1-0.5,0.1-1,0.4-1.4l14-13.7l-19.4-2.8
		c-0.5-0.1-0.9-0.4-1.2-0.8L48,10l-8.7,17.6c-0.2,0.5-0.7,0.8-1.2,0.8l-19.4,2.8l14,13.7c0.4,0.4,0.5,0.9,0.4,1.4l-3.3,19.3
		l17.3-9.1C47.5,56.4,47.8,56.3,48,56.3z"/>
</g>
</svg>
