<?xml version="1.0" encoding="utf-8"?>
<!-- Generator: Adobe Illustrator 22.1.0, SVG Export Plug-In . SVG Version: 6.00 Build 0)  -->
<svg version="1.1" id="Layer_1" xmlns="http://www.w3.org/2000/svg" xmlns:xlink="http://www.w3.org/1999/xlink" x="0px" y="0px"
	 width="96px" height="75px" viewBox="0 0 96 75" style="enable-background:new 0 0 96 75;" xml:space="preserve">
<style type="text/css">
	.st0{fill:#C69977;}
</style>
<title>ecommerce-2</title>
<desc>Created with Sketch.</desc>
<g>
	<path class="st0" d="M17.6,64.9c-1,0.4-1.5,1.5-1.3,2.6c0.1,1,1,1.9,2.1,2.1c0.7,0.1,1.4,0.1,2.2,0.1c4,0,8.3-1.4,11.8-4
		c4.8,2.6,10.1,4,15.6,4c8.7,0,16.7-3.4,22.8-9.5c12.6-12.6,12.6-33.1,0-45.7C64.7,8.5,56.6,5.2,48,5.2s-16.7,3.4-22.8,9.5
		c-11.9,11.9-12.6,30.8-1.9,43.6C21.6,61.6,19.8,63.8,17.6,64.9z M25.9,58.5c0.2-0.4,0.1-1-0.2-1.3c-10.4-11.7-9.8-29.6,1.3-40.7
		c5.6-5.6,13.1-8.7,21-8.7s15.4,3.1,21,8.7C80.6,28,80.6,46.9,69,58.5c-5.6,5.6-13.1,8.7-21,8.7c-5.3,0-10.5-1.4-15.1-4.1
		C32.7,63,32.5,63,32.2,63c-0.3,0-0.5,0.1-0.7,0.3c-4.6,3.5-9.2,3.9-10.9,3.9c-0.6,0-1.1,0-1.6-0.1C21.8,65.6,24,62.8,25.9,58.5z
		 M24.7,38.8c-0.7,0-1.3-0.6-1.3-1.3l0,0l0,0l0,0c0-0.7,0.6-1.3,1.3-1.3c0.7,0,1.3,0.6,1.3,1.3l0,0l0,0C26,38.2,25.5,38.8,24.7,38.8
		L24.7,38.8z M32,52.6c0.4,0.5,0.4,1.3-0.1,1.8c-0.2,0.2-0.5,0.4-0.9,0.4c-0.3,0-0.7-0.1-0.9-0.4c-0.4-0.5-0.4-1.3,0.1-1.8
		C30.8,52.1,31.5,52.1,32,52.6z M24.3,31.4c0.1-0.7,0.9-1.1,1.6-0.9c0.7,0.1,1.1,0.9,0.9,1.6c-0.1,0.6-0.7,1-1.2,1
		c-0.1,0-0.2,0-0.3-0.1C24.5,32.8,24,32.1,24.3,31.4z M25.8,44.6c-0.1,0-0.2,0.1-0.3,0.1c-0.6,0-1.1-0.4-1.2-1
		c-0.1-0.7,0.2-1.3,0.9-1.6c0.7-0.1,1.3,0.2,1.6,0.9C26.9,43.7,26.5,44.4,25.8,44.6z M39.6,15.8c-0.2-0.7,0.1-1.4,0.8-1.6l0,0
		c0.7-0.2,1.4,0.1,1.6,0.8c0.2,0.7-0.1,1.4-0.8,1.6c-0.1,0.1-0.3,0.1-0.4,0.1C40.2,16.7,39.8,16.3,39.6,15.8z M67.8,51.9
		c-0.2,0.4-0.7,0.5-1,0.5c-0.2,0-0.5-0.1-0.7-0.2c-0.6-0.4-0.7-1.2-0.3-1.8c0.4-0.6,1.2-0.7,1.8-0.3C68.1,50.5,68.3,51.3,67.8,51.9z
		 M68.4,29.4c-0.2-0.7,0.1-1.4,0.7-1.6c0.7-0.2,1.4,0.1,1.6,0.7c0.2,0.7-0.1,1.4-0.7,1.6c-0.1,0.1-0.3,0.1-0.4,0.1
		C69.1,30.2,68.7,29.9,68.4,29.4z M47.8,60.8c-0.1,0.7-0.6,1.2-1.3,1.2h-0.1c-0.7-0.1-1.3-0.7-1.2-1.3c0.1-0.7,0.7-1.3,1.3-1.2
		C47.4,59.5,47.9,60.1,47.8,60.8z M70.9,33.3c0.7-0.1,1.3,0.4,1.4,1.1c0.1,0.7-0.4,1.3-1.1,1.4c-0.1,0-0.1,0-0.1,0
		c-0.6,0-1.2-0.4-1.3-1.1C69.7,34,70.2,33.4,70.9,33.3z M53.7,60.1c0.1,0.7-0.3,1.3-1,1.5c-0.1,0-0.1,0-0.2,0c-0.6,0-1.1-0.4-1.3-1
		c-0.1-0.7,0.3-1.3,1-1.5C52.8,59,53.5,59.4,53.7,60.1z M63.8,54.6c0.4,0.5,0.4,1.3-0.1,1.8c-0.2,0.2-0.5,0.3-0.8,0.3
		c-0.4,0-0.7-0.1-1-0.4c-0.4-0.5-0.4-1.3,0.1-1.8C62.5,54,63.4,54.1,63.8,54.6z M59.1,57.9c0.3,0.7,0,1.4-0.6,1.7l0,0
		c-0.1,0.1-0.4,0.1-0.5,0.1c-0.4,0-0.9-0.3-1.1-0.7c-0.3-0.7,0-1.4,0.6-1.7C58.1,57.1,58.8,57.3,59.1,57.9z M70.8,46.5
		c-0.2,0.5-0.7,0.8-1.2,0.8c-0.1,0-0.3,0-0.4-0.1c-0.7-0.2-1-1-0.7-1.6c0.2-0.7,1-1,1.6-0.7C70.8,45.1,71,45.9,70.8,46.5z
		 M72.3,40.6c-0.1,0.7-0.6,1.1-1.3,1.1c-0.1,0-0.1,0-0.1,0c-0.7-0.1-1.2-0.7-1.1-1.4c0.1-0.7,0.7-1.2,1.4-1.1
		C71.9,39.2,72.4,39.8,72.3,40.6z M26.5,25.7c0.4-0.6,1.1-0.8,1.7-0.5c0.6,0.4,0.8,1.1,0.5,1.7c-0.2,0.4-0.7,0.7-1.1,0.7
		c-0.2,0-0.4-0.1-0.6-0.1C26.4,27.1,26.1,26.3,26.5,25.7z M34.5,18.5c-0.4-0.6-0.2-1.3,0.4-1.8l0,0c0.6-0.4,1.3-0.2,1.8,0.4
		c0.4,0.6,0.2,1.3-0.4,1.8c-0.2,0.1-0.4,0.2-0.7,0.2C35.1,19.1,34.7,18.9,34.5,18.5z M51.1,14.4c0.1-0.7,0.8-1.1,1.5-1
		c0.7,0.1,1.1,0.8,1,1.5c-0.1,0.6-0.7,1-1.3,1c-0.1,0-0.1,0-0.2,0C51.4,15.8,51,15.1,51.1,14.4z M45.2,14.4
		c-0.1-0.7,0.5-1.3,1.2-1.3c0.7-0.1,1.3,0.5,1.3,1.2c0.1,0.7-0.5,1.3-1.2,1.3h-0.1C45.8,15.6,45.3,15,45.2,14.4z M30.2,22.5
		c-0.5-0.4-0.5-1.3-0.1-1.8c0.4-0.5,1.3-0.5,1.8-0.1c0.5,0.4,0.5,1.3,0.1,1.8c-0.2,0.3-0.6,0.4-0.9,0.4
		C30.8,22.9,30.4,22.7,30.2,22.5z M65.8,24.6c-0.4-0.6-0.3-1.3,0.3-1.8s1.3-0.3,1.8,0.3c0.4,0.6,0.3,1.3-0.3,1.8
		c-0.2,0.1-0.5,0.2-0.7,0.2C66.4,25.1,66,24.9,65.8,24.6z M42.1,60c-0.1,0.5-0.7,0.9-1.2,0.9c-0.1,0-0.3,0-0.4-0.1
		c-0.7-0.2-1.1-1-0.9-1.6c0.2-0.7,1-1,1.6-0.8C41.9,58.6,42.3,59.4,42.1,60z M56.7,15.9c0.3-0.7,1-0.9,1.7-0.6
		c0.7,0.3,0.9,1,0.6,1.7c-0.2,0.4-0.7,0.7-1.1,0.7c-0.1,0-0.4-0.1-0.5-0.1C56.7,17.3,56.4,16.5,56.7,15.9z M36.6,57.9
		c-0.2,0.4-0.7,0.6-1,0.6c-0.2,0-0.4-0.1-0.7-0.2l0,0c-0.6-0.4-0.7-1.2-0.4-1.7c0.4-0.6,1.2-0.7,1.8-0.4
		C36.9,56.5,37,57.3,36.6,57.9z M62,20.6c-0.5-0.4-0.6-1.3-0.1-1.8c0.4-0.5,1.3-0.6,1.8-0.1c0.5,0.4,0.6,1.3,0.1,1.8
		c-0.2,0.3-0.6,0.4-1,0.4C62.5,20.9,62.2,20.7,62,20.6z M28.7,48.2c0.4,0.6,0.1,1.4-0.5,1.7C28,50,27.8,50,27.6,50
		c-0.4,0-0.9-0.2-1.1-0.7c-0.4-0.6-0.1-1.4,0.5-1.7C27.6,47.3,28.4,47.5,28.7,48.2z M32.1,44c2.6,6.3,8.8,10.5,15.7,10.5
		c2.2,0,4.4-0.4,6.5-1.3C62.9,49.7,67,39.7,63.4,31c-2.6-6.3-8.8-10.5-15.7-10.5c-2.2,0-4.4,0.4-6.5,1.3
		C32.7,25.4,28.5,35.3,32.1,44z M41.5,24.5c-1.1,1.6-2.1,3.6-2.7,5.7h-3.5C36.7,27.8,38.9,25.8,41.5,24.5z M61.5,32.8
		c1.1,3.1,1,6.5,0,9.5h-3.8c0.4-1.6,0.6-3.3,0.6-4.8c0-1.6-0.1-3.1-0.4-4.7H61.5z M55.7,37.5c0,1.5-0.2,3.1-0.6,4.8h-5.8v-9.5h5.9
		C55.5,34.3,55.7,35.9,55.7,37.5z M34.2,42.2c-1.1-3.1-1-6.5,0-9.5h4c-0.3,1.6-0.4,3.1-0.4,4.7c0,1.5,0.2,3.1,0.6,4.8H34.2z
		 M40.3,37.5c0-1.6,0.1-3.2,0.5-4.7h5.9v9.5h-5.8C40.5,40.6,40.3,39,40.3,37.5z M46.7,30.2h-5.2c1.2-3.4,3.1-6,5.2-6.9V30.2z
		 M46.7,44.8v6.8c-2-0.8-3.8-3.6-5-6.8C41.7,44.8,46.7,44.8,46.7,44.8z M49.3,51.5v-6.8h5C53.1,48,51.3,50.7,49.3,51.5z M49.3,30.2
		v-6.9c2.1,0.7,4,3.4,5.2,6.9H49.3z M35.3,44.8H39c0.7,2.2,1.7,4.3,3,6C39.3,49.5,36.9,47.4,35.3,44.8z M54.1,50.5
		c1.2-1.6,2.1-3.7,2.8-5.7h3.4C58.9,47.2,56.8,49.2,54.1,50.5z M60.3,30.2h-3.1c-0.6-2-1.5-4-2.5-5.4C56.9,26,59,27.9,60.3,30.2z"/>
</g>
</svg>
