<?xml version="1.0" encoding="utf-8"?>
<!-- Generator: Adobe Illustrator 22.1.0, SVG Export Plug-In . SVG Version: 6.00 Build 0)  -->
<svg version="1.1" id="Layer_1" xmlns="http://www.w3.org/2000/svg" xmlns:xlink="http://www.w3.org/1999/xlink" x="0px" y="0px"
	 width="96px" height="75px" viewBox="0 0 96 75" style="enable-background:new 0 0 96 75;" xml:space="preserve">
<style type="text/css">
	.st0{fill:#C69977;}
</style>
<title>ecommerce-2</title>
<desc>Created with Sketch.</desc>
<g>
	<path class="st0" d="M74.6,43.1C74,41.1,72,40,70,40.6l-13.7,4L38.8,29.8l-6,1.7l12.7,16.3L34.6,51l-5.7-3.7l-7.6,2.2l9.2,10.2
		L72,47.6c0.9-0.3,1.7-0.9,2.2-1.7C74.7,45,74.8,44,74.6,43.1L74.6,43.1z M72.5,45c-0.2,0.4-0.5,0.7-1,0.8L31.3,57.5l-6.3-7l3.6-1.1
		l5.7,3.7l14.6-4.2L36.2,32.6l2.1-0.6l17.5,14.9l14.7-4.3c0.4-0.1,0.9-0.1,1.3,0.1c0.4,0.2,0.7,0.5,0.8,1l0,0
		C72.8,44.1,72.7,44.6,72.5,45z"/>
	<path class="st0" d="M83.8,5H12.2C9.8,5,7.8,6.9,7.8,9.4v56.3c0,2.4,1.9,4.4,4.4,4.4h71.6c2.4,0,4.4-1.9,4.4-4.4V9.4
		C88.2,7,86.2,5,83.8,5z M12.2,8.3h71.6c0.5,0,1,0.5,1,1v10.8H11.2V9.4C11.2,8.8,11.7,8.3,12.2,8.3z M83.8,66.7H12.2
		c-0.5,0-1-0.5-1-1V22.1h73.6v43.6C84.8,66.3,84.3,66.7,83.8,66.7z"/>
	<circle class="st0" cx="17.3" cy="14.4" r="2.1"/>
	<circle class="st0" cx="24" cy="14.4" r="2.1"/>
	<circle class="st0" cx="30.7" cy="14.4" r="2.1"/>
</g>
</svg>
