<?xml version="1.0" encoding="utf-8"?>
<!-- Generator: Adobe Illustrator 22.1.0, SVG Export Plug-In . SVG Version: 6.00 Build 0)  -->
<svg version="1.1" id="Layer_1" xmlns="http://www.w3.org/2000/svg" xmlns:xlink="http://www.w3.org/1999/xlink" x="0px" y="0px"
	 width="96px" height="75px" viewBox="0 0 96 75" style="enable-background:new 0 0 96 75;" xml:space="preserve">
<style type="text/css">
	.st0{fill:#C69977;}
</style>
<title>ecommerce-2</title>
<desc>Created with Sketch.</desc>
<g>
	<g>
		<path class="st0" d="M70.5,35.4c-0.1,0-0.3-0.1-0.5-0.1l-0.5,0c-0.6-0.1-1.2-0.1-1.8-0.1c-0.3-0.7-0.5-1.4-0.8-2l-0.1-0.3
			c-0.2-0.5-0.6-0.8-1.1-0.8c-0.5,0-0.9,0.3-1.1,0.7c0,0.1-0.1,0.1-0.1,0.3l-0.9,2.1c-0.6,0-1.2,0.1-1.8,0.1l-0.7,0.1
			c-0.6,0-1.1,0.5-1.1,1.1c-0.1,0.6,0.4,1,0.6,1.2l1.7,1.4c-0.2,0.7-0.4,1.4-0.5,2.1l-0.1,0.4c-0.1,0.3,0,0.6,0.1,0.9
			c0.2,0.3,0.4,0.5,0.7,0.5c0.3,0.1,0.7,0,1-0.2l0.8-0.5c0.4-0.3,0.8-0.5,1.2-0.7c0.6,0.4,1.1,0.7,1.7,1l0.4,0.3
			c0.2,0.1,0.5,0.2,0.7,0.2c0.3,0,0.5-0.1,0.7-0.2c0.4-0.3,0.6-0.8,0.5-1.3l-0.2-0.8c-0.1-0.5-0.3-1-0.4-1.6
			c0.4-0.3,0.9-0.7,1.3-1.1l0.6-0.5c0.3-0.3,0.5-0.6,0.5-0.9C71.3,36,71,35.6,70.5,35.4z M70.2,36.7l-0.6,0.5
			c-0.4,0.4-0.9,0.7-1.3,1.1c-0.3,0.3-0.5,0.6-0.3,1c0.1,0.5,0.3,1,0.4,1.6l0.2,0.8c0,0.1,0,0.1-0.1,0.2c0,0-0.1,0-0.2-0.1l-0.4-0.3
			c-0.6-0.4-1.2-0.7-1.7-1.1c-0.2-0.1-0.3-0.2-0.5-0.2c-0.2,0-0.3,0.1-0.5,0.2c-0.4,0.3-0.8,0.5-1.2,0.8L63,41.8
			c-0.1,0.1-0.2,0.1-0.2,0.1l-0.1-0.1l0.1-0.4c0.2-0.7,0.4-1.5,0.6-2.2c0.1-0.3,0-0.6-0.3-0.8l-1.8-1.6c-0.2-0.2-0.2-0.2-0.2-0.3
			c0,0,0-0.1,0.1-0.1l0.7-0.1c0.6-0.1,1.3-0.1,2-0.1c0.3,0,0.6-0.2,0.7-0.5l1-2.4c0.1-0.1,0.1-0.1,0.1-0.1c0.1,0,0.1,0,0.1,0.1
			l0.1,0.3c0.3,0.7,0.6,1.4,0.8,2.1c0.1,0.4,0.4,0.6,0.8,0.6c0.6,0,1.3,0.1,1.9,0.1l0.5,0c0.1,0,0.2,0,0.3,0c0,0,0.1,0,0.1,0.1
			L70.2,36.7L70.2,36.7z"/>
		<path class="st0" d="M53.8,35.4c-0.1,0-0.3-0.1-0.5-0.1l-0.5,0c-0.6-0.1-1.2-0.1-1.8-0.1c-0.3-0.8-0.6-1.5-0.9-2.3
			C49.9,32.3,49.5,32,49,32c-0.5,0-0.9,0.3-1.1,0.7c0,0.1-0.1,0.1-0.1,0.3l-0.9,2.1c-0.6,0-1.2,0.1-1.8,0.1l-0.7,0.1
			c-0.6,0-1.1,0.5-1.1,1.1c-0.1,0.6,0.4,1,0.6,1.2l1.7,1.4c-0.2,0.7-0.4,1.4-0.5,2.1L45,41.4c-0.1,0.3,0,0.6,0.1,0.9
			c0.2,0.3,0.4,0.5,0.7,0.5c0.3,0.1,0.7,0,1-0.2l0.8-0.5c0.4-0.3,0.8-0.5,1.2-0.7c0.6,0.4,1.1,0.7,1.7,1l0.4,0.3
			c0.2,0.1,0.5,0.2,0.7,0.2c0.3,0,0.5-0.1,0.7-0.2c0.4-0.3,0.6-0.8,0.5-1.3l-0.2-0.7c-0.1-0.5-0.3-1.1-0.4-1.6
			c0.4-0.3,0.9-0.7,1.3-1.1l0.6-0.5c0.3-0.3,0.5-0.6,0.5-0.9C54.7,36,54.3,35.6,53.8,35.4z M53.5,36.7l-0.6,0.5
			c-0.4,0.4-0.9,0.7-1.3,1.1c-0.3,0.3-0.5,0.6-0.3,1c0.1,0.5,0.3,1.1,0.4,1.7l0.2,0.7c0,0.1,0,0.1-0.1,0.2c0,0-0.1,0-0.2-0.1
			l-0.4-0.3c-0.6-0.4-1.2-0.7-1.7-1.1c-0.2-0.1-0.3-0.2-0.5-0.2s-0.3,0.1-0.5,0.2c-0.4,0.3-0.8,0.5-1.2,0.8l-0.8,0.5
			c-0.1,0.1-0.2,0.1-0.2,0.1l-0.1-0.1l0.1-0.4c0.2-0.7,0.4-1.5,0.6-2.2c0.1-0.3,0-0.6-0.3-0.8l-1.8-1.6c-0.2-0.2-0.2-0.2-0.2-0.3
			s0-0.1,0.1-0.1l0.7-0.1c0.6-0.1,1.3-0.1,2-0.1c0.3,0,0.6-0.2,0.7-0.5l1-2.4c0.1-0.1,0.1-0.1,0.1-0.1c0.1,0,0.1,0,0.1,0.1
			c0.3,0.8,0.6,1.6,0.9,2.3c0.1,0.4,0.4,0.6,0.8,0.6c0.6,0,1.3,0.1,1.9,0.1l0.5,0c0.1,0,0.2,0,0.3,0c0,0,0.1,0,0.1,0.1L53.5,36.7
			L53.5,36.7z"/>
		<path class="st0" d="M37.1,35.4c-0.1,0-0.3-0.1-0.5-0.1l-0.5,0c-0.6-0.1-1.2-0.1-1.8-0.1c-0.3-0.8-0.6-1.5-0.9-2.3
			c-0.2-0.5-0.6-0.8-1.1-0.8c-0.5,0-0.9,0.3-1.1,0.7c0,0.1-0.1,0.1-0.1,0.3l-0.9,2.1c-0.6,0-1.2,0.1-1.8,0.1l-0.7,0.1
			c-0.6,0-1.1,0.5-1.1,1.1c-0.1,0.6,0.4,1,0.6,1.2L29,39c-0.2,0.7-0.4,1.4-0.5,2.1l-0.1,0.4c-0.1,0.3,0,0.6,0.1,0.9
			c0.2,0.3,0.4,0.5,0.7,0.5c0.3,0.1,0.7,0,1-0.2l0.8-0.5c0.4-0.3,0.8-0.5,1.2-0.7c0.5,0.4,1.1,0.7,1.7,1l0.4,0.3
			c0.2,0.1,0.5,0.2,0.7,0.2c0.3,0,0.5-0.1,0.7-0.2c0.4-0.3,0.6-0.8,0.5-1.3L36,40.7c-0.1-0.5-0.3-1.1-0.4-1.6
			c0.4-0.3,0.9-0.7,1.3-1.1l0.6-0.5c0.3-0.3,0.5-0.6,0.5-0.9C38,36,37.7,35.6,37.1,35.4z M36.9,36.7l-0.6,0.5
			c-0.4,0.4-0.9,0.7-1.3,1.1c-0.3,0.3-0.5,0.6-0.3,1c0.1,0.5,0.3,1.1,0.4,1.7l0.2,0.7c0,0.1,0,0.1-0.1,0.2c0,0-0.1,0-0.2-0.1
			l-0.4-0.3c-0.6-0.4-1.2-0.7-1.7-1.1c-0.2-0.1-0.3-0.2-0.5-0.2c-0.2,0-0.3,0.1-0.5,0.2c-0.4,0.3-0.8,0.5-1.3,0.8l-0.8,0.5
			c-0.1,0.1-0.2,0.1-0.2,0.1l-0.1-0.1l0.1-0.4c0.2-0.7,0.4-1.5,0.6-2.2c0.1-0.3,0-0.6-0.3-0.8L28,36.7c-0.2-0.2-0.2-0.2-0.2-0.3
			c0-0.1,0-0.1,0.1-0.1l0.7-0.1c0.6-0.1,1.3-0.1,2-0.1c0.3,0,0.6-0.2,0.7-0.5l1-2.4c0.1-0.1,0.1-0.1,0.1-0.1c0.1,0,0.1,0,0.1,0.1
			c0.3,0.8,0.6,1.6,0.9,2.3c0.1,0.4,0.4,0.6,0.8,0.6c0.6,0,1.3,0.1,1.9,0.1l0.5,0c0.1,0,0.2,0,0.3,0c0,0,0.1,0,0.1,0.1L36.9,36.7
			L36.9,36.7z"/>
	</g>
	<path class="st0" d="M56.1,5.8C38.6,1.9,21.2,13,17.3,30.5c-1,4.7-1,9.7,0.1,14.3c0.7,2.9,1.5,5.2,2.5,7c0.1,0.3,0.3,0.5,0.5,0.8
		c0.7,1.1,1.1,1.8,0.9,2.1c-0.2,0.3-0.5,0.6-1.1,1.1l-4.7,4.1c-0.3,0.3-0.4,0.5-0.6,0.7l-0.3,0.7l-0.1,0.2c0,0.2-0.1,0.4-0.1,0.6
		v0.1c0,1.4,1.3,2.1,2.1,2.3c4,1.2,7.7,1.6,11.2,1.3c1.4-0.1,2.6-0.3,3.9-0.7c0,0,0.2,0,0.4,0l0.1,0c3,1.8,6.3,3.1,9.7,3.9
		c2.3,0.5,4.7,0.8,7.1,0.8c6.1,0,12.1-1.7,17.4-5.1c7.3-4.7,12.4-11.9,14.3-20.4s0.4-17.2-4.3-24.5C71.8,12.7,64.6,7.7,56.1,5.8z
		 M78.1,44c-1.7,7.8-6.4,14.4-13.1,18.7s-14.7,5.7-22.4,4c-3.1-0.7-6.1-1.9-8.9-3.6L33,62.7l-0.8,0c-0.1,0-0.1,0-0.2,0
		c-0.3,0-0.6,0-0.9,0.1c-1.2,0.3-2.3,0.5-3.5,0.6c-3.1,0.3-6.6-0.1-10.2-1.2c0,0-0.1,0-0.1-0.1v0l0,0l4.7-4c0.6-0.6,1.2-1,1.7-1.8
		c1-1.8-0.1-3.5-1-4.9c-0.1-0.3-0.3-0.5-0.5-0.7c-0.9-1.6-1.6-3.6-2.2-6.3c-1-4.3-1-8.8-0.1-13.1C23.5,15,39.5,4.9,55.5,8.5
		c7.7,1.7,14.4,6.4,18.6,13.1C78.4,28.3,79.8,36.2,78.1,44z"/>
</g>
</svg>
