<?xml version="1.0" encoding="utf-8"?>
<!-- Generator: Adobe Illustrator 22.1.0, SVG Export Plug-In . SVG Version: 6.00 Build 0)  -->
<svg version="1.1" id="Layer_1" xmlns="http://www.w3.org/2000/svg" xmlns:xlink="http://www.w3.org/1999/xlink" x="0px" y="0px"
	 width="96px" height="75px" viewBox="0 0 96 75" style="enable-background:new 0 0 96 75;" xml:space="preserve">
<style type="text/css">
	.st0{fill:#C69977;}
</style>
<title>ecommerce-2</title>
<desc>Created with Sketch.</desc>
<g>
	<path class="st0" d="M37.3,42.9c3.1,3.1,5.9,7,9.8,9.1c0.3,0.1,0.8,0.2,1.1,0c4.3-3.3,8.4-6.8,11.8-11c2.5-3.1,5.4-7.1,4.4-11.4
		c-1.9-8.5-12.7-6.3-16.6-0.7c-1.6-1.9-3.6-3.5-5.8-4.5c-0.1-0.1-0.2-0.1-0.4-0.1c-0.1-0.1-0.2-0.1-0.4-0.1c-6.2-1.2-11,3.3-10,9.7
		C31.8,37.7,34.6,40.2,37.3,42.9z M41,26.3c2.5,1,4.5,3.2,6.2,5.2c0.4,0.5,1.5,0.4,1.8-0.2c1.4-3.1,4.3-5.4,7.8-5.3
		c5,0.1,6.6,4.9,4.7,8.9c-2.3,4.8-6.7,8.9-10.7,12.3c-0.7,0.6-2.5,2.4-3.4,2.4c-0.9-0.1-2.4-1.9-3.1-2.7c-2.2-2.2-4.3-4.4-6.4-6.6
		c-2.2-2.3-4.4-4.5-4.5-7.8C33.1,27.8,36.7,25.3,41,26.3z M72.9,6.5c0-0.6-0.5-1.1-1.1-1.1C63.8,5,56,6.6,48,6.7
		c-4.1,0-8-0.9-12-1.4c-3.9-0.5-7.8-0.2-11.7,0.1c-0.2,0-0.4,0.1-0.5,0.1c-0.3,0.1-0.6,0.4-0.6,1c-0.3,10.5,1.2,20.8,1.5,31.2
		c0.3,10.3-1,20.5-1.4,30.8c0,0.6,0.5,1.1,1.1,1.1C40.2,69.9,56,69.9,71.8,70c0.6,0,1.2-0.5,1.1-1.1C71,48.1,72,27.3,72.9,6.5z
		 M37.2,7.7c3.7,0.6,7.1,1.2,10.7,1.2c7.6,0,15.1-1.5,22.6-1.3c-0.9,20.1-1.8,40.1,0.1,60.1c-15-0.1-30-0.2-45-0.3
		c0.4-9.9,1.6-19.8,1.3-29.7c-0.3-10.1-1.7-20.1-1.5-30.2C29.3,7.2,33.3,7.1,37.2,7.7z"/>
</g>
</svg>
