<?xml version="1.0" encoding="utf-8"?>
<!-- Generator: Adobe Illustrator 22.1.0, SVG Export Plug-In . SVG Version: 6.00 Build 0)  -->
<svg version="1.1" id="Layer_1" xmlns="http://www.w3.org/2000/svg" xmlns:xlink="http://www.w3.org/1999/xlink" x="0px" y="0px"
	 width="96px" height="75px" viewBox="0 0 96 75" style="enable-background:new 0 0 96 75;" xml:space="preserve">
<style type="text/css">
	.st0{fill:#C69977;}
</style>
<title>ecommerce-2</title>
<desc>Created with Sketch.</desc>
<g>
	<path class="st0" d="M48,5C30.1,5,15.5,19.6,15.5,37.5S30.1,70,48,70s32.5-14.6,32.5-32.5C80.5,19.6,65.9,5,48,5z M48,67.3
		c-16.5,0-29.8-13.3-29.8-29.8S31.5,7.7,48,7.7S77.8,21,77.8,37.5C77.8,53.9,64.4,67.3,48,67.3z"/>
	<path class="st0" d="M58.8,29.4c-0.7,0-1.4,0.2-2,0.5c-1.1-1.8-3.5-2.4-5.4-1.4c-1-1.6-3-2.3-4.8-1.6v-7c0-2.2-1.8-4.1-4.1-4.1
		c-2.2,0-4.1,1.8-4.1,4.1v12.4c-0.4-0.2-0.9-0.2-1.4-0.2c-2.2,0-4.1,1.8-4.1,4.1v9.5c0,8.2,6.7,14.9,14.9,14.9s14.9-6.7,14.9-14.9
		V33.4C62.9,31.2,61.1,29.4,58.8,29.4z M60.2,45.6c0,6.7-5.5,12.2-12.2,12.2s-12.2-5.5-12.2-12.2v-9.5c0-0.7,0.6-1.4,1.4-1.4
		c0.7,0,1.4,0.6,1.4,1.4v4.1c0,0.7,0.6,1.4,1.4,1.4s1.4-0.6,1.4-1.4V19.9c0-0.7,0.6-1.4,1.4-1.4c0.7,0,1.4,0.6,1.4,1.4v14.9
		c0,0.7,0.6,1.4,1.4,1.4c0.7,0,1.4-0.6,1.4-1.4v-4.1c0-0.7,0.6-1.4,1.4-1.4s1.4,0.6,1.4,1.4v5.4c0,0.7,0.6,1.4,1.4,1.4
		c0.7,0,1.4-0.6,1.4-1.4v-4.1c0-0.7,0.6-1.4,1.4-1.4c0.7,0,1.4,0.6,1.4,1.4v5.4c0,0.7,0.6,1.4,1.4,1.4s1.4-0.6,1.4-1.4v-4.1
		c0-0.7,0.6-1.4,1.4-1.4c0.7,0,1.4,0.6,1.4,1.4V45.6z"/>
</g>
</svg>
