<?xml version="1.0" encoding="utf-8"?>
<!-- Generator: Adobe Illustrator 22.1.0, SVG Export Plug-In . SVG Version: 6.00 Build 0)  -->
<svg version="1.1" id="Layer_1" xmlns="http://www.w3.org/2000/svg" xmlns:xlink="http://www.w3.org/1999/xlink" x="0px" y="0px"
	 width="96px" height="75px" viewBox="0 0 96 75" style="enable-background:new 0 0 96 75;" xml:space="preserve">
<style type="text/css">
	.st0{fill:#C69977;}
</style>
<title>ecommerce-2</title>
<desc>Created with Sketch.</desc>
<g>
	<path class="st0" d="M71.6,24.4h-10l2.4-9.6c1-3.9-1.2-7.9-5.1-9.2l0,0c-3.3-1.1-6.9,0.1-8.9,3l-5,7.5L32.7,28.5h-1.1
		c-1.5-2.6-4.2-4.1-7.1-4.1h-4.1c-4.6,0-8.3,3.7-8.3,8.3v29c0,4.6,3.7,8.3,8.3,8.3h4.1c2.7,0,5.2-1.3,6.7-3.5l14,3.5h22.7
		c6,0,11.1-4.3,12.2-10.2L83.8,39c1.2-6.7-3.2-13.2-10-14.4C73.1,24.4,72.3,24.4,71.6,24.4z M24.4,65.7h-4.1c-2.3,0-4.1-1.9-4.1-4.1
		v-29c0-2.3,1.9-4.1,4.1-4.1h4.1c2.3,0,4.1,1.9,4.1,4.1v29C28.5,63.9,26.7,65.7,24.4,65.7z M79.7,38.2L76,58.9
		c-0.7,3.9-4.1,6.8-8.1,6.8H45.6l-12.9-3.2V32.6h1.7l1.2-1.2L48,19l0.3-0.3l0.2-0.3l5-7.5c1.1-1.7,3.3-2.1,5-1
		c1.3,0.8,1.9,2.4,1.5,3.9l-2.4,9.6l-1.3,5.1h15.2c4.6,0,8.3,3.7,8.3,8.3C79.9,37.3,79.8,37.8,79.7,38.2z"/>
</g>
</svg>
